<?xml version="1.0" encoding="UTF-8" standalone="no"?>
<!DOCTYPE svg PUBLIC "-//W3C//DTD SVG 1.1//EN" "http://www.w3.org/Graphics/SVG/1.1/DTD/svg11.dtd">
<svg width="100%" height="100%" viewBox="0 0 40 1247" version="1.1" xmlns="http://www.w3.org/2000/svg" xmlns:xlink="http://www.w3.org/1999/xlink" xml:space="preserve" xmlns:serif="http://www.serif.com/" style="fill-rule:evenodd;clip-rule:evenodd;stroke-linecap:round;stroke-linejoin:round;stroke-miterlimit:1.5;">
    <g transform="matrix(1,0,0,1,-6457,0)">
        <g id="Sevices_Alt">
        </g>
        <g id="Artboard1" transform="matrix(1,0,0,1,-0.281997,45.7664)">
            <rect x="6457.28" y="-45.766" width="39.905" height="1246.52" style="fill:none;"/>
            <clipPath id="_clip1">
                <rect x="6457.28" y="-45.766" width="39.905" height="1246.52"/>
            </clipPath>
            <g clip-path="url(#_clip1)">
                <g id="Accent" transform="matrix(-1.83697e-16,-1,1,-1.83697e-16,5862.52,3794.61)">
                    <path d="M3801.45,621.88L2593.62,614.995L3801.45,608.109C3802.42,605.469 3803.96,602.994 3806.07,600.879C3813.86,593.096 3826.52,593.096 3834.31,600.879C3842.09,608.663 3842.09,621.33 3834.31,629.112C3828.41,635.004 3819.72,636.429 3812.45,633.409C3810.14,632.44 3807.96,631.002 3806.07,629.112C3804.78,627.823 3803.72,626.412 3802.86,624.89C3802.3,623.92 3801.83,622.912 3801.45,621.88ZM3807.74,617.77C3807.8,618.052 3807.88,618.322 3807.95,618.593C3807.97,618.667 3807.99,618.728 3808.01,618.801C3808.12,619.133 3808.23,619.464 3808.37,619.795C3808.5,620.127 3808.64,620.459 3808.81,620.777C3808.86,620.875 3808.9,620.962 3808.96,621.048C3809.14,621.379 3809.33,621.711 3809.53,622.017C3809.76,622.374 3810.01,622.718 3810.3,623.05C3810.56,623.392 3810.86,623.711 3811.17,624.019C3811.46,624.313 3811.77,624.595 3812.09,624.84C3812.12,624.877 3812.17,624.927 3812.22,624.952C3812.47,625.173 3812.72,625.357 3812.99,625.528C3813.45,625.86 3813.95,626.142 3814.45,626.387C3814.75,626.547 3815.07,626.694 3815.39,626.816C3815.77,626.978 3816.16,627.124 3816.57,627.234C3816.89,627.333 3817.21,627.407 3817.53,627.481C3818.03,627.591 3818.54,627.663 3819.06,627.713C3819.44,627.75 3819.82,627.762 3820.19,627.762C3820.59,627.775 3821,627.737 3821.4,627.7C3822.28,627.615 3823.12,627.455 3823.96,627.186C3824.29,627.074 3824.62,626.965 3824.94,626.842C3825.39,626.657 3825.85,626.449 3826.29,626.203C3826.53,626.081 3826.77,625.945 3826.99,625.773C3827.11,625.724 3827.22,625.639 3827.33,625.553C3827.63,625.381 3827.91,625.173 3828.17,624.939C3828.23,624.902 3828.3,624.853 3828.35,624.779C3828.66,624.547 3828.94,624.289 3829.21,624.018C3834.2,619.035 3834.2,610.956 3829.21,605.974C3824.23,600.989 3816.15,600.989 3811.17,605.974C3810.88,606.256 3810.61,606.549 3810.37,606.869C3810.32,606.919 3810.28,606.954 3810.24,607.017C3810,607.311 3809.76,607.619 3809.56,607.925C3809.29,608.342 3809.03,608.772 3808.81,609.239C3808.64,609.558 3808.49,609.877 3808.37,610.197C3808.21,610.577 3808.06,610.969 3807.95,611.374C3807.84,611.755 3807.75,612.136 3807.67,612.541L3807.66,612.553C3807.58,612.897 3807.53,613.241 3807.51,613.584C3807.48,613.731 3807.48,613.878 3807.47,614.039C3807.45,614.284 3807.43,614.517 3807.43,614.763C3807.41,615.523 3807.47,616.273 3807.6,617.035C3807.63,617.291 3807.68,617.538 3807.74,617.77Z" style="fill:rgb(244,126,63);"/>
                </g>
            </g>
        </g>
        <g id="Portfolio-C" serif:id="Portfolio C">
        </g>
        <g id="Portfolio-A" serif:id="Portfolio A">
        </g>
        <g id="Portfolio-B" serif:id="Portfolio B">
        </g>
        <g id="Portfolio">
        </g>
        <g id="e-mail" serif:id="e mail">
        </g>
        <g id="Contact">
        </g>
        <g id="Info-Circle" serif:id="Info Circle">
        </g>
        <g id="Resume-Skewed" serif:id="Resume Skewed" transform="matrix(0.665768,0.151951,-0.151951,0.665768,2098.16,180.172)">
            <g id="Resume" transform="matrix(1,0,0,1,91.1932,58.1317)">
                <g id="Resume-Skewed1" serif:id="Resume Skewed">
                    <g id="Resume1" serif:id="Resume">
                        <g transform="matrix(1,0,0,1,5,-6.66666)">
                            <path d="M-826.127,539.181C-866.023,536.773 -905.919,534.366 -945.815,531.959C-937.667,558.86 -932.875,586.792 -932.316,614.916C-931.763,642.691 -935.369,670.461 -942.759,697.232C-904.993,705.473 -867.227,713.713 -829.46,721.954C-820.493,693.036 -814.677,663.05 -813.551,632.755C-812.376,601.108 -816.482,569.364 -826.127,539.181Z" style="fill:rgb(71,72,72);"/>
                            <g transform="matrix(1,0,0,1,-3.08011,-2.5)">
                                <g transform="matrix(0.984565,0,0,0.796706,107.308,138.564)">
                                    <path d="M-962.099,600.453C-983.4,598.102 -1004.7,595.785 -1026.01,593.509C-1026.12,590.39 -1025.48,587.244 -1024.62,584.261C-1023.03,578.729 -1020.48,573.101 -1016.6,568.793C-1014.01,565.932 -1010.36,563.488 -1006.34,564.484C-1005.53,564.685 -1004.76,565.01 -1004.03,565.422C-999.153,568.188 -993.631,568.554 -988.333,566.825C-983.336,565.194 -978.49,568.334 -975.101,571.753C-970.159,576.741 -966.671,583.279 -964.36,589.86C-963.174,593.239 -962.171,596.85 -962.099,600.453Z" style="fill:rgb(244,126,63);"/>
                                </g>
                                <g transform="matrix(1,0,0,1,122.169,23.6089)">
                                    <path d="M-1002.67,531.246C-993.765,531.79 -985.451,539.59 -983.818,548.253C-982.844,553.424 -984.567,559.018 -989.266,561.787C-990.214,562.346 -991.243,562.766 -992.309,563.039C-993.696,563.396 -995.139,563.504 -996.565,563.403C-1005.42,562.774 -1012.61,554.67 -1014.21,546.286C-1015.17,541.257 -1014.01,535.382 -1009.26,532.649C-1008.45,532.181 -1007.57,531.831 -1006.66,531.597C-1005.36,531.262 -1004,531.164 -1002.67,531.246Z" style="fill:rgb(244,126,63);"/>
                                </g>
                            </g>
                        </g>
                        <g>
                            <g transform="matrix(1,0,0,1,1.24465,0)">
                                <path d="M-903.749,626.149C-881.995,628.515 -860.245,630.915 -838.499,633.344" style="fill:none;stroke:rgb(244,126,63);stroke-width:7.32px;"/>
                            </g>
                            <g transform="matrix(1,0,0,1,1.24465,13.8785)">
                                <path d="M-904.735,626.836C-883.118,629.557 -861.505,632.31 -839.896,635.089" style="fill:none;stroke:rgb(244,126,63);stroke-width:7.32px;"/>
                            </g>
                            <g transform="matrix(1,0,0,1,1.44509,27.757)">
                                <path d="M-906.483,627.595C-885.028,630.727 -863.577,633.886 -842.129,637.066" style="fill:none;stroke:rgb(244,126,63);stroke-width:7.32px;"/>
                            </g>
                            <g transform="matrix(0.522237,0,0,1,-433.884,41.6355)">
                                <path d="M-906.948,628.379C-886.076,630.223 -865.204,632.073 -844.333,633.927" style="fill:none;stroke:rgb(244,126,63);stroke-width:9.18px;"/>
                            </g>
                        </g>
                    </g>
                </g>
            </g>
        </g>
    </g>
</svg>
