<?xml version="1.0" encoding="UTF-8" standalone="no"?>
<!DOCTYPE svg PUBLIC "-//W3C//DTD SVG 1.1//EN" "http://www.w3.org/Graphics/SVG/1.1/DTD/svg11.dtd">
<svg width="100%" height="100%" viewBox="0 0 1050 600" version="1.1" xmlns="http://www.w3.org/2000/svg" xmlns:xlink="http://www.w3.org/1999/xlink" xml:space="preserve" xmlns:serif="http://www.serif.com/" style="fill-rule:evenodd;clip-rule:evenodd;stroke-linejoin:round;stroke-miterlimit:2;">
    <g transform="matrix(0.763752,0,0,0.787969,-1582,-578.079)">
        <rect x="2022.25" y="686.042" width="1472.99" height="856.633" style="fill:white;"/>
    </g>
    <g transform="matrix(1,0,0,0.99232,0,4.89585)">
        <path d="M1087.5,-42.724L472.989,-42.724C722.094,98.055 651.416,269.167 228.623,656.547L1087.5,637.5L1087.5,-42.724Z" style="fill:rgb(255,112,0);"/>
    </g>
    <g id="Bruno" transform="matrix(0.943447,0,0,0.982793,38.69,-48.0003)">
        <g id="Bruno1" serif:id="Bruno" transform="matrix(0.265725,0,0,0.259895,-326.591,-161.845)">
            <g>
                <g transform="matrix(0.269322,0.0457969,-0.0438096,0.269322,3115.4,985.446)">
                    <circle cx="1093.52" cy="1116.9" r="309.245" style="fill:rgb(8,6,5);"/>
                </g>
                <g transform="matrix(0.485938,-0.640374,0.598494,0.474761,288.088,1640.62)">
                    <path d="M1105.76,832.364C1111.94,832.647 1127.56,810.063 1148.31,811.058C1166.46,811.928 1175.93,843.415 1182.27,844.271C1263.42,855.231 1270.99,881.914 1300.34,954.116C1318.88,999.727 1280.28,1063.99 1280.28,1124.75C1280.28,1203.56 1316.43,1257.04 1284.38,1314.79C1247.03,1382.09 1185.38,1426.14 1093.52,1426.14C976.008,1426.14 922.726,1385.51 908.05,1285.19C901.41,1239.81 960.62,1184.38 967.412,1112.8C973.815,1045.32 951.385,995.148 963.829,945.375C982.77,869.612 1060.89,830.31 1105.76,832.364Z" style="fill:rgb(8,6,5);"/>
                </g>
                <g transform="matrix(0.521652,0,0,0.521652,2146.72,959.89)">
                    <circle cx="1258.77" cy="1404.36" r="287.46" style="fill:rgb(8,6,5);"/>
                </g>
                <g transform="matrix(0.521652,0,0,0.521652,2111.38,1109.84)">
                    <circle cx="1258.77" cy="1404.36" r="287.46" style="fill:rgb(8,6,5);"/>
                </g>
                <g transform="matrix(0.521652,0,0,0.521652,1935.09,1053.26)">
                    <circle cx="1258.77" cy="1404.36" r="287.46" style="fill:rgb(8,6,5);"/>
                </g>
                <g transform="matrix(0.521652,0,0,0.521652,1785.13,1070.89)">
                    <circle cx="1258.77" cy="1404.36" r="287.46" style="fill:rgb(8,6,5);"/>
                </g>
                <g transform="matrix(0.521652,0,0,0.521652,1635.18,1070.89)">
                    <circle cx="1258.77" cy="1404.36" r="287.46" style="fill:rgb(8,6,5);"/>
                </g>
                <g transform="matrix(0.521652,0,0,0.521652,1388.57,1070.89)">
                    <circle cx="1258.77" cy="1404.36" r="287.46" style="fill:rgb(8,6,5);"/>
                </g>
                <g transform="matrix(0.521652,0,0,0.521652,1214.45,1070.89)">
                    <circle cx="1258.77" cy="1404.36" r="287.46" style="fill:rgb(8,6,5);"/>
                </g>
                <g transform="matrix(0.521652,0,0,0.521652,1256.24,1220.84)">
                    <circle cx="1258.77" cy="1404.36" r="287.46" style="fill:rgb(8,6,5);"/>
                </g>
                <g transform="matrix(0.521652,0,0,0.521652,1143.07,1267.41)">
                    <circle cx="1258.77" cy="1404.36" r="287.46" style="fill:rgb(8,6,5);"/>
                </g>
                <g transform="matrix(0.521652,0,0,0.521652,1067.2,1295.86)">
                    <circle cx="1258.77" cy="1404.36" r="287.46" style="fill:rgb(8,6,5);"/>
                </g>
                <g transform="matrix(0.521652,0,0,0.521652,1102.6,1171.74)">
                    <circle cx="1258.77" cy="1404.36" r="287.46" style="fill:rgb(8,6,5);"/>
                </g>
                <g transform="matrix(0.521652,0,0,0.521652,1306.82,1399.4)">
                    <circle cx="1258.77" cy="1404.36" r="287.46" style="fill:rgb(8,6,5);"/>
                </g>
                <g transform="matrix(0.521652,0,0,0.521652,1468.24,1286.38)">
                    <circle cx="1258.77" cy="1404.36" r="287.46" style="fill:rgb(8,6,5);"/>
                </g>
                <g transform="matrix(0.521652,0,0,0.521652,1556.15,1208.33)">
                    <circle cx="1258.77" cy="1404.36" r="287.46" style="fill:rgb(8,6,5);"/>
                </g>
                <g transform="matrix(0.521652,0,0,0.521652,1937.2,1445.81)">
                    <circle cx="1258.77" cy="1404.36" r="287.46" style="fill:rgb(8,6,5);"/>
                </g>
                <g transform="matrix(0.521652,0,0,0.521652,1822.54,1436.33)">
                    <circle cx="1258.77" cy="1404.36" r="287.46" style="fill:rgb(8,6,5);"/>
                </g>
                <g transform="matrix(0.521652,0,0,0.521652,1955.32,1483.74)">
                    <circle cx="1258.77" cy="1404.36" r="287.46" style="fill:rgb(8,6,5);"/>
                </g>
                <g transform="matrix(0.521652,0,0,0.521652,1655.41,1358.48)">
                    <circle cx="1258.77" cy="1404.36" r="287.46" style="fill:rgb(8,6,5);"/>
                </g>
                <g transform="matrix(0.521652,0,0,0.521652,1754.42,1189.5)">
                    <circle cx="1258.77" cy="1404.36" r="287.46" style="fill:rgb(8,6,5);"/>
                </g>
                <g transform="matrix(0.521652,0,0,0.521652,1839.76,1380.89)">
                    <circle cx="1258.77" cy="1404.36" r="287.46" style="fill:rgb(8,6,5);"/>
                </g>
                <g transform="matrix(0.36559,0,0,0.36559,1255.18,1195.2)">
                    <circle cx="1258.77" cy="1404.36" r="287.46" style="fill:rgb(8,6,5);"/>
                </g>
                <g transform="matrix(0.36559,0,0,0.36559,1194.17,1120.46)">
                    <circle cx="1258.77" cy="1404.36" r="287.46" style="fill:rgb(8,6,5);"/>
                </g>
                <g transform="matrix(0.521652,0,0,0.521652,1126.03,1447.82)">
                    <circle cx="1258.77" cy="1404.36" r="287.46" style="fill:rgb(8,6,5);"/>
                </g>
                <g transform="matrix(0.521652,0,0,0.521652,1228.42,1490.42)">
                    <circle cx="1258.77" cy="1404.36" r="287.46" style="fill:rgb(8,6,5);"/>
                </g>
                <g transform="matrix(0.521652,0,0,0.521652,1155.19,1574.75)">
                    <circle cx="1258.77" cy="1404.36" r="287.46" style="fill:rgb(8,6,5);"/>
                </g>
                <g transform="matrix(0.521652,0,0,0.521652,1106.29,1729.15)">
                    <circle cx="1258.77" cy="1404.36" r="287.46" style="fill:rgb(8,6,5);"/>
                </g>
                <g transform="matrix(0.521652,0,0,0.521652,1139.24,1792.74)">
                    <circle cx="1258.77" cy="1404.36" r="287.46" style="fill:rgb(8,6,5);"/>
                </g>
                <g transform="matrix(0.521652,0,0,0.521652,1185.43,1915.35)">
                    <circle cx="1258.77" cy="1404.36" r="287.46" style="fill:rgb(8,6,5);"/>
                </g>
                <g transform="matrix(0.431749,0,0,0.431749,1343.75,2191.62)">
                    <path d="M1258.77,1116.9C1417.42,1116.9 1546.23,1245.7 1546.23,1404.36C1546.23,1471.14 1746.38,1478.11 1703.5,1599.65C1701.12,1606.4 1719.79,1625.02 1715.84,1632.5C1711.95,1639.87 1685.45,1636.08 1679.89,1644.22C1635.74,1708.79 1343.28,1691.82 1258.77,1691.82C1100.11,1691.82 971.307,1563.01 971.307,1404.36C971.307,1245.7 1100.11,1116.9 1258.77,1116.9Z" style="fill:rgb(8,6,5);"/>
                </g>
                <g transform="matrix(0.521652,0,0,0.521652,1961.42,1220.84)">
                    <circle cx="1258.77" cy="1404.36" r="287.46" style="fill:rgb(8,6,5);"/>
                </g>
                <g transform="matrix(0.521652,0,0,0.521652,2085.04,1310.07)">
                    <circle cx="1258.77" cy="1404.36" r="287.46" style="fill:rgb(8,6,5);"/>
                </g>
                <g transform="matrix(0.521652,0,0,0.521652,2032.81,1460.03)">
                    <circle cx="1258.77" cy="1404.36" r="287.46" style="fill:rgb(8,6,5);"/>
                </g>
                <g transform="matrix(0.521652,0,0,0.521652,2085.04,1568.85)">
                    <circle cx="1258.77" cy="1404.36" r="287.46" style="fill:rgb(8,6,5);"/>
                </g>
                <g transform="matrix(0.521652,0,0,0.521652,2085.04,1680.8)">
                    <circle cx="1258.77" cy="1404.36" r="287.46" style="fill:rgb(8,6,5);"/>
                </g>
                <g transform="matrix(0.521652,0,0,0.521652,2143.81,1806.08)">
                    <circle cx="1258.77" cy="1404.36" r="287.46" style="fill:rgb(8,6,5);"/>
                </g>
                <g transform="matrix(0.521652,0,0,0.521652,2131.16,1912.76)">
                    <circle cx="1258.77" cy="1404.36" r="287.46" style="fill:rgb(8,6,5);"/>
                </g>
                <g transform="matrix(0.42638,0,0,0.425223,2304.77,2211.95)">
                    <path d="M1258.77,1116.9C1417.42,1116.9 1546.23,1245.7 1546.23,1404.36C1546.23,1480.69 1770.99,1470.3 1712.82,1615.84C1710.74,1621.04 1734.18,1635.84 1730.56,1644.42C1728.7,1648.84 1705.31,1642.57 1702.8,1659.52C1692.27,1730.77 1337.01,1691.82 1258.77,1691.82C1100.11,1691.82 971.307,1563.01 971.307,1404.36C971.307,1245.7 1100.11,1116.9 1258.77,1116.9Z" style="fill:rgb(8,6,5);"/>
                </g>
                <g transform="matrix(0.521652,0,0,0.92339,1961.42,-135.336)">
                    <circle cx="1763.28" cy="1724.5" r="320.138" style="fill:rgb(8,6,5);"/>
                </g>
                <g transform="matrix(0.514584,0.0875027,-0.148169,0.910878,2371.8,-393.749)">
                    <circle cx="1763.28" cy="1724.5" r="320.138" style="fill:rgb(8,6,5);"/>
                </g>
                <g transform="matrix(0.514584,0.0875027,-0.148169,0.910878,2266.21,-411.704)">
                    <circle cx="1763.28" cy="1724.5" r="320.138" style="fill:rgb(8,6,5);"/>
                </g>
                <g transform="matrix(0.514584,0.0875027,-0.112599,0.69221,2734.77,664.378)">
                    <circle cx="869.288" cy="998.937" r="323.061" style="fill:rgb(8,6,5);"/>
                </g>
                <g transform="matrix(0.514584,0.0875027,-0.108755,0.668578,2864.78,702.901)">
                    <circle cx="869.288" cy="998.937" r="323.061" style="fill:rgb(8,6,5);"/>
                </g>
                <g transform="matrix(0.443297,0.0753807,-0.104749,0.64395,3025.84,746.481)">
                    <path d="M869.288,675.877C1047.59,675.877 1038.11,846.327 1110.9,1017.52C1192.35,1209.1 1047.59,1322 869.288,1322C690.986,1322 546.227,1177.24 546.227,998.937C546.227,820.635 690.986,675.877 869.288,675.877Z" style="fill:rgb(8,6,5);"/>
                </g>
            </g>
            <g id="Bowtie" transform="matrix(1,0,0,1,-51.4792,-37.5252)">
                <g transform="matrix(0.195827,0.106883,-0.0642913,0.117792,2854.99,1494.13)">
                    <path d="M1258.77,1116.9C1496.4,1012.46 1327.28,1248.89 1327.28,1407.54C1327.28,1566.2 1414.88,1823.05 1258.77,1691.82C1116.27,1572.03 971.307,1563.01 971.307,1404.36C971.307,1245.7 1105.6,1184.22 1258.77,1116.9Z" style="fill:rgb(255,112,0);"/>
                </g>
                <g transform="matrix(0.087733,-0.137315,0.113084,0.0722516,2688.39,1834.75)">
                    <circle cx="1258.77" cy="1404.36" r="287.46" style="fill:rgb(255,112,0);"/>
                </g>
                <g transform="matrix(0.206673,0.112803,-0.0642913,0.117792,2727.73,1420.39)">
                    <path d="M1263.17,1131.05C1401.97,1269.04 1546.23,1245.7 1546.23,1404.36C1546.23,1563.01 1388.26,1604.79 1259.02,1765.23C1047.8,2027.46 1132.09,1588.13 1132.09,1429.48C1132.09,1270.82 989.025,858.514 1263.17,1131.05Z" style="fill:rgb(255,112,0);"/>
                </g>
            </g>
        </g>
        <g transform="matrix(0.150487,-0.214201,0.219005,0.147186,-112.088,302.695)">
            <rect x="1214.86" y="1377.86" width="22.821" height="222.507" style="fill:rgb(255,112,0);"/>
        </g>
        <g id="Ear" transform="matrix(-0.250714,-1.10676,1.10676,-0.250714,331.396,646.604)">
            <g transform="matrix(0.101369,6.66176e-18,-6.51561e-18,0.0991451,216.541,-0.650285)">
                <circle cx="1093.52" cy="1116.9" r="309.245" style="fill:rgb(8,6,5);"/>
            </g>
            <g transform="matrix(0.138616,0,0,0.135575,175.608,-50.3898)">
                <circle cx="1258.77" cy="1404.36" r="287.46" style="fill:rgb(8,6,5);"/>
            </g>
            <g transform="matrix(0.125021,0,0,0.122278,192.721,-26.2551)">
                <circle cx="1580.1" cy="1493.76" r="321.334" style="fill:rgb(8,6,5);"/>
            </g>
        </g>
    </g>
    <g id="Text" transform="matrix(1,0,0,1,12.3112,1.57166)">
        <g transform="matrix(0.382494,0,0,0.374102,-152.327,-383.152)">
            <g transform="matrix(481.114,0,0,481.114,2343.25,1601.56)">
                <path d="M0.275,-0.102C0.275,-0.074 0.263,-0.05 0.24,-0.03C0.216,-0.01 0.188,-0 0.155,-0L0.015,-0L0.015,-0.018L0.04,-0.018L0.04,-0.682L0.015,-0.682L0.015,-0.7L0.155,-0.7C0.188,-0.7 0.216,-0.69 0.24,-0.67C0.263,-0.65 0.275,-0.626 0.275,-0.598L0.275,-0.463C0.275,-0.419 0.252,-0.388 0.205,-0.37C0.252,-0.351 0.275,-0.319 0.275,-0.277L0.275,-0.102ZM0.235,-0.447L0.235,-0.614C0.235,-0.641 0.223,-0.662 0.199,-0.677C0.21,-0.665 0.215,-0.648 0.215,-0.628L0.215,-0.433C0.215,-0.413 0.21,-0.396 0.199,-0.384C0.223,-0.399 0.235,-0.42 0.235,-0.447ZM0.195,-0.419L0.195,-0.642C0.195,-0.653 0.191,-0.663 0.183,-0.67C0.175,-0.678 0.166,-0.682 0.155,-0.682L0.12,-0.682L0.12,-0.379L0.155,-0.379C0.166,-0.379 0.175,-0.383 0.183,-0.391C0.191,-0.398 0.195,-0.408 0.195,-0.419ZM0.08,-0.018L0.08,-0.682L0.06,-0.682L0.06,-0.018L0.08,-0.018ZM0.235,-0.086L0.235,-0.293C0.235,-0.32 0.223,-0.341 0.199,-0.356C0.21,-0.344 0.215,-0.327 0.215,-0.307L0.215,-0.072C0.215,-0.052 0.21,-0.035 0.199,-0.023C0.223,-0.038 0.235,-0.059 0.235,-0.086ZM0.195,-0.058L0.195,-0.321C0.195,-0.332 0.191,-0.341 0.183,-0.349C0.175,-0.357 0.166,-0.361 0.155,-0.361L0.12,-0.361L0.12,-0.018L0.155,-0.018C0.166,-0.018 0.175,-0.022 0.183,-0.03C0.191,-0.038 0.195,-0.047 0.195,-0.058Z" style="fill-rule:nonzero;"/>
            </g>
            <g transform="matrix(481.114,0,0,481.114,2490.07,1601.56)">
                <path d="M0.246,-0.361L0.168,-0.361L0.168,-0.467C0.168,-0.492 0.16,-0.505 0.144,-0.505C0.134,-0.505 0.123,-0.499 0.113,-0.488L0.113,-0.018L0.138,-0.018L0.138,-0L0.01,-0L0.01,-0.018L0.035,-0.018L0.035,-0.502L0.01,-0.502L0.01,-0.52L0.113,-0.52L0.113,-0.506C0.127,-0.519 0.146,-0.525 0.168,-0.525C0.22,-0.525 0.246,-0.494 0.246,-0.433L0.246,-0.361ZM0.207,-0.379L0.207,-0.45C0.207,-0.478 0.196,-0.496 0.175,-0.505C0.183,-0.497 0.187,-0.482 0.187,-0.459L0.187,-0.379L0.207,-0.379ZM0.074,-0.018L0.074,-0.502L0.054,-0.502L0.054,-0.018L0.074,-0.018Z" style="fill-rule:nonzero;"/>
            </g>
            <g transform="matrix(481.114,0,0,481.114,2615.75,1601.56)">
                <path d="M0.276,-0L0.173,-0L0.173,-0.014C0.158,-0.001 0.139,0.005 0.115,0.005C0.058,0.005 0.03,-0.026 0.03,-0.087L0.03,-0.502L0.005,-0.502L0.005,-0.52L0.108,-0.52L0.108,-0.053C0.108,-0.028 0.118,-0.015 0.137,-0.015C0.15,-0.015 0.161,-0.021 0.173,-0.032L0.173,-0.502L0.148,-0.502L0.148,-0.52L0.251,-0.52L0.251,-0.018L0.276,-0.018L0.276,-0ZM0.212,-0.018L0.212,-0.502L0.192,-0.502L0.192,-0.018L0.212,-0.018ZM0.088,-0.013C0.075,-0.026 0.069,-0.043 0.069,-0.066L0.069,-0.502L0.049,-0.502L0.049,-0.077C0.049,-0.041 0.062,-0.02 0.088,-0.013Z" style="fill-rule:nonzero;"/>
            </g>
            <g transform="matrix(481.114,0,0,481.114,2752.48,1601.56)">
                <path d="M0.281,-0L0.178,-0L0.178,-0.467C0.178,-0.492 0.168,-0.505 0.149,-0.505C0.136,-0.505 0.124,-0.499 0.113,-0.488L0.113,-0.018L0.138,-0.018L0.138,-0L0.01,-0L0.01,-0.018L0.035,-0.018L0.035,-0.502L0.01,-0.502L0.01,-0.52L0.113,-0.52L0.113,-0.506C0.127,-0.519 0.147,-0.525 0.171,-0.525C0.228,-0.525 0.256,-0.494 0.256,-0.433L0.256,-0.018L0.281,-0.018L0.281,-0ZM0.217,-0.018L0.217,-0.45C0.217,-0.478 0.206,-0.497 0.183,-0.506C0.192,-0.497 0.197,-0.481 0.197,-0.459L0.197,-0.018L0.217,-0.018ZM0.074,-0.018L0.074,-0.502L0.054,-0.502L0.054,-0.018L0.074,-0.018Z" style="fill-rule:nonzero;"/>
            </g>
            <g transform="matrix(481.114,0,0,481.114,2890.14,1601.56)">
                <path d="M0.251,-0.097C0.251,-0.069 0.24,-0.044 0.219,-0.025C0.198,-0.005 0.171,0.005 0.138,0.005C0.106,0.005 0.079,-0.005 0.057,-0.025C0.036,-0.044 0.025,-0.069 0.025,-0.097L0.025,-0.423C0.025,-0.451 0.036,-0.476 0.057,-0.495C0.079,-0.515 0.106,-0.525 0.138,-0.525C0.171,-0.525 0.198,-0.515 0.219,-0.495C0.24,-0.476 0.251,-0.451 0.251,-0.423L0.251,-0.097ZM0.212,-0.081L0.212,-0.439C0.212,-0.466 0.2,-0.488 0.176,-0.503C0.187,-0.492 0.192,-0.475 0.192,-0.453L0.192,-0.067C0.192,-0.045 0.187,-0.028 0.176,-0.017C0.2,-0.032 0.212,-0.054 0.212,-0.081ZM0.173,-0.053L0.173,-0.467C0.173,-0.493 0.161,-0.507 0.138,-0.507C0.115,-0.507 0.103,-0.493 0.103,-0.467L0.103,-0.053C0.103,-0.027 0.115,-0.013 0.138,-0.013C0.161,-0.013 0.173,-0.027 0.173,-0.053ZM0.077,-0.028C0.068,-0.041 0.064,-0.057 0.064,-0.078L0.064,-0.442C0.064,-0.463 0.068,-0.479 0.077,-0.492C0.055,-0.477 0.044,-0.456 0.044,-0.43L0.044,-0.09C0.044,-0.064 0.055,-0.043 0.077,-0.028Z" style="fill-rule:nonzero;"/>
            </g>
        </g>
        <g transform="matrix(0.302647,0,0,0.296007,-38.6618,-209.948)">
            <g transform="matrix(481.114,0,0,481.114,2327.31,1972.25)">
                <path d="M0.27,-0.097C0.27,-0.069 0.258,-0.045 0.235,-0.025C0.211,-0.005 0.183,0.005 0.15,0.005C0.117,0.005 0.089,-0.005 0.065,-0.025C0.042,-0.045 0.03,-0.069 0.03,-0.097L0.03,-0.603C0.03,-0.631 0.042,-0.655 0.065,-0.675C0.089,-0.695 0.117,-0.705 0.15,-0.705C0.183,-0.705 0.211,-0.695 0.235,-0.675C0.258,-0.655 0.27,-0.631 0.27,-0.603L0.27,-0.49L0.19,-0.49L0.19,-0.647C0.19,-0.658 0.186,-0.667 0.178,-0.675C0.17,-0.683 0.161,-0.687 0.15,-0.687C0.139,-0.687 0.129,-0.683 0.122,-0.675C0.114,-0.667 0.11,-0.658 0.11,-0.647L0.11,-0.053C0.11,-0.042 0.114,-0.033 0.122,-0.025C0.129,-0.017 0.139,-0.013 0.15,-0.013C0.161,-0.013 0.17,-0.017 0.178,-0.025C0.186,-0.033 0.19,-0.042 0.19,-0.053L0.19,-0.21L0.27,-0.21L0.27,-0.097ZM0.23,-0.508L0.23,-0.619C0.23,-0.646 0.218,-0.667 0.194,-0.682C0.205,-0.67 0.21,-0.653 0.21,-0.633L0.21,-0.508L0.23,-0.508ZM0.083,-0.03C0.074,-0.042 0.07,-0.059 0.07,-0.078L0.07,-0.622C0.07,-0.641 0.074,-0.657 0.083,-0.67C0.061,-0.655 0.05,-0.635 0.05,-0.61L0.05,-0.09C0.05,-0.065 0.061,-0.045 0.083,-0.03ZM0.23,-0.081L0.23,-0.192L0.21,-0.192L0.21,-0.067C0.21,-0.047 0.205,-0.03 0.194,-0.018C0.218,-0.033 0.23,-0.054 0.23,-0.081Z" style="fill-rule:nonzero;"/>
            </g>
            <g transform="matrix(481.114,0,0,481.114,2471.55,1972.25)">
                <path d="M0.139,-0L0.011,-0L0.011,-0.018L0.036,-0.018L0.036,-0.682L0.011,-0.682L0.011,-0.7L0.114,-0.7L0.114,-0.018L0.139,-0.018L0.139,-0ZM0.075,-0.018L0.075,-0.682L0.055,-0.682L0.055,-0.018L0.075,-0.018Z" style="fill-rule:nonzero;"/>
            </g>
            <g transform="matrix(481.114,0,0,481.114,2543.67,1972.25)">
                <path d="M0.264,-0L0.161,-0L0.161,-0.014C0.146,-0.001 0.128,0.005 0.105,0.005C0.05,0.005 0.022,-0.026 0.022,-0.087L0.022,-0.202C0.022,-0.267 0.06,-0.299 0.137,-0.299L0.161,-0.299L0.161,-0.467C0.161,-0.493 0.151,-0.507 0.132,-0.507C0.113,-0.507 0.103,-0.493 0.103,-0.467L0.103,-0.361L0.025,-0.361L0.025,-0.423C0.025,-0.454 0.035,-0.479 0.054,-0.497C0.073,-0.516 0.099,-0.525 0.132,-0.525C0.165,-0.525 0.191,-0.516 0.21,-0.497C0.229,-0.479 0.239,-0.454 0.239,-0.423L0.239,-0.018L0.264,-0.018L0.264,-0ZM0.077,-0.495C0.055,-0.48 0.044,-0.458 0.044,-0.43L0.044,-0.379L0.064,-0.379L0.064,-0.442C0.064,-0.465 0.068,-0.482 0.077,-0.495ZM0.2,-0.018L0.2,-0.442C0.2,-0.47 0.188,-0.491 0.165,-0.506C0.175,-0.494 0.18,-0.478 0.18,-0.456L0.18,-0.018L0.2,-0.018ZM0.161,-0.032L0.161,-0.281L0.138,-0.281C0.113,-0.281 0.1,-0.268 0.1,-0.241L0.1,-0.053C0.1,-0.028 0.109,-0.015 0.127,-0.015C0.138,-0.015 0.15,-0.021 0.161,-0.032ZM0.08,-0.013C0.067,-0.026 0.061,-0.043 0.061,-0.066L0.061,-0.219C0.061,-0.241 0.065,-0.258 0.074,-0.271C0.052,-0.26 0.041,-0.238 0.041,-0.207L0.041,-0.077C0.041,-0.041 0.054,-0.02 0.08,-0.013Z" style="fill-rule:nonzero;"/>
            </g>
            <g transform="matrix(481.114,0,0,481.114,2673.11,1972.25)">
                <path d="M0.246,-0.361L0.168,-0.361L0.168,-0.467C0.168,-0.492 0.16,-0.505 0.144,-0.505C0.134,-0.505 0.123,-0.499 0.113,-0.488L0.113,-0.018L0.138,-0.018L0.138,-0L0.01,-0L0.01,-0.018L0.035,-0.018L0.035,-0.502L0.01,-0.502L0.01,-0.52L0.113,-0.52L0.113,-0.506C0.127,-0.519 0.146,-0.525 0.168,-0.525C0.22,-0.525 0.246,-0.494 0.246,-0.433L0.246,-0.361ZM0.207,-0.379L0.207,-0.45C0.207,-0.478 0.196,-0.496 0.175,-0.505C0.183,-0.497 0.187,-0.482 0.187,-0.459L0.187,-0.379L0.207,-0.379ZM0.074,-0.018L0.074,-0.502L0.054,-0.502L0.054,-0.018L0.074,-0.018Z" style="fill-rule:nonzero;"/>
            </g>
            <g transform="matrix(481.114,0,0,481.114,2798.79,1972.25)">
                <path d="M0.277,-0L0.176,-0L0.111,-0.255L0.111,-0.018L0.136,-0.018L0.136,-0L0.008,-0L0.008,-0.018L0.033,-0.018L0.033,-0.682L0.008,-0.682L0.008,-0.7L0.111,-0.7L0.111,-0.289L0.211,-0.502L0.185,-0.502L0.185,-0.52L0.261,-0.52L0.261,-0.502L0.236,-0.502L0.162,-0.342L0.25,-0.018L0.277,-0.018L0.277,-0ZM0.072,-0.018L0.072,-0.682L0.052,-0.682L0.052,-0.018L0.072,-0.018ZM0.212,-0.018L0.14,-0.298L0.128,-0.269L0.192,-0.018L0.212,-0.018Z" style="fill-rule:nonzero;"/>
            </g>
            <g transform="matrix(481.114,0,0,481.114,2933.87,1972.25)">
                <path d="M0.239,-0.097C0.239,-0.068 0.229,-0.044 0.21,-0.025C0.189,-0.005 0.163,0.005 0.131,0.005C0.099,0.005 0.072,-0.005 0.052,-0.025C0.031,-0.044 0.021,-0.069 0.021,-0.097L0.021,-0.159L0.099,-0.159L0.099,-0.053C0.099,-0.027 0.11,-0.013 0.131,-0.013C0.151,-0.013 0.161,-0.027 0.161,-0.053L0.161,-0.13C0.161,-0.162 0.152,-0.187 0.134,-0.205L0.052,-0.286C0.031,-0.306 0.021,-0.336 0.021,-0.375L0.021,-0.423C0.021,-0.452 0.031,-0.476 0.051,-0.496C0.071,-0.515 0.097,-0.525 0.129,-0.525C0.161,-0.525 0.187,-0.515 0.207,-0.496C0.227,-0.476 0.237,-0.452 0.237,-0.423L0.237,-0.361L0.159,-0.361L0.159,-0.467C0.159,-0.493 0.149,-0.507 0.129,-0.507C0.109,-0.507 0.099,-0.493 0.099,-0.467L0.099,-0.398C0.099,-0.366 0.108,-0.341 0.126,-0.323L0.208,-0.242C0.229,-0.222 0.239,-0.192 0.239,-0.153L0.239,-0.097ZM0.198,-0.379L0.198,-0.439C0.198,-0.466 0.186,-0.488 0.162,-0.503C0.173,-0.491 0.178,-0.474 0.178,-0.453L0.178,-0.379L0.198,-0.379ZM0.2,-0.081L0.2,-0.14C0.2,-0.177 0.191,-0.204 0.172,-0.223L0.086,-0.309C0.069,-0.326 0.06,-0.353 0.06,-0.389L0.06,-0.442C0.06,-0.463 0.064,-0.479 0.073,-0.492C0.051,-0.477 0.04,-0.456 0.04,-0.43L0.04,-0.382C0.04,-0.345 0.049,-0.318 0.068,-0.299L0.154,-0.213C0.171,-0.196 0.18,-0.169 0.18,-0.133L0.18,-0.067C0.18,-0.046 0.175,-0.029 0.164,-0.017C0.188,-0.032 0.2,-0.054 0.2,-0.081ZM0.073,-0.028C0.064,-0.041 0.06,-0.057 0.06,-0.078L0.06,-0.141L0.04,-0.141L0.04,-0.09C0.04,-0.064 0.051,-0.043 0.073,-0.028Z" style="fill-rule:nonzero;"/>
            </g>
            <g transform="matrix(481.114,0,0,481.114,3058.85,1972.25)">
                <path d="M0.171,-0L0.146,-0C0.113,-0 0.087,-0.01 0.065,-0.03C0.044,-0.05 0.033,-0.074 0.033,-0.102L0.033,-0.502L0.008,-0.502L0.008,-0.52L0.033,-0.52L0.033,-0.665L0.111,-0.7L0.111,-0.52L0.167,-0.52L0.167,-0.502L0.111,-0.502L0.111,-0.058C0.111,-0.031 0.123,-0.018 0.146,-0.018L0.171,-0.018L0.171,-0ZM0.085,-0.033C0.076,-0.046 0.072,-0.062 0.072,-0.083L0.072,-0.662L0.052,-0.653L0.052,-0.095C0.052,-0.069 0.063,-0.048 0.085,-0.033Z" style="fill-rule:nonzero;"/>
            </g>
            <g transform="matrix(481.114,0,0,481.114,3146,1972.25)">
                <path d="M0.251,-0.097C0.251,-0.069 0.24,-0.044 0.219,-0.025C0.198,-0.005 0.171,0.005 0.138,0.005C0.106,0.005 0.079,-0.005 0.057,-0.025C0.036,-0.044 0.025,-0.069 0.025,-0.097L0.025,-0.423C0.025,-0.451 0.036,-0.476 0.057,-0.495C0.079,-0.515 0.106,-0.525 0.138,-0.525C0.171,-0.525 0.198,-0.515 0.219,-0.495C0.24,-0.476 0.251,-0.451 0.251,-0.423L0.251,-0.097ZM0.212,-0.081L0.212,-0.439C0.212,-0.466 0.2,-0.488 0.176,-0.503C0.187,-0.492 0.192,-0.475 0.192,-0.453L0.192,-0.067C0.192,-0.045 0.187,-0.028 0.176,-0.017C0.2,-0.032 0.212,-0.054 0.212,-0.081ZM0.173,-0.053L0.173,-0.467C0.173,-0.493 0.161,-0.507 0.138,-0.507C0.115,-0.507 0.103,-0.493 0.103,-0.467L0.103,-0.053C0.103,-0.027 0.115,-0.013 0.138,-0.013C0.161,-0.013 0.173,-0.027 0.173,-0.053ZM0.077,-0.028C0.068,-0.041 0.064,-0.057 0.064,-0.078L0.064,-0.442C0.064,-0.463 0.068,-0.479 0.077,-0.492C0.055,-0.477 0.044,-0.456 0.044,-0.43L0.044,-0.09C0.044,-0.064 0.055,-0.043 0.077,-0.028Z" style="fill-rule:nonzero;"/>
            </g>
            <g transform="matrix(481.114,0,0,481.114,3278.73,1972.25)">
                <path d="M0.281,-0L0.178,-0L0.178,-0.467C0.178,-0.492 0.168,-0.505 0.149,-0.505C0.136,-0.505 0.124,-0.499 0.113,-0.488L0.113,-0.018L0.138,-0.018L0.138,-0L0.01,-0L0.01,-0.018L0.035,-0.018L0.035,-0.502L0.01,-0.502L0.01,-0.52L0.113,-0.52L0.113,-0.506C0.127,-0.519 0.147,-0.525 0.171,-0.525C0.228,-0.525 0.256,-0.494 0.256,-0.433L0.256,-0.018L0.281,-0.018L0.281,-0ZM0.217,-0.018L0.217,-0.45C0.217,-0.478 0.206,-0.497 0.183,-0.506C0.192,-0.497 0.197,-0.481 0.197,-0.459L0.197,-0.018L0.217,-0.018ZM0.074,-0.018L0.074,-0.502L0.054,-0.502L0.054,-0.018L0.074,-0.018Z" style="fill-rule:nonzero;"/>
            </g>
        </g>
        <g transform="matrix(0.0964862,0,0,0.0943694,308.812,300.111)">
            <g transform="matrix(481.114,0,0,481.114,2327.31,1972.25)">
                <path d="M0.204,-0L0.211,-0.122L0.23,-0.637C0.15,-0.637 0.08,-0.635 0.02,-0.632C0.022,-0.646 0.022,-0.657 0.022,-0.667C0.101,-0.667 0.182,-0.667 0.265,-0.667L0.404,-0.667L0.478,-0.667C0.476,-0.654 0.476,-0.642 0.476,-0.632C0.436,-0.635 0.376,-0.637 0.296,-0.637L0.268,-0.637L0.248,-0.099C0.248,-0.091 0.248,-0.084 0.248,-0.076L0.248,-0C0.239,-0 0.232,-0 0.226,-0C0.219,-0 0.212,-0 0.204,-0Z" style="fill-rule:nonzero;"/>
            </g>
            <g transform="matrix(481.114,0,0,481.114,2554,1972.25)">
                <path d="M0.065,-0L0.08,-0.318C0.081,-0.349 0.083,-0.429 0.086,-0.558L0.089,-0.667C0.096,-0.666 0.103,-0.666 0.107,-0.666C0.113,-0.666 0.119,-0.666 0.126,-0.667L0.113,-0.381C0.121,-0.397 0.127,-0.409 0.133,-0.417C0.138,-0.426 0.145,-0.435 0.154,-0.445C0.163,-0.454 0.173,-0.462 0.183,-0.469C0.194,-0.475 0.205,-0.481 0.218,-0.486C0.231,-0.491 0.246,-0.495 0.263,-0.499C0.281,-0.502 0.299,-0.503 0.318,-0.503C0.347,-0.503 0.374,-0.5 0.399,-0.494C0.424,-0.488 0.446,-0.478 0.464,-0.464C0.482,-0.45 0.494,-0.433 0.501,-0.413C0.508,-0.393 0.511,-0.373 0.511,-0.354C0.511,-0.347 0.511,-0.338 0.511,-0.326C0.51,-0.308 0.509,-0.284 0.507,-0.253L0.499,-0.055C0.498,-0.042 0.497,-0.024 0.497,-0C0.488,-0 0.482,-0 0.477,-0C0.472,-0 0.466,-0 0.458,-0C0.461,-0.042 0.464,-0.084 0.466,-0.127L0.473,-0.246C0.475,-0.283 0.477,-0.315 0.477,-0.341C0.477,-0.372 0.471,-0.397 0.459,-0.417C0.448,-0.437 0.428,-0.451 0.401,-0.461C0.374,-0.471 0.345,-0.476 0.315,-0.476C0.295,-0.476 0.275,-0.474 0.255,-0.469C0.237,-0.465 0.221,-0.459 0.207,-0.452C0.196,-0.446 0.186,-0.439 0.176,-0.43C0.166,-0.421 0.157,-0.41 0.149,-0.397C0.14,-0.382 0.133,-0.366 0.127,-0.348C0.121,-0.332 0.117,-0.309 0.114,-0.281C0.112,-0.259 0.11,-0.217 0.107,-0.153L0.104,-0C0.095,-0 0.089,-0 0.084,-0C0.08,-0 0.074,-0 0.065,-0Z" style="fill-rule:nonzero;"/>
            </g>
            <g transform="matrix(481.114,0,0,481.114,2831.21,1972.25)">
                <path d="M0.431,-0.048C0.428,-0.036 0.426,-0.024 0.425,-0.011C0.398,-0.003 0.374,0.002 0.352,0.005C0.331,0.008 0.309,0.01 0.286,0.01C0.247,0.01 0.212,0.004 0.182,-0.006C0.152,-0.017 0.126,-0.034 0.105,-0.059C0.083,-0.083 0.068,-0.111 0.059,-0.141C0.05,-0.172 0.045,-0.205 0.045,-0.239C0.045,-0.284 0.053,-0.327 0.069,-0.366C0.084,-0.406 0.11,-0.438 0.146,-0.464C0.182,-0.49 0.226,-0.503 0.279,-0.503C0.316,-0.503 0.349,-0.497 0.378,-0.483C0.408,-0.47 0.431,-0.448 0.448,-0.417C0.464,-0.386 0.472,-0.35 0.472,-0.308C0.472,-0.3 0.472,-0.293 0.471,-0.286L0.084,-0.285C0.083,-0.264 0.082,-0.248 0.082,-0.237C0.082,-0.207 0.087,-0.177 0.096,-0.148C0.105,-0.119 0.119,-0.095 0.137,-0.075C0.155,-0.056 0.178,-0.041 0.203,-0.032C0.229,-0.022 0.256,-0.018 0.285,-0.018C0.329,-0.018 0.377,-0.028 0.431,-0.048ZM0.089,-0.312L0.437,-0.312C0.436,-0.334 0.435,-0.351 0.433,-0.363C0.43,-0.375 0.426,-0.388 0.42,-0.4C0.414,-0.413 0.406,-0.424 0.398,-0.433C0.389,-0.443 0.379,-0.45 0.367,-0.457C0.356,-0.463 0.343,-0.468 0.328,-0.471C0.314,-0.474 0.299,-0.476 0.283,-0.476C0.266,-0.476 0.249,-0.474 0.233,-0.47C0.216,-0.466 0.201,-0.461 0.187,-0.454C0.173,-0.447 0.161,-0.439 0.149,-0.428C0.137,-0.417 0.127,-0.406 0.119,-0.394C0.112,-0.381 0.106,-0.369 0.102,-0.358C0.098,-0.347 0.093,-0.332 0.089,-0.312Z" style="fill-rule:nonzero;"/>
            </g>
            <g transform="matrix(481.114,0,0,481.114,3193.92,1972.25)">
                <path d="M0.037,-0.02C0.037,-0.033 0.036,-0.047 0.034,-0.064C0.096,-0.035 0.152,-0.02 0.203,-0.02C0.232,-0.02 0.258,-0.025 0.282,-0.034C0.305,-0.044 0.323,-0.058 0.336,-0.076C0.349,-0.095 0.355,-0.116 0.355,-0.14C0.355,-0.153 0.353,-0.164 0.349,-0.175C0.345,-0.185 0.339,-0.196 0.329,-0.208C0.32,-0.219 0.307,-0.234 0.29,-0.251C0.272,-0.269 0.241,-0.297 0.196,-0.334L0.157,-0.366C0.144,-0.378 0.131,-0.39 0.119,-0.403C0.106,-0.416 0.096,-0.428 0.088,-0.439C0.08,-0.449 0.074,-0.459 0.07,-0.468C0.066,-0.477 0.062,-0.486 0.06,-0.496C0.058,-0.507 0.057,-0.518 0.057,-0.529C0.057,-0.555 0.064,-0.58 0.078,-0.602C0.092,-0.625 0.114,-0.643 0.142,-0.657C0.17,-0.67 0.206,-0.677 0.25,-0.677C0.28,-0.677 0.319,-0.672 0.366,-0.664C0.366,-0.651 0.368,-0.638 0.37,-0.623C0.34,-0.632 0.315,-0.638 0.295,-0.642C0.275,-0.645 0.256,-0.646 0.239,-0.646C0.206,-0.646 0.18,-0.641 0.159,-0.631C0.138,-0.62 0.122,-0.606 0.11,-0.588C0.099,-0.57 0.093,-0.552 0.093,-0.532C0.093,-0.522 0.095,-0.512 0.098,-0.502C0.101,-0.492 0.107,-0.482 0.114,-0.471C0.122,-0.461 0.131,-0.45 0.144,-0.438C0.156,-0.425 0.171,-0.411 0.188,-0.396C0.205,-0.38 0.227,-0.36 0.255,-0.336C0.283,-0.311 0.303,-0.294 0.315,-0.284C0.326,-0.273 0.337,-0.262 0.348,-0.251C0.358,-0.239 0.366,-0.227 0.373,-0.216C0.38,-0.204 0.384,-0.192 0.387,-0.18C0.391,-0.167 0.392,-0.154 0.392,-0.141C0.392,-0.11 0.384,-0.083 0.369,-0.06C0.353,-0.037 0.331,-0.019 0.301,-0.008C0.27,0.004 0.237,0.01 0.199,0.01C0.175,0.01 0.152,0.008 0.129,0.005C0.106,0.001 0.076,-0.007 0.037,-0.02Z" style="fill:white;fill-rule:nonzero;"/>
            </g>
            <g transform="matrix(481.114,0,0,481.114,3406.53,1972.25)">
                <path d="M0.26,-0.031C0.258,-0.021 0.256,-0.011 0.254,-0C0.228,0.007 0.204,0.01 0.182,0.01C0.163,0.01 0.147,0.008 0.132,0.004C0.118,-0 0.106,-0.008 0.097,-0.018C0.088,-0.029 0.082,-0.041 0.079,-0.053C0.076,-0.066 0.074,-0.08 0.074,-0.095C0.074,-0.097 0.074,-0.101 0.074,-0.107C0.075,-0.112 0.075,-0.125 0.076,-0.144L0.093,-0.467L0.032,-0.467C0.034,-0.476 0.034,-0.484 0.035,-0.493L0.094,-0.493C0.096,-0.514 0.097,-0.544 0.098,-0.585C0.111,-0.587 0.121,-0.589 0.13,-0.591C0.128,-0.539 0.127,-0.506 0.127,-0.493L0.273,-0.493C0.272,-0.484 0.271,-0.476 0.271,-0.467L0.125,-0.467L0.109,-0.132L0.109,-0.112C0.109,-0.085 0.112,-0.065 0.118,-0.053C0.125,-0.04 0.134,-0.031 0.145,-0.026C0.157,-0.02 0.169,-0.018 0.181,-0.018C0.19,-0.018 0.199,-0.018 0.209,-0.02C0.219,-0.021 0.236,-0.025 0.26,-0.031Z" style="fill:white;fill-rule:nonzero;"/>
            </g>
            <g transform="matrix(481.114,0,0,481.114,3539.02,1972.25)">
                <path d="M0.089,-0.441C0.091,-0.452 0.093,-0.465 0.094,-0.479C0.127,-0.489 0.156,-0.495 0.181,-0.498C0.205,-0.502 0.23,-0.503 0.255,-0.503C0.284,-0.503 0.311,-0.501 0.336,-0.496C0.361,-0.491 0.381,-0.482 0.397,-0.47C0.413,-0.459 0.423,-0.445 0.428,-0.43C0.433,-0.414 0.436,-0.399 0.436,-0.383C0.436,-0.367 0.435,-0.346 0.434,-0.321C0.433,-0.296 0.431,-0.269 0.429,-0.241C0.427,-0.212 0.425,-0.176 0.424,-0.134C0.422,-0.091 0.421,-0.06 0.421,-0.041L0.421,-0C0.413,-0 0.406,-0 0.401,-0C0.395,-0 0.389,-0 0.38,-0C0.385,-0.05 0.388,-0.09 0.39,-0.121C0.392,-0.152 0.393,-0.185 0.394,-0.221C0.395,-0.257 0.397,-0.29 0.399,-0.321C0.389,-0.312 0.381,-0.306 0.376,-0.302C0.37,-0.298 0.364,-0.294 0.358,-0.291C0.352,-0.288 0.344,-0.284 0.335,-0.281C0.326,-0.278 0.318,-0.275 0.311,-0.272C0.303,-0.27 0.285,-0.265 0.256,-0.257C0.227,-0.249 0.207,-0.243 0.194,-0.239C0.166,-0.23 0.145,-0.222 0.129,-0.214C0.113,-0.205 0.099,-0.195 0.088,-0.184C0.078,-0.175 0.071,-0.165 0.066,-0.155C0.061,-0.142 0.059,-0.129 0.059,-0.115C0.059,-0.094 0.065,-0.076 0.078,-0.06C0.09,-0.044 0.106,-0.033 0.126,-0.027C0.145,-0.021 0.168,-0.018 0.196,-0.018C0.209,-0.018 0.223,-0.018 0.235,-0.02C0.248,-0.021 0.26,-0.023 0.271,-0.026C0.282,-0.028 0.299,-0.033 0.32,-0.04C0.317,-0.027 0.314,-0.015 0.313,-0.002C0.286,0.003 0.265,0.006 0.248,0.008C0.232,0.009 0.216,0.01 0.202,0.01C0.174,0.01 0.149,0.008 0.126,0.003C0.103,-0.001 0.083,-0.009 0.068,-0.021C0.052,-0.034 0.041,-0.048 0.033,-0.064C0.026,-0.081 0.022,-0.098 0.022,-0.116C0.022,-0.129 0.024,-0.142 0.029,-0.155C0.033,-0.168 0.04,-0.18 0.05,-0.192C0.058,-0.202 0.068,-0.211 0.081,-0.219C0.096,-0.23 0.113,-0.239 0.132,-0.246C0.153,-0.254 0.176,-0.262 0.201,-0.269C0.208,-0.271 0.235,-0.278 0.282,-0.29C0.303,-0.296 0.323,-0.303 0.342,-0.311C0.36,-0.319 0.375,-0.331 0.386,-0.346C0.396,-0.36 0.401,-0.375 0.401,-0.391C0.401,-0.402 0.399,-0.412 0.394,-0.423C0.389,-0.433 0.38,-0.443 0.368,-0.452C0.355,-0.461 0.34,-0.467 0.321,-0.471C0.303,-0.474 0.283,-0.476 0.263,-0.476C0.239,-0.476 0.217,-0.475 0.196,-0.471C0.175,-0.468 0.157,-0.465 0.143,-0.461C0.129,-0.457 0.111,-0.45 0.089,-0.441Z" style="fill:white;fill-rule:nonzero;"/>
            </g>
            <g transform="matrix(481.114,0,0,481.114,3778.87,1972.25)">
                <path d="M0.059,-0L0.075,-0.298L0.08,-0.438C0.08,-0.464 0.081,-0.482 0.081,-0.493C0.089,-0.493 0.095,-0.493 0.1,-0.493C0.104,-0.493 0.11,-0.493 0.118,-0.493L0.112,-0.382C0.119,-0.397 0.125,-0.409 0.129,-0.417C0.134,-0.425 0.141,-0.433 0.149,-0.442C0.157,-0.451 0.167,-0.46 0.178,-0.468C0.189,-0.476 0.203,-0.483 0.218,-0.488C0.234,-0.493 0.25,-0.497 0.267,-0.5C0.284,-0.502 0.3,-0.503 0.316,-0.503C0.344,-0.503 0.37,-0.5 0.396,-0.494C0.422,-0.488 0.443,-0.477 0.46,-0.462C0.477,-0.447 0.489,-0.43 0.495,-0.41C0.501,-0.39 0.504,-0.369 0.504,-0.347C0.504,-0.337 0.504,-0.322 0.503,-0.302L0.493,-0.08L0.491,-0C0.484,-0 0.478,-0 0.472,-0C0.466,-0 0.459,-0 0.453,-0C0.456,-0.041 0.459,-0.08 0.461,-0.117L0.468,-0.242C0.47,-0.288 0.471,-0.321 0.471,-0.342C0.471,-0.363 0.468,-0.382 0.462,-0.399C0.456,-0.416 0.445,-0.43 0.43,-0.442C0.415,-0.453 0.397,-0.461 0.376,-0.466C0.355,-0.471 0.334,-0.474 0.312,-0.474C0.281,-0.474 0.254,-0.469 0.23,-0.461C0.207,-0.453 0.188,-0.441 0.171,-0.425C0.154,-0.409 0.14,-0.389 0.129,-0.365C0.121,-0.348 0.115,-0.323 0.111,-0.292C0.107,-0.264 0.104,-0.219 0.101,-0.157C0.099,-0.095 0.098,-0.043 0.098,-0C0.089,-0 0.083,-0 0.078,-0C0.074,-0 0.067,-0 0.059,-0Z" style="fill:white;fill-rule:nonzero;"/>
            </g>
            <g transform="matrix(481.114,0,0,481.114,4053.02,1972.25)">
                <path d="M0.484,0C0.475,0 0.469,-0 0.465,-0L0.445,-0L0.452,-0.124C0.444,-0.106 0.437,-0.091 0.43,-0.08C0.424,-0.068 0.415,-0.058 0.405,-0.047C0.395,-0.036 0.382,-0.027 0.367,-0.019C0.353,-0.01 0.336,-0.003 0.317,0.002C0.298,0.007 0.278,0.01 0.257,0.01C0.226,0.01 0.196,0.004 0.169,-0.007C0.141,-0.019 0.118,-0.035 0.099,-0.056C0.08,-0.077 0.066,-0.101 0.058,-0.129C0.05,-0.156 0.045,-0.185 0.045,-0.216C0.045,-0.257 0.053,-0.297 0.068,-0.335C0.084,-0.373 0.106,-0.406 0.135,-0.432C0.164,-0.458 0.197,-0.477 0.234,-0.487C0.271,-0.498 0.31,-0.503 0.351,-0.503C0.385,-0.503 0.421,-0.5 0.461,-0.493C0.463,-0.524 0.463,-0.553 0.463,-0.582C0.463,-0.607 0.463,-0.635 0.462,-0.667C0.47,-0.666 0.477,-0.666 0.482,-0.666C0.488,-0.666 0.494,-0.666 0.502,-0.667C0.499,-0.606 0.496,-0.542 0.494,-0.475L0.487,-0.238C0.485,-0.148 0.484,-0.088 0.484,-0.06L0.484,0ZM0.46,-0.459C0.436,-0.466 0.416,-0.471 0.399,-0.473C0.383,-0.475 0.366,-0.476 0.351,-0.476C0.315,-0.476 0.28,-0.471 0.247,-0.46C0.213,-0.45 0.184,-0.433 0.16,-0.41C0.135,-0.386 0.116,-0.357 0.102,-0.321C0.089,-0.285 0.082,-0.25 0.082,-0.215C0.082,-0.177 0.089,-0.142 0.104,-0.11C0.119,-0.079 0.14,-0.055 0.167,-0.04C0.194,-0.025 0.225,-0.018 0.258,-0.018C0.278,-0.018 0.296,-0.02 0.313,-0.025C0.329,-0.029 0.344,-0.036 0.357,-0.044C0.37,-0.053 0.383,-0.064 0.395,-0.078C0.406,-0.092 0.417,-0.109 0.426,-0.128C0.435,-0.147 0.441,-0.168 0.446,-0.191C0.45,-0.214 0.453,-0.249 0.454,-0.296L0.46,-0.459Z" style="fill:white;fill-rule:nonzero;"/>
            </g>
            <g transform="matrix(481.114,0,0,481.114,4324.59,1972.25)">
                <path d="M0.089,-0.441C0.091,-0.452 0.093,-0.465 0.094,-0.479C0.127,-0.489 0.156,-0.495 0.181,-0.498C0.205,-0.502 0.23,-0.503 0.255,-0.503C0.284,-0.503 0.311,-0.501 0.336,-0.496C0.361,-0.491 0.381,-0.482 0.397,-0.47C0.413,-0.459 0.423,-0.445 0.428,-0.43C0.433,-0.414 0.436,-0.399 0.436,-0.383C0.436,-0.367 0.435,-0.346 0.434,-0.321C0.433,-0.296 0.431,-0.269 0.429,-0.241C0.427,-0.212 0.425,-0.176 0.424,-0.134C0.422,-0.091 0.421,-0.06 0.421,-0.041L0.421,-0C0.413,-0 0.406,-0 0.401,-0C0.395,-0 0.389,-0 0.38,-0C0.385,-0.05 0.388,-0.09 0.39,-0.121C0.392,-0.152 0.393,-0.185 0.394,-0.221C0.395,-0.257 0.397,-0.29 0.399,-0.321C0.389,-0.312 0.381,-0.306 0.376,-0.302C0.37,-0.298 0.364,-0.294 0.358,-0.291C0.352,-0.288 0.344,-0.284 0.335,-0.281C0.326,-0.278 0.318,-0.275 0.311,-0.272C0.303,-0.27 0.285,-0.265 0.256,-0.257C0.227,-0.249 0.207,-0.243 0.194,-0.239C0.166,-0.23 0.145,-0.222 0.129,-0.214C0.113,-0.205 0.099,-0.195 0.088,-0.184C0.078,-0.175 0.071,-0.165 0.066,-0.155C0.061,-0.142 0.059,-0.129 0.059,-0.115C0.059,-0.094 0.065,-0.076 0.078,-0.06C0.09,-0.044 0.106,-0.033 0.126,-0.027C0.145,-0.021 0.168,-0.018 0.196,-0.018C0.209,-0.018 0.223,-0.018 0.235,-0.02C0.248,-0.021 0.26,-0.023 0.271,-0.026C0.282,-0.028 0.299,-0.033 0.32,-0.04C0.317,-0.027 0.314,-0.015 0.313,-0.002C0.286,0.003 0.265,0.006 0.248,0.008C0.232,0.009 0.216,0.01 0.202,0.01C0.174,0.01 0.149,0.008 0.126,0.003C0.103,-0.001 0.083,-0.009 0.068,-0.021C0.052,-0.034 0.041,-0.048 0.033,-0.064C0.026,-0.081 0.022,-0.098 0.022,-0.116C0.022,-0.129 0.024,-0.142 0.029,-0.155C0.033,-0.168 0.04,-0.18 0.05,-0.192C0.058,-0.202 0.068,-0.211 0.081,-0.219C0.096,-0.23 0.113,-0.239 0.132,-0.246C0.153,-0.254 0.176,-0.262 0.201,-0.269C0.208,-0.271 0.235,-0.278 0.282,-0.29C0.303,-0.296 0.323,-0.303 0.342,-0.311C0.36,-0.319 0.375,-0.331 0.386,-0.346C0.396,-0.36 0.401,-0.375 0.401,-0.391C0.401,-0.402 0.399,-0.412 0.394,-0.423C0.389,-0.433 0.38,-0.443 0.368,-0.452C0.355,-0.461 0.34,-0.467 0.321,-0.471C0.303,-0.474 0.283,-0.476 0.263,-0.476C0.239,-0.476 0.217,-0.475 0.196,-0.471C0.175,-0.468 0.157,-0.465 0.143,-0.461C0.129,-0.457 0.111,-0.45 0.089,-0.441Z" style="fill:white;fill-rule:nonzero;"/>
            </g>
            <g transform="matrix(481.114,0,0,481.114,4564.44,1972.25)">
                <path d="M0.059,-0C0.062,-0.069 0.066,-0.149 0.07,-0.242C0.073,-0.335 0.075,-0.404 0.075,-0.449L0.075,-0.493C0.081,-0.493 0.087,-0.493 0.093,-0.493C0.099,-0.493 0.105,-0.493 0.111,-0.493L0.106,-0.401C0.118,-0.423 0.128,-0.44 0.137,-0.451C0.147,-0.463 0.158,-0.472 0.17,-0.48C0.183,-0.487 0.197,-0.493 0.214,-0.497C0.231,-0.501 0.248,-0.503 0.267,-0.503C0.28,-0.503 0.293,-0.502 0.307,-0.499C0.307,-0.487 0.308,-0.476 0.309,-0.465C0.287,-0.471 0.268,-0.474 0.252,-0.474C0.237,-0.474 0.223,-0.472 0.21,-0.467C0.198,-0.463 0.186,-0.457 0.175,-0.449C0.164,-0.441 0.153,-0.429 0.143,-0.415C0.133,-0.401 0.125,-0.386 0.119,-0.37C0.113,-0.352 0.109,-0.329 0.106,-0.302C0.103,-0.261 0.101,-0.213 0.1,-0.16C0.098,-0.088 0.098,-0.035 0.098,-0C0.089,-0 0.083,-0 0.078,-0C0.074,-0 0.067,-0 0.059,-0Z" style="fill:white;fill-rule:nonzero;"/>
            </g>
            <g transform="matrix(481.114,0,0,481.114,4715.73,1972.25)">
                <path d="M0.484,0C0.475,0 0.469,-0 0.465,-0L0.445,-0L0.452,-0.124C0.444,-0.106 0.437,-0.091 0.43,-0.08C0.424,-0.068 0.415,-0.058 0.405,-0.047C0.395,-0.036 0.382,-0.027 0.367,-0.019C0.353,-0.01 0.336,-0.003 0.317,0.002C0.298,0.007 0.278,0.01 0.257,0.01C0.226,0.01 0.196,0.004 0.169,-0.007C0.141,-0.019 0.118,-0.035 0.099,-0.056C0.08,-0.077 0.066,-0.101 0.058,-0.129C0.05,-0.156 0.045,-0.185 0.045,-0.216C0.045,-0.257 0.053,-0.297 0.068,-0.335C0.084,-0.373 0.106,-0.406 0.135,-0.432C0.164,-0.458 0.197,-0.477 0.234,-0.487C0.271,-0.498 0.31,-0.503 0.351,-0.503C0.385,-0.503 0.421,-0.5 0.461,-0.493C0.463,-0.524 0.463,-0.553 0.463,-0.582C0.463,-0.607 0.463,-0.635 0.462,-0.667C0.47,-0.666 0.477,-0.666 0.482,-0.666C0.488,-0.666 0.494,-0.666 0.502,-0.667C0.499,-0.606 0.496,-0.542 0.494,-0.475L0.487,-0.238C0.485,-0.148 0.484,-0.088 0.484,-0.06L0.484,0ZM0.46,-0.459C0.436,-0.466 0.416,-0.471 0.399,-0.473C0.383,-0.475 0.366,-0.476 0.351,-0.476C0.315,-0.476 0.28,-0.471 0.247,-0.46C0.213,-0.45 0.184,-0.433 0.16,-0.41C0.135,-0.386 0.116,-0.357 0.102,-0.321C0.089,-0.285 0.082,-0.25 0.082,-0.215C0.082,-0.177 0.089,-0.142 0.104,-0.11C0.119,-0.079 0.14,-0.055 0.167,-0.04C0.194,-0.025 0.225,-0.018 0.258,-0.018C0.278,-0.018 0.296,-0.02 0.313,-0.025C0.329,-0.029 0.344,-0.036 0.357,-0.044C0.37,-0.053 0.383,-0.064 0.395,-0.078C0.406,-0.092 0.417,-0.109 0.426,-0.128C0.435,-0.147 0.441,-0.168 0.446,-0.191C0.45,-0.214 0.453,-0.249 0.454,-0.296L0.46,-0.459Z" style="fill:white;fill-rule:nonzero;"/>
            </g>
            <g transform="matrix(481.114,0,0,481.114,5107.58,1972.25)">
                <path d="M0.288,-0.503C0.318,-0.503 0.347,-0.499 0.375,-0.491C0.404,-0.482 0.429,-0.468 0.45,-0.448C0.472,-0.427 0.489,-0.401 0.5,-0.368C0.511,-0.335 0.517,-0.3 0.517,-0.263C0.517,-0.223 0.511,-0.185 0.499,-0.149C0.487,-0.112 0.47,-0.082 0.448,-0.057C0.426,-0.033 0.4,-0.015 0.37,-0.005C0.34,0.005 0.308,0.01 0.275,0.01C0.251,0.01 0.228,0.007 0.206,0.002C0.183,-0.004 0.162,-0.013 0.142,-0.025C0.123,-0.038 0.105,-0.055 0.091,-0.075C0.076,-0.095 0.065,-0.119 0.057,-0.146C0.049,-0.174 0.045,-0.203 0.045,-0.233C0.045,-0.285 0.055,-0.333 0.075,-0.377C0.094,-0.42 0.123,-0.452 0.162,-0.473C0.201,-0.493 0.243,-0.503 0.288,-0.503ZM0.287,-0.476C0.248,-0.476 0.212,-0.467 0.179,-0.448C0.146,-0.429 0.121,-0.4 0.105,-0.361C0.09,-0.323 0.082,-0.28 0.082,-0.234C0.082,-0.202 0.087,-0.171 0.095,-0.142C0.104,-0.114 0.119,-0.09 0.139,-0.07C0.159,-0.05 0.18,-0.037 0.203,-0.029C0.226,-0.021 0.25,-0.018 0.275,-0.018C0.304,-0.018 0.332,-0.022 0.357,-0.032C0.382,-0.041 0.405,-0.057 0.424,-0.079C0.443,-0.101 0.458,-0.128 0.467,-0.16C0.476,-0.193 0.48,-0.227 0.48,-0.263C0.48,-0.296 0.476,-0.328 0.467,-0.357C0.458,-0.387 0.444,-0.41 0.425,-0.428C0.406,-0.446 0.385,-0.458 0.361,-0.465C0.337,-0.472 0.312,-0.476 0.287,-0.476Z" style="fill-rule:nonzero;"/>
            </g>
            <g transform="matrix(481.114,0,0,481.114,5378.2,1972.25)">
                <path d="M0.07,-0L0.079,-0.173L0.087,-0.466L0.025,-0.466C0.027,-0.475 0.027,-0.484 0.028,-0.493L0.088,-0.493C0.09,-0.54 0.091,-0.568 0.092,-0.576C0.094,-0.593 0.097,-0.607 0.101,-0.617C0.105,-0.627 0.11,-0.635 0.116,-0.643C0.122,-0.65 0.13,-0.656 0.141,-0.662C0.151,-0.668 0.163,-0.673 0.177,-0.676C0.19,-0.68 0.206,-0.681 0.224,-0.681C0.234,-0.681 0.245,-0.681 0.256,-0.679C0.267,-0.678 0.282,-0.675 0.301,-0.671C0.301,-0.662 0.303,-0.65 0.305,-0.638C0.275,-0.648 0.247,-0.654 0.222,-0.654C0.208,-0.654 0.195,-0.652 0.184,-0.648C0.173,-0.644 0.164,-0.64 0.157,-0.635C0.15,-0.63 0.144,-0.623 0.139,-0.615C0.135,-0.607 0.131,-0.598 0.129,-0.588C0.127,-0.578 0.125,-0.564 0.124,-0.544C0.124,-0.541 0.124,-0.523 0.123,-0.493L0.268,-0.493C0.267,-0.485 0.266,-0.476 0.266,-0.466L0.122,-0.466L0.11,-0C0.102,-0 0.095,-0 0.09,-0C0.085,-0 0.078,-0 0.07,-0Z" style="fill-rule:nonzero;"/>
            </g>
            <g transform="matrix(481.114,0,0,481.114,5618.99,1972.25)">
                <path d="M0.073,-0C0.077,-0.055 0.081,-0.122 0.084,-0.201L0.094,-0.444C0.097,-0.528 0.098,-0.602 0.098,-0.667L0.195,-0.666L0.304,-0.667C0.336,-0.667 0.361,-0.665 0.381,-0.661C0.401,-0.657 0.419,-0.648 0.435,-0.635C0.451,-0.621 0.463,-0.604 0.471,-0.583C0.479,-0.563 0.483,-0.542 0.483,-0.52C0.483,-0.479 0.473,-0.444 0.452,-0.413C0.432,-0.382 0.404,-0.359 0.369,-0.343C0.334,-0.328 0.294,-0.32 0.25,-0.32C0.225,-0.32 0.197,-0.323 0.167,-0.329C0.164,-0.339 0.161,-0.349 0.157,-0.359C0.187,-0.353 0.216,-0.35 0.243,-0.35C0.271,-0.35 0.298,-0.353 0.324,-0.36C0.349,-0.366 0.371,-0.377 0.389,-0.391C0.407,-0.406 0.422,-0.425 0.432,-0.447C0.442,-0.47 0.447,-0.493 0.447,-0.518C0.447,-0.535 0.444,-0.551 0.438,-0.567C0.432,-0.583 0.423,-0.596 0.413,-0.606C0.402,-0.616 0.389,-0.623 0.373,-0.628C0.357,-0.633 0.33,-0.636 0.292,-0.636L0.208,-0.636L0.167,-0.636L0.138,-0.637C0.134,-0.559 0.13,-0.448 0.125,-0.304C0.12,-0.16 0.118,-0.076 0.118,-0.051L0.119,-0C0.11,-0 0.103,-0 0.096,-0C0.089,-0 0.081,-0 0.073,-0Z" style="fill-rule:nonzero;"/>
            </g>
            <g transform="matrix(481.114,0,0,481.114,5860.49,1972.25)">
                <path d="M0.288,-0.503C0.318,-0.503 0.347,-0.499 0.375,-0.491C0.404,-0.482 0.429,-0.468 0.45,-0.448C0.472,-0.427 0.489,-0.401 0.5,-0.368C0.511,-0.335 0.517,-0.3 0.517,-0.263C0.517,-0.223 0.511,-0.185 0.499,-0.149C0.487,-0.112 0.47,-0.082 0.448,-0.057C0.426,-0.033 0.4,-0.015 0.37,-0.005C0.34,0.005 0.308,0.01 0.275,0.01C0.251,0.01 0.228,0.007 0.206,0.002C0.183,-0.004 0.162,-0.013 0.142,-0.025C0.123,-0.038 0.105,-0.055 0.091,-0.075C0.076,-0.095 0.065,-0.119 0.057,-0.146C0.049,-0.174 0.045,-0.203 0.045,-0.233C0.045,-0.285 0.055,-0.333 0.075,-0.377C0.094,-0.42 0.123,-0.452 0.162,-0.473C0.201,-0.493 0.243,-0.503 0.288,-0.503ZM0.287,-0.476C0.248,-0.476 0.212,-0.467 0.179,-0.448C0.146,-0.429 0.121,-0.4 0.105,-0.361C0.09,-0.323 0.082,-0.28 0.082,-0.234C0.082,-0.202 0.087,-0.171 0.095,-0.142C0.104,-0.114 0.119,-0.09 0.139,-0.07C0.159,-0.05 0.18,-0.037 0.203,-0.029C0.226,-0.021 0.25,-0.018 0.275,-0.018C0.304,-0.018 0.332,-0.022 0.357,-0.032C0.382,-0.041 0.405,-0.057 0.424,-0.079C0.443,-0.101 0.458,-0.128 0.467,-0.16C0.476,-0.193 0.48,-0.227 0.48,-0.263C0.48,-0.296 0.476,-0.328 0.467,-0.357C0.458,-0.387 0.444,-0.41 0.425,-0.428C0.406,-0.446 0.385,-0.458 0.361,-0.465C0.337,-0.472 0.312,-0.476 0.287,-0.476Z" style="fill-rule:nonzero;"/>
            </g>
            <g transform="matrix(481.114,0,0,481.114,6131.12,1972.25)">
                <path d="M0.288,-0.503C0.318,-0.503 0.347,-0.499 0.375,-0.491C0.404,-0.482 0.429,-0.468 0.45,-0.448C0.472,-0.427 0.489,-0.401 0.5,-0.368C0.511,-0.335 0.517,-0.3 0.517,-0.263C0.517,-0.223 0.511,-0.185 0.499,-0.149C0.487,-0.112 0.47,-0.082 0.448,-0.057C0.426,-0.033 0.4,-0.015 0.37,-0.005C0.34,0.005 0.308,0.01 0.275,0.01C0.251,0.01 0.228,0.007 0.206,0.002C0.183,-0.004 0.162,-0.013 0.142,-0.025C0.123,-0.038 0.105,-0.055 0.091,-0.075C0.076,-0.095 0.065,-0.119 0.057,-0.146C0.049,-0.174 0.045,-0.203 0.045,-0.233C0.045,-0.285 0.055,-0.333 0.075,-0.377C0.094,-0.42 0.123,-0.452 0.162,-0.473C0.201,-0.493 0.243,-0.503 0.288,-0.503ZM0.287,-0.476C0.248,-0.476 0.212,-0.467 0.179,-0.448C0.146,-0.429 0.121,-0.4 0.105,-0.361C0.09,-0.323 0.082,-0.28 0.082,-0.234C0.082,-0.202 0.087,-0.171 0.095,-0.142C0.104,-0.114 0.119,-0.09 0.139,-0.07C0.159,-0.05 0.18,-0.037 0.203,-0.029C0.226,-0.021 0.25,-0.018 0.275,-0.018C0.304,-0.018 0.332,-0.022 0.357,-0.032C0.382,-0.041 0.405,-0.057 0.424,-0.079C0.443,-0.101 0.458,-0.128 0.467,-0.16C0.476,-0.193 0.48,-0.227 0.48,-0.263C0.48,-0.296 0.476,-0.328 0.467,-0.357C0.458,-0.387 0.444,-0.41 0.425,-0.428C0.406,-0.446 0.385,-0.458 0.361,-0.465C0.337,-0.472 0.312,-0.476 0.287,-0.476Z" style="fill-rule:nonzero;"/>
            </g>
            <g transform="matrix(481.114,0,0,481.114,6401.75,1972.25)">
                <path d="M0.484,0C0.475,0 0.469,-0 0.465,-0L0.445,-0L0.452,-0.124C0.444,-0.106 0.437,-0.091 0.43,-0.08C0.424,-0.068 0.415,-0.058 0.405,-0.047C0.395,-0.036 0.382,-0.027 0.367,-0.019C0.353,-0.01 0.336,-0.003 0.317,0.002C0.298,0.007 0.278,0.01 0.257,0.01C0.226,0.01 0.196,0.004 0.169,-0.007C0.141,-0.019 0.118,-0.035 0.099,-0.056C0.08,-0.077 0.066,-0.101 0.058,-0.129C0.05,-0.156 0.045,-0.185 0.045,-0.216C0.045,-0.257 0.053,-0.297 0.068,-0.335C0.084,-0.373 0.106,-0.406 0.135,-0.432C0.164,-0.458 0.197,-0.477 0.234,-0.487C0.271,-0.498 0.31,-0.503 0.351,-0.503C0.385,-0.503 0.421,-0.5 0.461,-0.493C0.463,-0.524 0.463,-0.553 0.463,-0.582C0.463,-0.607 0.463,-0.635 0.462,-0.667C0.47,-0.666 0.477,-0.666 0.482,-0.666C0.488,-0.666 0.494,-0.666 0.502,-0.667C0.499,-0.606 0.496,-0.542 0.494,-0.475L0.487,-0.238C0.485,-0.148 0.484,-0.088 0.484,-0.06L0.484,0ZM0.46,-0.459C0.436,-0.466 0.416,-0.471 0.399,-0.473C0.383,-0.475 0.366,-0.476 0.351,-0.476C0.315,-0.476 0.28,-0.471 0.247,-0.46C0.213,-0.45 0.184,-0.433 0.16,-0.41C0.135,-0.386 0.116,-0.357 0.102,-0.321C0.089,-0.285 0.082,-0.25 0.082,-0.215C0.082,-0.177 0.089,-0.142 0.104,-0.11C0.119,-0.079 0.14,-0.055 0.167,-0.04C0.194,-0.025 0.225,-0.018 0.258,-0.018C0.278,-0.018 0.296,-0.02 0.313,-0.025C0.329,-0.029 0.344,-0.036 0.357,-0.044C0.37,-0.053 0.383,-0.064 0.395,-0.078C0.406,-0.092 0.417,-0.109 0.426,-0.128C0.435,-0.147 0.441,-0.168 0.446,-0.191C0.45,-0.214 0.453,-0.249 0.454,-0.296L0.46,-0.459Z" style="fill-rule:nonzero;"/>
            </g>
            <g transform="matrix(481.114,0,0,481.114,6673.31,1972.25)">
                <path d="M0.062,-0C0.077,-0.271 0.086,-0.494 0.088,-0.667C0.097,-0.666 0.103,-0.666 0.108,-0.666C0.113,-0.666 0.12,-0.666 0.128,-0.667L0.116,-0.429L0.102,-0C0.094,-0 0.087,-0 0.082,-0C0.077,-0 0.07,-0 0.062,-0Z" style="fill-rule:nonzero;"/>
            </g>
            <g transform="matrix(481.114,0,0,481.114,6763.29,1972.25)">
                <path d="M0.431,-0.048C0.428,-0.036 0.426,-0.024 0.425,-0.011C0.398,-0.003 0.374,0.002 0.352,0.005C0.331,0.008 0.309,0.01 0.286,0.01C0.247,0.01 0.212,0.004 0.182,-0.006C0.152,-0.017 0.126,-0.034 0.105,-0.059C0.083,-0.083 0.068,-0.111 0.059,-0.141C0.05,-0.172 0.045,-0.205 0.045,-0.239C0.045,-0.284 0.053,-0.327 0.069,-0.366C0.084,-0.406 0.11,-0.438 0.146,-0.464C0.182,-0.49 0.226,-0.503 0.279,-0.503C0.316,-0.503 0.349,-0.497 0.378,-0.483C0.408,-0.47 0.431,-0.448 0.448,-0.417C0.464,-0.386 0.472,-0.35 0.472,-0.308C0.472,-0.3 0.472,-0.293 0.471,-0.286L0.084,-0.285C0.083,-0.264 0.082,-0.248 0.082,-0.237C0.082,-0.207 0.087,-0.177 0.096,-0.148C0.105,-0.119 0.119,-0.095 0.137,-0.075C0.155,-0.056 0.178,-0.041 0.203,-0.032C0.229,-0.022 0.256,-0.018 0.285,-0.018C0.329,-0.018 0.377,-0.028 0.431,-0.048ZM0.089,-0.312L0.437,-0.312C0.436,-0.334 0.435,-0.351 0.433,-0.363C0.43,-0.375 0.426,-0.388 0.42,-0.4C0.414,-0.413 0.406,-0.424 0.398,-0.433C0.389,-0.443 0.379,-0.45 0.367,-0.457C0.356,-0.463 0.343,-0.468 0.328,-0.471C0.314,-0.474 0.299,-0.476 0.283,-0.476C0.266,-0.476 0.249,-0.474 0.233,-0.47C0.216,-0.466 0.201,-0.461 0.187,-0.454C0.173,-0.447 0.161,-0.439 0.149,-0.428C0.137,-0.417 0.127,-0.406 0.119,-0.394C0.112,-0.381 0.106,-0.369 0.102,-0.358C0.098,-0.347 0.093,-0.332 0.089,-0.312Z" style="fill-rule:nonzero;"/>
            </g>
            <g transform="matrix(481.114,0,0,481.114,7005.72,1972.25)">
                <path d="M0.029,-0.01C0.029,-0.025 0.027,-0.039 0.025,-0.051C0.051,-0.04 0.075,-0.032 0.098,-0.027C0.121,-0.023 0.142,-0.021 0.161,-0.021C0.186,-0.021 0.207,-0.024 0.225,-0.031C0.243,-0.038 0.256,-0.049 0.265,-0.063C0.274,-0.077 0.279,-0.092 0.279,-0.107C0.279,-0.114 0.278,-0.12 0.277,-0.127C0.275,-0.133 0.273,-0.139 0.27,-0.146C0.266,-0.152 0.263,-0.158 0.259,-0.163C0.254,-0.169 0.249,-0.175 0.241,-0.181C0.234,-0.188 0.226,-0.196 0.216,-0.204C0.206,-0.213 0.191,-0.226 0.17,-0.243C0.149,-0.26 0.132,-0.275 0.118,-0.288C0.105,-0.3 0.094,-0.313 0.085,-0.326C0.076,-0.338 0.069,-0.35 0.066,-0.361C0.062,-0.372 0.06,-0.383 0.06,-0.394C0.06,-0.413 0.066,-0.431 0.078,-0.449C0.09,-0.466 0.107,-0.48 0.129,-0.489C0.151,-0.499 0.18,-0.503 0.214,-0.503C0.243,-0.503 0.275,-0.5 0.311,-0.492C0.311,-0.478 0.312,-0.464 0.313,-0.451C0.293,-0.459 0.274,-0.465 0.258,-0.469C0.241,-0.472 0.224,-0.473 0.208,-0.473C0.186,-0.473 0.167,-0.47 0.149,-0.464C0.131,-0.457 0.118,-0.448 0.109,-0.436C0.1,-0.424 0.095,-0.41 0.095,-0.396C0.095,-0.388 0.096,-0.381 0.098,-0.374C0.1,-0.367 0.103,-0.36 0.107,-0.353C0.112,-0.346 0.117,-0.339 0.124,-0.332C0.13,-0.325 0.139,-0.316 0.15,-0.307C0.16,-0.297 0.176,-0.284 0.196,-0.267C0.216,-0.25 0.23,-0.238 0.24,-0.229C0.25,-0.22 0.258,-0.213 0.265,-0.205C0.272,-0.198 0.279,-0.19 0.285,-0.182C0.292,-0.173 0.297,-0.165 0.301,-0.157C0.305,-0.148 0.308,-0.14 0.31,-0.132C0.312,-0.124 0.313,-0.115 0.313,-0.107C0.313,-0.086 0.306,-0.067 0.294,-0.049C0.282,-0.031 0.265,-0.016 0.242,-0.006C0.219,0.005 0.191,0.01 0.159,0.01C0.147,0.01 0.132,0.009 0.114,0.007C0.096,0.005 0.081,0.003 0.071,0.001C0.06,-0.001 0.046,-0.005 0.029,-0.01Z" style="fill-rule:nonzero;"/>
            </g>
        </g>
    </g>
</svg>
