<?xml version="1.0" encoding="UTF-8" standalone="no"?>
<!DOCTYPE svg PUBLIC "-//W3C//DTD SVG 1.1//EN" "http://www.w3.org/Graphics/SVG/1.1/DTD/svg11.dtd">
<svg width="100%" height="100%" viewBox="0 0 243 27" version="1.1" xmlns="http://www.w3.org/2000/svg" xmlns:xlink="http://www.w3.org/1999/xlink" xml:space="preserve" xmlns:serif="http://www.serif.com/" style="fill-rule:evenodd;clip-rule:evenodd;stroke-linejoin:round;stroke-miterlimit:2;">
    <g transform="matrix(1.00793,0,0,1.0601,0,0)">
        <rect id="Artboard1" x="0" y="0" width="241" height="25" style="fill:none;"/>
        <g id="Artboard11" serif:id="Artboard1">
            <path d="M241,12.5C241,5.601 235.109,0 227.853,0L13.147,0C5.891,0 0,5.601 0,12.5C0,19.399 5.891,25 13.147,25L227.853,25C235.109,25 241,19.399 241,12.5Z"/>
            <g transform="matrix(0.992128,0,0,0.94331,0.888358,1.1783)">
                <path d="M38.707,14.163C38.707,14.23 38.675,14.263 38.675,14.329L38.675,14.363C38.675,14.429 38.642,14.462 38.642,14.529C38.642,14.595 38.61,14.629 38.61,14.695C38.61,14.762 38.577,14.795 38.577,14.861C38.577,14.895 38.545,14.928 38.545,14.961C38.512,15.061 38.48,15.194 38.447,15.294C38.415,15.36 38.415,15.393 38.382,15.46C38.35,15.526 38.35,15.56 38.317,15.626C38.317,15.626 38.317,15.659 38.285,15.659L38.285,15.693C38.285,15.726 38.285,15.726 38.252,15.759C38.22,15.826 38.187,15.892 38.155,15.958C38.122,16.025 38.122,16.058 38.09,16.125L38.09,16.191C38.058,16.291 38.025,16.357 37.96,16.457C37.928,16.49 37.928,16.557 37.895,16.59C37.895,16.623 37.863,16.623 37.863,16.657C37.83,16.756 37.765,16.823 37.733,16.923C37.733,16.956 37.7,16.989 37.7,16.989C37.668,17.022 37.668,17.056 37.635,17.089C37.538,17.255 37.44,17.421 37.343,17.588C34.355,22.076 28.379,23.273 23.995,20.214C23.638,19.981 23.28,19.682 22.956,19.383L24.742,16.657C25.034,16.989 25.391,17.255 25.749,17.521C25.781,17.554 25.814,17.554 25.846,17.588C26.138,17.787 26.431,17.953 26.723,18.086C27.113,18.286 27.535,18.419 27.957,18.518C27.99,18.518 28.022,18.518 28.055,18.552C28.477,18.651 28.931,18.685 29.354,18.685C32.342,18.685 34.875,16.59 35.589,13.764C35.687,13.432 35.719,13.066 35.752,12.734L35.752,12.7C35.947,10.373 34.94,8.046 32.959,6.649C31.854,5.885 30.555,5.519 29.256,5.519C29.094,5.519 28.931,5.519 28.769,5.552L28.704,5.552C28.574,5.552 28.477,5.585 28.347,5.585C28.249,5.619 28.119,5.619 28.022,5.652L27.99,5.652C27.665,5.718 27.34,5.818 27.048,5.918C24.872,6.749 23.183,8.711 22.826,11.071L22.793,11.337L19.643,11.204L19.675,10.872C19.805,9.741 20.098,8.677 20.585,7.68C20.585,7.647 20.617,7.614 20.617,7.614C20.909,6.982 21.299,6.383 21.754,5.818L21.786,5.785L21.981,5.552C23.54,3.724 25.684,2.66 27.957,2.361C28.412,2.294 28.899,2.261 29.354,2.261C34.063,2.261 37.993,5.752 38.805,10.34L38.805,10.373C38.837,10.506 38.837,10.606 38.869,10.739C38.869,10.805 38.869,10.872 38.902,10.905C38.902,11.005 38.934,11.071 38.934,11.171C38.934,11.271 38.967,11.37 38.967,11.47L38.967,12.102C38.934,12.7 38.869,13.432 38.707,14.163ZM22.209,13.232C22.079,14.363 21.786,15.427 21.299,16.391C21.299,16.424 21.267,16.457 21.267,16.49C20.974,17.122 20.585,17.721 20.13,18.286L20.098,18.319L19.903,18.552C18.344,20.38 16.2,21.444 13.927,21.743C13.472,21.81 12.985,21.843 12.53,21.843C7.821,21.843 3.891,18.352 3.079,13.764L3.079,13.731C3.047,13.598 3.047,13.465 3.014,13.365C3.014,13.299 3.014,13.232 2.982,13.199C2.982,13.099 2.949,13.033 2.949,12.933C2.949,12.833 2.917,12.734 2.917,12.634L2.917,12.002C2.917,11.304 2.982,10.573 3.144,9.874C3.144,9.808 3.177,9.741 3.177,9.708L3.177,9.675C3.177,9.608 3.209,9.575 3.209,9.509C3.209,9.442 3.242,9.409 3.242,9.342C3.242,9.276 3.274,9.243 3.274,9.176C3.274,9.143 3.307,9.11 3.307,9.076C3.339,8.977 3.372,8.844 3.404,8.744C3.437,8.677 3.437,8.644 3.469,8.578C3.502,8.511 3.502,8.478 3.534,8.411C3.534,8.411 3.534,8.378 3.567,8.378L3.567,8.345C3.567,8.312 3.567,8.312 3.599,8.312C3.631,8.245 3.664,8.179 3.696,8.112C3.729,8.046 3.729,8.012 3.761,7.946L3.761,7.879C3.794,7.78 3.826,7.713 3.891,7.614C3.924,7.58 3.924,7.514 3.956,7.481C3.956,7.447 3.989,7.414 3.989,7.414C4.021,7.348 4.086,7.248 4.119,7.181C4.119,7.148 4.151,7.115 4.151,7.115C4.184,7.082 4.184,7.048 4.216,7.015C4.314,6.849 4.411,6.683 4.508,6.516C7.496,2.028 13.472,0.831 17.857,3.89C18.214,4.123 18.571,4.422 18.896,4.721L17.11,7.447C16.817,7.115 16.46,6.849 16.103,6.583C16.07,6.55 16.038,6.55 16.038,6.55C15.746,6.35 15.453,6.184 15.161,6.051C14.771,5.851 14.349,5.718 13.927,5.619C13.894,5.619 13.862,5.619 13.829,5.585C13.407,5.486 12.953,5.452 12.53,5.452C9.542,5.452 7.009,7.547 6.295,10.373C6.197,10.706 6.165,11.071 6.132,11.404L6.132,11.437C5.937,13.764 6.944,16.091 8.925,17.488C10.03,18.253 11.329,18.618 12.628,18.618C12.79,18.618 12.953,18.618 13.115,18.585L13.147,18.585C13.277,18.585 13.375,18.552 13.505,18.552C13.602,18.518 13.732,18.518 13.829,18.485L13.862,18.485C14.187,18.419 14.511,18.319 14.804,18.219C16.98,17.388 18.669,15.427 19.058,13.066L19.091,12.8L22.241,12.933L22.209,13.232ZM29.548,0C26.138,0 23.085,1.496 20.942,3.857C18.798,1.496 15.746,0 12.335,0C5.872,0 0.611,5.386 0.611,12.002C0.611,18.618 5.872,24.004 12.335,24.004C15.746,24.004 18.798,22.508 20.942,20.148C23.085,22.508 26.138,24.004 29.548,24.004C36.011,24.004 41.273,18.618 41.273,12.002C41.24,5.386 36.011,0 29.548,0Z" style="fill:white;fill-rule:nonzero;"/>
            </g>
            <g transform="matrix(0.992128,0,0,0.94331,1.21958,0.773047)">
                <path d="M56.829,22.176C55.465,22.176 54.231,21.91 53.094,21.411C51.958,20.913 50.983,20.214 50.139,19.317C49.295,18.419 48.645,17.388 48.19,16.191C47.736,14.995 47.476,13.698 47.476,12.335L47.476,12.268C47.476,10.939 47.703,9.642 48.19,8.445C48.645,7.248 49.327,6.184 50.139,5.287C50.983,4.389 51.958,3.691 53.127,3.159C54.296,2.627 55.53,2.394 56.894,2.394C57.739,2.394 58.518,2.461 59.2,2.627C59.882,2.76 60.532,2.992 61.116,3.225C61.701,3.491 62.253,3.824 62.74,4.189C63.227,4.555 63.715,4.987 64.169,5.419L62.74,7.015C61.928,6.251 61.084,5.619 60.175,5.12C59.265,4.622 58.161,4.389 56.894,4.389C55.855,4.389 54.913,4.588 54.036,4.987C53.159,5.386 52.38,5.951 51.763,6.65C51.113,7.348 50.594,8.179 50.236,9.143C49.879,10.107 49.684,11.105 49.684,12.202L49.684,12.268C49.684,13.366 49.879,14.396 50.236,15.36C50.594,16.324 51.113,17.156 51.763,17.854C52.412,18.552 53.159,19.117 54.036,19.516C54.913,19.915 55.855,20.115 56.894,20.115C58.161,20.115 59.265,19.882 60.207,19.383C61.116,18.918 62.026,18.22 62.935,17.355L64.332,18.751C63.844,19.25 63.357,19.716 62.838,20.115C62.318,20.514 61.766,20.879 61.149,21.178C60.564,21.478 59.915,21.71 59.2,21.843C58.453,22.076 57.674,22.176 56.829,22.176Z" style="fill:white;fill-rule:nonzero;"/>
            </g>
            <g transform="matrix(0.992128,0,0,0.94331,1.21958,0.773047)">
                <path d="M76.088,13.964C76.023,13.332 75.893,12.734 75.699,12.168C75.471,11.603 75.211,11.104 74.822,10.672C74.464,10.24 74.01,9.907 73.49,9.642C72.971,9.376 72.353,9.276 71.704,9.276C71.119,9.276 70.567,9.409 70.048,9.642C69.528,9.874 69.073,10.207 68.683,10.639C68.294,11.071 67.969,11.57 67.709,12.135C67.449,12.7 67.287,13.332 67.222,14.03L76.088,14.03L76.088,13.964ZM67.807,17.621C68.099,18.219 68.456,18.685 68.911,19.084C69.366,19.483 69.853,19.782 70.405,19.981C70.957,20.181 71.542,20.281 72.126,20.281C73.1,20.281 73.912,20.114 74.594,19.749C75.276,19.383 75.893,18.917 76.478,18.319L77.745,19.483C77.063,20.281 76.251,20.912 75.374,21.411C74.497,21.876 73.393,22.142 72.061,22.142C71.119,22.142 70.242,21.976 69.398,21.61C68.554,21.245 67.839,20.746 67.222,20.114C66.605,19.483 66.118,18.685 65.76,17.787C65.403,16.889 65.208,15.892 65.208,14.795C65.208,13.764 65.371,12.833 65.696,11.935C66.02,11.038 66.475,10.24 67.06,9.608C67.644,8.943 68.326,8.411 69.138,8.046C69.95,7.68 70.827,7.48 71.801,7.48C72.808,7.48 73.717,7.68 74.529,8.079C75.341,8.478 75.991,9.01 76.543,9.675C77.095,10.34 77.517,11.138 77.81,12.035C78.102,12.933 78.232,13.93 78.232,14.961L78.232,15.293C78.232,15.393 78.232,15.526 78.199,15.692L67.287,15.692C67.319,16.391 67.514,17.056 67.807,17.621Z" style="fill:white;fill-rule:nonzero;"/>
            </g>
            <g transform="matrix(0.992128,0,0,0.94331,1.21958,0.773047)">
                <path d="M80.44,7.746L82.486,7.746L82.486,10.207C82.941,9.442 83.558,8.81 84.305,8.245C85.052,7.713 86.026,7.447 87.196,7.447C88.04,7.447 88.754,7.58 89.404,7.846C90.054,8.112 90.606,8.511 91.06,9.01C91.515,9.509 91.872,10.107 92.1,10.805C92.327,11.503 92.457,12.268 92.457,13.099L92.457,21.843L90.411,21.843L90.411,13.598C90.411,12.301 90.086,11.237 89.436,10.473C88.787,9.708 87.845,9.309 86.611,9.309C86.026,9.309 85.474,9.409 84.987,9.608C84.467,9.808 84.045,10.107 83.655,10.506C83.298,10.905 83.006,11.37 82.779,11.902C82.584,12.434 82.486,13.066 82.486,13.698L82.486,21.777L80.44,21.777L80.44,7.746Z" style="fill:white;fill-rule:nonzero;"/>
            </g>
            <g transform="matrix(0.992128,0,0,0.94331,1.21958,0.773047)">
                <path d="M100.122,22.076C99.569,22.076 99.05,22.009 98.563,21.843C98.076,21.71 97.686,21.477 97.329,21.145C96.971,20.812 96.711,20.413 96.517,19.915C96.322,19.416 96.224,18.784 96.224,18.086L96.224,9.608L94.308,9.608L94.308,7.713L96.224,7.713L96.224,3.458L98.27,3.458L98.27,7.713L102.622,7.713L102.622,9.608L98.27,9.608L98.27,17.853C98.27,18.718 98.498,19.35 98.92,19.682C99.342,20.014 99.894,20.214 100.609,20.214C100.966,20.214 101.291,20.181 101.616,20.114C101.94,20.048 102.265,19.915 102.622,19.715L102.622,21.511C102.265,21.71 101.875,21.876 101.486,21.976C101.063,22.043 100.609,22.076 100.122,22.076Z" style="fill:white;fill-rule:nonzero;"/>
            </g>
            <g transform="matrix(0.992128,0,0,0.94331,1.21958,0.773047)">
                <path d="M104.928,7.747L106.974,7.747L106.974,11.437C107.234,10.872 107.526,10.307 107.916,9.841C108.273,9.342 108.728,8.943 109.183,8.578C109.67,8.212 110.19,7.946 110.742,7.747C111.294,7.547 111.911,7.481 112.593,7.514L112.593,9.775L112.431,9.775C111.684,9.775 110.969,9.908 110.319,10.174C109.637,10.44 109.085,10.839 108.566,11.404C108.079,11.936 107.689,12.634 107.397,13.432C107.104,14.23 106.974,15.161 106.974,16.224L106.974,21.843L104.928,21.843L104.928,7.747Z" style="fill:white;fill-rule:nonzero;"/>
            </g>
            <g transform="matrix(0.992128,0,0,0.94331,1.21958,0.773047)">
                <path d="M114.574,7.747L116.62,7.747L116.62,21.843L114.574,21.843L114.574,7.747ZM114.412,2.361L116.75,2.361L116.75,4.688L114.412,4.688L114.412,2.361Z" style="fill:white;fill-rule:nonzero;"/>
            </g>
            <g transform="matrix(0.992128,0,0,0.94331,1.21958,0.773047)">
                <path d="M126.234,22.176C125.227,22.176 124.285,21.976 123.441,21.577C122.596,21.178 121.849,20.646 121.2,19.981C120.583,19.316 120.063,18.552 119.738,17.654C119.381,16.756 119.219,15.825 119.219,14.861L119.219,14.795C119.219,13.797 119.381,12.867 119.738,11.969C120.095,11.071 120.583,10.307 121.2,9.642C121.817,8.977 122.564,8.445 123.441,8.046C124.317,7.647 125.227,7.447 126.234,7.447C126.883,7.447 127.5,7.514 128.02,7.647C128.539,7.78 129.027,7.946 129.481,8.179C129.936,8.411 130.326,8.677 130.715,9.01C131.073,9.309 131.43,9.642 131.755,10.007L130.391,11.47C129.839,10.905 129.254,10.406 128.604,9.974C127.955,9.542 127.175,9.342 126.234,9.342C125.552,9.342 124.902,9.475 124.285,9.775C123.668,10.041 123.148,10.44 122.726,10.938C122.271,11.437 121.947,12.002 121.687,12.667C121.427,13.332 121.33,14.03 121.33,14.795L121.33,14.861C121.33,15.626 121.459,16.324 121.719,16.989C121.979,17.654 122.336,18.219 122.791,18.718C123.246,19.217 123.765,19.616 124.415,19.882C125.032,20.148 125.714,20.314 126.396,20.314C127.273,20.314 128.052,20.114 128.767,19.715C129.449,19.316 130.066,18.818 130.618,18.219L131.917,19.483C131.235,20.281 130.456,20.945 129.546,21.444C128.637,21.91 127.533,22.176 126.234,22.176Z" style="fill:white;fill-rule:nonzero;"/>
            </g>
            <g transform="matrix(0.992128,0,0,0.94331,1.21958,0.773047)">
                <path d="M140.621,22.109C139.159,22.109 137.828,21.843 136.626,21.344C135.424,20.812 134.255,20.081 133.216,19.083L133.833,18.385C134.84,19.349 135.879,20.081 136.983,20.546C138.088,21.012 139.322,21.278 140.686,21.278C141.498,21.278 142.212,21.178 142.862,20.978C143.511,20.779 144.096,20.48 144.551,20.081C145.005,19.715 145.395,19.25 145.622,18.751C145.882,18.252 145.98,17.687 145.98,17.088L145.98,17.022C145.98,16.457 145.882,15.958 145.72,15.526C145.557,15.094 145.233,14.695 144.81,14.362C144.388,14.03 143.771,13.697 143.057,13.431C142.31,13.165 141.368,12.899 140.264,12.667C139.127,12.434 138.153,12.168 137.341,11.836C136.529,11.536 135.879,11.171 135.359,10.772C134.84,10.373 134.483,9.907 134.255,9.342C134.028,8.81 133.898,8.178 133.898,7.513L133.898,7.447C133.898,6.749 134.06,6.117 134.353,5.519C134.645,4.92 135.067,4.421 135.619,3.956C136.139,3.491 136.788,3.158 137.535,2.892C138.282,2.626 139.094,2.526 139.971,2.526C141.238,2.526 142.407,2.726 143.446,3.125C144.486,3.524 145.427,4.056 146.337,4.787L145.785,5.519C144.031,4.089 142.115,3.391 139.939,3.391C139.192,3.391 138.477,3.491 137.86,3.723C137.243,3.956 136.691,4.222 136.236,4.588C135.782,4.953 135.457,5.386 135.197,5.884C134.97,6.383 134.84,6.882 134.84,7.414L134.84,7.48C134.84,8.012 134.937,8.511 135.1,8.943C135.262,9.375 135.587,9.774 136.041,10.14C136.496,10.506 137.081,10.805 137.795,11.104C138.542,11.37 139.452,11.636 140.588,11.869C141.725,12.101 142.732,12.367 143.544,12.7C144.356,13.032 145.005,13.398 145.492,13.797C145.98,14.229 146.337,14.695 146.564,15.227C146.792,15.759 146.889,16.357 146.889,17.022L146.889,17.088C146.889,17.82 146.727,18.485 146.434,19.116C146.142,19.748 145.72,20.28 145.168,20.746C144.616,21.211 143.966,21.577 143.187,21.81C142.44,21.976 141.563,22.109 140.621,22.109Z" style="fill:white;fill-rule:nonzero;"/>
            </g>
            <g transform="matrix(0.992128,0,0,0.94331,1.21958,0.773047)">
                <path d="M155.821,21.311C156.698,21.311 157.509,21.145 158.256,20.813C159.003,20.48 159.62,20.015 160.173,19.449C160.692,18.884 161.114,18.186 161.407,17.455C161.699,16.69 161.861,15.892 161.861,15.028L161.861,14.961C161.861,14.097 161.699,13.266 161.407,12.534C161.114,11.769 160.692,11.105 160.14,10.539C159.588,9.974 158.938,9.509 158.191,9.176C157.444,8.844 156.633,8.677 155.756,8.677C154.879,8.677 154.067,8.844 153.32,9.176C152.573,9.509 151.956,9.974 151.436,10.539C150.917,11.105 150.494,11.803 150.202,12.534C149.91,13.299 149.747,14.097 149.747,14.961L149.747,15.028C149.747,15.892 149.91,16.723 150.202,17.455C150.494,18.219 150.917,18.884 151.469,19.449C152.021,20.015 152.638,20.48 153.385,20.813C154.164,21.145 154.944,21.311 155.821,21.311ZM155.821,22.176C154.781,22.176 153.84,21.976 152.995,21.61C152.151,21.245 151.404,20.713 150.787,20.048C150.17,19.383 149.715,18.652 149.358,17.787C149.033,16.923 148.838,16.025 148.838,15.061L148.838,14.994C148.838,14.03 149,13.099 149.358,12.235C149.682,11.37 150.17,10.606 150.787,9.941C151.404,9.276 152.151,8.777 152.995,8.378C153.84,7.979 154.814,7.78 155.821,7.78C156.86,7.78 157.802,7.979 158.614,8.345C159.458,8.711 160.173,9.243 160.79,9.908C161.407,10.573 161.861,11.304 162.219,12.168C162.543,13.033 162.738,13.93 162.738,14.895L162.738,14.961C162.738,15.925 162.576,16.856 162.219,17.721C161.894,18.585 161.407,19.35 160.79,20.015C160.173,20.68 159.458,21.178 158.581,21.577C157.802,21.976 156.86,22.176 155.821,22.176Z" style="fill:white;fill-rule:nonzero;"/>
            </g>
            <g transform="matrix(0.992128,0,0,0.94331,1.21958,0.773047)">
                <path d="M166.311,8.876L164.265,8.876L164.265,8.078L166.311,8.078L166.311,6.349C166.311,4.753 166.701,3.59 167.448,2.825C168.097,2.16 168.974,1.828 170.078,1.828C170.5,1.828 170.825,1.861 171.15,1.927C171.442,1.994 171.735,2.094 172.027,2.193L172.027,3.025C171.442,2.792 170.793,2.659 170.078,2.659C169.136,2.659 168.422,2.958 167.902,3.556C167.383,4.155 167.155,5.119 167.155,6.416L167.155,8.045L171.962,8.045L171.962,8.843L167.155,8.843L167.155,21.776L166.311,21.776L166.311,8.876Z" style="fill:white;fill-rule:nonzero;"/>
            </g>
            <g transform="matrix(0.992128,0,0,0.94331,1.21958,0.773047)">
                <path d="M177.418,22.076C176.346,22.076 175.469,21.777 174.819,21.145C174.17,20.513 173.845,19.582 173.845,18.319L173.845,8.877L171.799,8.877L171.799,8.079L173.845,8.079L173.845,3.458L174.689,3.458L174.689,8.079L179.561,8.079L179.561,8.877L174.689,8.877L174.689,18.186C174.689,19.217 174.949,19.948 175.436,20.447C175.924,20.945 176.606,21.211 177.515,21.211C178.165,21.211 178.847,21.045 179.529,20.746L179.529,21.577C178.911,21.91 178.197,22.076 177.418,22.076Z" style="fill:white;fill-rule:nonzero;"/>
            </g>
            <g transform="matrix(0.992128,0,0,0.94331,1.21958,0.773047)">
                <path d="M180.698,8.112L181.672,8.112L185.862,20.68L190.116,8.012L190.798,8.012L195.021,20.68L199.243,8.112L200.119,8.112L195.378,21.943L194.663,21.943L190.441,9.409L186.219,21.943L185.505,21.943L180.698,8.112Z" style="fill:white;fill-rule:nonzero;"/>
            </g>
            <g transform="matrix(0.992128,0,0,0.94331,1.21958,0.773047)">
                <path d="M206.063,21.311C206.875,21.311 207.622,21.178 208.304,20.945C208.986,20.713 209.57,20.38 210.058,19.948C210.545,19.549 210.935,19.05 211.227,18.485C211.519,17.92 211.649,17.355 211.649,16.723L211.649,15.027C210.999,14.795 210.285,14.629 209.506,14.496C208.726,14.363 207.817,14.263 206.81,14.263C206.063,14.263 205.381,14.329 204.764,14.496C204.147,14.662 203.627,14.861 203.205,15.16C202.783,15.46 202.425,15.825 202.166,16.258C201.906,16.69 201.808,17.189 201.808,17.754L201.808,17.82C201.808,18.385 201.938,18.884 202.166,19.283C202.393,19.715 202.718,20.081 203.107,20.347C203.497,20.646 203.952,20.846 204.472,21.012C204.991,21.245 205.511,21.311 206.063,21.311ZM206.03,22.176C205.381,22.176 204.764,22.076 204.147,21.91C203.53,21.743 202.978,21.477 202.523,21.112C202.036,20.746 201.646,20.314 201.386,19.782C201.094,19.25 200.964,18.651 200.964,17.953L200.964,17.887C200.964,17.189 201.126,16.557 201.419,15.992C201.711,15.426 202.133,14.961 202.653,14.595C203.172,14.23 203.79,13.93 204.536,13.764C205.251,13.565 206.063,13.465 206.907,13.465C207.849,13.465 208.726,13.531 209.506,13.698C210.317,13.864 211.032,14.03 211.682,14.263L211.682,13.332C211.682,11.769 211.259,10.606 210.415,9.874C209.57,9.11 208.401,8.744 206.875,8.744C206.03,8.744 205.283,8.844 204.569,9.043C203.854,9.243 203.172,9.542 202.49,9.874L202.166,9.11C202.913,8.744 203.66,8.445 204.407,8.212C205.154,7.979 205.998,7.879 206.907,7.879C208.759,7.879 210.188,8.378 211.162,9.376C211.584,9.841 211.909,10.373 212.136,11.038C212.364,11.669 212.493,12.434 212.493,13.299L212.493,21.843L211.649,21.843L211.649,18.984C211.487,19.35 211.227,19.749 210.902,20.114C210.577,20.48 210.188,20.812 209.733,21.145C209.278,21.444 208.726,21.71 208.109,21.91C207.492,22.076 206.81,22.176 206.03,22.176Z" style="fill:white;fill-rule:nonzero;"/>
            </g>
            <g transform="matrix(0.992128,0,0,0.94331,1.21958,0.773047)">
                <path d="M215.838,8.112L216.715,8.112L216.715,12.301C216.91,11.736 217.202,11.171 217.527,10.605C217.884,10.073 218.307,9.575 218.794,9.176C219.281,8.744 219.833,8.411 220.418,8.178C221.035,7.946 221.684,7.813 222.399,7.846L222.399,8.744L222.269,8.744C221.457,8.744 220.71,8.943 220.028,9.309C219.346,9.674 218.761,10.173 218.274,10.772C217.787,11.37 217.397,12.068 217.105,12.866C216.845,13.664 216.683,14.495 216.683,15.326L216.683,21.843L215.838,21.843L215.838,8.112Z" style="fill:white;fill-rule:nonzero;"/>
            </g>
            <g transform="matrix(0.992128,0,0,0.94331,1.21958,0.773047)">
                <path d="M234.221,14.495C234.188,13.764 234.058,13.032 233.799,12.334C233.571,11.636 233.214,11.004 232.792,10.439C232.37,9.874 231.817,9.442 231.168,9.109C230.518,8.777 229.771,8.611 228.927,8.611C228.147,8.611 227.465,8.744 226.816,9.043C226.166,9.342 225.614,9.741 225.127,10.273C224.64,10.805 224.25,11.403 223.958,12.135C223.666,12.833 223.503,13.631 223.471,14.495L234.221,14.495ZM229.219,22.175C228.31,22.175 227.465,22.009 226.654,21.677C225.842,21.344 225.127,20.845 224.543,20.247C223.925,19.615 223.471,18.851 223.114,17.986C222.756,17.089 222.594,16.091 222.594,15.027L222.594,14.961C222.594,13.93 222.756,12.999 223.081,12.135C223.406,11.27 223.86,10.506 224.413,9.874C224.997,9.242 225.679,8.71 226.459,8.378C227.238,8.012 228.083,7.846 229.024,7.846C230.031,7.846 230.908,8.045 231.688,8.444C232.434,8.843 233.084,9.409 233.604,10.073C234.123,10.738 234.513,11.503 234.773,12.368C235.033,13.232 235.163,14.13 235.163,15.06L235.163,15.36L223.503,15.36C223.536,16.291 223.731,17.122 224.055,17.853C224.38,18.618 224.802,19.25 225.322,19.748C225.842,20.28 226.426,20.679 227.141,20.945C227.823,21.211 228.537,21.377 229.284,21.377C230.323,21.377 231.265,21.145 232.077,20.646C232.889,20.147 233.571,19.549 234.123,18.851L234.773,19.383C234.156,20.214 233.376,20.879 232.467,21.411C231.525,21.876 230.453,22.175 229.219,22.175Z" style="fill:white;fill-rule:nonzero;"/>
            </g>
            <g transform="matrix(0.992128,0,0,0.94331,-0.390049,0.35086)">
                <path d="M237.599,6.982L236.949,6.982L236.949,6.749L238.54,6.749L238.54,6.982L237.858,6.982L237.858,8.943L237.599,8.943L237.599,6.982Z" style="fill:white;fill-rule:nonzero;"/>
            </g>
            <g transform="matrix(0.992128,0,0,0.94331,-0.390049,0.35086)">
                <path d="M240.554,7.979C240.554,7.68 240.521,7.314 240.521,7.048C240.456,7.314 240.359,7.58 240.262,7.879L239.872,8.943L239.677,8.943L239.32,7.913C239.222,7.613 239.125,7.314 239.06,7.048C239.06,7.314 239.027,7.68 239.027,8.012L238.962,8.943L238.703,8.943L238.865,6.749L239.222,6.749L239.579,7.813C239.677,8.079 239.742,8.312 239.807,8.544C239.872,8.312 239.937,8.079 240.034,7.813L240.424,6.749L240.781,6.749L240.911,8.943L240.651,8.943L240.554,7.979Z" style="fill:white;fill-rule:nonzero;"/>
            </g>
        </g>
    </g>
</svg>
