<?xml version="1.0" encoding="UTF-8" standalone="no"?>
<!DOCTYPE svg PUBLIC "-//W3C//DTD SVG 1.1//EN" "http://www.w3.org/Graphics/SVG/1.1/DTD/svg11.dtd">
<svg width="100%" height="100%" viewBox="0 0 768 1024" version="1.1" xmlns="http://www.w3.org/2000/svg" xmlns:xlink="http://www.w3.org/1999/xlink" xml:space="preserve" xmlns:serif="http://www.serif.com/" style="fill-rule:evenodd;clip-rule:evenodd;stroke-linejoin:round;stroke-miterlimit:2;">
    <g transform="matrix(1.85547,0,0,1,490.775,-287.214)">
        <g transform="matrix(6.12323e-17,-1,1,6.12323e-17,-804.2,243.855)">
            <path d="M-216.874,258.384L-81.179,1812.81L-352.569,1812.81L-216.874,258.384Z" style="fill:rgb(235,235,235);"/>
        </g>
        <g transform="matrix(6.12323e-17,-1,1,6.12323e-17,-804.2,230.855)">
            <path d="M-216.874,258.384L-81.179,1812.81L-352.569,1812.81L-216.874,258.384Z" style="fill:rgb(253,228,214);"/>
        </g>
    </g>
    <g transform="matrix(-2.08138,0,0,1.34681,1226.17,-86.5387)">
        <g transform="matrix(6.12323e-17,-1,1,6.12323e-17,-804.2,243.855)">
            <path d="M-216.874,258.384L-81.179,1812.81L-352.569,1812.81L-216.874,258.384Z" style="fill:rgb(235,235,235);"/>
        </g>
        <g transform="matrix(6.12323e-17,-1,1,6.12323e-17,-804.2,230.855)">
            <path d="M-216.874,258.384L-81.179,1812.81L-352.569,1812.81L-216.874,258.384Z" style="fill:rgb(253,228,214);"/>
        </g>
    </g>
    <g transform="matrix(-1.70091,0,0,0.500399,-22.3929,-192.373)">
        <g transform="matrix(6.12323e-17,-1,1,6.12323e-17,-804.2,243.855)">
            <path d="M-216.874,258.384L-81.179,1812.81L-352.569,1812.81L-216.874,258.384Z" style="fill:rgb(235,235,235);"/>
        </g>
        <g transform="matrix(6.12323e-17,-1,1,6.12323e-17,-804.2,230.855)">
            <path d="M-216.874,258.384L-81.179,1812.81L-352.569,1812.81L-216.874,258.384Z" style="fill:rgb(253,228,214);"/>
        </g>
    </g>
    <g transform="matrix(1.71554,0,0,1,-60.3184,427.576)">
        <g transform="matrix(6.12323e-17,-1,1,6.12323e-17,-804.2,243.855)">
            <path d="M-216.874,258.384L-81.179,1812.81L-352.569,1812.81L-216.874,258.384Z" style="fill:rgb(235,235,235);"/>
        </g>
        <g transform="matrix(6.12323e-17,-1,1,6.12323e-17,-804.2,230.855)">
            <path d="M-216.874,258.384L-81.179,1812.81L-352.569,1812.81L-216.874,258.384Z" style="fill:rgb(253,228,214);"/>
        </g>
    </g>
</svg>
