<?xml version="1.0" encoding="UTF-8" standalone="no"?>
<!DOCTYPE svg PUBLIC "-//W3C//DTD SVG 1.1//EN" "http://www.w3.org/Graphics/SVG/1.1/DTD/svg11.dtd">
<svg width="100%" height="100%" viewBox="0 0 201 42" version="1.1" xmlns="http://www.w3.org/2000/svg" xmlns:xlink="http://www.w3.org/1999/xlink" xml:space="preserve" xmlns:serif="http://www.serif.com/" style="fill-rule:evenodd;clip-rule:evenodd;stroke-linejoin:round;stroke-miterlimit:2;">
    <rect id="Artboard1" x="0" y="0" width="200.753" height="42" style="fill:none;"/>
    <clipPath id="_clip1">
        <rect id="Artboard11" serif:id="Artboard1" x="0" y="0" width="200.753" height="42"/>
    </clipPath>
    <g clip-path="url(#_clip1)">
        <g>
            <clipPath id="_clip2">
                <rect x="0.228" y="0.228" width="200" height="41.865"/>
            </clipPath>
            <g clip-path="url(#_clip2)">
                <path d="M54.54,8.776L65.08,8.776C71.769,8.776 76.079,14.172 76.079,21.564C76.079,25.627 74.714,29.202 72.087,31.406C70.228,32.947 67.816,33.824 64.663,33.824L54.54,33.824L54.54,8.776ZM64.312,29.449C69.077,29.449 70.936,26.542 70.936,21.564C70.936,16.585 68.764,13.119 64.454,13.119L59.624,13.119L59.624,29.443L64.312,29.443L64.312,29.449Z" style="fill-rule:nonzero;"/>
                <path d="M76.836,24.853C76.836,19.49 80.652,15.362 86.223,15.362C91.794,15.362 95.611,19.496 95.611,24.853C95.611,30.21 91.794,34.345 86.223,34.345C80.652,34.345 76.836,30.21 76.836,24.853ZM90.78,24.853C90.78,21.349 89.135,18.97 86.223,18.97C83.312,18.97 81.667,21.349 81.667,24.853C81.667,28.357 83.279,30.704 86.223,30.704C89.168,30.704 90.78,28.357 90.78,24.853Z" style="fill-rule:nonzero;"/>
                <path d="M96.592,24.853C96.592,19.49 100.096,15.362 105.563,15.362C110.224,15.362 113.097,18.059 113.728,21.947L109.067,21.947C108.749,20.368 107.526,19.178 105.771,19.178C102.898,19.178 101.429,21.388 101.429,24.853C101.429,28.319 102.794,30.528 105.7,30.528C107.625,30.528 108.996,29.514 109.308,27.48L113.898,27.48C113.585,31.296 110.602,34.345 105.804,34.345C100.129,34.345 96.592,30.21 96.592,24.853Z" style="fill-rule:nonzero;"/>
                <path d="M126.499,33.824L126.499,31.724L126.394,31.724C125.166,33.369 123.768,34.318 121.246,34.318C117.254,34.318 115.011,31.762 115.011,27.836L115.011,15.85L119.743,15.85L119.743,27.025C119.743,29.125 120.692,30.282 122.721,30.282C124.963,30.282 126.329,28.598 126.329,26.219L126.329,15.85L131.094,15.85L131.094,33.824L126.499,33.824Z" style="fill-rule:nonzero;"/>
                <path d="M154.299,8.886L159.064,8.886L159.064,13.338L154.299,13.338L154.299,8.886ZM154.299,15.855L159.064,15.855L159.064,33.824L154.299,33.824L154.299,15.85L154.299,15.855Z" style="fill-rule:nonzero;"/>
                <path d="M161.044,34.351L165.776,34.351C166.16,35.469 167.18,36.346 169.384,36.346C172.082,36.346 173.376,35.052 173.376,32.596L173.376,30.633L173.272,30.633C172.219,31.823 170.853,32.733 168.578,32.733C164.586,32.733 160.66,29.58 160.66,24.151C160.66,18.723 163.884,15.356 168.435,15.356C170.678,15.356 172.323,16.233 173.409,17.736L173.48,17.736L173.48,15.844L178.07,15.844L178.07,32.448C178.07,34.97 177.263,36.686 175.931,37.915C174.423,39.318 172.115,39.949 169.45,39.949C164.548,39.949 161.532,37.849 161.044,34.345L161.044,34.351ZM173.623,24.053C173.623,21.426 172.219,19.184 169.351,19.184C166.933,19.184 165.321,21.075 165.321,24.086C165.321,27.096 166.933,28.922 169.384,28.922C172.394,28.922 173.623,26.712 173.623,24.053Z" style="fill-rule:nonzero;"/>
                <path d="M184.77,18.301L184.874,18.301C186.103,16.376 187.748,15.356 190.199,15.356C193.911,15.356 196.4,18.158 196.4,22.084L196.4,33.819L191.635,33.819L191.635,22.781C191.635,20.856 190.517,19.485 188.515,19.485C186.415,19.485 184.874,21.169 184.874,23.62L184.874,33.813L180.109,33.813L180.109,15.85L184.77,15.85L184.77,18.301Z" style="fill-rule:nonzero;"/>
                <path d="M143.442,18.723C139.73,17.917 137.975,17.319 137.975,15.29C137.975,13.503 139.763,12.346 142.494,12.346C144.989,12.346 146.891,13.514 147.286,15.85L152.172,15.85C151.673,10.986 148.065,8.316 142.532,8.316C136.999,8.316 132.931,10.871 132.931,15.811C132.931,21.032 137.032,22.221 141.512,23.236C145.328,24.113 147.714,24.601 147.714,27.052C147.714,29.366 145.438,30.276 142.845,30.276C139.269,30.276 137.553,29.087 137.202,26.071L132.229,26.071C132.404,31.362 136.259,34.373 143.053,34.373C148.695,34.373 152.791,31.532 152.791,26.455C152.791,21.059 148.586,19.831 143.437,18.712L143.442,18.723Z" style="fill-rule:nonzero;"/>
                <path d="M198.336,19.173C197.289,19.173 196.439,18.323 196.439,17.275C196.439,16.228 197.289,15.378 198.336,15.378C199.384,15.378 200.233,16.228 200.233,17.275C200.233,18.323 199.384,19.173 198.336,19.173ZM198.336,15.68C197.453,15.68 196.741,16.398 196.741,17.275C196.741,18.153 197.459,18.871 198.336,18.871C199.214,18.871 199.932,18.153 199.932,17.275C199.932,16.398 199.214,15.68 198.336,15.68Z" style="fill-rule:nonzero;"/>
                <path d="M197.684,16.299L198.303,16.299C198.561,16.299 198.736,16.299 198.906,16.442C199.027,16.541 199.12,16.694 199.12,16.919C199.12,17.292 198.846,17.418 198.736,17.451L199.17,18.24L198.753,18.24L198.369,17.522L198.045,17.522L198.045,18.24L197.684,18.24L197.684,16.299ZM198.045,16.612L198.045,17.22L198.172,17.22C198.298,17.22 198.342,17.22 198.413,17.215C198.495,17.215 198.753,17.199 198.753,16.913C198.753,16.87 198.753,16.727 198.599,16.65C198.523,16.612 198.429,16.612 198.215,16.612L198.045,16.612Z" style="fill-rule:nonzero;"/>
                <rect x="0.228" y="0.228" width="41.865" height="41.865" style="fill:rgb(213,255,0);fill-rule:nonzero;"/>
                <rect x="6.04" y="32.212" width="30.235" height="4.069" style="fill-rule:nonzero;"/>
                <path d="M21.163,29.882L24.042,27.009L32.793,18.252L29.882,15.345L23.197,22.035L23.197,5.459L19.123,5.459L19.129,22.035L12.439,15.345L9.533,18.252L18.284,27.009L21.163,29.882Z" style="fill-rule:nonzero;"/>
            </g>
        </g>
    </g>
</svg>
