<svg width="403" height="256" viewBox="0 0 403 256" fill="none" xmlns="http://www.w3.org/2000/svg">
<rect x="0.739746" y="0.568359" width="402" height="255" fill="#F4F4F6"/>
<g clip-path="url(#clip0_1524_14688)">
<path d="M156.052 115.684H166.592C173.281 115.684 177.591 121.08 177.591 128.472C177.591 132.535 176.226 136.11 173.599 138.314C171.74 139.855 169.328 140.732 166.175 140.732H156.052V115.684ZM165.824 136.357C170.589 136.357 172.448 133.45 172.448 128.472C172.448 123.493 170.276 120.027 165.966 120.027H161.136V136.351H165.824V136.357Z" fill="black"/>
<path d="M178.348 131.761C178.348 126.398 182.164 122.27 187.735 122.27C193.306 122.27 197.123 126.404 197.123 131.761C197.123 137.118 193.306 141.253 187.735 141.253C182.164 141.253 178.348 137.118 178.348 131.761ZM192.292 131.761C192.292 128.257 190.647 125.878 187.735 125.878C184.824 125.878 183.179 128.257 183.179 131.761C183.179 135.265 184.791 137.612 187.735 137.612C190.68 137.612 192.292 135.265 192.292 131.761Z" fill="black"/>
<path d="M198.104 131.761C198.104 126.398 201.608 122.27 207.075 122.27C211.736 122.27 214.609 124.967 215.24 128.855H210.579C210.261 127.276 209.038 126.086 207.283 126.086C204.41 126.086 202.941 128.296 202.941 131.761C202.941 135.227 204.306 137.436 207.212 137.436C209.137 137.436 210.508 136.422 210.82 134.388H215.41C215.097 138.204 212.114 141.253 207.316 141.253C201.641 141.253 198.104 137.118 198.104 131.761Z" fill="black"/>
<path d="M228.011 140.732V138.632H227.906C226.678 140.277 225.28 141.226 222.758 141.226C218.766 141.226 216.523 138.67 216.523 134.744V122.758H221.255V133.933C221.255 136.033 222.204 137.19 224.233 137.19C226.475 137.19 227.841 135.506 227.841 133.127V122.758H232.606V140.732H228.016H228.011Z" fill="black"/>
<path d="M255.811 115.794H260.576V120.246H255.811V115.794ZM255.811 122.763H260.576V140.732H255.811V122.758V122.763Z" fill="black"/>
<path d="M262.556 141.259H267.288C267.672 142.377 268.692 143.254 270.896 143.254C273.594 143.254 274.888 141.96 274.888 139.504V137.541H274.784C273.731 138.731 272.365 139.641 270.09 139.641C266.098 139.641 262.172 136.488 262.172 131.059C262.172 125.631 265.396 122.264 269.947 122.264C272.19 122.264 273.835 123.141 274.921 124.644H274.992V122.752H279.582V139.356C279.582 141.878 278.775 143.594 277.443 144.823C275.935 146.226 273.627 146.857 270.962 146.857C266.06 146.857 263.044 144.757 262.556 141.253V141.259ZM275.135 130.961C275.135 128.334 273.731 126.092 270.863 126.092C268.445 126.092 266.833 127.983 266.833 130.994C266.833 134.004 268.445 135.83 270.896 135.83C273.906 135.83 275.135 133.62 275.135 130.961Z" fill="black"/>
<path d="M286.282 125.209H286.386C287.615 123.284 289.26 122.264 291.711 122.264C295.423 122.264 297.912 125.066 297.912 128.992V140.727H293.147V129.689C293.147 127.764 292.029 126.393 290.027 126.393C287.927 126.393 286.386 128.077 286.386 130.528V140.721H281.621V122.758H286.282V125.209Z" fill="black"/>
<path d="M244.954 125.631C241.242 124.825 239.487 124.227 239.487 122.198C239.487 120.411 241.275 119.254 244.006 119.254C246.501 119.254 248.403 120.422 248.798 122.758H253.684C253.185 117.894 249.577 115.224 244.044 115.224C238.511 115.224 234.443 117.779 234.443 122.719C234.443 127.94 238.544 129.129 243.024 130.144C246.84 131.021 249.226 131.509 249.226 133.96C249.226 136.274 246.95 137.184 244.357 137.184C240.781 137.184 239.065 135.995 238.714 132.979H233.741C233.916 138.27 237.771 141.281 244.565 141.281C250.207 141.281 254.303 138.44 254.303 133.363C254.303 127.967 250.098 126.739 244.949 125.62L244.954 125.631Z" fill="black"/>
<path d="M299.848 126.081C298.801 126.081 297.951 125.231 297.951 124.183C297.951 123.136 298.801 122.286 299.848 122.286C300.896 122.286 301.745 123.136 301.745 124.183C301.745 125.231 300.896 126.081 299.848 126.081ZM299.848 122.588C298.965 122.588 298.253 123.306 298.253 124.183C298.253 125.061 298.971 125.779 299.848 125.779C300.726 125.779 301.444 125.061 301.444 124.183C301.444 123.306 300.726 122.588 299.848 122.588Z" fill="black"/>
<path d="M299.196 123.207H299.815C300.073 123.207 300.248 123.207 300.418 123.35C300.539 123.449 300.632 123.602 300.632 123.827C300.632 124.2 300.358 124.326 300.248 124.359L300.682 125.148H300.265L299.881 124.43H299.557V125.148H299.196V123.213V123.207ZM299.557 123.52V124.128H299.684C299.81 124.128 299.854 124.128 299.925 124.123C300.007 124.123 300.265 124.107 300.265 123.821C300.265 123.778 300.265 123.635 300.111 123.558C300.035 123.52 299.941 123.52 299.727 123.52H299.557Z" fill="black"/>
<path d="M143.605 107.136H101.74V149.001H143.605V107.136Z" fill="#D5FF00"/>
<path d="M137.787 139.12H107.552V143.189H137.787V139.12Z" fill="black"/>
<path d="M122.675 136.79L125.554 133.917L134.305 125.16L131.394 122.253L124.709 128.943V112.367H120.635L120.641 128.943L113.951 122.253L111.045 125.16L119.796 133.917L122.675 136.79Z" fill="black"/>
</g>
<defs>
<clipPath id="clip0_1524_14688">
<rect width="200" height="41.8654" fill="white" transform="translate(101.74 107.136)"/>
</clipPath>
</defs>
</svg>
