<?xml version="1.0" encoding="UTF-8" standalone="no"?>
<!DOCTYPE svg PUBLIC "-//W3C//DTD SVG 1.1//EN" "http://www.w3.org/Graphics/SVG/1.1/DTD/svg11.dtd">
<svg width="100%" height="100%" viewBox="0 0 260 29" version="1.1" xmlns="http://www.w3.org/2000/svg" xmlns:xlink="http://www.w3.org/1999/xlink" xml:space="preserve" xmlns:serif="http://www.serif.com/" style="fill-rule:evenodd;clip-rule:evenodd;stroke-linejoin:round;stroke-miterlimit:2;">
    <g transform="matrix(1,0,0,1,3.69042,3.22042)">
        <rect id="Artboard1" x="-3.69" y="-3.22" width="259.572" height="28.385" style="fill:none;"/>
        <clipPath id="_clip1">
            <rect id="Artboard11" serif:id="Artboard1" x="-3.69" y="-3.22" width="259.572" height="28.385"/>
        </clipPath>
        <g clip-path="url(#_clip1)">
            <g transform="matrix(1,0,0,1,0.309577,0.779585)">
                <g transform="matrix(1.00623,0,0,1,-0.286592,-0.779585)">
                    <rect x="-3.69" y="-3.22" width="257.966" height="28.385"/>
                </g>
                <g transform="matrix(1,0,0,1,-0.213393,-1.69643)">
                    <path d="M0.032,4.834L9.53,4.834L9.53,6.968L2.43,6.968L2.43,12.076L9.289,12.076L9.289,14.222L2.43,14.222L2.43,19.427L9.757,19.427L9.757,21.562L0.032,21.562L0.032,4.834ZM6.999,0L4.289,3.599L2.946,3.599L4.565,0L6.999,0Z" style="fill:white;fill-rule:nonzero;"/>
                </g>
                <g transform="matrix(1,0,0,1,-0.213393,-1.69643)">
                    <path d="M22.135,4.834L24.533,4.834L24.533,19.402L32.076,19.402L32.076,21.587L22.135,21.587L22.135,4.834Z" style="fill:white;fill-rule:nonzero;"/>
                </g>
                <g transform="matrix(1,0,0,1,-0.213393,-1.69643)">
                    <path d="M49.322,4.738L51.007,4.738L58.52,21.586L56.066,21.586L53.833,16.623L46.687,16.623L44.592,21.586L42.126,21.586L49.322,4.738ZM52.846,14.486L50.142,8.42L47.636,14.486L52.846,14.486Z" style="fill:white;fill-rule:nonzero;"/>
                </g>
                <g transform="matrix(1,0,0,1,-0.213393,-1.69643)">
                    <path d="M83.488,4.834L85.765,4.834L85.765,21.584L83.703,21.584L72.503,8.682L72.503,21.584L70.25,21.584L70.25,4.834L72.192,4.834L83.488,17.846L83.488,4.834Z" style="fill:white;fill-rule:nonzero;"/>
                </g>
                <g transform="matrix(1,0,0,1,-0.213393,-1.69643)">
                    <path d="M113.804,4.738L115.49,4.738L123.002,21.586L120.547,21.586L118.315,16.623L111.168,16.623L109.076,21.586L106.611,21.586L113.804,4.738ZM117.328,14.486L114.625,8.42L112.118,14.486L117.328,14.486Z" style="fill:white;fill-rule:nonzero;"/>
                </g>
                <g transform="matrix(1,0,0,1,-0.213393,-1.69643)">
                    <path d="M134.73,21.586L134.73,4.834L138.926,4.834C140.62,4.834 141.966,5.254 142.961,6.093C143.957,6.932 144.454,8.067 144.454,9.498C144.454,10.472 144.211,11.315 143.724,12.029C143.236,12.738 142.536,13.271 141.624,13.623C142.159,13.976 142.683,14.453 143.196,15.062C143.707,15.667 144.425,16.728 145.352,18.24C145.936,19.189 146.405,19.908 146.754,20.386L147.643,21.585L144.789,21.585L144.06,20.481C144.039,20.443 143.988,20.375 143.914,20.277L143.448,19.617L142.705,18.393L141.902,17.081C141.407,16.393 140.954,15.85 140.542,15.44C140.131,15.034 139.757,14.741 139.425,14.559C139.093,14.379 138.534,14.289 137.752,14.289L137.128,14.289L137.128,21.58L134.731,21.58L134.731,21.586L134.73,21.586ZM137.85,6.873L137.131,6.873L137.131,12.16L138.041,12.16C139.255,12.16 140.09,12.056 140.542,11.848C140.993,11.641 141.346,11.326 141.598,10.906C141.85,10.488 141.975,10.01 141.975,9.475C141.975,8.947 141.835,8.469 141.555,8.04C141.276,7.612 140.879,7.311 140.373,7.136C139.866,6.959 139.023,6.873 137.85,6.873Z" style="fill:white;fill-rule:nonzero;"/>
                </g>
                <g transform="matrix(1,0,0,1,-0.213393,-1.69643)">
                    <path d="M155.652,4.81L169.648,4.81L169.648,6.944L163.808,6.944L163.808,21.585L161.398,21.585L161.398,6.945L155.652,6.945L155.652,4.81Z" style="fill:white;fill-rule:nonzero;"/>
                </g>
                <g transform="matrix(1,0,0,1,-0.213393,-1.69643)">
                    <rect x="181.764" y="4.834" width="2.397" height="16.75" style="fill:white;fill-rule:nonzero;"/>
                </g>
                <g transform="matrix(1,0,0,1,-0.213393,-1.69643)">
                    <path d="M201.825,14.566L200.005,13.457C198.859,12.761 198.048,12.074 197.567,11.397C197.084,10.724 196.839,9.945 196.839,9.065C196.839,7.748 197.296,6.674 198.211,5.852C199.126,5.027 200.315,4.617 201.777,4.617C203.175,4.617 204.462,5.012 205.629,5.795L205.629,8.518C204.421,7.357 203.123,6.778 201.733,6.778C200.952,6.778 200.305,6.956 199.801,7.319C199.298,7.681 199.045,8.146 199.045,8.713C199.045,9.214 199.233,9.684 199.6,10.12C199.973,10.558 200.571,11.02 201.393,11.503L203.225,12.583C205.268,13.806 206.287,15.357 206.287,17.247C206.287,18.591 205.84,19.681 204.938,20.519C204.041,21.36 202.871,21.778 201.429,21.778C199.776,21.778 198.268,21.269 196.908,20.253L196.908,17.208C198.203,18.849 199.701,19.669 201.406,19.669C202.158,19.669 202.781,19.46 203.281,19.04C203.781,18.622 204.031,18.099 204.031,17.47C204.032,16.449 203.298,15.482 201.825,14.566Z" style="fill:white;fill-rule:nonzero;"/>
                </g>
                <g transform="matrix(1,0,0,1,-0.213393,-1.69643)">
                    <path d="M217.296,4.81L231.293,4.81L231.293,6.944L225.452,6.944L225.452,21.585L223.041,21.585L223.041,6.945L217.296,6.945L217.296,4.81Z" style="fill:white;fill-rule:nonzero;"/>
                </g>
                <g transform="matrix(1,0,0,1,-0.213393,-1.69643)">
                    <path d="M247.507,14.566L245.684,13.457C244.541,12.761 243.729,12.074 243.246,11.397C242.764,10.724 242.519,9.945 242.519,9.065C242.519,7.748 242.978,6.674 243.89,5.852C244.806,5.027 245.994,4.617 247.458,4.617C248.856,4.617 250.142,5.012 251.308,5.795L251.308,8.518C250.103,7.357 248.802,6.778 247.412,6.778C246.63,6.778 245.986,6.956 245.482,7.319C244.978,7.681 244.724,8.146 244.724,8.713C244.724,9.214 244.912,9.684 245.283,10.12C245.654,10.558 246.252,11.02 247.074,11.503L248.904,12.583C250.949,13.806 251.967,15.357 251.967,17.247C251.967,18.591 251.521,19.681 250.619,20.519C249.72,21.36 248.551,21.778 247.108,21.778C245.457,21.778 243.949,21.269 242.588,20.253L242.588,17.208C243.881,18.849 245.38,19.669 247.083,19.669C247.836,19.669 248.461,19.46 248.959,19.04C249.46,18.622 249.711,18.099 249.711,17.47C249.715,16.449 248.979,15.482 247.507,14.566Z" style="fill:white;fill-rule:nonzero;"/>
                </g>
            </g>
        </g>
    </g>
</svg>
