<?xml version="1.0" encoding="UTF-8" standalone="no"?>
<!DOCTYPE svg PUBLIC "-//W3C//DTD SVG 1.1//EN" "http://www.w3.org/Graphics/SVG/1.1/DTD/svg11.dtd">
<svg width="100%" height="100%" viewBox="0 0 122 75" version="1.1" xmlns="http://www.w3.org/2000/svg" xmlns:xlink="http://www.w3.org/1999/xlink" xml:space="preserve" xmlns:serif="http://www.serif.com/" style="fill-rule:evenodd;clip-rule:evenodd;stroke-linejoin:round;stroke-miterlimit:2;">
    <g transform="matrix(1,0,0,1,-19.7829,-470.083)">
        <g id="Logo-Gray" serif:id="Logo Gray" transform="matrix(0.996413,0,0,1.00452,303.199,-2.27848)">
            <rect x="-284.437" y="470.234" width="122.004" height="73.703" style="fill:none;"/>
            <g id="Ellipse" transform="matrix(1.03077,0,0,1.03499,-93.2861,394.266)">
                <g transform="matrix(1.12186,0,-0.0130665,1.08867,-344.42,-12.818)">
                    <ellipse cx="196.667" cy="110.502" rx="51.687" ry="31.172" style="fill:rgb(176,176,176);"/>
                </g>
                <g transform="matrix(1.14034,0,-0.0134676,1.12209,-349.045,-14.5345)">
                    <ellipse cx="196.667" cy="110.502" rx="51.687" ry="31.172"/>
                </g>
                <g transform="matrix(1.11931,0,0,1.07367,-345.495,-10.6937)">
                    <ellipse cx="196.667" cy="110.502" rx="51.687" ry="31.172" style="fill:rgb(128,128,128);"/>
                </g>
            </g>
            <g transform="matrix(1.03077,0,0,1.03499,-93.7108,395.024)">
                <g id="Fishbone">
                    <g>
                        <g transform="matrix(0.973643,0,0,0.961844,-4.70028,5.72737)">
                            <g transform="matrix(1,0,0,1,-1560.11,-2265.92)">
                                <g transform="matrix(1,0,0,1,-697.271,107.563)">
                                    <path d="M2102.87,2241.58C2113.3,2259.95 2111.25,2273.11 2103.4,2294.2L2106.22,2289.85C2115.16,2269.5 2116.52,2264.37 2107.79,2243.19L2102.87,2241.58Z"/>
                                </g>
                                <g transform="matrix(1,0,0,1,-697.19,107.196)">
                                    <path d="M2135.78,2241.81C2143.38,2262.59 2145.35,2279.36 2137.32,2300.14L2140.88,2295.02C2148.9,2273.33 2147.6,2260.77 2139.99,2239.08L2135.78,2241.81Z"/>
                                </g>
                                <g transform="matrix(1,0,0,1,-697.19,107.196)">
                                    <path d="M2121.34,2233.2L2119.15,2238.65C2126.37,2261.08 2128.27,2277.79 2120.7,2298.98L2124.24,2293.52C2132.44,2271.47 2131.22,2260.29 2123.39,2238.65L2121.34,2233.2Z"/>
                                </g>
                                <g transform="matrix(1,0,0,1,-690.859,137.595)">
                                    <path d="M2145.01,2236.28C2140.74,2234.05 2127.85,2233.98 2123.11,2235.69L2123.22,2238.08C2128.04,2239.16 2141.03,2240.2 2145.05,2238.64L2145.01,2236.28Z"/>
                                </g>
                                <g transform="matrix(0.92616,-0.377131,-0.377131,-0.92616,308.778,5244.11)">
                                    <path d="M2121.34,2233.2C2113.9,2234.8 2102.11,2239.67 2096.35,2242.47C2096.35,2242.47 2117.61,2238.64 2122.24,2236.44L2120.56,2233.38"/>
                                </g>
                            </g>
                            <g transform="matrix(0.842131,0,0,0.842337,-24.2034,17.2613)">
                                <path d="M-151.156,110.322C-159.01,124.087 -170.025,133.82 -183.218,140.773C-174.848,121.783 -178.208,93.58 -181.558,87.111C-180.852,86.211 -178.244,83.208 -178.08,83.171C-178.08,83.171 -157.695,99.508 -151.156,110.322ZM-156.981,110.322C-161.293,117.878 -167.339,123.221 -174.581,127.038C-170.114,115.368 -170.458,104.265 -174.581,93.606C-167.218,98.109 -161.11,103.493 -156.981,110.322Z"/>
                            </g>
                            <g transform="matrix(2.01216,-0.0618577,0,1.9704,-354.968,42.8946)">
                                <path d="M144.097,36.787C140.459,42.649 134.933,46.62 127.556,48.737C122.285,40.851 122.558,32.896 127.556,24.837C134.194,26.963 140.106,30.289 144.097,36.787ZM132.65,30.732C134.597,30.732 136.179,32.314 136.179,34.261C136.179,36.209 134.597,37.79 132.65,37.79C130.702,37.79 129.121,36.209 129.121,34.261C129.121,32.314 130.702,30.732 132.65,30.732Z"/>
                            </g>
                        </g>
                        <g transform="matrix(0.973643,0,0,0.961844,-1.77935,2.84184)">
                            <g transform="matrix(1,0,0,1,-1560.11,-2265.92)">
                                <g transform="matrix(1,0,0,1,-697.271,107.563)">
                                    <path d="M2102.87,2241.58C2113.3,2259.95 2111.25,2273.11 2103.4,2294.2L2106.22,2289.85C2115.16,2269.5 2116.52,2264.37 2107.79,2243.19L2102.87,2241.58Z" style="fill:white;"/>
                                </g>
                                <g transform="matrix(1,0,0,1,-697.19,107.196)">
                                    <path d="M2135.78,2241.81C2143.38,2262.59 2145.35,2279.36 2137.32,2300.14L2140.88,2295.02C2148.9,2273.33 2147.6,2260.77 2139.99,2239.08L2135.78,2241.81Z" style="fill:white;"/>
                                </g>
                                <g transform="matrix(1,0,0,1,-697.19,107.196)">
                                    <path d="M2121.34,2233.2L2119.15,2238.65C2126.37,2261.08 2128.27,2277.79 2120.7,2298.98L2124.24,2293.52C2132.44,2271.47 2131.22,2260.29 2123.39,2238.65L2121.34,2233.2Z" style="fill:white;"/>
                                </g>
                                <g transform="matrix(1,0,0,1,-690.859,137.595)">
                                    <path d="M2144.98,2236.73C2140.7,2234.5 2127.85,2233.98 2123.11,2235.69L2123.22,2238.08C2128.04,2239.16 2141.03,2240.2 2145.05,2238.64L2144.98,2236.73Z" style="fill:white;"/>
                                </g>
                                <g transform="matrix(0.92616,-0.377131,-0.377131,-0.92616,308.778,5244.11)">
                                    <path d="M2119.04,2234.03C2111.35,2235 2102.11,2239.67 2096.35,2242.47C2096.35,2242.47 2116.87,2239.92 2120.07,2236.41L2120.66,2233.36" style="fill:white;"/>
                                </g>
                            </g>
                            <g transform="matrix(0.842935,0,0,0.842935,-24.6903,17.4077)">
                                <path d="M-151.156,110.322C-159.01,124.087 -170.025,133.82 -183.218,140.773C-175.079,119.515 -175.707,99.288 -183.218,79.871C-169.804,88.075 -158.678,97.882 -151.156,110.322ZM-156.981,110.322C-161.293,117.878 -167.339,123.221 -174.581,127.038C-170.114,115.368 -170.458,104.265 -174.581,93.606C-167.218,98.109 -161.11,103.493 -156.981,110.322Z" style="fill:white;"/>
                            </g>
                            <g transform="matrix(1.9704,0,0,1.9704,-351.017,35.2947)">
                                <path d="M144.097,36.787C140.459,42.649 134.933,46.62 127.556,48.737C122.398,40.912 122.637,32.939 127.556,24.837C134.194,26.963 140.106,30.289 144.097,36.787ZM132.65,30.732C134.597,30.732 136.179,32.314 136.179,34.261C136.179,36.209 134.597,37.79 132.65,37.79C130.702,37.79 129.121,36.209 129.121,34.261C129.121,32.314 130.702,30.732 132.65,30.732Z" style="fill:white;"/>
                            </g>
                        </g>
                        <g transform="matrix(0.769508,-0.589293,0.596522,0.760183,-285.791,183.635)">
                            <path d="M147.22,-11.002L148.617,-6.314C147.216,-6.302 147.297,-6.44 144.969,-5.889L147.22,-11.002Z"/>
                        </g>
                    </g>
                </g>
            </g>
        </g>
        <g id="Text-Logo" serif:id="Text Logo">
        </g>
        <g id="Swatches">
        </g>
    </g>
</svg>
