<?xml version="1.0" encoding="UTF-8" standalone="no"?>
<!DOCTYPE svg PUBLIC "-//W3C//DTD SVG 1.1//EN" "http://www.w3.org/Graphics/SVG/1.1/DTD/svg11.dtd">
<svg width="100%" height="100%" viewBox="0 0 122 122" version="1.1" xmlns="http://www.w3.org/2000/svg" xmlns:xlink="http://www.w3.org/1999/xlink" xml:space="preserve" xmlns:serif="http://www.serif.com/" style="fill-rule:evenodd;clip-rule:evenodd;stroke-linejoin:round;stroke-miterlimit:2;">
    <g transform="matrix(1,0,0,1,-5.68434e-14,-470.278)">
        <g id="Logo_Pink">
        </g>
        <g id="Logo-FullGray" serif:id="Logo FullGray" transform="matrix(0.999963,0,0,1.65195,284.426,-306.525)">
            <rect x="-284.437" y="470.234" width="122.004" height="73.703" style="fill:none;"/>
            <clipPath id="_clip1">
                <rect x="-284.437" y="470.234" width="122.004" height="73.703"/>
            </clipPath>
            <g clip-path="url(#_clip1)">
                <g id="Ellipse-Color" serif:id="Ellipse Color" transform="matrix(1.02711,0,0,0.629359,-94.017,430.529)">
                    <g transform="matrix(1.12186,0,-0.0130665,1.08867,-344.42,-12.818)">
                        <ellipse cx="196.667" cy="110.502" rx="51.687" ry="31.172" style="fill:rgb(255,186,108);"/>
                    </g>
                    <g transform="matrix(1.14034,0,-0.0134676,1.12209,-349.045,-14.5345)">
                        <ellipse cx="196.667" cy="110.502" rx="51.687" ry="31.172" style="fill:rgb(171,91,0);"/>
                    </g>
                    <g transform="matrix(1.11931,0,0,1.07367,-345.495,-10.6937)">
                        <ellipse cx="196.667" cy="110.502" rx="51.687" ry="31.172" style="fill:rgb(255,135,0);"/>
                    </g>
                </g>
                <g transform="matrix(0.694289,0,0,0.42027,-736.257,461.824)">
                    <g id="text-logo" serif:id="text logo">
                        <g id="Color">
                            <g id="Text-Logo" serif:id="Text Logo" transform="matrix(1,0,0,1,-0.752025,0.68135)">
                                <g transform="matrix(1,0,0,1,263.108,76.6056)">
                                    <g transform="matrix(33.3333,0,0,33.3333,550.72,110.434)">
                                    </g>
                                    <text x="486.32px" y="110.434px" style="font-family:'Economica-Regular', 'Economica';font-size:33.333px;">digital</text>
                                </g>
                                <g transform="matrix(1,0,0,1,177.5,56.5996)">
                                    <g transform="matrix(50,0,0,50,516.32,110.434)">
                                        <path d="M0.254,0.006C0.244,0.006 0.233,0.004 0.221,0.001C0.208,-0.002 0.198,-0.006 0.189,-0.011C0.18,-0.016 0.175,-0.02 0.175,-0.025C0.175,-0.036 0.185,-0.041 0.205,-0.041C0.216,-0.041 0.23,-0.043 0.245,-0.048C0.26,-0.053 0.275,-0.058 0.288,-0.064C0.301,-0.069 0.309,-0.073 0.313,-0.076C0.31,-0.081 0.303,-0.09 0.292,-0.103C0.281,-0.116 0.269,-0.13 0.256,-0.147C0.243,-0.164 0.232,-0.18 0.223,-0.197C0.214,-0.18 0.203,-0.161 0.189,-0.139C0.174,-0.117 0.16,-0.097 0.147,-0.079C0.138,-0.067 0.127,-0.055 0.113,-0.043C0.099,-0.031 0.084,-0.025 0.068,-0.025C0.055,-0.025 0.047,-0.029 0.042,-0.037C0.037,-0.045 0.035,-0.057 0.035,-0.074C0.035,-0.083 0.035,-0.092 0.036,-0.102C0.037,-0.112 0.038,-0.123 0.04,-0.136C0.046,-0.181 0.053,-0.218 0.06,-0.245C0.067,-0.272 0.077,-0.285 0.088,-0.285C0.097,-0.285 0.106,-0.28 0.113,-0.269C0.12,-0.258 0.125,-0.251 0.128,-0.246C0.123,-0.237 0.117,-0.223 0.11,-0.204C0.102,-0.185 0.095,-0.164 0.089,-0.143C0.083,-0.122 0.08,-0.103 0.08,-0.087C0.08,-0.071 0.084,-0.063 0.091,-0.063C0.093,-0.063 0.095,-0.063 0.096,-0.064C0.111,-0.07 0.126,-0.082 0.141,-0.101C0.156,-0.12 0.17,-0.14 0.183,-0.161C0.196,-0.182 0.206,-0.2 0.215,-0.215C0.211,-0.225 0.209,-0.235 0.209,-0.245C0.209,-0.264 0.214,-0.281 0.224,-0.298C0.234,-0.314 0.247,-0.329 0.262,-0.343C0.277,-0.356 0.292,-0.368 0.308,-0.379C0.323,-0.389 0.337,-0.397 0.348,-0.404C0.353,-0.407 0.358,-0.408 0.363,-0.408C0.374,-0.408 0.384,-0.404 0.394,-0.397C0.403,-0.39 0.408,-0.383 0.408,-0.376C0.408,-0.375 0.407,-0.374 0.406,-0.371C0.401,-0.365 0.395,-0.356 0.389,-0.343C0.382,-0.33 0.377,-0.317 0.372,-0.304C0.367,-0.29 0.365,-0.277 0.365,-0.266C0.365,-0.253 0.362,-0.247 0.357,-0.247C0.354,-0.247 0.352,-0.25 0.351,-0.255C0.35,-0.26 0.349,-0.265 0.349,-0.27C0.349,-0.283 0.351,-0.298 0.356,-0.313C0.36,-0.328 0.363,-0.339 0.364,-0.346C0.357,-0.346 0.348,-0.342 0.335,-0.333C0.322,-0.324 0.309,-0.313 0.296,-0.299C0.283,-0.285 0.271,-0.271 0.262,-0.256C0.253,-0.241 0.248,-0.226 0.248,-0.213C0.248,-0.196 0.253,-0.179 0.262,-0.164C0.271,-0.149 0.282,-0.134 0.296,-0.121C0.309,-0.108 0.323,-0.096 0.336,-0.085C0.341,-0.087 0.349,-0.091 0.359,-0.096C0.369,-0.101 0.381,-0.111 0.395,-0.127C0.408,-0.143 0.423,-0.168 0.438,-0.201C0.439,-0.203 0.441,-0.204 0.444,-0.204C0.448,-0.204 0.45,-0.201 0.45,-0.196C0.45,-0.191 0.449,-0.186 0.446,-0.18C0.433,-0.147 0.417,-0.122 0.4,-0.105C0.382,-0.087 0.364,-0.073 0.346,-0.064C0.346,-0.063 0.346,-0.061 0.346,-0.059C0.347,-0.058 0.347,-0.056 0.347,-0.055C0.347,-0.041 0.342,-0.029 0.333,-0.021C0.323,-0.012 0.311,-0.005 0.297,-0.001C0.282,0.004 0.268,0.006 0.254,0.006ZM0.122,-0.327C0.118,-0.327 0.114,-0.328 0.11,-0.33C0.105,-0.331 0.101,-0.333 0.097,-0.335C0.094,-0.337 0.093,-0.34 0.093,-0.343C0.093,-0.349 0.097,-0.357 0.104,-0.366C0.111,-0.375 0.121,-0.382 0.132,-0.389C0.143,-0.396 0.154,-0.399 0.165,-0.399C0.171,-0.399 0.174,-0.397 0.174,-0.394C0.174,-0.391 0.171,-0.388 0.165,-0.384C0.158,-0.379 0.152,-0.371 0.149,-0.362C0.146,-0.353 0.142,-0.344 0.139,-0.338C0.136,-0.331 0.13,-0.327 0.122,-0.327Z" style="fill-rule:nonzero;"/>
                                    </g>
                                    <g transform="matrix(50,0,0,50,516.32,110.434)">
                                    </g>
                                    <g transform="matrix(50,0,0,50,523.243,110.434)">
                                    </g>
                                    <g transform="matrix(50,0,0,50,568.17,110.434)">
                                        <path d="M0.188,0.003C0.154,0.003 0.125,-0.006 0.101,-0.023C0.076,-0.04 0.058,-0.062 0.045,-0.089C0.032,-0.116 0.025,-0.145 0.025,-0.174C0.025,-0.198 0.03,-0.225 0.039,-0.255C0.026,-0.255 0.02,-0.26 0.02,-0.269C0.02,-0.276 0.027,-0.283 0.041,-0.288L0.054,-0.293C0.066,-0.319 0.081,-0.343 0.099,-0.366C0.116,-0.388 0.136,-0.406 0.159,-0.42C0.181,-0.434 0.204,-0.441 0.229,-0.441C0.243,-0.441 0.257,-0.439 0.27,-0.434C0.283,-0.429 0.295,-0.424 0.304,-0.418C0.313,-0.411 0.317,-0.405 0.317,-0.4C0.317,-0.398 0.316,-0.397 0.313,-0.397C0.31,-0.397 0.308,-0.398 0.306,-0.399C0.297,-0.403 0.288,-0.406 0.279,-0.407C0.27,-0.409 0.261,-0.41 0.253,-0.41C0.228,-0.41 0.204,-0.401 0.182,-0.384C0.16,-0.367 0.141,-0.345 0.124,-0.318L0.391,-0.412C0.407,-0.417 0.427,-0.422 0.452,-0.426C0.477,-0.43 0.5,-0.432 0.521,-0.432C0.546,-0.432 0.565,-0.429 0.578,-0.422C0.59,-0.415 0.596,-0.408 0.596,-0.401C0.596,-0.394 0.591,-0.391 0.58,-0.391C0.573,-0.391 0.563,-0.393 0.549,-0.398C0.534,-0.402 0.518,-0.404 0.501,-0.404C0.484,-0.404 0.467,-0.403 0.448,-0.401C0.429,-0.398 0.412,-0.395 0.399,-0.392C0.386,-0.389 0.379,-0.386 0.379,-0.383C0.379,-0.381 0.382,-0.38 0.389,-0.38C0.404,-0.379 0.419,-0.377 0.434,-0.373C0.449,-0.369 0.461,-0.362 0.472,-0.352C0.483,-0.341 0.488,-0.326 0.488,-0.306C0.488,-0.287 0.483,-0.264 0.471,-0.237C0.461,-0.21 0.445,-0.183 0.426,-0.156C0.407,-0.128 0.384,-0.102 0.359,-0.078C0.334,-0.054 0.306,-0.035 0.277,-0.02C0.248,-0.005 0.218,0.003 0.188,0.003ZM0.152,-0.031C0.176,-0.031 0.201,-0.038 0.226,-0.051C0.251,-0.065 0.276,-0.083 0.299,-0.104C0.322,-0.125 0.343,-0.149 0.362,-0.173C0.381,-0.199 0.396,-0.223 0.406,-0.246C0.418,-0.269 0.423,-0.289 0.423,-0.305C0.423,-0.328 0.416,-0.345 0.403,-0.354C0.389,-0.363 0.374,-0.368 0.359,-0.368C0.345,-0.368 0.328,-0.365 0.307,-0.359C0.285,-0.352 0.263,-0.344 0.238,-0.334C0.214,-0.324 0.19,-0.314 0.166,-0.303C0.142,-0.292 0.12,-0.283 0.101,-0.275C0.092,-0.254 0.085,-0.233 0.08,-0.212C0.075,-0.19 0.072,-0.169 0.072,-0.15C0.073,-0.134 0.075,-0.117 0.08,-0.099C0.084,-0.08 0.092,-0.064 0.103,-0.051C0.115,-0.038 0.131,-0.031 0.152,-0.031Z" style="fill-rule:nonzero;"/>
                                    </g>
                                    <g transform="matrix(50,0,0,50,568.17,110.434)">
                                    </g>
                                    <g transform="matrix(50,0,0,50,609.07,110.434)">
                                        <path d="M0.145,0.015C0.105,0.015 0.073,0.006 0.048,-0.013C0.023,-0.031 0.01,-0.054 0.01,-0.083C0.01,-0.12 0.018,-0.158 0.033,-0.196C0.048,-0.233 0.068,-0.268 0.093,-0.299C0.118,-0.33 0.145,-0.355 0.175,-0.374C0.205,-0.393 0.234,-0.402 0.263,-0.402C0.278,-0.402 0.291,-0.398 0.304,-0.389C0.316,-0.38 0.322,-0.373 0.322,-0.366C0.321,-0.367 0.318,-0.362 0.311,-0.349C0.304,-0.336 0.297,-0.321 0.29,-0.303C0.283,-0.284 0.278,-0.267 0.276,-0.252C0.297,-0.255 0.313,-0.257 0.324,-0.26C0.335,-0.263 0.34,-0.264 0.341,-0.264C0.351,-0.264 0.356,-0.262 0.356,-0.258C0.356,-0.255 0.347,-0.25 0.33,-0.245C0.312,-0.239 0.289,-0.233 0.262,-0.228C0.234,-0.222 0.205,-0.217 0.174,-0.212C0.144,-0.207 0.116,-0.204 0.091,-0.202C0.082,-0.183 0.075,-0.164 0.07,-0.145C0.065,-0.126 0.062,-0.107 0.062,-0.09C0.062,-0.067 0.069,-0.048 0.082,-0.033C0.095,-0.018 0.117,-0.01 0.149,-0.01C0.198,-0.01 0.246,-0.019 0.292,-0.037C0.338,-0.055 0.381,-0.08 0.421,-0.111C0.46,-0.142 0.495,-0.178 0.526,-0.218C0.556,-0.257 0.58,-0.299 0.598,-0.343C0.6,-0.348 0.602,-0.35 0.605,-0.35C0.609,-0.35 0.613,-0.346 0.616,-0.337C0.619,-0.328 0.621,-0.319 0.621,-0.31C0.621,-0.304 0.62,-0.298 0.618,-0.293C0.606,-0.258 0.587,-0.226 0.562,-0.195C0.536,-0.164 0.506,-0.135 0.471,-0.11C0.436,-0.084 0.4,-0.062 0.362,-0.043C0.323,-0.024 0.285,-0.01 0.248,-0C0.211,0.01 0.176,0.015 0.145,0.015ZM0.159,-0.245C0.178,-0.245 0.195,-0.246 0.211,-0.247C0.227,-0.248 0.241,-0.248 0.254,-0.249C0.253,-0.254 0.251,-0.26 0.25,-0.267C0.249,-0.274 0.248,-0.281 0.248,-0.29C0.248,-0.301 0.25,-0.312 0.254,-0.324C0.258,-0.336 0.262,-0.347 0.266,-0.358C0.269,-0.368 0.271,-0.375 0.271,-0.379C0.271,-0.382 0.27,-0.383 0.269,-0.383L0.263,-0.383C0.252,-0.383 0.237,-0.377 0.219,-0.366C0.2,-0.354 0.177,-0.333 0.152,-0.302C0.139,-0.287 0.127,-0.269 0.114,-0.247C0.121,-0.246 0.128,-0.246 0.136,-0.246C0.143,-0.245 0.151,-0.245 0.159,-0.245Z" style="fill-rule:nonzero;"/>
                                    </g>
                                    <g transform="matrix(50,0,0,50,609.07,110.434)">
                                    </g>
                                    <g transform="matrix(50,0,0,50,637.67,110.434)">
                                    </g>
                                    <text x="486.32px" y="110.434px" style="font-family:'Comforter-Regular', 'Comforter';font-size:50px;">F<tspan x="535.77px 550.32px 593.32px " y="110.434px 110.434px 110.434px ">hbn</tspan></text>
                                </g>
                            </g>
                            <g transform="matrix(1,0,0,1,263.108,76.6056)">
                                <g transform="matrix(33.3333,0,0,33.3333,550.72,110.434)">
                                </g>
                                <text x="486.32px" y="110.434px" style="font-family:'Economica-Regular', 'Economica';font-size:33.333px;fill:rgb(59,110,165);">digital</text>
                            </g>
                            <g transform="matrix(1,0,0,1,177.5,56.5996)">
                                <g transform="matrix(50,0,0,50,516.32,110.434)">
                                    <path d="M0.254,0.006C0.244,0.006 0.233,0.004 0.221,0.001C0.208,-0.002 0.198,-0.006 0.189,-0.011C0.18,-0.016 0.175,-0.02 0.175,-0.025C0.175,-0.036 0.185,-0.041 0.205,-0.041C0.216,-0.041 0.23,-0.043 0.245,-0.048C0.26,-0.053 0.275,-0.058 0.288,-0.064C0.301,-0.069 0.309,-0.073 0.313,-0.076C0.31,-0.081 0.303,-0.09 0.292,-0.103C0.281,-0.116 0.269,-0.13 0.256,-0.147C0.243,-0.164 0.232,-0.18 0.223,-0.197C0.214,-0.18 0.203,-0.161 0.189,-0.139C0.174,-0.117 0.16,-0.097 0.147,-0.079C0.138,-0.067 0.127,-0.055 0.113,-0.043C0.099,-0.031 0.084,-0.025 0.068,-0.025C0.055,-0.025 0.047,-0.029 0.042,-0.037C0.037,-0.045 0.035,-0.057 0.035,-0.074C0.035,-0.083 0.035,-0.092 0.036,-0.102C0.037,-0.112 0.038,-0.123 0.04,-0.136C0.046,-0.181 0.053,-0.218 0.06,-0.245C0.067,-0.272 0.077,-0.285 0.088,-0.285C0.097,-0.285 0.106,-0.28 0.113,-0.269C0.12,-0.258 0.125,-0.251 0.128,-0.246C0.123,-0.237 0.117,-0.223 0.11,-0.204C0.102,-0.185 0.095,-0.164 0.089,-0.143C0.083,-0.122 0.08,-0.103 0.08,-0.087C0.08,-0.071 0.084,-0.063 0.091,-0.063C0.093,-0.063 0.095,-0.063 0.096,-0.064C0.111,-0.07 0.126,-0.082 0.141,-0.101C0.156,-0.12 0.17,-0.14 0.183,-0.161C0.196,-0.182 0.206,-0.2 0.215,-0.215C0.211,-0.225 0.209,-0.235 0.209,-0.245C0.209,-0.264 0.214,-0.281 0.224,-0.298C0.234,-0.314 0.247,-0.329 0.262,-0.343C0.277,-0.356 0.292,-0.368 0.308,-0.379C0.323,-0.389 0.337,-0.397 0.348,-0.404C0.353,-0.407 0.358,-0.408 0.363,-0.408C0.374,-0.408 0.384,-0.404 0.394,-0.397C0.403,-0.39 0.408,-0.383 0.408,-0.376C0.408,-0.375 0.407,-0.374 0.406,-0.371C0.401,-0.365 0.395,-0.356 0.389,-0.343C0.382,-0.33 0.377,-0.317 0.372,-0.304C0.367,-0.29 0.365,-0.277 0.365,-0.266C0.365,-0.253 0.362,-0.247 0.357,-0.247C0.354,-0.247 0.352,-0.25 0.351,-0.255C0.35,-0.26 0.349,-0.265 0.349,-0.27C0.349,-0.283 0.351,-0.298 0.356,-0.313C0.36,-0.328 0.363,-0.339 0.364,-0.346C0.357,-0.346 0.348,-0.342 0.335,-0.333C0.322,-0.324 0.309,-0.313 0.296,-0.299C0.283,-0.285 0.271,-0.271 0.262,-0.256C0.253,-0.241 0.248,-0.226 0.248,-0.213C0.248,-0.196 0.253,-0.179 0.262,-0.164C0.271,-0.149 0.282,-0.134 0.296,-0.121C0.309,-0.108 0.323,-0.096 0.336,-0.085C0.341,-0.087 0.349,-0.091 0.359,-0.096C0.369,-0.101 0.381,-0.111 0.395,-0.127C0.408,-0.143 0.423,-0.168 0.438,-0.201C0.439,-0.203 0.441,-0.204 0.444,-0.204C0.448,-0.204 0.45,-0.201 0.45,-0.196C0.45,-0.191 0.449,-0.186 0.446,-0.18C0.433,-0.147 0.417,-0.122 0.4,-0.105C0.382,-0.087 0.364,-0.073 0.346,-0.064C0.346,-0.063 0.346,-0.061 0.346,-0.059C0.347,-0.058 0.347,-0.056 0.347,-0.055C0.347,-0.041 0.342,-0.029 0.333,-0.021C0.323,-0.012 0.311,-0.005 0.297,-0.001C0.282,0.004 0.268,0.006 0.254,0.006ZM0.122,-0.327C0.118,-0.327 0.114,-0.328 0.11,-0.33C0.105,-0.331 0.101,-0.333 0.097,-0.335C0.094,-0.337 0.093,-0.34 0.093,-0.343C0.093,-0.349 0.097,-0.357 0.104,-0.366C0.111,-0.375 0.121,-0.382 0.132,-0.389C0.143,-0.396 0.154,-0.399 0.165,-0.399C0.171,-0.399 0.174,-0.397 0.174,-0.394C0.174,-0.391 0.171,-0.388 0.165,-0.384C0.158,-0.379 0.152,-0.371 0.149,-0.362C0.146,-0.353 0.142,-0.344 0.139,-0.338C0.136,-0.331 0.13,-0.327 0.122,-0.327Z" style="fill:rgb(247,37,133);fill-rule:nonzero;"/>
                                </g>
                                <g transform="matrix(50,0,0,50,516.32,110.434)">
                                </g>
                                <g transform="matrix(50,0,0,50,523.243,110.434)">
                                </g>
                                <g transform="matrix(50,0,0,50,568.17,110.434)">
                                    <path d="M0.188,0.003C0.154,0.003 0.125,-0.006 0.101,-0.023C0.076,-0.04 0.058,-0.062 0.045,-0.089C0.032,-0.116 0.025,-0.145 0.025,-0.174C0.025,-0.198 0.03,-0.225 0.039,-0.255C0.026,-0.255 0.02,-0.26 0.02,-0.269C0.02,-0.276 0.027,-0.283 0.041,-0.288L0.054,-0.293C0.066,-0.319 0.081,-0.343 0.099,-0.366C0.116,-0.388 0.136,-0.406 0.159,-0.42C0.181,-0.434 0.204,-0.441 0.229,-0.441C0.243,-0.441 0.257,-0.439 0.27,-0.434C0.283,-0.429 0.295,-0.424 0.304,-0.418C0.313,-0.411 0.317,-0.405 0.317,-0.4C0.317,-0.398 0.316,-0.397 0.313,-0.397C0.31,-0.397 0.308,-0.398 0.306,-0.399C0.297,-0.403 0.288,-0.406 0.279,-0.407C0.27,-0.409 0.261,-0.41 0.253,-0.41C0.228,-0.41 0.204,-0.401 0.182,-0.384C0.16,-0.367 0.141,-0.345 0.124,-0.318L0.391,-0.412C0.407,-0.417 0.427,-0.422 0.452,-0.426C0.477,-0.43 0.5,-0.432 0.521,-0.432C0.546,-0.432 0.565,-0.429 0.578,-0.422C0.59,-0.415 0.596,-0.408 0.596,-0.401C0.596,-0.394 0.591,-0.391 0.58,-0.391C0.573,-0.391 0.563,-0.393 0.549,-0.398C0.534,-0.402 0.518,-0.404 0.501,-0.404C0.484,-0.404 0.467,-0.403 0.448,-0.401C0.429,-0.398 0.412,-0.395 0.399,-0.392C0.386,-0.389 0.379,-0.386 0.379,-0.383C0.379,-0.381 0.382,-0.38 0.389,-0.38C0.404,-0.379 0.419,-0.377 0.434,-0.373C0.449,-0.369 0.461,-0.362 0.472,-0.352C0.483,-0.341 0.488,-0.326 0.488,-0.306C0.488,-0.287 0.483,-0.264 0.471,-0.237C0.461,-0.21 0.445,-0.183 0.426,-0.156C0.407,-0.128 0.384,-0.102 0.359,-0.078C0.334,-0.054 0.306,-0.035 0.277,-0.02C0.248,-0.005 0.218,0.003 0.188,0.003ZM0.152,-0.031C0.176,-0.031 0.201,-0.038 0.226,-0.051C0.251,-0.065 0.276,-0.083 0.299,-0.104C0.322,-0.125 0.343,-0.149 0.362,-0.173C0.381,-0.199 0.396,-0.223 0.406,-0.246C0.418,-0.269 0.423,-0.289 0.423,-0.305C0.423,-0.328 0.416,-0.345 0.403,-0.354C0.389,-0.363 0.374,-0.368 0.359,-0.368C0.345,-0.368 0.328,-0.365 0.307,-0.359C0.285,-0.352 0.263,-0.344 0.238,-0.334C0.214,-0.324 0.19,-0.314 0.166,-0.303C0.142,-0.292 0.12,-0.283 0.101,-0.275C0.092,-0.254 0.085,-0.233 0.08,-0.212C0.075,-0.19 0.072,-0.169 0.072,-0.15C0.073,-0.134 0.075,-0.117 0.08,-0.099C0.084,-0.08 0.092,-0.064 0.103,-0.051C0.115,-0.038 0.131,-0.031 0.152,-0.031Z" style="fill:rgb(247,37,133);fill-rule:nonzero;"/>
                                </g>
                                <g transform="matrix(50,0,0,50,568.17,110.434)">
                                </g>
                                <g transform="matrix(50,0,0,50,609.07,110.434)">
                                    <path d="M0.145,0.015C0.105,0.015 0.073,0.006 0.048,-0.013C0.023,-0.031 0.01,-0.054 0.01,-0.083C0.01,-0.12 0.018,-0.158 0.033,-0.196C0.048,-0.233 0.068,-0.268 0.093,-0.299C0.118,-0.33 0.145,-0.355 0.175,-0.374C0.205,-0.393 0.234,-0.402 0.263,-0.402C0.278,-0.402 0.291,-0.398 0.304,-0.389C0.316,-0.38 0.322,-0.373 0.322,-0.366C0.321,-0.367 0.318,-0.362 0.311,-0.349C0.304,-0.336 0.297,-0.321 0.29,-0.303C0.283,-0.284 0.278,-0.267 0.276,-0.252C0.297,-0.255 0.313,-0.257 0.324,-0.26C0.335,-0.263 0.34,-0.264 0.341,-0.264C0.351,-0.264 0.356,-0.262 0.356,-0.258C0.356,-0.255 0.347,-0.25 0.33,-0.245C0.312,-0.239 0.289,-0.233 0.262,-0.228C0.234,-0.222 0.205,-0.217 0.174,-0.212C0.144,-0.207 0.116,-0.204 0.091,-0.202C0.082,-0.183 0.075,-0.164 0.07,-0.145C0.065,-0.126 0.062,-0.107 0.062,-0.09C0.062,-0.067 0.069,-0.048 0.082,-0.033C0.095,-0.018 0.117,-0.01 0.149,-0.01C0.198,-0.01 0.246,-0.019 0.292,-0.037C0.338,-0.055 0.381,-0.08 0.421,-0.111C0.46,-0.142 0.495,-0.178 0.526,-0.218C0.556,-0.257 0.58,-0.299 0.598,-0.343C0.6,-0.348 0.602,-0.35 0.605,-0.35C0.609,-0.35 0.613,-0.346 0.616,-0.337C0.619,-0.328 0.621,-0.319 0.621,-0.31C0.621,-0.304 0.62,-0.298 0.618,-0.293C0.606,-0.258 0.587,-0.226 0.562,-0.195C0.536,-0.164 0.506,-0.135 0.471,-0.11C0.436,-0.084 0.4,-0.062 0.362,-0.043C0.323,-0.024 0.285,-0.01 0.248,-0C0.211,0.01 0.176,0.015 0.145,0.015ZM0.159,-0.245C0.178,-0.245 0.195,-0.246 0.211,-0.247C0.227,-0.248 0.241,-0.248 0.254,-0.249C0.253,-0.254 0.251,-0.26 0.25,-0.267C0.249,-0.274 0.248,-0.281 0.248,-0.29C0.248,-0.301 0.25,-0.312 0.254,-0.324C0.258,-0.336 0.262,-0.347 0.266,-0.358C0.269,-0.368 0.271,-0.375 0.271,-0.379C0.271,-0.382 0.27,-0.383 0.269,-0.383L0.263,-0.383C0.252,-0.383 0.237,-0.377 0.219,-0.366C0.2,-0.354 0.177,-0.333 0.152,-0.302C0.139,-0.287 0.127,-0.269 0.114,-0.247C0.121,-0.246 0.128,-0.246 0.136,-0.246C0.143,-0.245 0.151,-0.245 0.159,-0.245Z" style="fill:rgb(247,37,133);fill-rule:nonzero;"/>
                                </g>
                                <g transform="matrix(50,0,0,50,609.07,110.434)">
                                </g>
                                <g transform="matrix(50,0,0,50,637.67,110.434)">
                                </g>
                                <text x="486.32px" y="110.434px" style="font-family:'Comforter-Regular', 'Comforter';font-size:50px;fill:rgb(247,37,133);">F<tspan x="535.77px 550.32px 593.32px " y="110.434px 110.434px 110.434px ">hbn</tspan></text>
                            </g>
                            <g transform="matrix(1,0,0,1,-89.7662,-142.841)">
                                <g transform="matrix(1,0,0,1,262.356,77.287)">
                                    <g transform="matrix(33.3333,0,0,33.3333,561.953,110.434)">
                                    </g>
                                    <text x="486.32px" y="110.434px" style="font-family:'Economica-Regular', 'Economica';font-size:33.333px;">buil<tspan x="524.986px " y="110.434px ">t</tspan> by</text>
                                </g>
                                <g transform="matrix(1,0,0,1,263.108,76.6056)">
                                    <g transform="matrix(33.3333,0,0,33.3333,561.953,110.434)">
                                    </g>
                                    <text x="486.32px" y="110.434px" style="font-family:'Economica-Regular', 'Economica';font-size:33.333px;fill:rgb(20,118,154);">buil<tspan x="524.986px " y="110.434px ">t</tspan> by</text>
                                </g>
                            </g>
                        </g>
                    </g>
                </g>
                <g transform="matrix(1.02711,0,0,0.629359,-95.4402,430.991)">
                    <g id="Fishbone">
                        <g>
                            <g transform="matrix(0.973643,0,0,0.961844,-4.70028,5.72737)">
                                <g transform="matrix(1,0,0,1,-1560.11,-2265.92)">
                                    <g transform="matrix(1,0,0,1,-697.271,107.563)">
                                        <path d="M2102.87,2241.58C2113.3,2259.95 2111.25,2273.11 2103.4,2294.2L2106.22,2289.85C2115.16,2269.5 2116.52,2264.37 2107.79,2243.19L2102.87,2241.58Z"/>
                                    </g>
                                    <g transform="matrix(1,0,0,1,-697.19,107.196)">
                                        <path d="M2135.78,2241.81C2143.38,2262.59 2145.35,2279.36 2137.32,2300.14L2140.88,2295.02C2148.9,2273.33 2147.6,2260.77 2139.99,2239.08L2135.78,2241.81Z"/>
                                    </g>
                                    <g transform="matrix(1,0,0,1,-697.19,107.196)">
                                        <path d="M2121.34,2233.2L2119.15,2238.65C2126.37,2261.08 2128.27,2277.79 2120.7,2298.98L2124.24,2293.52C2132.44,2271.47 2131.22,2260.29 2123.39,2238.65L2121.34,2233.2Z"/>
                                    </g>
                                    <g transform="matrix(1,0,0,1,-690.859,137.595)">
                                        <path d="M2145.01,2236.28C2140.74,2234.05 2127.85,2233.98 2123.11,2235.69L2123.22,2238.08C2128.04,2239.16 2141.03,2240.2 2145.05,2238.64L2145.01,2236.28Z"/>
                                    </g>
                                    <g transform="matrix(0.92616,-0.377131,-0.377131,-0.92616,308.778,5244.11)">
                                        <path d="M2121.34,2233.2C2113.9,2234.8 2102.11,2239.67 2096.35,2242.47C2096.35,2242.47 2117.61,2238.64 2122.24,2236.44L2120.56,2233.38"/>
                                    </g>
                                </g>
                                <g transform="matrix(0.842131,0,0,0.842337,-24.2034,17.2613)">
                                    <path d="M-151.156,110.322C-159.01,124.087 -170.025,133.82 -183.218,140.773C-174.848,121.783 -178.208,93.58 -181.558,87.111C-180.852,86.211 -178.244,83.208 -178.08,83.171C-178.08,83.171 -157.695,99.508 -151.156,110.322ZM-156.981,110.322C-161.293,117.878 -167.339,123.221 -174.581,127.038C-170.114,115.368 -170.458,104.265 -174.581,93.606C-167.218,98.109 -161.11,103.493 -156.981,110.322Z"/>
                                </g>
                                <g transform="matrix(2.01216,-0.0618577,0,1.9704,-354.968,42.8946)">
                                    <path d="M144.097,36.787C140.459,42.649 134.933,46.62 127.556,48.737C122.285,40.851 122.558,32.896 127.556,24.837C134.194,26.963 140.106,30.289 144.097,36.787ZM132.65,30.732C134.597,30.732 136.179,32.314 136.179,34.261C136.179,36.209 134.597,37.79 132.65,37.79C130.702,37.79 129.121,36.209 129.121,34.261C129.121,32.314 130.702,30.732 132.65,30.732Z"/>
                                </g>
                            </g>
                            <g transform="matrix(0.973643,0,0,0.961844,-1.77935,2.84184)">
                                <g transform="matrix(1,0,0,1,-1560.11,-2265.92)">
                                    <g transform="matrix(1,0,0,1,-697.271,107.563)">
                                        <path d="M2102.87,2241.58C2113.3,2259.95 2111.25,2273.11 2103.4,2294.2L2106.22,2289.85C2115.16,2269.5 2116.52,2264.37 2107.79,2243.19L2102.87,2241.58Z" style="fill:white;"/>
                                    </g>
                                    <g transform="matrix(1,0,0,1,-697.19,107.196)">
                                        <path d="M2135.78,2241.81C2143.38,2262.59 2145.35,2279.36 2137.32,2300.14L2140.88,2295.02C2148.9,2273.33 2147.6,2260.77 2139.99,2239.08L2135.78,2241.81Z" style="fill:white;"/>
                                    </g>
                                    <g transform="matrix(1,0,0,1,-697.19,107.196)">
                                        <path d="M2121.34,2233.2L2119.15,2238.65C2126.37,2261.08 2128.27,2277.79 2120.7,2298.98L2124.24,2293.52C2132.44,2271.47 2131.22,2260.29 2123.39,2238.65L2121.34,2233.2Z" style="fill:white;"/>
                                    </g>
                                    <g transform="matrix(1,0,0,1,-690.859,137.595)">
                                        <path d="M2144.98,2236.73C2140.7,2234.5 2127.85,2233.98 2123.11,2235.69L2123.22,2238.08C2128.04,2239.16 2141.03,2240.2 2145.05,2238.64L2144.98,2236.73Z" style="fill:white;"/>
                                    </g>
                                    <g transform="matrix(0.92616,-0.377131,-0.377131,-0.92616,308.778,5244.11)">
                                        <path d="M2119.04,2234.03C2111.35,2235 2102.11,2239.67 2096.35,2242.47C2096.35,2242.47 2116.87,2239.92 2120.07,2236.41L2120.66,2233.36" style="fill:white;"/>
                                    </g>
                                </g>
                                <g transform="matrix(0.842935,0,0,0.842935,-24.6903,17.4077)">
                                    <path d="M-151.156,110.322C-159.01,124.087 -170.025,133.82 -183.218,140.773C-175.079,119.515 -175.707,99.288 -183.218,79.871C-169.804,88.075 -158.678,97.882 -151.156,110.322ZM-156.981,110.322C-161.293,117.878 -167.339,123.221 -174.581,127.038C-170.114,115.368 -170.458,104.265 -174.581,93.606C-167.218,98.109 -161.11,103.493 -156.981,110.322Z" style="fill:white;"/>
                                </g>
                                <g transform="matrix(1.9704,0,0,1.9704,-351.017,35.2947)">
                                    <path d="M144.097,36.787C140.459,42.649 134.933,46.62 127.556,48.737C122.398,40.912 122.637,32.939 127.556,24.837C134.194,26.963 140.106,30.289 144.097,36.787ZM132.65,30.732C134.597,30.732 136.179,32.314 136.179,34.261C136.179,36.209 134.597,37.79 132.65,37.79C130.702,37.79 129.121,36.209 129.121,34.261C129.121,32.314 130.702,30.732 132.65,30.732Z" style="fill:white;"/>
                                </g>
                            </g>
                            <g transform="matrix(0.769508,-0.589293,0.596522,0.760183,-285.791,183.635)">
                                <path d="M147.22,-11.002L148.617,-6.314C147.216,-6.302 147.297,-6.44 144.969,-5.889L147.22,-11.002Z"/>
                            </g>
                        </g>
                    </g>
                </g>
            </g>
        </g>
        <g id="Swatches">
        </g>
        <g id="Icon_Blue">
        </g>
        <g id="Icon_Gunmetal">
        </g>
    </g>
</svg>
