<?xml version="1.0" encoding="UTF-8" standalone="no"?>
<!DOCTYPE svg PUBLIC "-//W3C//DTD SVG 1.1//EN" "http://www.w3.org/Graphics/SVG/1.1/DTD/svg11.dtd">
<svg width="100%" height="100%" viewBox="0 0 155 70" version="1.1" xmlns="http://www.w3.org/2000/svg" xmlns:xlink="http://www.w3.org/1999/xlink" xml:space="preserve" xmlns:serif="http://www.serif.com/" style="fill-rule:evenodd;clip-rule:evenodd;stroke-linejoin:round;stroke-miterlimit:2;">
    <g transform="matrix(1,0,0,1,-7.10543e-15,-380.329)">
        <g id="Text-Logo" serif:id="Text Logo">
        </g>
        <g id="Text-Logo-Gray" serif:id="Text Logo Gray" transform="matrix(0.815032,0,0,0.836289,15.1687,62.6918)">
            <rect x="-18.611" y="379.817" width="189.174" height="83.591" style="fill:none;"/>
            <g id="Text-Logo-Gray1" serif:id="Text Logo Gray" transform="matrix(1.22695,0,0,1.19576,-832.815,230.533)">
                <g transform="matrix(1,0,0,1,262.931,77.5171)">
                    <g transform="matrix(33.3333,0,0,33.3333,486.32,110.434)">
                        <path d="M0.051,-0.16C0.05,-0.182 0.05,-0.212 0.05,-0.25C0.05,-0.288 0.05,-0.314 0.051,-0.329C0.051,-0.344 0.051,-0.361 0.052,-0.382C0.053,-0.402 0.054,-0.417 0.056,-0.428C0.057,-0.438 0.059,-0.45 0.063,-0.464C0.066,-0.477 0.069,-0.487 0.074,-0.494C0.079,-0.501 0.084,-0.508 0.091,-0.516C0.098,-0.524 0.105,-0.529 0.114,-0.532C0.137,-0.54 0.161,-0.544 0.186,-0.544L0.26,-0.516L0.26,-0.732C0.289,-0.732 0.306,-0.73 0.311,-0.726C0.316,-0.722 0.318,-0.709 0.318,-0.686L0.318,-0C0.289,-0 0.272,-0.002 0.267,-0.007C0.262,-0.011 0.26,-0.026 0.26,-0.053L0.181,0.007C0.136,0.007 0.102,-0.005 0.078,-0.03C0.062,-0.047 0.053,-0.09 0.051,-0.16ZM0.113,-0.4C0.111,-0.376 0.11,-0.357 0.11,-0.343C0.109,-0.328 0.109,-0.289 0.109,-0.226C0.109,-0.162 0.112,-0.118 0.118,-0.095C0.132,-0.064 0.153,-0.048 0.182,-0.046L0.264,-0.091L0.26,-0.116L0.26,-0.44L0.264,-0.465L0.182,-0.491C0.157,-0.491 0.14,-0.483 0.131,-0.466C0.12,-0.446 0.114,-0.424 0.113,-0.4Z" style="fill-rule:nonzero;"/>
                    </g>
                    <g transform="matrix(33.3333,0,0,33.3333,498.92,110.434)">
                        <path d="M0.135,-0.643C0.126,-0.633 0.115,-0.629 0.102,-0.629C0.089,-0.629 0.079,-0.633 0.07,-0.643C0.061,-0.652 0.056,-0.663 0.056,-0.676C0.056,-0.689 0.061,-0.699 0.07,-0.708C0.079,-0.716 0.089,-0.72 0.102,-0.72C0.115,-0.72 0.126,-0.716 0.135,-0.707C0.143,-0.698 0.148,-0.688 0.148,-0.675C0.148,-0.662 0.143,-0.652 0.135,-0.643ZM0.073,-0.042L0.073,-0.537C0.102,-0.537 0.119,-0.535 0.125,-0.532C0.13,-0.528 0.132,-0.514 0.132,-0.491L0.132,0.004C0.103,0.004 0.086,0.002 0.081,-0.002C0.076,-0.006 0.073,-0.019 0.073,-0.042Z" style="fill-rule:nonzero;"/>
                    </g>
                    <g transform="matrix(33.3333,0,0,33.3333,505.686,110.434)">
                        <path d="M0.207,0.2L0.162,0.2C0.137,0.2 0.123,0.198 0.118,0.194C0.114,0.19 0.112,0.176 0.112,0.153L0.207,0.146C0.244,0.146 0.267,0.139 0.276,0.126C0.281,0.118 0.283,0.11 0.284,0.102C0.285,0.095 0.286,0.084 0.286,0.071C0.286,0.058 0.285,0.048 0.284,0.042C0.283,0.036 0.281,0.03 0.276,0.024C0.268,0.013 0.246,0.007 0.21,0.007C0.131,0.007 0.085,0.003 0.071,-0.004C0.058,-0.011 0.051,-0.034 0.051,-0.071C0.051,-0.108 0.055,-0.135 0.064,-0.15C0.072,-0.165 0.085,-0.176 0.102,-0.184C0.083,-0.198 0.069,-0.215 0.062,-0.234C0.055,-0.254 0.051,-0.285 0.051,-0.326C0.051,-0.367 0.051,-0.396 0.053,-0.412C0.054,-0.428 0.056,-0.444 0.059,-0.461C0.062,-0.478 0.067,-0.49 0.074,-0.499C0.08,-0.508 0.088,-0.516 0.099,-0.524C0.118,-0.537 0.151,-0.544 0.198,-0.544L0.353,-0.544C0.353,-0.519 0.351,-0.505 0.346,-0.5C0.342,-0.496 0.327,-0.494 0.302,-0.494C0.313,-0.474 0.319,-0.455 0.321,-0.438C0.323,-0.421 0.324,-0.386 0.324,-0.333C0.324,-0.28 0.323,-0.246 0.321,-0.23C0.319,-0.213 0.314,-0.198 0.306,-0.183C0.297,-0.168 0.284,-0.158 0.268,-0.153C0.251,-0.147 0.231,-0.144 0.208,-0.144C0.185,-0.144 0.169,-0.144 0.16,-0.143C0.151,-0.143 0.142,-0.142 0.135,-0.14C0.128,-0.138 0.122,-0.136 0.119,-0.135C0.116,-0.133 0.113,-0.129 0.111,-0.123C0.109,-0.117 0.108,-0.112 0.108,-0.108L0.108,-0.077C0.108,-0.064 0.113,-0.056 0.123,-0.053C0.133,-0.05 0.164,-0.049 0.216,-0.049C0.268,-0.049 0.302,-0.042 0.319,-0.029C0.335,-0.016 0.343,0.016 0.343,0.067C0.343,0.118 0.335,0.153 0.318,0.172C0.301,0.191 0.264,0.2 0.207,0.2ZM0.11,-0.353C0.11,-0.294 0.116,-0.254 0.127,-0.231C0.138,-0.208 0.16,-0.197 0.195,-0.197C0.23,-0.197 0.251,-0.205 0.258,-0.222C0.265,-0.239 0.269,-0.278 0.269,-0.339C0.269,-0.4 0.266,-0.439 0.261,-0.454C0.252,-0.479 0.23,-0.491 0.194,-0.491C0.158,-0.491 0.135,-0.483 0.125,-0.466C0.115,-0.449 0.11,-0.412 0.11,-0.353Z" style="fill-rule:nonzero;"/>
                    </g>
                    <g transform="matrix(33.3333,0,0,33.3333,518.953,110.434)">
                        <path d="M0.135,-0.643C0.126,-0.633 0.115,-0.629 0.102,-0.629C0.089,-0.629 0.079,-0.633 0.07,-0.643C0.061,-0.652 0.056,-0.663 0.056,-0.676C0.056,-0.689 0.061,-0.699 0.07,-0.708C0.079,-0.716 0.089,-0.72 0.102,-0.72C0.115,-0.72 0.126,-0.716 0.135,-0.707C0.143,-0.698 0.148,-0.688 0.148,-0.675C0.148,-0.662 0.143,-0.652 0.135,-0.643ZM0.073,-0.042L0.073,-0.537C0.102,-0.537 0.119,-0.535 0.125,-0.532C0.13,-0.528 0.132,-0.514 0.132,-0.491L0.132,0.004C0.103,0.004 0.086,0.002 0.081,-0.002C0.076,-0.006 0.073,-0.019 0.073,-0.042Z" style="fill-rule:nonzero;"/>
                    </g>
                    <g transform="matrix(33.3333,0,0,33.3333,525.72,110.434)">
                        <path d="M0.057,-0.228L0.057,-0.458L0.061,-0.483L0.018,-0.483L0.018,-0.537L0.061,-0.537L0.057,-0.572L0.057,-0.616C0.086,-0.616 0.103,-0.614 0.109,-0.61C0.114,-0.606 0.116,-0.593 0.116,-0.57L0.112,-0.537L0.204,-0.537C0.204,-0.512 0.202,-0.497 0.198,-0.492C0.193,-0.486 0.179,-0.483 0.156,-0.483L0.112,-0.483L0.116,-0.458L0.116,-0.228C0.116,-0.152 0.118,-0.103 0.122,-0.08C0.126,-0.057 0.137,-0.046 0.156,-0.046L0.224,-0.046L0.224,-0L0.155,0.005C0.109,0.005 0.081,-0.009 0.071,-0.038C0.062,-0.066 0.057,-0.129 0.057,-0.228Z" style="fill-rule:nonzero;"/>
                    </g>
                    <g transform="matrix(33.3333,0,0,33.3333,533.353,110.434)">
                        <path d="M0.23,-0.377L0.23,-0.433C0.23,-0.46 0.227,-0.476 0.221,-0.484C0.214,-0.491 0.199,-0.494 0.175,-0.494L0.125,-0.484C0.118,-0.483 0.113,-0.482 0.11,-0.482C0.087,-0.482 0.075,-0.497 0.075,-0.527L0.175,-0.544C0.225,-0.544 0.255,-0.537 0.266,-0.524C0.271,-0.517 0.276,-0.512 0.279,-0.507C0.281,-0.502 0.283,-0.494 0.284,-0.482C0.286,-0.463 0.287,-0.44 0.287,-0.415L0.287,-0C0.257,-0 0.239,-0.002 0.234,-0.007C0.229,-0.011 0.226,-0.025 0.226,-0.05C0.219,-0.046 0.21,-0.039 0.198,-0.028C0.173,-0.005 0.151,0.007 0.134,0.007C0.093,0.007 0.069,-0.006 0.062,-0.032C0.054,-0.057 0.05,-0.128 0.05,-0.245C0.05,-0.29 0.069,-0.319 0.108,-0.334C0.14,-0.346 0.181,-0.352 0.23,-0.352L0.234,-0.352L0.23,-0.377ZM0.226,-0.296C0.187,-0.296 0.158,-0.293 0.139,-0.288C0.119,-0.282 0.109,-0.27 0.109,-0.253C0.109,-0.131 0.112,-0.064 0.117,-0.053C0.12,-0.048 0.126,-0.046 0.135,-0.046C0.144,-0.046 0.155,-0.049 0.166,-0.054C0.177,-0.059 0.188,-0.067 0.201,-0.076C0.213,-0.085 0.223,-0.091 0.23,-0.094L0.226,-0.119L0.226,-0.271L0.23,-0.296L0.226,-0.296Z" style="fill-rule:nonzero;"/>
                    </g>
                    <g transform="matrix(33.3333,0,0,33.3333,544.753,110.434)">
                        <path d="M0.065,-0.042L0.065,-0.732C0.094,-0.732 0.112,-0.73 0.117,-0.726C0.122,-0.722 0.124,-0.709 0.124,-0.686L0.124,0.004C0.095,0.004 0.078,0.002 0.073,-0.002C0.068,-0.006 0.065,-0.019 0.065,-0.042Z" style="fill-rule:nonzero;"/>
                    </g>
                </g>
                <g transform="matrix(1,0,0,1,177.5,57.5111)">
                    <g transform="matrix(50,0,0,50,486.32,110.434)">
                        <path d="M0.248,0.06C0.248,0.045 0.246,0.024 0.242,-0.003C0.238,-0.03 0.231,-0.058 0.222,-0.089C0.213,-0.119 0.2,-0.147 0.184,-0.174C0.175,-0.189 0.161,-0.202 0.143,-0.211C0.126,-0.22 0.107,-0.227 0.086,-0.232C0.065,-0.236 0.044,-0.238 0.024,-0.238L0.007,-0.238C0.005,-0.238 0.004,-0.239 0.004,-0.242C0.004,-0.248 0.006,-0.256 0.011,-0.267C0.016,-0.278 0.021,-0.288 0.027,-0.297C0.033,-0.306 0.038,-0.311 0.042,-0.312C0.078,-0.317 0.115,-0.322 0.153,-0.326C0.19,-0.329 0.228,-0.332 0.265,-0.335C0.266,-0.378 0.269,-0.425 0.274,-0.475C0.278,-0.526 0.282,-0.572 0.287,-0.615C0.25,-0.604 0.212,-0.592 0.174,-0.579C0.136,-0.566 0.098,-0.551 0.06,-0.535L0.059,-0.535C0.056,-0.535 0.055,-0.538 0.055,-0.545C0.055,-0.552 0.057,-0.562 0.059,-0.574C0.063,-0.585 0.066,-0.596 0.07,-0.606C0.075,-0.615 0.079,-0.62 0.083,-0.621C0.115,-0.63 0.149,-0.639 0.185,-0.648C0.22,-0.656 0.256,-0.663 0.293,-0.67L0.303,-0.735C0.298,-0.727 0.294,-0.719 0.29,-0.71C0.285,-0.701 0.282,-0.697 0.281,-0.697C0.28,-0.697 0.28,-0.698 0.28,-0.7C0.28,-0.702 0.28,-0.706 0.281,-0.711C0.282,-0.716 0.283,-0.723 0.285,-0.732C0.286,-0.739 0.289,-0.75 0.294,-0.763C0.298,-0.776 0.303,-0.79 0.308,-0.804C0.313,-0.818 0.319,-0.83 0.325,-0.84C0.331,-0.849 0.336,-0.854 0.341,-0.854C0.352,-0.854 0.364,-0.849 0.375,-0.839C0.386,-0.828 0.391,-0.819 0.391,-0.81L0.391,-0.807C0.385,-0.792 0.379,-0.774 0.374,-0.752C0.369,-0.73 0.364,-0.706 0.359,-0.681C0.4,-0.686 0.44,-0.691 0.479,-0.694C0.518,-0.697 0.556,-0.699 0.593,-0.699C0.61,-0.699 0.629,-0.699 0.65,-0.698C0.671,-0.697 0.691,-0.695 0.71,-0.693C0.729,-0.69 0.744,-0.687 0.756,-0.684C0.768,-0.681 0.774,-0.676 0.774,-0.671C0.774,-0.668 0.77,-0.666 0.762,-0.666C0.743,-0.666 0.725,-0.667 0.708,-0.67C0.69,-0.673 0.672,-0.674 0.653,-0.674C0.563,-0.674 0.462,-0.66 0.351,-0.633C0.346,-0.598 0.341,-0.563 0.337,-0.527C0.332,-0.49 0.328,-0.456 0.325,-0.423C0.322,-0.39 0.319,-0.362 0.317,-0.338C0.34,-0.339 0.363,-0.34 0.386,-0.341C0.408,-0.342 0.429,-0.342 0.45,-0.342C0.479,-0.342 0.508,-0.341 0.537,-0.34C0.566,-0.339 0.59,-0.337 0.609,-0.334C0.628,-0.331 0.638,-0.326 0.638,-0.321C0.638,-0.319 0.637,-0.317 0.634,-0.316C0.632,-0.314 0.63,-0.313 0.627,-0.313C0.613,-0.313 0.598,-0.314 0.583,-0.316C0.568,-0.318 0.552,-0.319 0.536,-0.319C0.503,-0.319 0.469,-0.317 0.432,-0.314C0.395,-0.31 0.355,-0.305 0.314,-0.298C0.31,-0.251 0.306,-0.203 0.303,-0.155C0.299,-0.106 0.296,-0.063 0.295,-0.028C0.294,-0.007 0.291,0.011 0.284,0.026C0.278,0.041 0.266,0.053 0.248,0.06ZM0.262,-0.036C0.261,-0.049 0.261,-0.062 0.261,-0.077C0.26,-0.091 0.26,-0.106 0.26,-0.122C0.26,-0.147 0.26,-0.174 0.261,-0.203C0.262,-0.231 0.263,-0.26 0.264,-0.29C0.241,-0.286 0.218,-0.282 0.194,-0.277C0.17,-0.272 0.145,-0.267 0.12,-0.262C0.142,-0.253 0.162,-0.239 0.179,-0.223C0.196,-0.205 0.212,-0.182 0.226,-0.153C0.239,-0.124 0.251,-0.085 0.262,-0.036Z" style="fill:rgb(106,106,106);fill-rule:nonzero;"/>
                    </g>
                    <g transform="matrix(50,0,0,50,516.32,110.434)">
                        <path d="M0.254,0.006C0.244,0.006 0.233,0.004 0.221,0.001C0.208,-0.002 0.198,-0.006 0.189,-0.011C0.18,-0.016 0.175,-0.02 0.175,-0.025C0.175,-0.036 0.185,-0.041 0.205,-0.041C0.216,-0.041 0.23,-0.043 0.245,-0.048C0.26,-0.053 0.275,-0.058 0.288,-0.064C0.301,-0.069 0.309,-0.073 0.313,-0.076C0.31,-0.081 0.303,-0.09 0.292,-0.103C0.281,-0.116 0.269,-0.13 0.256,-0.147C0.243,-0.164 0.232,-0.18 0.223,-0.197C0.214,-0.18 0.203,-0.161 0.189,-0.139C0.174,-0.117 0.16,-0.097 0.147,-0.079C0.138,-0.067 0.127,-0.055 0.113,-0.043C0.099,-0.031 0.084,-0.025 0.068,-0.025C0.055,-0.025 0.047,-0.029 0.042,-0.037C0.037,-0.045 0.035,-0.057 0.035,-0.074C0.035,-0.083 0.035,-0.092 0.036,-0.102C0.037,-0.112 0.038,-0.123 0.04,-0.136C0.046,-0.181 0.053,-0.218 0.06,-0.245C0.067,-0.272 0.077,-0.285 0.088,-0.285C0.097,-0.285 0.106,-0.28 0.113,-0.269C0.12,-0.258 0.125,-0.251 0.128,-0.246C0.123,-0.237 0.117,-0.223 0.11,-0.204C0.102,-0.185 0.095,-0.164 0.089,-0.143C0.083,-0.122 0.08,-0.103 0.08,-0.087C0.08,-0.071 0.084,-0.063 0.091,-0.063C0.093,-0.063 0.095,-0.063 0.096,-0.064C0.111,-0.07 0.126,-0.082 0.141,-0.101C0.156,-0.12 0.17,-0.14 0.183,-0.161C0.196,-0.182 0.206,-0.2 0.215,-0.215C0.211,-0.225 0.209,-0.235 0.209,-0.245C0.209,-0.264 0.214,-0.281 0.224,-0.298C0.234,-0.314 0.247,-0.329 0.262,-0.343C0.277,-0.356 0.292,-0.368 0.308,-0.379C0.323,-0.389 0.337,-0.397 0.348,-0.404C0.353,-0.407 0.358,-0.408 0.363,-0.408C0.374,-0.408 0.384,-0.404 0.394,-0.397C0.403,-0.39 0.408,-0.383 0.408,-0.376C0.408,-0.375 0.407,-0.374 0.406,-0.371C0.401,-0.365 0.395,-0.356 0.389,-0.343C0.382,-0.33 0.377,-0.317 0.372,-0.304C0.367,-0.29 0.365,-0.277 0.365,-0.266C0.365,-0.253 0.362,-0.247 0.357,-0.247C0.354,-0.247 0.352,-0.25 0.351,-0.255C0.35,-0.26 0.349,-0.265 0.349,-0.27C0.349,-0.283 0.351,-0.298 0.356,-0.313C0.36,-0.328 0.363,-0.339 0.364,-0.346C0.357,-0.346 0.348,-0.342 0.335,-0.333C0.322,-0.324 0.309,-0.313 0.296,-0.299C0.283,-0.285 0.271,-0.271 0.262,-0.256C0.253,-0.241 0.248,-0.226 0.248,-0.213C0.248,-0.196 0.253,-0.179 0.262,-0.164C0.271,-0.149 0.282,-0.134 0.296,-0.121C0.309,-0.108 0.323,-0.096 0.336,-0.085C0.341,-0.087 0.349,-0.091 0.359,-0.096C0.369,-0.101 0.381,-0.111 0.395,-0.127C0.408,-0.143 0.423,-0.168 0.438,-0.201C0.439,-0.203 0.441,-0.204 0.444,-0.204C0.448,-0.204 0.45,-0.201 0.45,-0.196C0.45,-0.191 0.449,-0.186 0.446,-0.18C0.433,-0.147 0.417,-0.122 0.4,-0.105C0.382,-0.087 0.364,-0.073 0.346,-0.064C0.346,-0.063 0.346,-0.061 0.346,-0.059C0.347,-0.058 0.347,-0.056 0.347,-0.055C0.347,-0.041 0.342,-0.029 0.333,-0.021C0.323,-0.012 0.311,-0.005 0.297,-0.001C0.282,0.004 0.268,0.006 0.254,0.006ZM0.122,-0.327C0.118,-0.327 0.114,-0.328 0.11,-0.33C0.105,-0.331 0.101,-0.333 0.097,-0.335C0.094,-0.337 0.093,-0.34 0.093,-0.343C0.093,-0.349 0.097,-0.357 0.104,-0.366C0.111,-0.375 0.121,-0.382 0.132,-0.389C0.143,-0.396 0.154,-0.399 0.165,-0.399C0.171,-0.399 0.174,-0.397 0.174,-0.394C0.174,-0.391 0.171,-0.388 0.165,-0.384C0.158,-0.379 0.152,-0.371 0.149,-0.362C0.146,-0.353 0.142,-0.344 0.139,-0.338C0.136,-0.331 0.13,-0.327 0.122,-0.327Z" style="fill:rgb(106,106,106);fill-rule:nonzero;"/>
                    </g>
                    <g transform="matrix(50,0,0,50,535.77,110.434)">
                        <path d="M0.104,0.042C0.093,0.042 0.084,0.035 0.077,0.021C0.07,0.007 0.064,-0.011 0.061,-0.033C0.058,-0.054 0.055,-0.078 0.054,-0.102C0.053,-0.128 0.052,-0.151 0.052,-0.173C0.052,-0.218 0.054,-0.264 0.058,-0.311C0.061,-0.358 0.066,-0.404 0.072,-0.449C0.078,-0.493 0.084,-0.533 0.091,-0.57C0.098,-0.607 0.104,-0.637 0.11,-0.663C0.115,-0.688 0.12,-0.704 0.123,-0.712C0.128,-0.723 0.132,-0.733 0.135,-0.741C0.138,-0.749 0.142,-0.753 0.149,-0.753C0.16,-0.753 0.17,-0.749 0.181,-0.74C0.191,-0.731 0.196,-0.723 0.196,-0.716L0.196,-0.714C0.2,-0.719 0.206,-0.722 0.213,-0.722C0.224,-0.722 0.232,-0.717 0.238,-0.706C0.245,-0.695 0.25,-0.683 0.253,-0.67C0.256,-0.656 0.257,-0.645 0.257,-0.636C0.257,-0.61 0.252,-0.581 0.241,-0.55C0.23,-0.518 0.217,-0.486 0.2,-0.454C0.183,-0.421 0.166,-0.39 0.147,-0.361C0.128,-0.331 0.111,-0.305 0.095,-0.282C0.092,-0.255 0.09,-0.228 0.088,-0.201C0.086,-0.174 0.085,-0.146 0.085,-0.119C0.085,-0.104 0.086,-0.09 0.086,-0.077C0.087,-0.064 0.089,-0.051 0.09,-0.039C0.093,-0.06 0.098,-0.083 0.104,-0.109C0.11,-0.135 0.116,-0.161 0.123,-0.187C0.13,-0.212 0.136,-0.235 0.142,-0.256C0.149,-0.277 0.154,-0.292 0.158,-0.301C0.165,-0.317 0.173,-0.328 0.185,-0.335C0.196,-0.342 0.206,-0.345 0.216,-0.345C0.22,-0.345 0.223,-0.339 0.226,-0.328C0.229,-0.317 0.231,-0.302 0.233,-0.285C0.234,-0.268 0.236,-0.25 0.237,-0.232C0.238,-0.213 0.239,-0.197 0.24,-0.184C0.241,-0.16 0.244,-0.143 0.249,-0.133C0.254,-0.123 0.259,-0.117 0.264,-0.115C0.269,-0.113 0.274,-0.112 0.277,-0.111C0.283,-0.111 0.29,-0.117 0.298,-0.128C0.305,-0.139 0.313,-0.151 0.321,-0.166C0.328,-0.181 0.335,-0.194 0.342,-0.204C0.349,-0.216 0.354,-0.221 0.358,-0.221C0.36,-0.221 0.361,-0.219 0.361,-0.216C0.361,-0.213 0.36,-0.209 0.358,-0.203C0.337,-0.152 0.318,-0.114 0.302,-0.089C0.286,-0.064 0.269,-0.051 0.251,-0.051C0.236,-0.051 0.226,-0.057 0.219,-0.07C0.209,-0.087 0.202,-0.107 0.198,-0.128C0.194,-0.149 0.191,-0.17 0.189,-0.192C0.186,-0.214 0.182,-0.235 0.177,-0.254C0.176,-0.258 0.175,-0.26 0.172,-0.26C0.17,-0.26 0.168,-0.258 0.167,-0.254C0.165,-0.25 0.163,-0.245 0.16,-0.239C0.158,-0.234 0.154,-0.222 0.149,-0.203C0.143,-0.183 0.137,-0.159 0.13,-0.132C0.123,-0.104 0.118,-0.075 0.113,-0.045C0.108,-0.014 0.106,0.014 0.106,0.04C0.106,0.041 0.105,0.042 0.104,0.042ZM0.1,-0.318C0.12,-0.351 0.14,-0.386 0.16,-0.423C0.179,-0.46 0.196,-0.496 0.209,-0.532C0.222,-0.568 0.229,-0.601 0.229,-0.63C0.229,-0.645 0.227,-0.659 0.223,-0.672C0.219,-0.684 0.212,-0.694 0.201,-0.703C0.2,-0.704 0.199,-0.705 0.198,-0.706C0.197,-0.707 0.195,-0.707 0.194,-0.708C0.176,-0.655 0.158,-0.595 0.141,-0.528C0.124,-0.461 0.11,-0.391 0.1,-0.318Z" style="fill:rgb(106,106,106);fill-rule:nonzero;"/>
                    </g>
                    <g transform="matrix(50,0,0,50,550.32,110.434)">
                        <path d="M0.086,-0.053C0.075,-0.054 0.064,-0.059 0.052,-0.068C0.04,-0.076 0.034,-0.085 0.034,-0.096C0.034,-0.099 0.034,-0.101 0.035,-0.103C0.044,-0.136 0.052,-0.175 0.057,-0.22C0.062,-0.265 0.067,-0.312 0.07,-0.361C0.073,-0.41 0.075,-0.458 0.078,-0.505C0.081,-0.552 0.084,-0.594 0.089,-0.632C0.093,-0.67 0.099,-0.7 0.107,-0.721C0.108,-0.733 0.113,-0.739 0.121,-0.739C0.13,-0.739 0.141,-0.732 0.154,-0.718C0.167,-0.704 0.174,-0.687 0.175,-0.668C0.171,-0.642 0.166,-0.611 0.159,-0.574C0.152,-0.537 0.145,-0.498 0.138,-0.457C0.13,-0.416 0.122,-0.375 0.115,-0.335C0.108,-0.295 0.101,-0.259 0.095,-0.226C0.089,-0.193 0.084,-0.166 0.081,-0.147C0.088,-0.159 0.097,-0.174 0.109,-0.193C0.121,-0.211 0.135,-0.23 0.15,-0.25C0.165,-0.27 0.181,-0.289 0.198,-0.307C0.215,-0.324 0.231,-0.339 0.247,-0.349C0.263,-0.361 0.277,-0.366 0.29,-0.366C0.305,-0.366 0.318,-0.36 0.327,-0.348C0.336,-0.337 0.34,-0.323 0.34,-0.308C0.34,-0.295 0.335,-0.278 0.326,-0.258C0.317,-0.237 0.304,-0.216 0.288,-0.194C0.271,-0.171 0.252,-0.15 0.231,-0.13C0.209,-0.109 0.186,-0.092 0.161,-0.078C0.136,-0.064 0.111,-0.056 0.086,-0.053ZM0.073,-0.088C0.094,-0.092 0.117,-0.101 0.142,-0.116C0.167,-0.131 0.19,-0.149 0.212,-0.17C0.233,-0.191 0.251,-0.215 0.265,-0.24C0.278,-0.265 0.285,-0.29 0.285,-0.315C0.285,-0.325 0.281,-0.33 0.273,-0.33C0.264,-0.33 0.252,-0.324 0.237,-0.311C0.222,-0.298 0.206,-0.281 0.19,-0.261C0.172,-0.24 0.156,-0.219 0.14,-0.197C0.124,-0.174 0.11,-0.153 0.098,-0.134C0.086,-0.114 0.078,-0.099 0.073,-0.088Z" style="fill:rgb(106,106,106);fill-rule:nonzero;"/>
                    </g>
                    <g transform="matrix(50,0,0,50,568.17,110.434)">
                        <path d="M0.188,0.003C0.154,0.003 0.125,-0.006 0.101,-0.023C0.076,-0.04 0.058,-0.062 0.045,-0.089C0.032,-0.116 0.025,-0.145 0.025,-0.174C0.025,-0.198 0.03,-0.225 0.039,-0.255C0.026,-0.255 0.02,-0.26 0.02,-0.269C0.02,-0.276 0.027,-0.283 0.041,-0.288L0.054,-0.293C0.066,-0.319 0.081,-0.343 0.099,-0.366C0.116,-0.388 0.136,-0.406 0.159,-0.42C0.181,-0.434 0.204,-0.441 0.229,-0.441C0.243,-0.441 0.257,-0.439 0.27,-0.434C0.283,-0.429 0.295,-0.424 0.304,-0.418C0.313,-0.411 0.317,-0.405 0.317,-0.4C0.317,-0.398 0.316,-0.397 0.313,-0.397C0.31,-0.397 0.308,-0.398 0.306,-0.399C0.297,-0.403 0.288,-0.406 0.279,-0.407C0.27,-0.409 0.261,-0.41 0.253,-0.41C0.228,-0.41 0.204,-0.401 0.182,-0.384C0.16,-0.367 0.141,-0.345 0.124,-0.318L0.391,-0.412C0.407,-0.417 0.427,-0.422 0.452,-0.426C0.477,-0.43 0.5,-0.432 0.521,-0.432C0.546,-0.432 0.565,-0.429 0.578,-0.422C0.59,-0.415 0.596,-0.408 0.596,-0.401C0.596,-0.394 0.591,-0.391 0.58,-0.391C0.573,-0.391 0.563,-0.393 0.549,-0.398C0.534,-0.402 0.518,-0.404 0.501,-0.404C0.484,-0.404 0.467,-0.403 0.448,-0.401C0.429,-0.398 0.412,-0.395 0.399,-0.392C0.386,-0.389 0.379,-0.386 0.379,-0.383C0.379,-0.381 0.382,-0.38 0.389,-0.38C0.404,-0.379 0.419,-0.377 0.434,-0.373C0.449,-0.369 0.461,-0.362 0.472,-0.352C0.483,-0.341 0.488,-0.326 0.488,-0.306C0.488,-0.287 0.483,-0.264 0.471,-0.237C0.461,-0.21 0.445,-0.183 0.426,-0.156C0.407,-0.128 0.384,-0.102 0.359,-0.078C0.334,-0.054 0.306,-0.035 0.277,-0.02C0.248,-0.005 0.218,0.003 0.188,0.003ZM0.152,-0.031C0.176,-0.031 0.201,-0.038 0.226,-0.051C0.251,-0.065 0.276,-0.083 0.299,-0.104C0.322,-0.125 0.343,-0.149 0.362,-0.173C0.381,-0.199 0.396,-0.223 0.406,-0.246C0.418,-0.269 0.423,-0.289 0.423,-0.305C0.423,-0.328 0.416,-0.345 0.403,-0.354C0.389,-0.363 0.374,-0.368 0.359,-0.368C0.345,-0.368 0.328,-0.365 0.307,-0.359C0.285,-0.352 0.263,-0.344 0.238,-0.334C0.214,-0.324 0.19,-0.314 0.166,-0.303C0.142,-0.292 0.12,-0.283 0.101,-0.275C0.092,-0.254 0.085,-0.233 0.08,-0.212C0.075,-0.19 0.072,-0.169 0.072,-0.15C0.073,-0.134 0.075,-0.117 0.08,-0.099C0.084,-0.08 0.092,-0.064 0.103,-0.051C0.115,-0.038 0.131,-0.031 0.152,-0.031Z" style="fill:rgb(106,106,106);fill-rule:nonzero;"/>
                    </g>
                    <g transform="matrix(50,0,0,50,593.32,110.434)">
                        <path d="M0.099,0.062C0.092,0.062 0.083,0.057 0.071,0.046C0.06,0.036 0.052,0.023 0.047,0.006C0.044,-0.005 0.042,-0.021 0.041,-0.04C0.04,-0.059 0.039,-0.081 0.039,-0.105C0.039,-0.145 0.04,-0.188 0.042,-0.234C0.043,-0.28 0.044,-0.321 0.044,-0.358C0.044,-0.37 0.044,-0.381 0.043,-0.392C0.043,-0.403 0.043,-0.412 0.042,-0.42C0.041,-0.421 0.037,-0.423 0.031,-0.424C0.024,-0.425 0.004,-0.428 0.004,-0.428C0.004,-0.429 0.009,-0.433 0.02,-0.438C0.03,-0.443 0.045,-0.445 0.064,-0.445C0.084,-0.445 0.097,-0.441 0.103,-0.433C0.11,-0.424 0.113,-0.417 0.113,-0.411L0.113,-0.406C0.113,-0.404 0.113,-0.402 0.112,-0.401C0.105,-0.366 0.098,-0.324 0.091,-0.277C0.084,-0.229 0.081,-0.179 0.081,-0.126C0.081,-0.113 0.081,-0.102 0.082,-0.093C0.082,-0.083 0.082,-0.074 0.082,-0.067L0.082,-0.058C0.086,-0.095 0.093,-0.131 0.103,-0.165C0.113,-0.198 0.123,-0.235 0.133,-0.275C0.141,-0.31 0.148,-0.337 0.154,-0.356C0.159,-0.375 0.165,-0.388 0.172,-0.396C0.178,-0.403 0.185,-0.407 0.194,-0.407C0.206,-0.407 0.214,-0.402 0.219,-0.392C0.224,-0.382 0.227,-0.368 0.228,-0.351C0.229,-0.334 0.231,-0.314 0.232,-0.292C0.233,-0.269 0.237,-0.245 0.242,-0.22C0.25,-0.182 0.259,-0.154 0.27,-0.137C0.281,-0.12 0.29,-0.111 0.297,-0.111C0.306,-0.111 0.314,-0.117 0.323,-0.128C0.332,-0.139 0.34,-0.151 0.348,-0.166C0.356,-0.181 0.363,-0.194 0.37,-0.204C0.376,-0.216 0.381,-0.221 0.385,-0.221C0.387,-0.221 0.388,-0.219 0.388,-0.216C0.388,-0.213 0.387,-0.209 0.385,-0.203C0.368,-0.166 0.354,-0.137 0.343,-0.117C0.332,-0.096 0.316,-0.086 0.296,-0.086C0.281,-0.086 0.265,-0.093 0.25,-0.106C0.242,-0.113 0.234,-0.124 0.227,-0.139C0.219,-0.154 0.212,-0.17 0.205,-0.188C0.198,-0.206 0.192,-0.223 0.187,-0.239C0.181,-0.256 0.176,-0.269 0.172,-0.28C0.168,-0.291 0.165,-0.296 0.164,-0.296C0.163,-0.296 0.161,-0.295 0.158,-0.292C0.155,-0.289 0.152,-0.285 0.151,-0.278C0.14,-0.237 0.131,-0.196 0.124,-0.156C0.117,-0.115 0.111,-0.079 0.108,-0.047C0.105,-0.014 0.103,0.011 0.103,0.028C0.103,0.037 0.103,0.043 0.105,0.046C0.106,0.05 0.106,0.053 0.106,0.055C0.106,0.06 0.104,0.062 0.099,0.062Z" style="fill:rgb(106,106,106);fill-rule:nonzero;"/>
                    </g>
                    <g transform="matrix(50,0,0,50,609.07,110.434)">
                        <path d="M0.145,0.015C0.105,0.015 0.073,0.006 0.048,-0.013C0.023,-0.031 0.01,-0.054 0.01,-0.083C0.01,-0.12 0.018,-0.158 0.033,-0.196C0.048,-0.233 0.068,-0.268 0.093,-0.299C0.118,-0.33 0.145,-0.355 0.175,-0.374C0.205,-0.393 0.234,-0.402 0.263,-0.402C0.278,-0.402 0.291,-0.398 0.304,-0.389C0.316,-0.38 0.322,-0.373 0.322,-0.366C0.321,-0.367 0.318,-0.362 0.311,-0.349C0.304,-0.336 0.297,-0.321 0.29,-0.303C0.283,-0.284 0.278,-0.267 0.276,-0.252C0.297,-0.255 0.313,-0.257 0.324,-0.26C0.335,-0.263 0.34,-0.264 0.341,-0.264C0.351,-0.264 0.356,-0.262 0.356,-0.258C0.356,-0.255 0.347,-0.25 0.33,-0.245C0.312,-0.239 0.289,-0.233 0.262,-0.228C0.234,-0.222 0.205,-0.217 0.174,-0.212C0.144,-0.207 0.116,-0.204 0.091,-0.202C0.082,-0.183 0.075,-0.164 0.07,-0.145C0.065,-0.126 0.062,-0.107 0.062,-0.09C0.062,-0.067 0.069,-0.048 0.082,-0.033C0.095,-0.018 0.117,-0.01 0.149,-0.01C0.198,-0.01 0.246,-0.019 0.292,-0.037C0.338,-0.055 0.381,-0.08 0.421,-0.111C0.46,-0.142 0.495,-0.178 0.526,-0.218C0.556,-0.257 0.58,-0.299 0.598,-0.343C0.6,-0.348 0.602,-0.35 0.605,-0.35C0.609,-0.35 0.613,-0.346 0.616,-0.337C0.619,-0.328 0.621,-0.319 0.621,-0.31C0.621,-0.304 0.62,-0.298 0.618,-0.293C0.606,-0.258 0.587,-0.226 0.562,-0.195C0.536,-0.164 0.506,-0.135 0.471,-0.11C0.436,-0.084 0.4,-0.062 0.362,-0.043C0.323,-0.024 0.285,-0.01 0.248,-0C0.211,0.01 0.176,0.015 0.145,0.015ZM0.159,-0.245C0.178,-0.245 0.195,-0.246 0.211,-0.247C0.227,-0.248 0.241,-0.248 0.254,-0.249C0.253,-0.254 0.251,-0.26 0.25,-0.267C0.249,-0.274 0.248,-0.281 0.248,-0.29C0.248,-0.301 0.25,-0.312 0.254,-0.324C0.258,-0.336 0.262,-0.347 0.266,-0.358C0.269,-0.368 0.271,-0.375 0.271,-0.379C0.271,-0.382 0.27,-0.383 0.269,-0.383L0.263,-0.383C0.252,-0.383 0.237,-0.377 0.219,-0.366C0.2,-0.354 0.177,-0.333 0.152,-0.302C0.139,-0.287 0.127,-0.269 0.114,-0.247C0.121,-0.246 0.128,-0.246 0.136,-0.246C0.143,-0.245 0.151,-0.245 0.159,-0.245Z" style="fill:rgb(106,106,106);fill-rule:nonzero;"/>
                    </g>
                </g>
            </g>
        </g>
        <g id="Swatches">
        </g>
    </g>
</svg>
