<?xml version="1.0" encoding="UTF-8" standalone="no"?>
<!DOCTYPE svg PUBLIC "-//W3C//DTD SVG 1.1//EN" "http://www.w3.org/Graphics/SVG/1.1/DTD/svg11.dtd">
<svg width="100%" height="100%" viewBox="0 0 122 122" version="1.1" xmlns="http://www.w3.org/2000/svg" xmlns:xlink="http://www.w3.org/1999/xlink" xml:space="preserve" xmlns:serif="http://www.serif.com/" style="fill-rule:evenodd;clip-rule:evenodd;stroke-linejoin:round;stroke-miterlimit:2;">
    <g id="Logo_Pink">
    </g>
    <rect id="Logo-FullGray" serif:id="Logo FullGray" x="0" y="0" width="122" height="121.753" style="fill:none;"/>
    <clipPath id="_clip1">
        <rect x="0" y="0" width="122" height="121.753"/>
    </clipPath>
    <g clip-path="url(#_clip1)">
        <g id="Ellipse-Color" serif:id="Ellipse Color">
            <path d="M62.21,10.873C95.08,10.873 121.578,26.682 121.347,46.155C121.116,65.628 94.243,81.437 61.373,81.437C28.504,81.437 2.006,65.628 2.236,46.155C2.467,26.682 29.341,10.873 62.21,10.873Z" style="fill:rgb(255,186,108);"/>
            <path d="M61.16,11.845C94.57,11.845 121.503,28.139 121.265,48.21C121.027,68.281 93.708,84.576 60.297,84.576C26.886,84.576 -0.046,68.281 0.192,48.21C0.43,28.139 27.749,11.845 61.16,11.845Z" style="fill:rgb(171,91,0);"/>
            <ellipse cx="61.655" cy="46.641" rx="59.42" ry="34.796" style="fill:rgb(255,135,0);"/>
        </g>
        <g id="text-logo" serif:id="text logo">
            <g id="Color">
                <g id="Text-Logo" serif:id="Text Logo">
                    <path d="M69.155,112.732C69.139,112.223 69.132,111.528 69.132,110.649C69.132,109.77 69.135,109.16 69.143,108.821C69.151,108.481 69.162,108.076 69.178,107.606C69.193,107.135 69.22,106.78 69.259,106.541C69.297,106.302 69.351,106.024 69.421,105.708C69.49,105.392 69.579,105.157 69.687,105.002C69.795,104.848 69.926,104.678 70.08,104.493C70.235,104.308 70.412,104.185 70.613,104.123C71.153,103.938 71.708,103.845 72.279,103.845L73.991,104.493L73.991,99.495C74.67,99.495 75.064,99.541 75.172,99.633C75.28,99.726 75.334,100.034 75.334,100.559L75.334,116.435C74.655,116.435 74.261,116.384 74.153,116.284C74.045,116.184 73.991,115.825 73.991,115.208L72.163,116.597C71.129,116.597 70.335,116.311 69.779,115.74C69.409,115.355 69.201,114.352 69.155,112.732ZM70.578,107.178C70.539,107.733 70.516,108.177 70.508,108.508C70.501,108.84 70.497,109.743 70.497,111.216C70.497,112.689 70.566,113.696 70.705,114.236C71.029,114.946 71.523,115.324 72.186,115.37L74.084,114.329L73.991,113.75L73.991,106.252L74.084,105.673L72.186,105.072C71.615,105.072 71.222,105.265 71.006,105.65C70.759,106.113 70.616,106.622 70.578,107.178Z" style="fill-rule:nonzero;"/>
                    <path d="M79.835,101.566C79.626,101.774 79.376,101.878 79.083,101.878C78.789,101.878 78.539,101.774 78.331,101.566C78.122,101.357 78.018,101.103 78.018,100.802C78.018,100.501 78.122,100.254 78.331,100.061C78.539,99.869 78.789,99.772 79.083,99.772C79.376,99.772 79.626,99.872 79.835,100.073C80.043,100.274 80.147,100.52 80.147,100.814C80.147,101.107 80.043,101.357 79.835,101.566ZM78.411,115.463L78.411,104.007C79.09,104.007 79.488,104.05 79.603,104.134C79.719,104.219 79.777,104.532 79.777,105.072L79.777,116.527C79.098,116.527 78.701,116.481 78.585,116.388C78.469,116.296 78.411,115.987 78.411,115.463Z" style="fill-rule:nonzero;"/>
                    <path d="M86.21,121.063L85.169,121.063C84.598,121.063 84.263,121.017 84.162,120.924C84.062,120.832 84.012,120.515 84.012,119.975L86.21,119.813C87.059,119.813 87.591,119.659 87.807,119.35C87.915,119.165 87.981,118.984 88.004,118.807C88.027,118.629 88.039,118.386 88.039,118.078C88.039,117.769 88.027,117.545 88.004,117.407C87.981,117.268 87.915,117.129 87.807,116.99C87.622,116.728 87.113,116.597 86.28,116.597C84.459,116.597 83.391,116.512 83.075,116.342C82.758,116.172 82.6,115.655 82.6,114.791C82.6,113.927 82.697,113.322 82.89,112.975C83.082,112.628 83.379,112.362 83.78,112.176C83.333,111.852 83.024,111.463 82.855,111.008C82.685,110.553 82.6,109.847 82.6,108.89C82.6,107.934 82.612,107.27 82.635,106.9C82.658,106.53 82.708,106.152 82.785,105.766C82.863,105.38 82.974,105.087 83.121,104.887C83.267,104.686 83.464,104.493 83.711,104.308C84.158,104 84.922,103.845 86.002,103.845L89.589,103.845C89.589,104.416 89.539,104.752 89.439,104.852C89.338,104.952 88.995,105.002 88.409,105.002C88.656,105.465 88.802,105.897 88.849,106.298C88.895,106.699 88.918,107.509 88.918,108.728C88.918,109.947 88.895,110.745 88.849,111.123C88.802,111.501 88.683,111.86 88.49,112.2C88.297,112.539 88.004,112.774 87.61,112.905C87.217,113.037 86.758,113.102 86.234,113.102C85.709,113.102 85.339,113.106 85.123,113.114C84.907,113.121 84.714,113.148 84.544,113.195C84.374,113.241 84.251,113.283 84.174,113.322C84.097,113.36 84.035,113.449 83.989,113.588C83.942,113.727 83.919,113.843 83.919,113.935L83.919,114.653C83.919,114.961 84.035,115.146 84.266,115.208C84.498,115.27 85.215,115.301 86.419,115.301C87.622,115.301 88.413,115.455 88.791,115.763C89.169,116.072 89.358,116.816 89.358,117.997C89.358,119.177 89.165,119.983 88.779,120.415C88.393,120.847 87.537,121.063 86.21,121.063ZM83.966,108.265C83.966,109.623 84.093,110.564 84.347,111.089C84.602,111.613 85.13,111.876 85.933,111.876C86.735,111.876 87.221,111.683 87.391,111.297C87.56,110.911 87.645,110.009 87.645,108.589C87.645,107.17 87.583,106.283 87.46,105.928C87.26,105.357 86.743,105.072 85.91,105.072C85.076,105.072 84.544,105.265 84.313,105.65C84.081,106.036 83.966,106.908 83.966,108.265Z" style="fill-rule:nonzero;"/>
                    <path d="M93.743,101.566C93.535,101.774 93.284,101.878 92.991,101.878C92.698,101.878 92.447,101.774 92.239,101.566C92.031,101.357 91.927,101.103 91.927,100.802C91.927,100.501 92.031,100.254 92.239,100.061C92.447,99.869 92.698,99.772 92.991,99.772C93.284,99.772 93.535,99.872 93.743,100.073C93.951,100.274 94.056,100.52 94.056,100.814C94.056,101.107 93.951,101.357 93.743,101.566ZM92.32,115.463L92.32,104.007C92.999,104.007 93.396,104.05 93.512,104.134C93.627,104.219 93.685,104.532 93.685,105.072L93.685,116.527C93.006,116.527 92.609,116.481 92.493,116.388C92.378,116.296 92.32,115.987 92.32,115.463Z" style="fill-rule:nonzero;"/>
                    <path d="M96.647,111.158L96.647,105.835L96.74,105.257L95.745,105.257L95.745,104.007L96.74,104.007L96.647,103.197L96.647,102.179C97.326,102.179 97.724,102.225 97.839,102.318C97.955,102.41 98.013,102.719 98.013,103.244L97.92,104.007L100.049,104.007C100.049,104.578 99.999,104.929 99.899,105.06C99.799,105.191 99.479,105.257 98.939,105.257L97.92,105.257L98.013,105.835L98.013,111.158C98.013,112.917 98.059,114.059 98.152,114.583C98.244,115.108 98.507,115.37 98.939,115.37L100.512,115.37L100.512,116.435L98.915,116.55C97.851,116.55 97.207,116.222 96.983,115.567C96.759,114.911 96.647,113.441 96.647,111.158Z" style="fill-rule:nonzero;"/>
                    <path d="M105.951,107.71L105.951,106.414C105.951,105.797 105.877,105.407 105.731,105.245C105.584,105.083 105.233,105.002 104.678,105.002L103.521,105.234C103.366,105.265 103.251,105.28 103.174,105.28C102.634,105.28 102.364,104.933 102.364,104.239L104.678,103.845C105.835,103.845 106.537,104 106.784,104.308C106.907,104.462 107.004,104.593 107.073,104.701C107.142,104.809 107.185,105.002 107.2,105.28C107.247,105.727 107.27,106.244 107.27,106.831L107.27,116.435C106.575,116.435 106.167,116.384 106.043,116.284C105.92,116.184 105.858,115.848 105.858,115.277C105.704,115.37 105.488,115.54 105.21,115.787C104.624,116.327 104.13,116.597 103.729,116.597C102.788,116.597 102.229,116.3 102.051,115.706C101.874,115.112 101.785,113.465 101.785,110.765C101.785,109.731 102.232,109.044 103.127,108.705C103.868,108.427 104.809,108.289 105.951,108.289L106.043,108.289L105.951,107.71ZM105.858,109.584C104.963,109.584 104.288,109.65 103.833,109.781C103.378,109.912 103.15,110.178 103.15,110.58C103.15,113.403 103.212,114.946 103.336,115.208C103.397,115.316 103.536,115.37 103.752,115.37C103.968,115.37 104.203,115.308 104.458,115.185C104.713,115.061 104.983,114.896 105.268,114.687C105.553,114.479 105.781,114.336 105.951,114.259L105.858,113.681L105.858,110.163L105.951,109.584L105.858,109.584Z" style="fill-rule:nonzero;"/>
                    <path d="M110.047,115.463L110.047,99.495C110.726,99.495 111.123,99.541 111.239,99.633C111.354,99.726 111.412,100.034 111.412,100.559L111.412,116.527C110.733,116.527 110.336,116.481 110.22,116.388C110.105,116.296 110.047,115.987 110.047,115.463Z" style="fill-rule:nonzero;"/>
                    <path d="M17.149,104.628C17.149,104.096 17.079,103.367 16.94,102.441C16.802,101.515 16.57,100.526 16.246,99.473C15.922,98.42 15.482,97.431 14.927,96.505C14.603,95.973 14.134,95.545 13.521,95.221C12.908,94.897 12.237,94.659 11.508,94.509C10.779,94.359 10.067,94.283 9.373,94.283L8.783,94.283C8.713,94.283 8.679,94.237 8.679,94.144C8.679,93.936 8.76,93.647 8.922,93.277C9.084,92.906 9.269,92.559 9.477,92.235C9.685,91.911 9.859,91.738 9.998,91.715C11.247,91.529 12.526,91.373 13.834,91.246C15.141,91.119 16.443,91.009 17.739,90.916C17.785,89.412 17.883,87.786 18.034,86.039C18.184,84.292 18.341,82.678 18.503,81.196C17.207,81.567 15.899,81.983 14.58,82.446C13.261,82.909 11.942,83.418 10.623,83.974L10.588,83.974C10.495,83.974 10.449,83.858 10.449,83.626C10.449,83.372 10.501,83.042 10.605,82.637C10.709,82.232 10.837,81.862 10.987,81.526C11.138,81.191 11.282,81.011 11.421,80.988C12.532,80.664 13.706,80.358 14.944,80.068C16.183,79.779 17.438,79.519 18.711,79.287L19.058,77.031C18.896,77.309 18.74,77.598 18.589,77.899C18.439,78.2 18.341,78.35 18.294,78.35C18.271,78.35 18.26,78.315 18.26,78.246C18.26,78.176 18.271,78.049 18.294,77.864C18.317,77.679 18.364,77.436 18.433,77.135C18.479,76.88 18.578,76.522 18.728,76.059C18.879,75.596 19.046,75.122 19.232,74.636C19.417,74.15 19.613,73.739 19.822,73.403C20.03,73.068 20.215,72.9 20.377,72.9C20.77,72.9 21.158,73.079 21.54,73.438C21.922,73.797 22.113,74.127 22.113,74.427L22.113,74.532C21.904,75.041 21.708,75.677 21.523,76.441C21.337,77.204 21.164,78.026 21.002,78.905C22.414,78.72 23.802,78.57 25.167,78.454C26.533,78.338 27.852,78.281 29.125,78.281C29.726,78.281 30.386,78.298 31.103,78.333C31.821,78.367 32.509,78.425 33.169,78.506C33.828,78.587 34.366,78.686 34.783,78.801C35.2,78.917 35.408,79.067 35.408,79.253C35.408,79.368 35.269,79.426 34.991,79.426C34.343,79.426 33.713,79.38 33.099,79.287C32.486,79.195 31.856,79.148 31.208,79.148C28.083,79.148 24.589,79.623 20.724,80.572C20.539,81.775 20.371,83.007 20.221,84.269C20.07,85.53 19.937,86.727 19.822,87.861C19.706,88.995 19.613,89.979 19.544,90.812C20.354,90.766 21.147,90.731 21.922,90.708C22.697,90.685 23.443,90.673 24.161,90.673C25.179,90.673 26.186,90.696 27.181,90.743C28.176,90.789 29.009,90.864 29.68,90.968C30.351,91.072 30.687,91.217 30.687,91.402C30.687,91.472 30.646,91.535 30.565,91.593C30.484,91.651 30.398,91.68 30.305,91.68C29.819,91.68 29.31,91.645 28.778,91.576C28.245,91.506 27.702,91.472 27.146,91.472C26.012,91.472 24.803,91.535 23.519,91.662C22.234,91.79 20.875,91.969 19.44,92.201C19.301,93.82 19.168,95.481 19.041,97.182C18.913,98.883 18.827,100.347 18.78,101.573C18.757,102.291 18.636,102.915 18.416,103.448C18.196,103.98 17.774,104.373 17.149,104.628ZM17.635,101.295C17.612,100.856 17.594,100.387 17.583,99.89C17.571,99.392 17.565,98.865 17.565,98.31C17.565,97.431 17.577,96.499 17.6,95.516C17.623,94.532 17.658,93.52 17.704,92.478C16.917,92.617 16.107,92.768 15.274,92.93C14.441,93.092 13.585,93.265 12.705,93.45C13.469,93.774 14.152,94.231 14.754,94.821C15.355,95.412 15.893,96.216 16.368,97.234C16.842,98.252 17.264,99.606 17.635,101.295Z" style="fill-rule:nonzero;"/>
                    <path d="M38.185,102.753C37.838,102.753 37.45,102.701 37.022,102.597C36.594,102.493 36.224,102.354 35.911,102.181C35.599,102.007 35.443,101.839 35.443,101.677C35.443,101.307 35.79,101.122 36.484,101.122C36.877,101.122 37.34,101.041 37.873,100.879C38.405,100.717 38.897,100.538 39.348,100.341C39.799,100.144 40.094,99.999 40.233,99.907C40.14,99.722 39.897,99.409 39.504,98.97C39.111,98.53 38.688,98.021 38.237,97.442C37.786,96.864 37.41,96.285 37.109,95.707C36.808,96.285 36.409,96.956 35.911,97.72C35.414,98.484 34.933,99.178 34.471,99.803C34.17,100.219 33.776,100.636 33.29,101.052C32.804,101.469 32.284,101.677 31.728,101.677C31.289,101.677 30.988,101.538 30.826,101.261C30.664,100.983 30.583,100.555 30.583,99.976C30.583,99.675 30.594,99.351 30.617,99.004C30.641,98.657 30.687,98.264 30.756,97.824C30.965,96.25 31.196,94.995 31.451,94.058C31.705,93.12 32.029,92.652 32.423,92.652C32.747,92.652 33.036,92.837 33.29,93.207C33.545,93.578 33.718,93.844 33.811,94.006C33.649,94.306 33.435,94.792 33.169,95.464C32.903,96.135 32.666,96.841 32.457,97.581C32.249,98.322 32.145,98.97 32.145,99.525C32.145,100.08 32.272,100.358 32.527,100.358C32.596,100.358 32.654,100.347 32.7,100.323C33.209,100.115 33.724,99.687 34.245,99.039C34.766,98.391 35.252,97.697 35.703,96.956C36.154,96.216 36.53,95.591 36.831,95.082C36.692,94.735 36.623,94.387 36.623,94.04C36.623,93.392 36.796,92.785 37.144,92.218C37.491,91.651 37.925,91.13 38.445,90.656C38.966,90.181 39.498,89.765 40.042,89.406C40.586,89.047 41.055,88.752 41.448,88.521C41.61,88.428 41.784,88.382 41.969,88.382C42.339,88.382 42.692,88.509 43.027,88.764C43.363,89.019 43.531,89.261 43.531,89.493C43.531,89.516 43.508,89.574 43.461,89.666C43.276,89.875 43.074,90.199 42.854,90.638C42.634,91.078 42.443,91.535 42.281,92.01C42.119,92.484 42.038,92.918 42.038,93.311C42.038,93.751 41.946,93.971 41.76,93.971C41.668,93.971 41.598,93.878 41.552,93.693C41.506,93.508 41.483,93.335 41.483,93.173C41.483,92.71 41.558,92.212 41.708,91.68C41.859,91.148 41.957,90.766 42.003,90.534C41.772,90.534 41.436,90.685 40.997,90.986C40.557,91.286 40.106,91.68 39.643,92.166C39.18,92.652 38.787,93.155 38.463,93.676C38.139,94.197 37.977,94.688 37.977,95.151C37.977,95.753 38.133,96.32 38.445,96.852C38.758,97.384 39.151,97.882 39.626,98.345C40.1,98.808 40.569,99.224 41.031,99.594C41.217,99.525 41.483,99.404 41.83,99.23C42.177,99.056 42.588,98.692 43.062,98.137C43.537,97.581 44.04,96.725 44.572,95.568C44.618,95.498 44.688,95.464 44.78,95.464C44.919,95.464 44.989,95.556 44.989,95.741C44.989,95.903 44.942,96.088 44.85,96.297C44.387,97.431 43.849,98.304 43.236,98.918C42.622,99.531 42.003,99.999 41.379,100.323C41.379,100.37 41.384,100.422 41.396,100.48C41.407,100.538 41.413,100.59 41.413,100.636C41.413,101.122 41.245,101.521 40.91,101.833C40.574,102.146 40.158,102.377 39.66,102.528C39.163,102.678 38.671,102.753 38.185,102.753ZM33.603,91.194C33.464,91.194 33.319,91.165 33.169,91.107C33.018,91.049 32.874,90.986 32.735,90.916C32.642,90.847 32.596,90.754 32.596,90.638C32.596,90.43 32.723,90.17 32.978,89.857C33.233,89.545 33.557,89.273 33.95,89.042C34.343,88.81 34.725,88.695 35.095,88.695C35.304,88.695 35.408,88.752 35.408,88.868C35.408,88.961 35.304,89.076 35.095,89.215C34.841,89.4 34.656,89.655 34.54,89.979C34.424,90.303 34.309,90.586 34.193,90.829C34.077,91.072 33.88,91.194 33.603,91.194Z" style="fill-rule:nonzero;"/>
                    <path d="M46.481,104.003C46.088,104.003 45.77,103.76 45.527,103.274C45.284,102.788 45.104,102.169 44.989,101.417C44.873,100.665 44.792,99.855 44.746,98.987C44.699,98.119 44.676,97.303 44.676,96.54C44.676,94.989 44.74,93.392 44.867,91.749C44.994,90.106 45.162,88.515 45.371,86.976C45.579,85.437 45.799,84.031 46.03,82.759C46.262,81.486 46.476,80.415 46.672,79.548C46.869,78.68 47.025,78.107 47.141,77.829C47.303,77.436 47.436,77.1 47.54,76.823C47.644,76.545 47.812,76.406 48.043,76.406C48.414,76.406 48.778,76.556 49.137,76.857C49.496,77.158 49.675,77.436 49.675,77.69L49.675,77.76C49.814,77.575 50.011,77.482 50.265,77.482C50.635,77.482 50.93,77.667 51.15,78.038C51.37,78.408 51.532,78.83 51.636,79.305C51.74,79.779 51.792,80.167 51.792,80.467C51.792,81.37 51.607,82.371 51.237,83.47C50.867,84.569 50.392,85.68 49.814,86.803C49.235,87.925 48.622,89.001 47.974,90.031C47.326,91.061 46.724,91.969 46.169,92.756C46.076,93.682 45.995,94.619 45.926,95.568C45.857,96.517 45.822,97.465 45.822,98.414C45.822,98.923 45.839,99.409 45.874,99.872C45.909,100.335 45.949,100.775 45.995,101.191C46.111,100.474 46.273,99.664 46.481,98.761C46.69,97.859 46.91,96.962 47.141,96.071C47.372,95.18 47.598,94.376 47.818,93.659C48.038,92.941 48.217,92.42 48.356,92.096C48.587,91.541 48.894,91.148 49.276,90.916C49.658,90.685 50.022,90.569 50.369,90.569C50.508,90.569 50.624,90.766 50.716,91.159C50.809,91.553 50.884,92.05 50.942,92.652C51,93.254 51.052,93.873 51.098,94.509C51.145,95.145 51.179,95.695 51.202,96.158C51.249,96.991 51.353,97.581 51.515,97.928C51.677,98.275 51.85,98.484 52.035,98.553C52.221,98.622 52.371,98.669 52.487,98.692C52.695,98.692 52.932,98.501 53.198,98.119C53.465,97.737 53.731,97.292 53.997,96.783C54.263,96.274 54.512,95.828 54.743,95.446C54.975,95.064 55.16,94.873 55.299,94.873C55.368,94.873 55.403,94.931 55.403,95.047C55.403,95.14 55.368,95.29 55.299,95.498C54.558,97.257 53.91,98.576 53.355,99.456C52.799,100.335 52.209,100.775 51.584,100.775C51.075,100.775 50.705,100.555 50.473,100.115C50.126,99.513 49.883,98.848 49.744,98.119C49.606,97.39 49.496,96.644 49.415,95.88C49.334,95.116 49.201,94.399 49.015,93.728C48.992,93.589 48.934,93.52 48.842,93.52C48.772,93.52 48.709,93.589 48.651,93.728C48.593,93.867 48.518,94.04 48.425,94.249C48.356,94.411 48.223,94.833 48.026,95.516C47.829,96.198 47.615,97.02 47.384,97.98C47.153,98.941 46.956,99.947 46.794,101C46.632,102.053 46.551,103.031 46.551,103.934C46.551,103.98 46.528,104.003 46.481,104.003ZM46.343,91.506C47.037,90.372 47.725,89.163 48.408,87.879C49.091,86.594 49.663,85.327 50.126,84.078C50.589,82.828 50.821,81.694 50.821,80.676C50.821,80.144 50.751,79.663 50.612,79.235C50.473,78.807 50.219,78.443 49.849,78.142C49.825,78.095 49.791,78.061 49.744,78.038C49.698,78.014 49.652,77.991 49.606,77.968C48.981,79.82 48.367,81.908 47.766,84.234C47.164,86.56 46.69,88.984 46.343,91.506Z" style="fill-rule:nonzero;"/>
                    <path d="M55.958,100.705C55.588,100.659 55.194,100.491 54.778,100.202C54.361,99.913 54.153,99.583 54.153,99.213C54.153,99.12 54.165,99.039 54.188,98.97C54.512,97.813 54.766,96.459 54.951,94.908C55.137,93.358 55.281,91.726 55.385,90.014C55.489,88.301 55.588,86.635 55.68,85.015C55.773,83.395 55.894,81.925 56.045,80.606C56.195,79.287 56.409,78.257 56.687,77.517C56.733,77.1 56.895,76.892 57.173,76.892C57.497,76.892 57.879,77.135 58.319,77.621C58.758,78.107 59.001,78.686 59.048,79.357C58.909,80.259 58.724,81.353 58.492,82.637C58.261,83.921 58.012,85.275 57.746,86.699C57.48,88.122 57.219,89.528 56.965,90.916C56.71,92.305 56.479,93.572 56.271,94.717C56.062,95.863 55.9,96.771 55.785,97.442C56.016,97.026 56.34,96.499 56.756,95.863C57.173,95.226 57.647,94.561 58.18,93.867C58.712,93.173 59.267,92.519 59.846,91.905C60.425,91.292 60.991,90.795 61.547,90.413C62.102,90.031 62.6,89.84 63.04,89.84C63.572,89.84 63.994,90.043 64.307,90.448C64.619,90.853 64.775,91.321 64.775,91.853C64.775,92.316 64.613,92.901 64.289,93.606C63.965,94.312 63.52,95.053 62.953,95.828C62.386,96.603 61.726,97.344 60.974,98.05C60.222,98.756 59.418,99.351 58.562,99.837C57.705,100.323 56.837,100.613 55.958,100.705ZM55.507,99.49C56.247,99.351 57.046,99.027 57.902,98.518C58.758,98.009 59.562,97.384 60.315,96.644C61.067,95.903 61.68,95.093 62.154,94.214C62.629,93.335 62.866,92.467 62.866,91.61C62.866,91.263 62.727,91.09 62.449,91.09C62.125,91.09 61.709,91.315 61.2,91.767C60.691,92.218 60.141,92.796 59.551,93.502C58.961,94.208 58.388,94.949 57.833,95.724C57.277,96.499 56.791,97.228 56.375,97.911C55.958,98.594 55.669,99.12 55.507,99.49Z" style="fill-rule:nonzero;"/>
                    <path d="M71.891,102.649C70.711,102.649 69.699,102.354 68.854,101.764C68.009,101.174 67.361,100.404 66.91,99.456C66.459,98.507 66.233,97.523 66.233,96.505C66.233,95.672 66.395,94.735 66.719,93.693C66.279,93.693 66.06,93.531 66.06,93.207C66.06,92.953 66.303,92.733 66.789,92.548L67.24,92.374C67.656,91.472 68.171,90.633 68.785,89.857C69.398,89.082 70.092,88.452 70.867,87.966C71.643,87.48 72.458,87.237 73.315,87.237C73.801,87.237 74.275,87.318 74.738,87.48C75.201,87.642 75.588,87.832 75.901,88.052C76.213,88.272 76.369,88.475 76.369,88.66C76.369,88.729 76.323,88.764 76.231,88.764C76.138,88.764 76.057,88.741 75.988,88.695C75.664,88.556 75.345,88.457 75.033,88.399C74.721,88.342 74.426,88.313 74.148,88.313C73.268,88.313 72.447,88.614 71.683,89.215C70.919,89.817 70.248,90.581 69.67,91.506L78.938,88.243C79.494,88.058 80.199,87.896 81.056,87.757C81.912,87.618 82.71,87.549 83.451,87.549C84.33,87.549 84.984,87.665 85.412,87.896C85.84,88.128 86.054,88.371 86.054,88.625C86.054,88.857 85.869,88.972 85.499,88.972C85.268,88.972 84.903,88.897 84.406,88.747C83.908,88.596 83.358,88.521 82.757,88.521C82.178,88.521 81.559,88.561 80.9,88.642C80.24,88.723 79.679,88.822 79.216,88.938C78.753,89.053 78.522,89.157 78.522,89.25C78.522,89.319 78.637,89.354 78.869,89.354C79.378,89.377 79.893,89.458 80.414,89.597C80.934,89.736 81.38,89.985 81.75,90.343C82.12,90.702 82.305,91.229 82.305,91.923C82.305,92.594 82.114,93.392 81.733,94.318C81.351,95.244 80.824,96.187 80.153,97.147C79.482,98.108 78.707,99.004 77.827,99.837C76.948,100.671 75.999,101.347 74.981,101.868C73.963,102.389 72.933,102.649 71.891,102.649ZM70.642,101.469C71.475,101.469 72.331,101.232 73.211,100.757C74.09,100.283 74.935,99.675 75.745,98.935C76.555,98.194 77.284,97.39 77.932,96.522C78.58,95.655 79.094,94.816 79.476,94.006C79.858,93.196 80.049,92.513 80.049,91.958C80.049,91.148 79.812,90.581 79.337,90.257C78.863,89.933 78.36,89.771 77.827,89.771C77.341,89.771 76.734,89.881 76.005,90.1C75.276,90.32 74.489,90.604 73.644,90.951C72.8,91.298 71.961,91.657 71.128,92.027C70.295,92.397 69.543,92.721 68.871,92.999C68.571,93.716 68.328,94.451 68.142,95.203C67.957,95.955 67.865,96.667 67.865,97.338C67.888,97.894 67.975,98.489 68.125,99.126C68.275,99.762 68.553,100.312 68.958,100.775C69.363,101.238 69.924,101.469 70.642,101.469Z" style="fill-rule:nonzero;"/>
                    <path d="M86.263,104.697C86.031,104.697 85.713,104.518 85.308,104.159C84.903,103.801 84.62,103.332 84.458,102.753C84.365,102.36 84.296,101.828 84.249,101.157C84.203,100.485 84.18,99.733 84.18,98.9C84.18,97.512 84.209,96.019 84.267,94.422C84.325,92.825 84.353,91.391 84.353,90.118C84.353,89.701 84.348,89.308 84.336,88.938C84.325,88.567 84.307,88.243 84.284,87.966C84.238,87.919 84.105,87.879 83.885,87.844C83.665,87.809 82.965,87.688 82.965,87.688C82.965,87.642 83.144,87.532 83.503,87.358C83.862,87.184 84.377,87.098 85.048,87.098C85.742,87.098 86.199,87.242 86.419,87.532C86.639,87.821 86.749,88.07 86.749,88.278L86.749,88.452C86.749,88.521 86.737,88.579 86.714,88.625C86.459,89.852 86.216,91.292 85.985,92.947C85.754,94.602 85.638,96.343 85.638,98.171C85.638,98.611 85.644,98.999 85.655,99.334C85.667,99.67 85.673,99.965 85.673,100.219L85.673,100.532C85.811,99.236 86.054,98.003 86.402,96.835C86.749,95.666 87.096,94.387 87.443,92.999C87.721,91.796 87.958,90.864 88.155,90.205C88.351,89.545 88.56,89.082 88.779,88.816C88.999,88.55 89.26,88.417 89.56,88.417C89.977,88.417 90.266,88.59 90.428,88.938C90.59,89.285 90.694,89.759 90.741,90.361C90.787,90.962 90.833,91.651 90.88,92.426C90.926,93.201 91.042,94.029 91.227,94.908C91.504,96.227 91.828,97.188 92.199,97.789C92.569,98.391 92.881,98.692 93.136,98.692C93.437,98.692 93.738,98.501 94.038,98.119C94.339,97.737 94.629,97.292 94.906,96.783C95.184,96.274 95.433,95.828 95.653,95.446C95.872,95.064 96.052,94.873 96.191,94.873C96.26,94.873 96.295,94.931 96.295,95.047C96.295,95.14 96.26,95.29 96.191,95.498C95.612,96.794 95.126,97.795 94.733,98.501C94.339,99.207 93.795,99.56 93.101,99.56C92.569,99.56 92.037,99.328 91.504,98.865C91.227,98.634 90.955,98.258 90.689,97.737C90.422,97.217 90.174,96.644 89.942,96.019C89.711,95.394 89.497,94.798 89.3,94.231C89.103,93.664 88.936,93.196 88.797,92.825C88.658,92.455 88.565,92.27 88.519,92.27C88.473,92.27 88.398,92.316 88.293,92.409C88.189,92.501 88.114,92.663 88.068,92.895C87.674,94.33 87.356,95.747 87.113,97.147C86.87,98.547 86.691,99.809 86.575,100.931C86.459,102.053 86.402,102.915 86.402,103.517C86.402,103.818 86.419,104.032 86.454,104.159C86.488,104.287 86.506,104.385 86.506,104.454C86.506,104.616 86.425,104.697 86.263,104.697Z" style="fill-rule:nonzero;"/>
                    <path d="M98.794,103.066C97.406,103.066 96.277,102.748 95.41,102.111C94.542,101.475 94.108,100.659 94.108,99.664C94.108,98.368 94.374,97.066 94.906,95.759C95.439,94.451 96.133,93.259 96.989,92.183C97.845,91.107 98.794,90.239 99.836,89.58C100.877,88.92 101.895,88.59 102.89,88.59C103.399,88.59 103.868,88.741 104.296,89.042C104.724,89.342 104.938,89.609 104.938,89.84C104.915,89.794 104.788,89.99 104.557,90.43C104.325,90.87 104.082,91.408 103.828,92.044C103.573,92.681 103.411,93.265 103.342,93.797C104.059,93.705 104.609,93.612 104.99,93.52C105.372,93.427 105.575,93.381 105.598,93.381C105.945,93.381 106.119,93.45 106.119,93.589C106.119,93.705 105.812,93.861 105.199,94.058C104.585,94.254 103.799,94.451 102.838,94.648C101.878,94.845 100.871,95.024 99.818,95.186C98.765,95.348 97.799,95.464 96.92,95.533C96.619,96.181 96.376,96.841 96.191,97.512C96.006,98.183 95.913,98.819 95.913,99.421C95.913,100.208 96.139,100.867 96.59,101.4C97.041,101.932 97.822,102.198 98.933,102.198C100.646,102.198 102.3,101.886 103.897,101.261C105.494,100.636 106.981,99.78 108.358,98.692C109.735,97.604 110.95,96.372 112.003,94.995C113.055,93.618 113.894,92.166 114.519,90.638C114.589,90.476 114.67,90.395 114.762,90.395C114.901,90.395 115.028,90.546 115.144,90.847C115.26,91.148 115.318,91.46 115.318,91.784C115.318,91.992 115.283,92.189 115.214,92.374C114.797,93.578 114.143,94.717 113.252,95.793C112.361,96.869 111.314,97.853 110.111,98.744C108.907,99.635 107.64,100.404 106.31,101.052C104.979,101.7 103.666,102.198 102.37,102.545C101.074,102.892 99.882,103.066 98.794,103.066ZM99.28,94.04C99.928,94.04 100.53,94.023 101.085,93.988C101.641,93.954 102.138,93.925 102.578,93.901C102.532,93.716 102.485,93.508 102.439,93.277C102.393,93.045 102.37,92.779 102.37,92.478C102.37,92.108 102.439,91.715 102.578,91.298C102.717,90.881 102.85,90.494 102.977,90.135C103.104,89.776 103.168,89.528 103.168,89.389C103.168,89.296 103.139,89.25 103.081,89.25L102.89,89.25C102.52,89.25 102.005,89.452 101.346,89.857C100.686,90.262 99.917,90.997 99.037,92.062C98.597,92.571 98.158,93.207 97.718,93.971C97.949,93.994 98.198,94.011 98.464,94.023C98.731,94.035 99.002,94.04 99.28,94.04Z" style="fill-rule:nonzero;"/>
                </g>
                <path d="M69.677,112.259C69.661,111.75 69.654,111.055 69.654,110.176C69.654,109.297 69.657,108.687 69.665,108.348C69.673,108.008 69.684,107.603 69.7,107.133C69.715,106.662 69.742,106.307 69.781,106.068C69.819,105.829 69.873,105.551 69.943,105.235C70.012,104.919 70.101,104.684 70.209,104.529C70.317,104.375 70.448,104.205 70.602,104.02C70.757,103.835 70.934,103.712 71.135,103.65C71.675,103.465 72.23,103.372 72.801,103.372L74.513,104.02L74.513,99.021C75.192,99.021 75.586,99.068 75.694,99.16C75.802,99.253 75.856,99.561 75.856,100.086L75.856,115.962C75.177,115.962 74.783,115.911 74.675,115.811C74.567,115.711 74.513,115.352 74.513,114.735L72.685,116.123C71.652,116.123 70.857,115.838 70.302,115.267C69.931,114.882 69.723,113.879 69.677,112.259ZM71.1,106.705C71.061,107.26 71.038,107.704 71.031,108.035C71.023,108.367 71.019,109.27 71.019,110.743C71.019,112.216 71.088,113.223 71.227,113.763C71.551,114.473 72.045,114.851 72.708,114.897L74.606,113.856L74.513,113.277L74.513,105.779L74.606,105.2L72.708,104.599C72.138,104.599 71.744,104.792 71.528,105.177C71.281,105.64 71.139,106.149 71.1,106.705Z" style="fill:rgb(20,118,154);fill-rule:nonzero;"/>
                <path d="M80.357,101.093C80.149,101.301 79.898,101.405 79.605,101.405C79.312,101.405 79.061,101.301 78.853,101.093C78.644,100.884 78.54,100.63 78.54,100.329C78.54,100.028 78.644,99.781 78.853,99.588C79.061,99.396 79.312,99.299 79.605,99.299C79.898,99.299 80.149,99.399 80.357,99.6C80.565,99.801 80.669,100.047 80.669,100.341C80.669,100.634 80.565,100.884 80.357,101.093ZM78.934,114.99L78.934,103.534C79.612,103.534 80.01,103.577 80.125,103.661C80.241,103.746 80.299,104.059 80.299,104.599L80.299,116.054C79.62,116.054 79.223,116.008 79.107,115.915C78.991,115.823 78.934,115.514 78.934,114.99Z" style="fill:rgb(20,118,154);fill-rule:nonzero;"/>
                <path d="M86.732,120.59L85.691,120.59C85.12,120.59 84.785,120.544 84.684,120.451C84.584,120.359 84.534,120.042 84.534,119.502L86.732,119.34C87.581,119.34 88.113,119.186 88.329,118.877C88.437,118.692 88.503,118.511 88.526,118.334C88.549,118.156 88.561,117.913 88.561,117.605C88.561,117.296 88.549,117.072 88.526,116.933C88.503,116.795 88.437,116.656 88.329,116.517C88.144,116.255 87.635,116.123 86.802,116.123C84.981,116.123 83.913,116.039 83.597,115.869C83.28,115.699 83.122,115.182 83.122,114.318C83.122,113.454 83.219,112.849 83.412,112.502C83.604,112.155 83.901,111.888 84.303,111.703C83.855,111.379 83.547,110.99 83.377,110.535C83.207,110.08 83.122,109.374 83.122,108.417C83.122,107.461 83.134,106.797 83.157,106.427C83.18,106.057 83.23,105.679 83.307,105.293C83.385,104.907 83.496,104.614 83.643,104.414C83.79,104.213 83.986,104.02 84.233,103.835C84.681,103.526 85.444,103.372 86.524,103.372L90.111,103.372C90.111,103.943 90.061,104.279 89.961,104.379C89.861,104.479 89.517,104.529 88.931,104.529C89.178,104.992 89.324,105.424 89.371,105.825C89.417,106.226 89.44,107.036 89.44,108.255C89.44,109.474 89.417,110.272 89.371,110.65C89.324,111.028 89.205,111.387 89.012,111.726C88.819,112.066 88.526,112.301 88.133,112.432C87.739,112.563 87.28,112.629 86.756,112.629C86.231,112.629 85.861,112.633 85.645,112.641C85.429,112.648 85.236,112.675 85.066,112.722C84.897,112.768 84.773,112.81 84.696,112.849C84.619,112.887 84.557,112.976 84.511,113.115C84.465,113.254 84.441,113.37 84.441,113.462L84.441,114.18C84.441,114.488 84.557,114.673 84.789,114.735C85.02,114.797 85.737,114.828 86.941,114.828C88.144,114.828 88.935,114.982 89.313,115.29C89.691,115.599 89.88,116.343 89.88,117.524C89.88,118.704 89.687,119.51 89.301,119.942C88.916,120.374 88.059,120.59 86.732,120.59ZM84.488,107.792C84.488,109.15 84.615,110.091 84.87,110.616C85.124,111.14 85.653,111.403 86.455,111.403C87.257,111.403 87.743,111.21 87.913,110.824C88.082,110.438 88.167,109.536 88.167,108.116C88.167,106.697 88.106,105.81 87.982,105.455C87.782,104.884 87.265,104.599 86.432,104.599C85.599,104.599 85.066,104.792 84.835,105.177C84.603,105.563 84.488,106.435 84.488,107.792Z" style="fill:rgb(20,118,154);fill-rule:nonzero;"/>
                <path d="M94.265,101.093C94.057,101.301 93.806,101.405 93.513,101.405C93.22,101.405 92.969,101.301 92.761,101.093C92.553,100.884 92.449,100.63 92.449,100.329C92.449,100.028 92.553,99.781 92.761,99.588C92.969,99.396 93.22,99.299 93.513,99.299C93.806,99.299 94.057,99.399 94.265,99.6C94.474,99.801 94.578,100.047 94.578,100.341C94.578,100.634 94.474,100.884 94.265,101.093ZM92.842,114.99L92.842,103.534C93.521,103.534 93.918,103.577 94.034,103.661C94.15,103.746 94.207,104.059 94.207,104.599L94.207,116.054C93.529,116.054 93.131,116.008 93.016,115.915C92.9,115.823 92.842,115.514 92.842,114.99Z" style="fill:rgb(20,118,154);fill-rule:nonzero;"/>
                <path d="M97.17,110.685L97.17,105.362L97.262,104.784L96.267,104.784L96.267,103.534L97.262,103.534L97.17,102.724L97.17,101.706C97.848,101.706 98.246,101.752 98.361,101.845C98.477,101.937 98.535,102.246 98.535,102.77L98.442,103.534L100.571,103.534C100.571,104.105 100.521,104.456 100.421,104.587C100.321,104.718 100.001,104.784 99.461,104.784L98.442,104.784L98.535,105.362L98.535,110.685C98.535,112.444 98.581,113.586 98.674,114.11C98.766,114.635 99.029,114.897 99.461,114.897L101.034,114.897L101.034,115.962L99.438,116.077C98.373,116.077 97.729,115.749 97.505,115.094C97.281,114.438 97.17,112.968 97.17,110.685Z" style="fill:rgb(20,118,154);fill-rule:nonzero;"/>
                <path d="M106.473,107.237L106.473,105.941C106.473,105.324 106.399,104.934 106.253,104.772C106.106,104.61 105.755,104.529 105.2,104.529L104.043,104.761C103.889,104.792 103.773,104.807 103.696,104.807C103.156,104.807 102.886,104.46 102.886,103.766L105.2,103.372C106.357,103.372 107.059,103.526 107.306,103.835C107.429,103.989 107.526,104.12 107.595,104.228C107.665,104.336 107.707,104.529 107.722,104.807C107.769,105.254 107.792,105.771 107.792,106.358L107.792,115.962C107.098,115.962 106.689,115.911 106.565,115.811C106.442,115.711 106.38,115.375 106.38,114.804C106.226,114.897 106.01,115.067 105.732,115.314C105.146,115.854 104.652,116.123 104.251,116.123C103.31,116.123 102.751,115.827 102.573,115.233C102.396,114.639 102.307,112.992 102.307,110.292C102.307,109.258 102.755,108.571 103.649,108.232C104.39,107.954 105.331,107.815 106.473,107.815L106.565,107.815L106.473,107.237ZM106.38,109.111C105.485,109.111 104.81,109.177 104.355,109.308C103.9,109.439 103.673,109.705 103.673,110.107C103.673,112.93 103.734,114.473 103.858,114.735C103.919,114.843 104.058,114.897 104.274,114.897C104.49,114.897 104.726,114.835 104.98,114.712C105.235,114.588 105.505,114.423 105.79,114.214C106.075,114.006 106.303,113.863 106.473,113.786L106.38,113.208L106.38,109.69L106.473,109.111L106.38,109.111Z" style="fill:rgb(20,118,154);fill-rule:nonzero;"/>
                <path d="M110.569,114.99L110.569,99.021C111.248,99.021 111.645,99.068 111.761,99.16C111.876,99.253 111.934,99.561 111.934,100.086L111.934,116.054C111.255,116.054 110.858,116.008 110.742,115.915C110.627,115.823 110.569,115.514 110.569,114.99Z" style="fill:rgb(20,118,154);fill-rule:nonzero;"/>
                <path d="M17.671,104.155C17.671,103.623 17.601,102.894 17.463,101.968C17.324,101.042 17.092,100.053 16.768,99C16.444,97.947 16.005,96.958 15.449,96.032C15.125,95.5 14.657,95.072 14.043,94.748C13.43,94.424 12.759,94.186 12.03,94.036C11.301,93.886 10.589,93.81 9.895,93.81L9.305,93.81C9.236,93.81 9.201,93.764 9.201,93.671C9.201,93.463 9.282,93.174 9.444,92.804C9.606,92.433 9.791,92.086 9.999,91.762C10.207,91.438 10.381,91.265 10.52,91.242C11.77,91.056 13.048,90.9 14.356,90.773C15.663,90.646 16.965,90.536 18.261,90.443C18.307,88.939 18.406,87.313 18.556,85.566C18.706,83.819 18.863,82.205 19.025,80.723C17.729,81.094 16.421,81.51 15.102,81.973C13.783,82.436 12.464,82.945 11.145,83.5L11.11,83.5C11.017,83.5 10.971,83.385 10.971,83.153C10.971,82.899 11.023,82.569 11.127,82.164C11.232,81.759 11.359,81.389 11.509,81.053C11.66,80.718 11.804,80.538 11.943,80.515C13.054,80.191 14.228,79.885 15.467,79.595C16.705,79.306 17.96,79.046 19.233,78.814L19.58,76.558C19.418,76.836 19.262,77.125 19.111,77.426C18.961,77.727 18.863,77.877 18.816,77.877C18.793,77.877 18.782,77.842 18.782,77.773C18.782,77.703 18.793,77.576 18.816,77.391C18.84,77.206 18.886,76.963 18.955,76.662C19.002,76.407 19.1,76.049 19.25,75.586C19.401,75.123 19.568,74.649 19.754,74.163C19.939,73.677 20.135,73.266 20.344,72.93C20.552,72.595 20.737,72.427 20.899,72.427C21.293,72.427 21.68,72.606 22.062,72.965C22.444,73.324 22.635,73.654 22.635,73.954L22.635,74.058C22.427,74.568 22.23,75.204 22.045,75.968C21.86,76.731 21.686,77.553 21.524,78.432C22.936,78.247 24.324,78.097 25.69,77.981C27.055,77.865 28.374,77.808 29.647,77.808C30.249,77.808 30.908,77.825 31.626,77.86C32.343,77.894 33.031,77.952 33.691,78.033C34.351,78.114 34.889,78.213 35.305,78.328C35.722,78.444 35.93,78.594 35.93,78.779C35.93,78.895 35.791,78.953 35.513,78.953C34.865,78.953 34.235,78.907 33.622,78.814C33.008,78.722 32.378,78.675 31.73,78.675C28.605,78.675 25.111,79.15 21.246,80.099C21.061,81.302 20.893,82.534 20.743,83.796C20.593,85.057 20.459,86.254 20.344,87.388C20.228,88.522 20.135,89.506 20.066,90.339C20.876,90.293 21.669,90.258 22.444,90.235C23.219,90.212 23.965,90.2 24.683,90.2C25.701,90.2 26.708,90.223 27.703,90.27C28.698,90.316 29.531,90.391 30.202,90.495C30.873,90.599 31.209,90.744 31.209,90.929C31.209,90.999 31.168,91.062 31.087,91.12C31.006,91.178 30.92,91.207 30.827,91.207C30.341,91.207 29.832,91.172 29.3,91.103C28.767,91.033 28.224,90.999 27.668,90.999C26.534,90.999 25.325,91.062 24.041,91.189C22.756,91.317 21.397,91.496 19.962,91.728C19.823,93.347 19.69,95.008 19.563,96.709C19.435,98.41 19.349,99.874 19.302,101.1C19.279,101.817 19.158,102.442 18.938,102.975C18.718,103.507 18.296,103.9 17.671,104.155ZM18.157,100.822C18.134,100.383 18.116,99.914 18.105,99.416C18.093,98.919 18.087,98.392 18.087,97.837C18.087,96.958 18.099,96.026 18.122,95.043C18.145,94.059 18.18,93.047 18.226,92.005C17.439,92.144 16.629,92.294 15.796,92.456C14.963,92.618 14.107,92.792 13.228,92.977C13.991,93.301 14.674,93.758 15.276,94.348C15.877,94.938 16.415,95.743 16.89,96.761C17.364,97.779 17.787,99.133 18.157,100.822Z" style="fill:rgb(247,37,133);fill-rule:nonzero;"/>
                <path d="M38.707,102.28C38.36,102.28 37.972,102.228 37.544,102.124C37.116,102.02 36.746,101.881 36.433,101.708C36.121,101.534 35.965,101.366 35.965,101.204C35.965,100.834 36.312,100.649 37.006,100.649C37.4,100.649 37.862,100.568 38.395,100.406C38.927,100.244 39.419,100.064 39.87,99.868C40.321,99.671 40.616,99.526 40.755,99.434C40.663,99.249 40.42,98.936 40.026,98.497C39.633,98.057 39.21,97.548 38.759,96.969C38.308,96.391 37.932,95.812 37.631,95.234C37.33,95.812 36.931,96.483 36.433,97.247C35.936,98.011 35.456,98.705 34.993,99.33C34.692,99.746 34.298,100.163 33.812,100.579C33.326,100.996 32.806,101.204 32.25,101.204C31.811,101.204 31.51,101.065 31.348,100.788C31.186,100.51 31.105,100.082 31.105,99.503C31.105,99.202 31.116,98.878 31.14,98.531C31.163,98.184 31.209,97.791 31.278,97.351C31.487,95.777 31.718,94.522 31.973,93.585C32.227,92.647 32.551,92.179 32.945,92.179C33.269,92.179 33.558,92.364 33.812,92.734C34.067,93.104 34.241,93.371 34.333,93.533C34.171,93.833 33.957,94.319 33.691,94.991C33.425,95.662 33.188,96.368 32.979,97.108C32.771,97.849 32.667,98.497 32.667,99.052C32.667,99.607 32.794,99.885 33.049,99.885C33.118,99.885 33.176,99.874 33.222,99.85C33.731,99.642 34.246,99.214 34.767,98.566C35.288,97.918 35.774,97.224 36.225,96.483C36.676,95.743 37.052,95.118 37.353,94.609C37.214,94.262 37.145,93.914 37.145,93.567C37.145,92.919 37.319,92.312 37.666,91.745C38.013,91.178 38.447,90.657 38.967,90.183C39.488,89.708 40.02,89.292 40.564,88.933C41.108,88.574 41.577,88.279 41.97,88.048C42.132,87.955 42.306,87.909 42.491,87.909C42.861,87.909 43.214,88.036 43.55,88.291C43.885,88.545 44.053,88.788 44.053,89.02C44.053,89.043 44.03,89.101 43.983,89.193C43.798,89.402 43.596,89.726 43.376,90.165C43.156,90.605 42.965,91.062 42.803,91.537C42.641,92.011 42.56,92.445 42.56,92.838C42.56,93.278 42.468,93.498 42.282,93.498C42.19,93.498 42.12,93.405 42.074,93.22C42.028,93.035 42.005,92.861 42.005,92.699C42.005,92.237 42.08,91.739 42.23,91.207C42.381,90.675 42.479,90.293 42.525,90.061C42.294,90.061 41.958,90.212 41.519,90.513C41.079,90.813 40.628,91.207 40.165,91.693C39.702,92.179 39.309,92.682 38.985,93.203C38.661,93.724 38.499,94.215 38.499,94.678C38.499,95.28 38.655,95.847 38.967,96.379C39.28,96.911 39.673,97.409 40.148,97.872C40.622,98.335 41.091,98.751 41.554,99.121C41.739,99.052 42.005,98.931 42.352,98.757C42.699,98.583 43.11,98.219 43.584,97.663C44.059,97.108 44.562,96.252 45.094,95.095C45.141,95.025 45.21,94.991 45.303,94.991C45.441,94.991 45.511,95.083 45.511,95.268C45.511,95.43 45.465,95.615 45.372,95.824C44.909,96.958 44.371,97.831 43.758,98.445C43.145,99.058 42.525,99.526 41.901,99.85C41.901,99.897 41.906,99.949 41.918,100.007C41.93,100.064 41.935,100.117 41.935,100.163C41.935,100.649 41.768,101.048 41.432,101.36C41.096,101.673 40.68,101.904 40.182,102.055C39.685,102.205 39.193,102.28 38.707,102.28ZM34.125,90.721C33.986,90.721 33.841,90.692 33.691,90.634C33.541,90.576 33.396,90.513 33.257,90.443C33.164,90.374 33.118,90.281 33.118,90.165C33.118,89.957 33.245,89.697 33.5,89.384C33.755,89.072 34.079,88.8 34.472,88.569C34.865,88.337 35.247,88.221 35.618,88.221C35.826,88.221 35.93,88.279 35.93,88.395C35.93,88.488 35.826,88.603 35.618,88.742C35.363,88.927 35.178,89.182 35.062,89.506C34.946,89.83 34.831,90.113 34.715,90.356C34.599,90.599 34.403,90.721 34.125,90.721Z" style="fill:rgb(247,37,133);fill-rule:nonzero;"/>
                <path d="M47.003,103.53C46.61,103.53 46.292,103.287 46.049,102.801C45.806,102.315 45.627,101.696 45.511,100.944C45.395,100.192 45.314,99.382 45.268,98.514C45.222,97.646 45.198,96.83 45.198,96.067C45.198,94.516 45.262,92.919 45.389,91.276C45.517,89.633 45.684,88.042 45.893,86.503C46.101,84.964 46.321,83.558 46.552,82.286C46.784,81.013 46.998,79.942 47.194,79.075C47.391,78.207 47.547,77.634 47.663,77.356C47.825,76.963 47.958,76.627 48.062,76.35C48.166,76.072 48.334,75.933 48.566,75.933C48.936,75.933 49.3,76.083 49.659,76.384C50.018,76.685 50.197,76.963 50.197,77.217L50.197,77.287C50.336,77.102 50.533,77.009 50.787,77.009C51.157,77.009 51.453,77.194 51.672,77.565C51.892,77.935 52.054,78.357 52.158,78.832C52.263,79.306 52.315,79.694 52.315,79.994C52.315,80.897 52.129,81.898 51.759,82.997C51.389,84.096 50.915,85.207 50.336,86.33C49.757,87.452 49.144,88.528 48.496,89.558C47.848,90.588 47.246,91.496 46.691,92.283C46.598,93.209 46.517,94.146 46.448,95.095C46.379,96.044 46.344,96.992 46.344,97.941C46.344,98.45 46.361,98.936 46.396,99.399C46.431,99.862 46.471,100.302 46.517,100.718C46.633,100.001 46.795,99.191 47.003,98.288C47.212,97.386 47.432,96.489 47.663,95.598C47.894,94.707 48.12,93.903 48.34,93.185C48.56,92.468 48.739,91.947 48.878,91.623C49.109,91.068 49.416,90.675 49.798,90.443C50.18,90.212 50.544,90.096 50.891,90.096C51.03,90.096 51.146,90.293 51.238,90.686C51.331,91.08 51.406,91.577 51.464,92.179C51.522,92.78 51.574,93.4 51.62,94.036C51.667,94.672 51.701,95.222 51.724,95.685C51.771,96.518 51.875,97.108 52.037,97.455C52.199,97.802 52.372,98.011 52.558,98.08C52.743,98.149 52.893,98.196 53.009,98.219C53.217,98.219 53.454,98.028 53.72,97.646C53.987,97.264 54.253,96.819 54.519,96.31C54.785,95.801 55.034,95.355 55.265,94.973C55.497,94.591 55.682,94.4 55.821,94.4C55.89,94.4 55.925,94.458 55.925,94.574C55.925,94.667 55.89,94.817 55.821,95.025C55.08,96.784 54.432,98.103 53.877,98.983C53.321,99.862 52.731,100.302 52.106,100.302C51.597,100.302 51.227,100.082 50.996,99.642C50.648,99.04 50.405,98.375 50.267,97.646C50.128,96.917 50.018,96.171 49.937,95.407C49.856,94.643 49.723,93.926 49.538,93.255C49.514,93.116 49.457,93.047 49.364,93.047C49.295,93.047 49.231,93.116 49.173,93.255C49.115,93.394 49.04,93.567 48.947,93.776C48.878,93.938 48.745,94.36 48.548,95.043C48.352,95.725 48.137,96.547 47.906,97.507C47.675,98.468 47.478,99.474 47.316,100.527C47.154,101.58 47.073,102.558 47.073,103.461C47.073,103.507 47.05,103.53 47.003,103.53ZM46.865,91.033C47.559,89.899 48.247,88.69 48.93,87.406C49.613,86.121 50.186,84.854 50.648,83.605C51.111,82.355 51.343,81.221 51.343,80.203C51.343,79.67 51.273,79.19 51.134,78.762C50.996,78.334 50.741,77.97 50.371,77.669C50.348,77.622 50.313,77.588 50.267,77.565C50.22,77.541 50.174,77.518 50.128,77.495C49.503,79.346 48.89,81.435 48.288,83.761C47.686,86.087 47.212,88.511 46.865,91.033Z" style="fill:rgb(247,37,133);fill-rule:nonzero;"/>
                <path d="M56.48,100.232C56.11,100.186 55.716,100.018 55.3,99.729C54.883,99.44 54.675,99.11 54.675,98.74C54.675,98.647 54.687,98.566 54.71,98.497C55.034,97.339 55.288,95.986 55.474,94.435C55.659,92.885 55.803,91.253 55.907,89.541C56.012,87.828 56.11,86.162 56.202,84.542C56.295,82.922 56.417,81.452 56.567,80.133C56.717,78.814 56.931,77.784 57.209,77.044C57.255,76.627 57.417,76.419 57.695,76.419C58.019,76.419 58.401,76.662 58.841,77.148C59.28,77.634 59.523,78.213 59.57,78.884C59.431,79.786 59.246,80.88 59.014,82.164C58.783,83.448 58.534,84.802 58.268,86.225C58.002,87.649 57.741,89.055 57.487,90.443C57.232,91.832 57.001,93.099 56.793,94.244C56.584,95.39 56.422,96.298 56.307,96.969C56.538,96.553 56.862,96.026 57.279,95.39C57.695,94.753 58.17,94.088 58.702,93.394C59.234,92.699 59.79,92.046 60.368,91.432C60.947,90.819 61.514,90.322 62.069,89.94C62.624,89.558 63.122,89.367 63.562,89.367C64.094,89.367 64.516,89.57 64.829,89.974C65.141,90.379 65.297,90.848 65.297,91.38C65.297,91.843 65.135,92.428 64.811,93.133C64.487,93.839 64.042,94.58 63.475,95.355C62.908,96.13 62.248,96.871 61.496,97.577C60.744,98.283 59.94,98.878 59.084,99.364C58.227,99.85 57.36,100.14 56.48,100.232ZM56.029,99.017C56.769,98.878 57.568,98.554 58.424,98.045C59.28,97.536 60.085,96.911 60.837,96.171C61.589,95.43 62.202,94.62 62.676,93.741C63.151,92.861 63.388,91.994 63.388,91.137C63.388,90.79 63.249,90.617 62.972,90.617C62.648,90.617 62.231,90.842 61.722,91.294C61.213,91.745 60.663,92.323 60.073,93.029C59.483,93.735 58.91,94.476 58.355,95.251C57.799,96.026 57.313,96.755 56.897,97.438C56.48,98.121 56.191,98.647 56.029,99.017Z" style="fill:rgb(247,37,133);fill-rule:nonzero;"/>
                <path d="M72.414,102.176C71.233,102.176 70.221,101.881 69.376,101.291C68.531,100.701 67.883,99.931 67.432,98.983C66.981,98.034 66.755,97.05 66.755,96.032C66.755,95.199 66.917,94.262 67.241,93.22C66.802,93.22 66.582,93.058 66.582,92.734C66.582,92.48 66.825,92.26 67.311,92.075L67.762,91.901C68.179,90.999 68.693,90.16 69.307,89.384C69.92,88.609 70.614,87.978 71.39,87.493C72.165,87.007 72.981,86.764 73.837,86.764C74.323,86.764 74.797,86.845 75.26,87.007C75.723,87.169 76.11,87.359 76.423,87.579C76.735,87.799 76.892,88.002 76.892,88.187C76.892,88.256 76.845,88.291 76.753,88.291C76.66,88.291 76.579,88.268 76.51,88.221C76.186,88.083 75.868,87.984 75.555,87.926C75.243,87.869 74.948,87.84 74.67,87.84C73.79,87.84 72.969,88.14 72.205,88.742C71.442,89.344 70.77,90.108 70.192,91.033L79.46,87.77C80.016,87.585 80.722,87.423 81.578,87.284C82.434,87.145 83.232,87.076 83.973,87.076C84.852,87.076 85.506,87.192 85.934,87.423C86.362,87.654 86.577,87.897 86.577,88.152C86.577,88.383 86.391,88.499 86.021,88.499C85.79,88.499 85.425,88.424 84.928,88.274C84.43,88.123 83.88,88.048 83.279,88.048C82.7,88.048 82.081,88.088 81.422,88.169C80.762,88.25 80.201,88.349 79.738,88.464C79.275,88.58 79.044,88.684 79.044,88.777C79.044,88.846 79.159,88.881 79.391,88.881C79.9,88.904 80.415,88.985 80.936,89.124C81.456,89.263 81.902,89.512 82.272,89.87C82.642,90.229 82.827,90.756 82.827,91.45C82.827,92.121 82.637,92.919 82.255,93.845C81.873,94.771 81.346,95.714 80.675,96.674C80.004,97.635 79.229,98.531 78.349,99.364C77.47,100.198 76.521,100.874 75.503,101.395C74.485,101.916 73.455,102.176 72.414,102.176ZM71.164,100.996C71.997,100.996 72.853,100.759 73.733,100.284C74.612,99.81 75.457,99.202 76.267,98.462C77.077,97.721 77.806,96.917 78.454,96.049C79.102,95.181 79.617,94.343 79.998,93.533C80.38,92.723 80.571,92.04 80.571,91.485C80.571,90.675 80.334,90.108 79.86,89.784C79.385,89.46 78.882,89.298 78.349,89.298C77.864,89.298 77.256,89.408 76.527,89.627C75.798,89.847 75.011,90.131 74.167,90.478C73.322,90.825 72.483,91.184 71.65,91.554C70.817,91.924 70.065,92.248 69.393,92.526C69.093,93.243 68.85,93.978 68.665,94.73C68.479,95.482 68.387,96.194 68.387,96.865C68.41,97.42 68.497,98.016 68.647,98.653C68.798,99.289 69.075,99.839 69.48,100.302C69.885,100.765 70.446,100.996 71.164,100.996Z" style="fill:rgb(247,37,133);fill-rule:nonzero;"/>
                <path d="M86.785,104.224C86.553,104.224 86.235,104.045 85.83,103.686C85.425,103.328 85.142,102.859 84.98,102.28C84.887,101.887 84.818,101.355 84.771,100.684C84.725,100.012 84.702,99.26 84.702,98.427C84.702,97.039 84.731,95.546 84.789,93.949C84.847,92.352 84.876,90.918 84.876,89.645C84.876,89.228 84.87,88.835 84.858,88.464C84.847,88.094 84.829,87.77 84.806,87.493C84.76,87.446 84.627,87.406 84.407,87.371C84.187,87.336 83.487,87.215 83.487,87.215C83.487,87.169 83.666,87.059 84.025,86.885C84.384,86.711 84.899,86.625 85.57,86.625C86.264,86.625 86.721,86.769 86.941,87.059C87.161,87.348 87.271,87.597 87.271,87.805L87.271,87.978C87.271,88.048 87.259,88.106 87.236,88.152C86.982,89.379 86.739,90.819 86.507,92.474C86.276,94.129 86.16,95.87 86.16,97.698C86.16,98.138 86.166,98.526 86.177,98.861C86.189,99.197 86.195,99.492 86.195,99.746L86.195,100.059C86.334,98.763 86.577,97.53 86.924,96.362C87.271,95.193 87.618,93.914 87.965,92.526C88.243,91.323 88.48,90.391 88.677,89.732C88.873,89.072 89.082,88.609 89.302,88.343C89.521,88.077 89.782,87.944 90.083,87.944C90.499,87.944 90.788,88.117 90.95,88.464C91.112,88.812 91.217,89.286 91.263,89.888C91.309,90.489 91.355,91.178 91.402,91.953C91.448,92.728 91.564,93.556 91.749,94.435C92.026,95.754 92.35,96.715 92.721,97.316C93.091,97.918 93.403,98.219 93.658,98.219C93.959,98.219 94.26,98.028 94.561,97.646C94.861,97.264 95.151,96.819 95.428,96.31C95.706,95.801 95.955,95.355 96.175,94.973C96.395,94.591 96.574,94.4 96.713,94.4C96.782,94.4 96.817,94.458 96.817,94.574C96.817,94.667 96.782,94.817 96.713,95.025C96.134,96.321 95.648,97.322 95.255,98.028C94.861,98.734 94.318,99.087 93.623,99.087C93.091,99.087 92.559,98.855 92.026,98.392C91.749,98.161 91.477,97.785 91.211,97.264C90.945,96.744 90.696,96.171 90.464,95.546C90.233,94.921 90.019,94.325 89.822,93.758C89.625,93.191 89.458,92.723 89.319,92.352C89.18,91.982 89.087,91.797 89.041,91.797C88.995,91.797 88.92,91.843 88.816,91.936C88.711,92.028 88.636,92.19 88.59,92.422C88.196,93.857 87.878,95.274 87.635,96.674C87.392,98.074 87.213,99.335 87.097,100.458C86.982,101.58 86.924,102.442 86.924,103.044C86.924,103.345 86.941,103.559 86.976,103.686C87.01,103.813 87.028,103.912 87.028,103.981C87.028,104.143 86.947,104.224 86.785,104.224Z" style="fill:rgb(247,37,133);fill-rule:nonzero;"/>
                <path d="M99.316,102.593C97.928,102.593 96.8,102.275 95.932,101.638C95.064,101.002 94.63,100.186 94.63,99.191C94.63,97.895 94.896,96.593 95.428,95.286C95.961,93.978 96.655,92.786 97.511,91.71C98.367,90.634 99.316,89.766 100.358,89.107C101.399,88.447 102.417,88.117 103.412,88.117C103.922,88.117 104.39,88.268 104.818,88.569C105.246,88.869 105.461,89.136 105.461,89.367C105.437,89.321 105.31,89.517 105.079,89.957C104.847,90.397 104.604,90.935 104.35,91.571C104.095,92.208 103.933,92.792 103.864,93.324C104.581,93.232 105.131,93.139 105.513,93.047C105.894,92.954 106.097,92.908 106.12,92.908C106.467,92.908 106.641,92.977 106.641,93.116C106.641,93.232 106.334,93.388 105.721,93.585C105.108,93.781 104.321,93.978 103.36,94.175C102.4,94.372 101.393,94.551 100.34,94.713C99.287,94.875 98.321,94.991 97.442,95.06C97.141,95.708 96.898,96.368 96.713,97.039C96.528,97.71 96.435,98.346 96.435,98.948C96.435,99.735 96.661,100.394 97.112,100.927C97.563,101.459 98.344,101.725 99.455,101.725C101.168,101.725 102.822,101.412 104.419,100.788C106.016,100.163 107.503,99.307 108.88,98.219C110.257,97.131 111.472,95.899 112.525,94.522C113.578,93.145 114.417,91.693 115.041,90.165C115.111,90.003 115.192,89.922 115.284,89.922C115.423,89.922 115.55,90.073 115.666,90.374C115.782,90.675 115.84,90.987 115.84,91.311C115.84,91.519 115.805,91.716 115.736,91.901C115.319,93.104 114.665,94.244 113.774,95.32C112.883,96.396 111.836,97.38 110.633,98.271C109.429,99.162 108.162,99.931 106.832,100.579C105.501,101.227 104.188,101.725 102.892,102.072C101.596,102.419 100.404,102.593 99.316,102.593ZM99.802,93.567C100.45,93.567 101.052,93.55 101.607,93.515C102.163,93.481 102.66,93.452 103.1,93.428C103.054,93.243 103.007,93.035 102.961,92.804C102.915,92.572 102.892,92.306 102.892,92.005C102.892,91.635 102.961,91.242 103.1,90.825C103.239,90.408 103.372,90.021 103.499,89.662C103.626,89.303 103.69,89.055 103.69,88.916C103.69,88.823 103.661,88.777 103.603,88.777L103.412,88.777C103.042,88.777 102.527,88.979 101.868,89.384C101.208,89.789 100.439,90.524 99.559,91.589C99.12,92.098 98.68,92.734 98.24,93.498C98.472,93.521 98.72,93.538 98.986,93.55C99.253,93.562 99.525,93.567 99.802,93.567Z" style="fill:rgb(247,37,133);fill-rule:nonzero;"/>
                <g>
                    <path d="M6.926,17.265L6.926,0.325C7.589,0.325 7.979,0.371 8.094,0.464C8.21,0.557 8.268,0.865 8.268,1.39L8.268,5.324L9.981,4.676C11.091,4.676 11.824,4.892 12.179,5.324C12.333,5.509 12.464,5.679 12.572,5.833C12.68,5.987 12.769,6.222 12.839,6.539C12.908,6.855 12.962,7.133 13.001,7.372C13.039,7.611 13.066,7.962 13.082,8.425C13.112,9.381 13.128,10.349 13.128,11.329C13.128,12.309 13.12,13.049 13.105,13.551C13.089,14.052 13.035,14.623 12.943,15.263C12.85,15.904 12.696,16.339 12.48,16.571C11.924,17.142 11.13,17.427 10.096,17.427L8.268,16.039C8.268,16.656 8.21,17.014 8.094,17.115C7.979,17.215 7.589,17.265 6.926,17.265ZM10.073,16.201C10.86,16.201 11.338,15.869 11.508,15.205C11.678,14.542 11.762,13.154 11.762,11.04C11.762,8.926 11.678,7.584 11.508,7.013C11.246,6.288 10.767,5.918 10.073,5.902L8.175,6.481L8.268,7.059L8.268,14.558L8.175,15.136L10.073,16.201Z" style="fill-rule:nonzero;"/>
                    <path d="M15.558,10.994L15.558,4.838C16.237,4.838 16.634,4.88 16.75,4.965C16.865,5.05 16.923,5.362 16.923,5.902L16.923,10.947C16.923,12.737 16.973,13.96 17.074,14.615C17.174,15.271 17.328,15.699 17.536,15.9C17.745,16.1 18.026,16.201 18.381,16.201L20.672,15.136L20.556,14.558L20.556,4.838C21.235,4.838 21.633,4.88 21.748,4.965C21.864,5.05 21.922,5.362 21.922,5.902L21.922,17.265C21.243,17.265 20.846,17.227 20.73,17.149C20.614,17.072 20.556,16.802 20.556,16.339L18.474,17.427C17.502,17.427 16.738,17.126 16.183,16.525C15.828,16.123 15.627,15.105 15.581,13.47C15.566,12.961 15.558,12.135 15.558,10.994Z" style="fill-rule:nonzero;"/>
                    <path d="M26.307,2.396C26.099,2.605 25.848,2.709 25.555,2.709C25.262,2.709 25.011,2.605 24.803,2.396C24.595,2.188 24.491,1.933 24.491,1.633C24.491,1.332 24.595,1.085 24.803,0.892C25.011,0.699 25.262,0.603 25.555,0.603C25.848,0.603 26.099,0.703 26.307,0.904C26.516,1.104 26.62,1.351 26.62,1.644C26.62,1.937 26.516,2.188 26.307,2.396ZM24.884,16.293L24.884,4.838C25.563,4.838 25.96,4.88 26.076,4.965C26.192,5.05 26.249,5.362 26.249,5.902L26.249,17.358C25.571,17.358 25.173,17.311 25.058,17.219C24.942,17.126 24.884,16.818 24.884,16.293Z" style="fill-rule:nonzero;"/>
                    <path d="M29.397,16.293L29.397,0.325C30.076,0.325 30.473,0.371 30.589,0.464C30.704,0.557 30.762,0.865 30.762,1.39L30.762,17.358C30.083,17.358 29.686,17.311 29.57,17.219C29.455,17.126 29.397,16.818 29.397,16.293Z" style="fill-rule:nonzero;"/>
                    <path d="M33.817,11.989L33.817,6.666L33.909,6.087L32.914,6.087L32.914,4.838L33.909,4.838L33.817,4.028L33.817,3.01C34.496,3.01 34.893,3.056 35.009,3.148C35.124,3.241 35.182,3.55 35.182,4.074L35.09,4.838L37.219,4.838C37.219,5.409 37.169,5.76 37.068,5.891C36.968,6.022 36.648,6.087 36.108,6.087L35.09,6.087L35.182,6.666L35.182,11.989C35.182,13.748 35.229,14.889 35.321,15.414C35.414,15.938 35.676,16.201 36.108,16.201L37.682,16.201L37.682,17.265L36.085,17.381C35.02,17.381 34.376,17.053 34.152,16.397C33.929,15.742 33.817,14.272 33.817,11.989Z" style="fill-rule:nonzero;"/>
                    <path d="M43.467,17.265L43.467,0.325C44.131,0.325 44.52,0.371 44.636,0.464C44.752,0.557 44.809,0.865 44.809,1.39L44.809,5.324L46.522,4.676C47.633,4.676 48.366,4.892 48.72,5.324C48.875,5.509 49.006,5.679 49.114,5.833C49.222,5.987 49.311,6.222 49.38,6.539C49.449,6.855 49.503,7.133 49.542,7.372C49.581,7.611 49.608,7.962 49.623,8.425C49.654,9.381 49.669,10.349 49.669,11.329C49.669,12.309 49.662,13.049 49.646,13.551C49.631,14.052 49.577,14.623 49.484,15.263C49.392,15.904 49.237,16.339 49.021,16.571C48.466,17.142 47.671,17.427 46.638,17.427L44.809,16.039C44.809,16.656 44.752,17.014 44.636,17.115C44.52,17.215 44.131,17.265 43.467,17.265ZM46.615,16.201C47.401,16.201 47.88,15.869 48.049,15.205C48.219,14.542 48.304,13.154 48.304,11.04C48.304,8.926 48.219,7.584 48.049,7.013C47.787,6.288 47.309,5.918 46.615,5.902L44.717,6.481L44.809,7.059L44.809,14.558L44.717,15.136L46.615,16.201Z" style="fill-rule:nonzero;"/>
                    <path d="M51.428,21.894L51.428,20.806C52.153,20.806 52.72,20.555 53.129,20.054C53.538,19.552 53.742,18.924 53.742,18.168C53.742,17.859 52.925,13.416 51.289,4.838C51.953,4.838 52.35,4.88 52.481,4.965C52.612,5.05 52.732,5.362 52.84,5.902L54.46,15.645L54.761,15.645L56.45,4.838C57.19,4.838 57.584,4.907 57.63,5.046C57.661,5.092 57.676,5.177 57.676,5.301C57.676,6.087 56.928,10.076 55.432,17.265C55.401,17.404 55.347,17.689 55.27,18.121C55.193,18.553 55.135,18.847 55.096,19.001C55.058,19.155 54.984,19.406 54.876,19.753C54.768,20.1 54.66,20.343 54.552,20.482C54.444,20.621 54.294,20.806 54.101,21.037C53.908,21.269 53.696,21.431 53.465,21.523C52.817,21.77 52.138,21.894 51.428,21.894Z" style="fill-rule:nonzero;"/>
                    <path d="M7.448,16.792L7.448,-0.148C8.111,-0.148 8.501,-0.102 8.617,-0.009C8.732,0.083 8.79,0.392 8.79,0.917L8.79,4.851L10.503,4.203C11.613,4.203 12.346,4.419 12.701,4.851C12.855,5.036 12.987,5.206 13.095,5.36C13.203,5.514 13.291,5.749 13.361,6.066C13.43,6.382 13.484,6.66 13.523,6.899C13.561,7.138 13.588,7.489 13.604,7.952C13.635,8.908 13.65,9.876 13.65,10.856C13.65,11.836 13.642,12.576 13.627,13.078C13.611,13.579 13.557,14.15 13.465,14.79C13.372,15.431 13.218,15.866 13.002,16.098C12.447,16.669 11.652,16.954 10.618,16.954L8.79,15.566C8.79,16.183 8.732,16.541 8.617,16.642C8.501,16.742 8.111,16.792 7.448,16.792ZM10.595,15.728C11.382,15.728 11.86,15.396 12.03,14.732C12.2,14.069 12.285,12.681 12.285,10.567C12.285,8.453 12.2,7.111 12.03,6.54C11.768,5.815 11.289,5.445 10.595,5.429L8.698,6.008L8.79,6.586L8.79,14.084L8.698,14.663L10.595,15.728Z" style="fill:rgb(20,118,154);fill-rule:nonzero;"/>
                    <path d="M16.08,10.521L16.08,4.365C16.759,4.365 17.156,4.407 17.272,4.492C17.387,4.577 17.445,4.889 17.445,5.429L17.445,10.474C17.445,12.264 17.495,13.487 17.596,14.142C17.696,14.798 17.85,15.226 18.059,15.427C18.267,15.627 18.548,15.728 18.903,15.728L21.194,14.663L21.079,14.084L21.079,4.365C21.757,4.365 22.155,4.407 22.27,4.492C22.386,4.577 22.444,4.889 22.444,5.429L22.444,16.792C21.765,16.792 21.368,16.754 21.252,16.676C21.136,16.599 21.079,16.329 21.079,15.866L18.996,16.954C18.024,16.954 17.26,16.653 16.705,16.052C16.35,15.65 16.149,14.632 16.103,12.997C16.088,12.488 16.08,11.662 16.08,10.521Z" style="fill:rgb(20,118,154);fill-rule:nonzero;"/>
                    <path d="M26.829,1.923C26.621,2.132 26.37,2.236 26.077,2.236C25.784,2.236 25.533,2.132 25.325,1.923C25.117,1.715 25.013,1.46 25.013,1.16C25.013,0.859 25.117,0.612 25.325,0.419C25.533,0.226 25.784,0.13 26.077,0.13C26.37,0.13 26.621,0.23 26.829,0.431C27.038,0.631 27.142,0.878 27.142,1.171C27.142,1.464 27.038,1.715 26.829,1.923ZM25.406,15.82L25.406,4.365C26.085,4.365 26.482,4.407 26.598,4.492C26.714,4.577 26.772,4.889 26.772,5.429L26.772,16.885C26.093,16.885 25.695,16.838 25.58,16.746C25.464,16.653 25.406,16.345 25.406,15.82Z" style="fill:rgb(20,118,154);fill-rule:nonzero;"/>
                    <path d="M29.919,15.82L29.919,-0.148C30.598,-0.148 30.995,-0.102 31.111,-0.009C31.226,0.083 31.284,0.392 31.284,0.917L31.284,16.885C30.605,16.885 30.208,16.838 30.092,16.746C29.977,16.653 29.919,16.345 29.919,15.82Z" style="fill:rgb(20,118,154);fill-rule:nonzero;"/>
                    <path d="M34.339,11.516L34.339,6.193L34.432,5.614L33.436,5.614L33.436,4.365L34.432,4.365L34.339,3.555L34.339,2.537C35.018,2.537 35.415,2.583 35.531,2.675C35.647,2.768 35.704,3.077 35.704,3.601L35.612,4.365L37.741,4.365C37.741,4.936 37.691,5.287 37.591,5.418C37.49,5.549 37.17,5.614 36.63,5.614L35.612,5.614L35.704,6.193L35.704,11.516C35.704,13.274 35.751,14.416 35.843,14.941C35.936,15.465 36.198,15.728 36.63,15.728L38.204,15.728L38.204,16.792L36.607,16.908C35.542,16.908 34.898,16.58 34.675,15.924C34.451,15.269 34.339,13.799 34.339,11.516Z" style="fill:rgb(20,118,154);fill-rule:nonzero;"/>
                    <path d="M43.989,16.792L43.989,-0.148C44.653,-0.148 45.042,-0.102 45.158,-0.009C45.274,0.083 45.332,0.392 45.332,0.917L45.332,4.851L47.044,4.203C48.155,4.203 48.888,4.419 49.243,4.851C49.397,5.036 49.528,5.206 49.636,5.36C49.744,5.514 49.833,5.749 49.902,6.066C49.972,6.382 50.026,6.66 50.064,6.899C50.103,7.138 50.13,7.489 50.145,7.952C50.176,8.908 50.191,9.876 50.191,10.856C50.191,11.836 50.184,12.576 50.168,13.078C50.153,13.579 50.099,14.15 50.006,14.79C49.914,15.431 49.759,15.866 49.543,16.098C48.988,16.669 48.193,16.954 47.16,16.954L45.332,15.566C45.332,16.183 45.274,16.541 45.158,16.642C45.042,16.742 44.653,16.792 43.989,16.792ZM47.137,15.728C47.923,15.728 48.402,15.396 48.571,14.732C48.741,14.069 48.826,12.681 48.826,10.567C48.826,8.453 48.741,7.111 48.571,6.54C48.309,5.815 47.831,5.445 47.137,5.429L45.239,6.008L45.332,6.586L45.332,14.084L45.239,14.663L47.137,15.728Z" style="fill:rgb(20,118,154);fill-rule:nonzero;"/>
                    <path d="M51.95,21.421L51.95,20.333C52.675,20.333 53.242,20.082 53.651,19.581C54.06,19.079 54.264,18.451 54.264,17.695C54.264,17.386 53.447,12.943 51.811,4.365C52.475,4.365 52.872,4.407 53.003,4.492C53.134,4.577 53.254,4.889 53.362,5.429L54.982,15.172L55.283,15.172L56.972,4.365C57.713,4.365 58.106,4.434 58.152,4.573C58.183,4.619 58.199,4.704 58.199,4.828C58.199,5.614 57.45,9.603 55.954,16.792C55.923,16.931 55.869,17.216 55.792,17.648C55.715,18.08 55.657,18.373 55.618,18.528C55.58,18.682 55.506,18.933 55.398,19.28C55.29,19.627 55.182,19.87 55.074,20.009C54.966,20.148 54.816,20.333 54.623,20.564C54.43,20.796 54.218,20.958 53.987,21.05C53.339,21.297 52.66,21.421 51.95,21.421Z" style="fill:rgb(20,118,154);fill-rule:nonzero;"/>
                </g>
            </g>
        </g>
        <g id="Fishbone">
            <g>
                <g>
                    <g>
                        <path d="M29.652,24.346C40.086,42.72 38.032,55.877 30.182,76.966L33.006,72.622C41.943,52.268 43.307,47.135 34.573,25.96L29.652,24.346Z"/>
                        <path d="M62.648,24.21C70.243,44.992 72.213,61.763 64.191,82.544L67.75,77.425C75.765,55.734 74.461,43.172 66.859,21.481L62.648,24.21Z"/>
                        <path d="M48.205,15.607L46.018,21.054C53.239,43.486 55.135,60.189 47.561,81.387L51.102,75.926C59.302,53.878 58.081,42.691 50.253,21.054L48.205,15.607Z"/>
                        <path d="M78.21,49.083C73.933,46.856 61.044,46.786 56.309,48.497L56.416,50.885C61.233,51.958 74.222,52.999 78.245,51.448L78.21,49.083Z"/>
                        <path d="M55.322,50.988C47.83,52.313 35.073,52.249 28.686,51.833C28.686,51.833 49.819,47.364 54.934,47.649L54.536,51.116"/>
                    </g>
                    <path d="M32.665,51.316C26.051,62.911 16.775,71.109 5.665,76.966C12.713,60.97 9.884,37.214 7.063,31.765C7.657,31.006 9.853,28.477 9.992,28.446C9.992,28.446 27.159,42.207 32.665,51.316ZM27.76,51.316C24.129,57.681 19.037,62.181 12.938,65.396C16.701,55.567 16.41,46.214 12.938,37.235C19.139,41.029 24.282,45.564 27.76,51.316Z"/>
                    <path d="M119.141,47.592C111.821,59.369 100.701,67.534 85.858,72.162C75.251,56.949 75.8,41.258 85.858,25.069C99.214,28.847 111.109,35.035 119.141,47.592ZM96.107,36.371C100.026,36.251 103.207,39.268 103.207,43.106C103.207,46.944 100.026,50.157 96.107,50.278C92.188,50.398 89.006,47.38 89.006,43.543C89.006,39.705 92.188,36.491 96.107,36.371Z"/>
                </g>
                <g>
                    <g>
                        <path d="M32.652,21.346C43.086,39.72 41.032,52.877 33.182,73.966L36.006,69.622C44.943,49.268 46.307,44.135 37.573,22.96L32.652,21.346Z" style="fill:white;"/>
                        <path d="M65.648,21.21C73.243,41.992 75.213,58.763 67.191,79.544L70.75,74.425C78.765,52.734 77.461,40.172 69.859,18.481L65.648,21.21Z" style="fill:white;"/>
                        <path d="M51.205,12.607L49.018,18.054C56.239,40.486 58.135,57.189 50.561,78.387L54.102,72.926C62.302,50.878 61.081,39.691 53.253,18.054L51.205,12.607Z" style="fill:white;"/>
                        <path d="M81.174,46.534C76.898,44.307 64.044,43.786 59.309,45.497L59.416,47.885C64.233,48.958 77.222,49.999 81.245,48.448L81.174,46.534Z" style="fill:white;"/>
                        <path d="M55.881,48.085C48.389,50.094 38.073,49.249 31.686,48.833C31.686,48.833 51.647,43.454 55.932,45.497L57.639,48.102" style="fill:white;"/>
                    </g>
                    <path d="M35.057,48.528C28.437,60.132 19.152,68.335 8.031,74.196C14.892,56.277 14.362,39.227 8.031,22.86C19.338,29.776 28.717,38.043 35.057,48.528ZM30.147,48.528C26.512,54.898 21.416,59.401 15.311,62.619C19.077,52.782 18.786,43.422 15.311,34.438C21.518,38.234 26.666,42.772 30.147,48.528Z" style="fill:white;"/>
                    <path d="M120.075,45.906C112.907,57.457 102.018,65.281 87.483,69.452C77.319,54.034 77.789,38.323 87.483,22.359C100.561,26.548 112.209,33.102 120.075,45.906ZM97.519,33.976C101.356,33.976 104.472,37.092 104.472,40.93C104.472,44.767 101.356,47.883 97.519,47.883C93.681,47.883 90.565,44.767 90.565,40.93C90.565,37.092 93.681,33.976 97.519,33.976Z" style="fill:white;"/>
                </g>
                <path d="M5.075,27.199L9.051,30.049C7.952,30.916 7.93,30.758 6.428,32.619L5.075,27.199Z"/>
            </g>
        </g>
    </g>
    <g id="Swatches">
    </g>
    <g id="Icon_Blue">
    </g>
    <g id="Icon_Gunmetal">
    </g>
</svg>
