<?xml version="1.0" encoding="UTF-8" standalone="no"?>
<!DOCTYPE svg PUBLIC "-//W3C//DTD SVG 1.1//EN" "http://www.w3.org/Graphics/SVG/1.1/DTD/svg11.dtd">
<svg width="100%" height="100%" viewBox="0 0 1505 788" version="1.1" xmlns="http://www.w3.org/2000/svg" xmlns:xlink="http://www.w3.org/1999/xlink" xml:space="preserve" xmlns:serif="http://www.serif.com/" style="fill-rule:evenodd;clip-rule:evenodd;stroke-linejoin:round;stroke-miterlimit:2;">
    <g>
        <path d="M77.908,429.25L260.408,429.25C263.896,403.863 270.496,379.475 279.879,356.475L0,356.475L0,777.246L77.908,777.246L77.908,604.975L246.921,604.975L246.921,532.179L77.908,532.179L77.908,429.25Z" style="fill:rgb(0,90,164);fill-rule:nonzero;"/>
        <path d="M372.446,429.25C391.458,342.362 468.783,277.267 561.379,277.267C585.833,277.267 609.117,281.988 630.646,290.263C645.521,169.196 748.625,75.417 873.721,75.417C998.983,75.417 1102.21,169.433 1116.87,290.713C1143.46,279.4 1172.7,273.121 1203.4,273.121C1325.57,273.121 1424.65,372.192 1424.65,494.325C1424.65,559.483 1401.69,607.933 1366.43,653.304L1452.06,653.304C1484.53,604.388 1500.03,550.979 1500.03,494.325C1500.03,330.787 1366.97,197.746 1203.4,197.746C1192.25,197.746 1181.25,198.417 1170.39,199.629C1122.62,82.675 1007.66,0.033 873.721,0.033C738.788,0.033 623.125,83.946 576.004,202.296C571.158,202.042 566.287,201.888 561.379,201.888C427.217,201.888 315.725,300.633 295.704,429.25L372.446,429.25Z" style="fill:rgb(0,90,164);fill-rule:nonzero;"/>
        <rect x="295.217" y="461.658" width="75.637" height="315.588" style="fill:rgb(0,90,164);fill-rule:nonzero;"/>
        <path d="M403.246,461.658L485.142,461.658L561.337,670.933L563.033,670.933L634.683,461.658L717.7,461.658L589.758,777.246L530.621,777.246L403.246,461.658Z" style="fill:rgb(0,90,164);fill-rule:nonzero;"/>
        <path d="M1203.88,420.162C1157.81,420.162 1133.37,459.954 1133.37,492.933C1133.37,535.583 1162.38,566.863 1203.88,566.863C1249.37,566.863 1273.8,527.042 1273.8,495.796C1273.8,454.258 1243.68,420.162 1203.88,420.162ZM1109.46,777.246L1202.73,635.092C1196.48,636.792 1189.65,636.792 1182.27,636.792C1122.56,636.233 1057.73,583.921 1057.73,499.771C1057.73,410.487 1126.53,348.504 1203.31,348.504C1278.94,348.504 1349.44,407.062 1349.44,499.183C1349.44,514.55 1346.6,532.725 1339.79,551.508C1332.95,568.563 1325,584.483 1315.33,598.708L1198.19,777.246L1109.46,777.246Z" style="fill:rgb(0,90,164);fill-rule:nonzero;"/>
        <path d="M875.717,518.529C913.267,518.529 952.492,541.833 961.025,592.458L786.45,592.458C800.683,533.862 847.867,518.529 875.717,518.529ZM943.475,685.717C928.742,706.729 905.654,718.125 875.717,718.125C821.712,718.125 792.138,673.754 788.729,653.304L1033.8,653.304C1036.09,643.042 1038.34,629.983 1038.34,615.196C1038.34,535.583 975.246,449.146 875.154,449.146C777.921,449.146 709.125,531.025 709.125,620.304C709.125,712.429 781.883,787.5 875.717,787.5C946.167,787.5 1004.15,739.438 1025.19,685.717L943.475,685.717Z" style="fill:rgb(0,90,164);fill-rule:nonzero;"/>
        <path d="M1346.02,750.704C1350.5,750.683 1352.99,747.621 1352.98,744.042C1352.96,740.279 1350.25,737.425 1345.95,737.446L1338.61,737.479L1338.67,750.738L1346.02,750.704ZM1331.95,731.779L1346.47,731.713C1354.88,731.671 1359.93,737.2 1359.96,743.829C1359.99,749.383 1356.96,753.517 1353.2,754.971L1361.34,770.338L1354.35,770.371L1347.3,756.429L1338.7,756.471L1338.76,770.446L1332.14,770.475L1331.95,731.779ZM1375.05,750.746C1374.96,733.546 1363.43,720.521 1344.08,720.613C1325.45,720.7 1314.05,734.013 1314.13,751.213C1314.21,768.233 1325.74,781.613 1344.73,781.525C1363.9,781.433 1375.12,768.121 1375.05,750.746ZM1307.68,751.242C1307.58,730.996 1322.02,714.625 1344.05,714.521C1366.99,714.412 1381.4,730.467 1381.49,750.712C1381.59,770.779 1367.51,787.329 1344.76,787.438C1322.36,787.542 1307.78,771.488 1307.68,751.242Z" style="fill:rgb(0,90,164);fill-rule:nonzero;"/>
    </g>
</svg>
