<?xml version="1.0" encoding="UTF-8" standalone="no"?>
<!DOCTYPE svg PUBLIC "-//W3C//DTD SVG 1.1//EN" "http://www.w3.org/Graphics/SVG/1.1/DTD/svg11.dtd">
<svg width="100%" height="100%" viewBox="0 0 106 90" version="1.1" xmlns="http://www.w3.org/2000/svg" xmlns:xlink="http://www.w3.org/1999/xlink" xml:space="preserve" xmlns:serif="http://www.serif.com/" style="fill-rule:evenodd;clip-rule:evenodd;stroke-linecap:round;stroke-linejoin:round;stroke-miterlimit:1.5;">
    <g transform="matrix(1,0,0,1,-859,-222.834)">
        <g id="Sevices_Alt">
        </g>
        <g id="Folder" transform="matrix(0.988069,0,0,0.984042,8.03854,1.4666)">
            <rect x="861.237" y="224.957" width="107.28" height="90.612" style="fill:none;"/>
            <g transform="matrix(0.993588,0,0,0.999678,6.44003,-1.60684)">
                <g id="Open-Folder" serif:id="Open Folder" transform="matrix(0.325038,0,0,0.324977,537.157,214)">
                    <g id="Right">
                        <g transform="matrix(3.11102,0,0,3.06312,-1680.31,-635.679)">
                            <path d="M964.994,267.972C966.159,268.249 966.31,270.592 965.61,271.109L928.086,309.82C927.343,310.586 925.862,310.87 924.78,310.453L889.483,296.88C888.338,296.655 888.099,294.528 888.786,293.958L926.392,255.033C927.134,254.267 928.616,253.983 929.698,254.399L964.994,267.972Z" style="fill:url(#_Linear1);"/>
                        </g>
                        <g transform="matrix(3.12805,0,0,3.12805,-1694.63,-660.208)">
                            <path d="M964.547,270.348C964.547,270.348 965.666,271.148 965.487,272.504C965.34,273.617 964.791,274.206 964.597,274.36L927.964,311.581C927.105,312.453 925.394,312.792 924.142,312.318C924.142,312.318 889.08,299.042 889.077,299.041C888.493,298.73 888.115,298.534 888.087,297.648C888.051,296.488 888.113,296.377 888.335,295.915C888.09,296.583 888.223,297.203 888.498,297.56C888.655,297.764 889.159,298.039 889.31,298.068C889.338,298.073 924.496,311.383 924.496,311.383C925.397,311.724 926.633,311.507 927.251,310.879L964.571,272.972C964.59,272.953 964.915,272.628 965.037,272.328C965.169,272.006 965.19,271.704 965.177,271.429C965.139,270.69 964.547,270.348 964.547,270.348Z" style="fill:url(#_Linear2);"/>
                        </g>
                    </g>
                    <g id="Left" transform="matrix(0.999995,-0.00341963,0.00494609,0.999988,-0.772273,8.08558)">
                        <g transform="matrix(3.03412,0,0,2.97497,-1610.97,-620.005)">
                            <path d="M927.197,252.698C927.362,253.127 927.436,253.584 927.424,254.032C927.402,254.815 927.178,255.886 926.564,256.52L888.673,295.608C887.825,296.483 886.505,296.424 885.726,295.476L860.364,264.527C859.844,263.893 859.459,263.216 859.48,262.443C859.501,261.66 859.333,260.919 860.49,259.832L898.353,220.788C899.06,220.059 900.094,219.978 900.869,220.519M900.869,220.519C901.025,220.627 901.17,220.761 901.3,220.919L926.69,251.825C926.909,252.091 927.077,252.387 927.197,252.698" style="fill:url(#_Linear3);"/>
                        </g>
                        <g transform="matrix(3.12805,0,0,3.12805,-1694.63,-660.208)">
                            <path d="M888.372,294.286C888.372,294.286 886.162,295.583 885.212,294.449L860.585,265.056C860,264.358 859.69,263.255 859.714,262.403C859.737,261.546 860.048,260.612 860.735,259.918L897.752,222.496C898.412,221.828 899.903,222.309 899.903,222.309C899.903,222.309 898.949,222.11 898.412,222.646L861.083,260.293C860.578,260.804 860.454,261.359 860.539,262.297C860.594,262.913 860.926,263.906 861.351,264.414L885.979,293.806C886.539,294.475 887.626,294.727 888.372,294.286Z" style="fill:url(#_Linear4);"/>
                        </g>
                    </g>
                </g>
                <g transform="matrix(1.01674,0,0,1.01654,-13.7033,-0.269463)">
                    <g id="SBS-Logo" serif:id="SBS Logo" transform="matrix(0.0191425,0.0218612,-0.0218612,0.0191425,876.451,189.063)">
                        <g>
                            <g transform="matrix(2.53357,0,0,2.53357,927.137,-508.454)">
                                <path d="M448.223,468.038C443.362,463.614 438.401,459.254 433.103,455.355C430.07,453.158 427.816,450.003 427.884,446.136C427.928,443.107 428.863,440.067 431.317,438.134C433.894,436.103 437.278,436.536 440.145,437.664C442.1,438.429 443.726,439.884 445.102,441.435C447.573,444.224 449.45,447.528 451.111,450.845C450.85,446.305 450.596,441.765 450.348,437.224C447.904,434.222 444.598,432.101 440.94,430.883C437.246,429.655 433.306,429.219 429.452,429.855C425.78,430.459 422.414,432.164 419.788,434.806C416.768,437.845 415.937,442.19 416.159,446.333C416.421,451.24 418.162,455.921 421.435,459.617C424.665,463.255 428.215,466.605 432.031,469.622C436.039,472.837 439.983,476.315 443.092,480.433C444.831,482.737 446.437,485.408 446.813,488.328C447.35,492.513 446.491,496.852 442.799,499.34C439.046,501.887 434.368,502.124 430.023,501.339C424.913,500.408 420.939,497.191 418.78,492.49C419.063,496.954 419.352,501.416 419.647,505.879C422.779,509.145 426.859,511.244 431.34,511.877C435.711,512.494 440.17,512.008 444.263,510.336C448.411,508.633 451.836,505.642 454.355,501.958C457.3,497.647 458.109,492.344 457.774,487.222C457.284,479.728 453.742,473.061 448.223,468.038Z" style="fill:url(#_Linear5);fill-rule:nonzero;"/>
                            </g>
                            <g transform="matrix(2.53357,0,0,2.53357,927.137,-508.454)">
                                <path d="M493.712,496.901C493.178,501.313 490.638,504.787 486.482,506.431C485.828,506.69 485.146,506.898 484.446,506.987C484.002,507.043 483.549,507.05 483.106,506.98C480.258,506.527 479.617,503.09 479.452,500.725C478.511,487.275 477.627,473.821 476.798,460.364C476.806,460.485 477.65,460.906 477.664,460.915C478.523,461.427 479.39,461.925 480.256,462.424C481.736,463.278 483.291,464.103 484.66,465.134C488.849,468.559 490.858,474.103 492.116,479.19C493.541,484.948 494.375,490.974 493.712,496.901ZM504.518,481.158C503.215,477.069 501.357,473.01 498.401,469.842C496.103,467.408 493.308,465.48 490.381,463.88C487.258,462.174 484.152,460.437 481.057,458.68C479.231,457.68 477.718,456.187 476.445,454.558C476.273,451.723 476.105,448.887 475.939,446.051C475.895,445.301 475.832,444.551 475.743,443.805C475.319,440.244 474.146,435.072 469.856,434.489C465.416,433.886 460.938,433.571 456.465,433.339C460.9,435.895 462.987,440.491 463.273,445.469C464.31,463.55 465.45,481.642 466.691,499.71C466.781,501.018 466.867,502.327 466.997,503.632C467.119,504.858 467.604,506.05 468.091,507.169C469.313,510.214 471.683,512.471 475.09,512.532C478.835,512.611 482.579,512.66 486.324,512.706C491.534,512.733 497.229,511.652 500.805,507.532C503.782,504.102 505.574,499.858 506.057,495.349C506.575,490.567 505.967,485.733 504.518,481.158Z" style="fill:url(#_Linear6);fill-rule:nonzero;"/>
                            </g>
                            <g transform="matrix(2.53357,0,0,2.53357,927.137,-508.454)">
                                <path d="M535.403,471.035C531.036,466.824 526.571,462.673 521.784,458.939C518.98,456.787 517.012,453.754 517.025,450.136C517.03,447.312 517.769,444.381 519.99,442.478C522.255,440.545 525.284,440.938 527.85,442.009C529.632,442.75 531.087,444.147 532.311,445.604C534.568,448.291 536.267,451.439 537.777,454.59C537.492,450.249 537.212,445.907 536.938,441.566C534.768,438.758 531.816,436.702 528.478,435.524C525.195,434.366 521.671,433.948 518.231,434.567C514.916,435.163 511.948,436.837 509.683,439.323C506.97,442.3 506.344,446.463 506.586,450.35C506.874,454.986 508.438,459.457 511.441,463.037C514.342,466.487 517.539,469.685 520.994,472.58C524.629,475.669 528.184,479.003 530.974,482.895C532.571,485.124 534.016,487.672 534.381,490.437C534.892,494.317 534.288,498.515 530.931,500.97C527.644,503.391 523.467,503.647 519.572,502.902C514.859,501.989 511.367,498.797 509.458,494.463C509.761,498.728 510.07,502.992 510.384,507.256C513.148,510.303 516.785,512.36 520.867,512.972C524.769,513.554 528.746,513.079 532.361,511.48C536.11,509.813 539.1,506.91 541.258,503.455C543.88,499.267 544.491,494.204 544.137,489.36C543.623,482.312 540.48,475.923 535.403,471.035Z" style="fill:url(#_Linear7);fill-rule:nonzero;"/>
                            </g>
                            <g transform="matrix(2.53357,0,0,2.53357,927.137,-508.454)">
                                <path d="M527.97,412.964C527.025,412.004 526.057,411.066 525.073,410.147C520.797,406.155 516.144,402.554 511.124,399.545C503.52,394.97 495.192,391.523 486.483,389.747C477.873,387.972 468.94,387.621 460.249,389.027C451.499,390.434 442.974,393.39 435.37,397.966C431.484,400.276 427.819,402.953 424.417,405.928C423.578,406.707 422.739,407.485 421.9,408.264C421.067,409.055 420.318,409.93 419.52,410.756C418.741,411.606 417.924,412.421 417.175,413.298C416.45,414.205 415.725,415.112 415,416.02C413.476,417.798 412.266,419.812 410.945,421.738C410.255,422.697 409.704,423.745 409.127,424.773C408.542,425.806 407.958,426.839 407.374,427.872C406.844,428.943 406.361,430.036 405.858,431.119C405.605,431.664 405.353,432.208 405.1,432.752C404.976,433.022 404.851,433.293 404.727,433.563C404.619,433.845 404.511,434.127 404.403,434.41C403.979,435.541 403.555,436.673 403.131,437.805C402.935,438.378 402.701,438.937 402.516,439.513C402.347,440.098 402.178,440.683 402.01,441.268C401.67,442.442 401.33,443.615 400.991,444.789C400.684,445.983 400.472,447.199 400.2,448.401C400.075,449.006 399.95,449.611 399.825,450.216C399.681,450.817 399.566,451.426 399.498,452.041C399.331,453.275 399.164,454.509 398.997,455.743C398.93,456.363 398.815,456.979 398.768,457.602C398.728,458.228 398.688,458.854 398.648,459.481C398.568,460.734 398.489,461.987 398.41,463.241C398.386,464.507 398.417,465.773 398.42,467.039C398.452,468.309 398.389,469.584 398.522,470.85C399.12,481.196 401.428,491.435 405.242,501.067C401.125,491.477 398.51,481.234 397.602,470.834C397.428,469.555 397.455,468.262 397.377,466.976C397.338,465.69 397.266,464.404 397.256,463.117C397.297,461.839 397.339,460.561 397.382,459.283C397.403,458.647 397.425,458.01 397.447,457.374C397.466,456.736 397.567,456.105 397.621,455.47C397.753,454.209 397.886,452.948 398.019,451.687C398.072,451.054 398.166,450.426 398.29,449.803C398.401,449.183 398.512,448.564 398.623,447.944C398.854,446.706 399.037,445.459 399.317,444.23C399.624,443.018 399.931,441.806 400.239,440.593C400.396,439.987 400.553,439.38 400.71,438.774C400.873,438.176 401.1,437.599 401.285,437.009C401.683,435.832 402.081,434.655 402.479,433.478C402.579,433.186 402.678,432.894 402.777,432.602C402.896,432.317 403.016,432.033 403.136,431.748C403.377,431.183 403.619,430.617 403.86,430.052C404.352,428.921 404.807,427.775 405.327,426.657C405.891,425.575 406.455,424.492 407.019,423.41C407.579,422.331 408.121,421.237 408.796,420.223C410.099,418.19 411.291,416.073 412.803,414.182C413.521,413.218 414.24,412.255 414.958,411.291C415.707,410.362 416.525,409.491 417.304,408.587C418.097,407.699 418.846,406.769 419.69,405.928C420.534,405.092 421.377,404.256 422.22,403.42C425.661,400.21 429.382,397.298 433.349,394.764C441.156,389.718 449.983,386.344 459.098,384.587C468.208,382.816 477.632,382.903 486.759,384.506C496.068,386.127 505.019,389.549 513.224,394.206C518.796,397.345 523.977,401.159 528.735,405.426C529.777,406.345 530.792,407.296 531.785,408.267C530.851,408.511 530.016,409.043 529.378,409.764C528.588,410.654 528.12,411.788 527.97,412.964Z" style="fill:url(#_Linear8);fill-rule:nonzero;"/>
                            </g>
                            <g transform="matrix(2.53357,0,0,2.53357,927.137,-508.454)">
                                <path d="M529.913,419.13C528.432,417.479 527.665,415.171 527.97,412.964C528.12,411.788 528.588,410.654 529.378,409.764C530.016,409.043 530.851,408.511 531.785,408.267C533.964,407.682 536.214,408.695 537.661,410.326C539.864,412.806 540.514,417.016 538.209,419.656C535.913,422.287 532.059,421.521 529.913,419.13ZM539.832,407.857C537.102,404.771 532.487,403.201 528.735,405.426C528.037,405.834 527.411,406.357 526.874,406.959C526.054,407.879 525.446,408.975 525.073,410.147C523.792,414.079 524.976,418.595 527.709,421.632C530.5,424.73 535.225,426.278 538.968,423.908C539.609,423.502 540.186,422.999 540.683,422.427C544.264,418.304 543.262,411.731 539.832,407.857Z" style="fill:url(#_Linear9);fill-rule:nonzero;"/>
                            </g>
                            <g transform="matrix(2.53357,0,0,2.53357,927.137,-508.454)">
                                <path d="M542.37,535.441C541.673,536.297 540.976,537.153 540.279,538.009C537.398,541.338 534.224,544.415 530.79,547.172C523.893,552.767 515.834,556.832 507.337,559.369C498.445,562.029 489.039,562.76 479.81,561.983C469.908,561.172 460.214,558.374 451.2,554.242C444.892,551.366 438.946,547.718 433.428,543.527C432.209,542.617 431.018,541.671 429.85,540.696C429.883,540.685 429.926,540.674 429.959,540.662C430.136,540.608 430.311,540.546 430.476,540.464C430.649,540.389 430.821,540.312 430.983,540.216C431.031,540.191 431.08,540.168 431.122,540.135C431.295,540.04 431.459,539.931 431.617,539.812C431.799,539.683 431.974,539.542 432.137,539.389C432.309,539.239 432.468,539.074 432.618,538.903C432.762,538.741 432.899,538.571 433.018,538.39C433.039,538.369 433.061,538.345 433.072,538.316C433.178,538.182 433.267,538.036 433.347,537.886C433.507,537.632 433.634,537.358 433.746,537.08C433.819,536.909 433.884,536.734 433.936,536.555C434.007,536.341 434.069,536.123 434.11,535.901C434.149,535.725 434.176,535.546 434.202,535.368C435.3,536.333 436.422,537.27 437.56,538.186C442.463,542.122 447.752,545.596 453.389,548.39C461.697,552.537 470.678,555.446 479.915,556.538C488.62,557.577 497.543,557.204 506.046,554.993C514.24,552.88 522.071,549.287 528.842,544.189C532.233,541.665 535.381,538.819 538.257,535.721C538.957,534.922 539.657,534.123 540.357,533.324C541.06,532.517 541.673,531.637 542.326,530.791C542.974,529.938 543.644,529.1 544.264,528.226C544.848,527.321 545.432,526.417 546.015,525.512C547.259,523.73 548.209,521.767 549.262,519.872C549.822,518.932 550.248,517.92 550.697,516.925C551.149,515.926 551.6,514.926 552.052,513.927C552.47,512.899 552.83,511.848 553.223,510.81C553.414,510.292 553.606,509.773 553.798,509.254C553.894,508.994 553.99,508.734 554.086,508.474C554.165,508.203 554.244,507.932 554.323,507.661C554.638,506.589 554.953,505.517 555.268,504.444C555.421,503.903 555.602,503.37 555.731,502.822C555.853,502.271 555.974,501.719 556.096,501.168C556.342,500.064 556.588,498.96 556.834,497.856C557.05,496.735 557.194,495.601 557.385,494.475C557.473,493.913 557.561,493.35 557.649,492.787C557.745,492.221 557.819,491.651 557.864,491.079C557.969,489.932 558.075,488.784 558.181,487.637C558.227,487.064 558.306,486.493 558.318,485.917C558.336,485.337 558.354,484.757 558.372,484.177C558.41,483.016 558.448,481.854 558.486,480.693C558.478,479.523 558.421,478.354 558.397,477.185C558.351,476.014 558.371,474.838 558.239,473.671C557.557,464.175 555.563,454.77 552.354,445.808C555.812,454.74 558.058,464.15 558.985,473.683C559.156,474.863 559.161,476.056 559.24,477.243C559.298,478.428 559.389,479.611 559.427,480.796C559.421,481.977 559.415,483.158 559.41,484.339C559.408,484.932 559.406,485.525 559.403,486.118C559.398,486.703 559.335,487.285 559.308,487.87C559.23,489.042 559.152,490.214 559.074,491.387C559.053,491.972 558.993,492.554 558.909,493.133C558.834,493.711 558.76,494.288 558.687,494.866C558.53,496.024 558.416,497.188 558.228,498.342C558.009,499.477 557.79,500.612 557.571,501.748C557.46,502.318 557.349,502.889 557.239,503.459C557.122,504.023 556.959,504.575 556.815,505.132C556.525,506.244 556.234,507.357 555.944,508.469C555.872,508.746 555.799,509.023 555.726,509.3C555.636,509.571 555.546,509.841 555.457,510.112C555.273,510.654 555.09,511.196 554.906,511.738C554.539,512.819 554.2,513.91 553.806,514.981C553.372,516.025 552.938,517.069 552.505,518.113C552.074,519.155 551.666,520.213 551.126,521.206C550.099,523.198 549.177,525.254 547.959,527.141C547.383,528.098 546.807,529.056 546.231,530.014C545.627,530.942 544.964,531.832 544.33,532.74C543.672,533.637 543.064,534.571 542.37,535.441Z" style="fill:url(#_Linear10);fill-rule:nonzero;"/>
                            </g>
                            <g transform="matrix(2.53357,0,0,2.53357,927.137,-508.454)">
                                <path d="M429.418,540.814C429.291,540.851 429.161,540.876 429.03,540.895C428.63,540.964 428.224,541.001 427.818,540.987C427.687,540.987 427.557,540.98 427.427,540.967C427.346,540.961 427.263,540.961 427.181,540.946C426.993,540.932 426.806,540.906 426.621,540.865L426.614,540.858C426.399,540.812 426.185,540.764 425.975,540.701C425.752,540.64 425.536,540.559 425.324,540.47C425.14,540.399 424.962,540.315 424.789,540.222C424.533,540.102 424.289,539.959 424.051,539.807C423.872,539.687 423.7,539.557 423.533,539.422C423.501,539.403 423.474,539.379 423.447,539.353C423.265,539.216 423.095,539.065 422.931,538.907C420.223,536.303 419.591,531.73 422.203,528.827C424.788,525.952 429.23,526.285 431.885,528.87C432.041,529.021 432.19,529.179 432.325,529.348C432.364,529.374 432.392,529.412 432.418,529.451C432.552,529.595 432.674,529.75 432.779,529.917C432.827,529.976 432.878,530.037 432.909,530.108C433.008,530.229 433.092,530.361 433.167,530.497C433.313,530.74 433.443,530.992 433.562,531.249C433.641,531.429 433.712,531.612 433.784,531.795C433.959,532.253 434.081,532.731 434.161,533.214C434.197,533.438 434.234,533.662 434.243,533.889C434.259,534.098 434.268,534.307 434.264,534.516C434.258,534.801 434.241,535.086 434.202,535.368C434.176,535.546 434.149,535.725 434.11,535.901C434.069,536.123 434.007,536.341 433.936,536.555C433.884,536.734 433.819,536.909 433.746,537.08C433.634,537.358 433.507,537.632 433.347,537.886C433.267,538.036 433.178,538.182 433.072,538.316C433.061,538.345 433.039,538.369 433.018,538.39C432.899,538.571 432.762,538.741 432.618,538.903C432.468,539.074 432.309,539.239 432.137,539.389C431.974,539.542 431.799,539.683 431.617,539.812C431.459,539.931 431.291,540.033 431.122,540.135C431.08,540.168 431.031,540.191 430.983,540.216C430.821,540.312 430.649,540.389 430.476,540.464C430.307,540.538 430.133,540.6 429.959,540.662C429.926,540.674 429.883,540.685 429.85,540.696C429.707,540.739 429.563,540.779 429.418,540.814ZM437.56,538.186C438.931,533.941 437.555,529.14 434.394,526.055C430.252,522.009 423.295,521.487 419.247,525.967C415.145,530.506 416.138,537.689 420.385,541.76C423.829,545.061 429.264,546.138 433.428,543.527C434.217,543.038 434.929,542.43 435.543,541.733C436.449,540.704 437.137,539.49 437.56,538.186Z" style="fill:url(#_Linear11);fill-rule:nonzero;"/>
                            </g>
                        </g>
                    </g>
                </g>
            </g>
        </g>
        <g id="Portfolio-C" serif:id="Portfolio C">
        </g>
        <g id="Portfolio-A" serif:id="Portfolio A">
        </g>
        <g id="Portfolio-B" serif:id="Portfolio B">
        </g>
        <g id="Portfolio">
        </g>
        <g id="e-mail" serif:id="e mail">
        </g>
        <g id="Contact">
        </g>
        <g id="Info-Circle" serif:id="Info Circle">
        </g>
        <g id="Resume-Skewed" serif:id="Resume Skewed" transform="matrix(0.665768,0.151951,-0.151951,0.665768,2098.16,180.172)">
            <g id="Resume" transform="matrix(1,0,0,1,91.1932,58.1317)">
                <g id="Resume-Skewed1" serif:id="Resume Skewed">
                    <g id="Resume1" serif:id="Resume">
                        <g transform="matrix(1,0,0,1,5,-6.66666)">
                            <path d="M-826.127,539.181C-866.023,536.773 -905.919,534.366 -945.815,531.959C-937.667,558.86 -932.875,586.792 -932.316,614.916C-931.763,642.691 -935.369,670.461 -942.759,697.232C-904.993,705.473 -867.227,713.713 -829.46,721.954C-820.493,693.036 -814.677,663.05 -813.551,632.755C-812.376,601.108 -816.482,569.364 -826.127,539.181Z" style="fill:rgb(71,72,72);"/>
                            <g transform="matrix(1,0,0,1,-3.08011,-2.5)">
                                <g transform="matrix(0.984565,0,0,0.796706,107.308,138.564)">
                                    <path d="M-962.099,600.453C-983.4,598.102 -1004.7,595.785 -1026.01,593.509C-1026.12,590.39 -1025.48,587.244 -1024.62,584.261C-1023.03,578.729 -1020.48,573.101 -1016.6,568.793C-1014.01,565.932 -1010.36,563.488 -1006.34,564.484C-1005.53,564.685 -1004.76,565.01 -1004.03,565.422C-999.153,568.188 -993.631,568.554 -988.333,566.825C-983.336,565.194 -978.49,568.334 -975.101,571.753C-970.159,576.741 -966.671,583.279 -964.36,589.86C-963.174,593.239 -962.171,596.85 -962.099,600.453Z" style="fill:rgb(244,126,63);"/>
                                </g>
                                <g transform="matrix(1,0,0,1,122.169,23.6089)">
                                    <path d="M-1002.67,531.246C-993.765,531.79 -985.451,539.59 -983.818,548.253C-982.844,553.424 -984.567,559.018 -989.266,561.787C-990.214,562.346 -991.243,562.766 -992.309,563.039C-993.696,563.396 -995.139,563.504 -996.565,563.403C-1005.42,562.774 -1012.61,554.67 -1014.21,546.286C-1015.17,541.257 -1014.01,535.382 -1009.26,532.649C-1008.45,532.181 -1007.57,531.831 -1006.66,531.597C-1005.36,531.262 -1004,531.164 -1002.67,531.246Z" style="fill:rgb(244,126,63);"/>
                                </g>
                            </g>
                        </g>
                        <g>
                            <g transform="matrix(1,0,0,1,1.24465,0)">
                                <path d="M-903.749,626.149C-881.995,628.515 -860.245,630.915 -838.499,633.344" style="fill:none;stroke:rgb(244,126,63);stroke-width:7.32px;"/>
                            </g>
                            <g transform="matrix(1,0,0,1,1.24465,13.8785)">
                                <path d="M-904.735,626.836C-883.118,629.557 -861.505,632.31 -839.896,635.089" style="fill:none;stroke:rgb(244,126,63);stroke-width:7.32px;"/>
                            </g>
                            <g transform="matrix(1,0,0,1,1.44509,27.757)">
                                <path d="M-906.483,627.595C-885.028,630.727 -863.577,633.886 -842.129,637.066" style="fill:none;stroke:rgb(244,126,63);stroke-width:7.32px;"/>
                            </g>
                            <g transform="matrix(0.522237,0,0,1,-433.884,41.6355)">
                                <path d="M-906.948,628.379C-886.076,630.223 -865.204,632.073 -844.333,633.927" style="fill:none;stroke:rgb(244,126,63);stroke-width:9.18px;"/>
                            </g>
                        </g>
                    </g>
                </g>
            </g>
        </g>
    </g>
    <defs>
        <linearGradient id="_Linear1" x1="0" y1="0" x2="1" y2="0.00117609" gradientUnits="userSpaceOnUse" gradientTransform="matrix(66.2467,-24.4204,24.0445,67.2825,895.066,294.655)"><stop offset="0" style="stop-color:rgb(56,56,56);stop-opacity:1"/><stop offset="1" style="stop-color:rgb(137,139,139);stop-opacity:1"/></linearGradient>
        <linearGradient id="_Linear2" x1="0" y1="0" x2="1" y2="0.00168514" gradientUnits="userSpaceOnUse" gradientTransform="matrix(-0.868492,25.7715,-18.177,-0.631867,914.762,276.488)"><stop offset="0" style="stop-color:rgb(108,108,108);stop-opacity:1"/><stop offset="1" style="stop-color:rgb(36,37,37);stop-opacity:1"/></linearGradient>
        <linearGradient id="_Linear3" x1="0" y1="0" x2="1" y2="0.00204946" gradientUnits="userSpaceOnUse" gradientTransform="matrix(5.38928,42.5253,-41.8706,5.47355,881.447,250.928)"><stop offset="0" style="stop-color:rgb(167,167,167);stop-opacity:1"/><stop offset="1" style="stop-color:rgb(71,72,72);stop-opacity:1"/></linearGradient>
        <linearGradient id="_Linear4" x1="0" y1="0" x2="1" y2="0.0124863" gradientUnits="userSpaceOnUse" gradientTransform="matrix(33.9615,-79.2392,86.7,38.3303,885.857,285.496)"><stop offset="0" style="stop-color:rgb(82,82,82);stop-opacity:1"/><stop offset="1" style="stop-color:rgb(213,213,213);stop-opacity:1"/></linearGradient>
        <linearGradient id="_Linear5" x1="0" y1="0" x2="1" y2="0" gradientUnits="userSpaceOnUse" gradientTransform="matrix(2e-06,0,0,2e-06,500.926,732.841)"><stop offset="0" style="stop-color:rgb(180,180,180);stop-opacity:1"/><stop offset="1" style="stop-color:rgb(162,162,162);stop-opacity:1"/></linearGradient>
        <linearGradient id="_Linear6" x1="0" y1="0" x2="1" y2="0" gradientUnits="userSpaceOnUse" gradientTransform="matrix(2e-06,0,0,2e-06,500.926,732.841)"><stop offset="0" style="stop-color:rgb(180,180,180);stop-opacity:1"/><stop offset="1" style="stop-color:rgb(162,162,162);stop-opacity:1"/></linearGradient>
        <linearGradient id="_Linear7" x1="0" y1="0" x2="1" y2="0" gradientUnits="userSpaceOnUse" gradientTransform="matrix(2e-06,0,0,2e-06,500.926,732.841)"><stop offset="0" style="stop-color:rgb(180,180,180);stop-opacity:1"/><stop offset="1" style="stop-color:rgb(162,162,162);stop-opacity:1"/></linearGradient>
        <linearGradient id="_Linear8" x1="0" y1="0" x2="1" y2="0" gradientUnits="userSpaceOnUse" gradientTransform="matrix(2e-06,0,0,2e-06,500.926,732.841)"><stop offset="0" style="stop-color:rgb(180,180,180);stop-opacity:1"/><stop offset="1" style="stop-color:rgb(162,162,162);stop-opacity:1"/></linearGradient>
        <linearGradient id="_Linear9" x1="0" y1="0" x2="1" y2="0" gradientUnits="userSpaceOnUse" gradientTransform="matrix(2e-06,0,0,2e-06,500.926,732.841)"><stop offset="0" style="stop-color:rgb(180,180,180);stop-opacity:1"/><stop offset="1" style="stop-color:rgb(162,162,162);stop-opacity:1"/></linearGradient>
        <linearGradient id="_Linear10" x1="0" y1="0" x2="1" y2="0" gradientUnits="userSpaceOnUse" gradientTransform="matrix(2e-06,0,0,2e-06,500.926,732.841)"><stop offset="0" style="stop-color:rgb(180,180,180);stop-opacity:1"/><stop offset="1" style="stop-color:rgb(162,162,162);stop-opacity:1"/></linearGradient>
        <linearGradient id="_Linear11" x1="0" y1="0" x2="1" y2="0" gradientUnits="userSpaceOnUse" gradientTransform="matrix(2e-06,0,0,2e-06,500.926,732.841)"><stop offset="0" style="stop-color:rgb(180,180,180);stop-opacity:1"/><stop offset="1" style="stop-color:rgb(162,162,162);stop-opacity:1"/></linearGradient>
    </defs>
</svg>
