<?xml version="1.0" encoding="UTF-8" standalone="no"?>
<!DOCTYPE svg PUBLIC "-//W3C//DTD SVG 1.1//EN" "http://www.w3.org/Graphics/SVG/1.1/DTD/svg11.dtd">
<svg width="100%" height="100%" viewBox="0 0 3840 311" version="1.1" xmlns="http://www.w3.org/2000/svg" xmlns:xlink="http://www.w3.org/1999/xlink" xml:space="preserve" xmlns:serif="http://www.serif.com/" style="fill-rule:evenodd;clip-rule:evenodd;stroke-linecap:round;stroke-linejoin:round;stroke-miterlimit:1.5;">
    <rect id="Header2" x="0" y="0" width="3840" height="311" style="fill:none;"/>
    <clipPath id="_clip1">
        <rect x="0" y="0" width="3840" height="311"/>
    </clipPath>
    <g clip-path="url(#_clip1)">
        <g id="Swoosh_Header">
            <path d="M3785.56,0.144L-54.101,-73.769L-58.258,350.025C-24.767,331.772 6.573,308.199 34.577,279.445C59.637,253.713 80.28,225.59 96.766,195.329C110.455,170.484 121.236,144.456 129.117,117.74L3785.56,0.144Z" style="fill:rgb(244,126,63);"/>
            <path d="M3840,0L-0.202,0L-0.202,276.257C5.12,271.46 12.302,267.685 17.42,262.551C42.899,236.995 64.001,209.018 80.978,178.875C95.07,154.132 106.272,128.187 114.587,101.534L3840,0Z" style="fill:rgb(71,72,72);"/>
        </g>
    </g>
    <g id="Sevices_Alt">
    </g>
    <g id="Portfolio-C" serif:id="Portfolio C">
    </g>
    <g id="Portfolio-A" serif:id="Portfolio A">
    </g>
    <g id="Portfolio-B" serif:id="Portfolio B">
    </g>
    <g id="Portfolio">
    </g>
    <g id="e-mail" serif:id="e mail">
    </g>
    <g id="Contact">
    </g>
    <g id="Info-Circle" serif:id="Info Circle">
    </g>
    <g id="Resume-Skewed" serif:id="Resume Skewed">
        <g id="Resume">
            <g>
                <path d="M-324.119,1040.52C-350.315,1032.85 -376.51,1025.18 -402.706,1017.52C-401.369,1036.67 -402.423,1055.99 -406.324,1074.8C-410.177,1093.38 -416.797,1111.32 -425.785,1128.02C-401.893,1139.24 -378.002,1150.47 -354.111,1161.69C-343.747,1143.8 -335.318,1124.72 -329.965,1104.73C-324.374,1083.83 -322.284,1062.08 -324.119,1040.52Z" style="fill:rgb(71,72,72);"/>
                <g>
                    <path d="M-346.803,1088.06C-360.481,1083.62 -374.166,1079.21 -387.858,1074.81C-387.55,1073.14 -386.753,1071.57 -385.829,1070.12C-384.115,1067.42 -381.763,1064.82 -378.692,1063.11C-376.653,1061.98 -373.96,1061.23 -371.451,1062.36C-370.944,1062.59 -370.475,1062.88 -370.049,1063.2C-367.186,1065.4 -363.61,1066.42 -359.929,1066.3C-356.456,1066.18 -353.659,1068.57 -351.852,1070.89C-349.216,1074.28 -347.721,1078.27 -347.003,1082.1C-346.635,1084.07 -346.415,1086.14 -346.803,1088.06Z" style="fill:rgb(244,126,63);"/>
                    <path d="M-364.369,1040.56C-358.526,1042.27 -354.176,1048.73 -354.406,1054.74C-354.543,1058.33 -356.54,1061.8 -360.089,1062.93C-360.805,1063.15 -361.554,1063.28 -362.305,1063.3C-363.282,1063.32 -364.26,1063.18 -365.194,1062.89C-370.992,1061.13 -374.549,1054.64 -374.341,1048.82C-374.216,1045.32 -372.552,1041.59 -368.974,1040.49C-368.361,1040.3 -367.723,1040.2 -367.083,1040.18C-366.165,1040.16 -365.248,1040.3 -364.369,1040.56Z" style="fill:rgb(244,126,63);"/>
                </g>
            </g>
            <g>
                <path d="M-392.525,1090.49C-378.402,1095.37 -364.286,1100.27 -350.177,1105.19" style="fill:none;stroke:rgb(244,126,63);stroke-width:5px;"/>
                <path d="M-395.395,1100.04C-381.417,1105.13 -367.446,1110.25 -353.482,1115.38" style="fill:none;stroke:rgb(244,126,63);stroke-width:5px;"/>
                <path d="M-398.65,1109.55C-384.841,1114.89 -371.04,1120.25 -357.244,1125.63" style="fill:none;stroke:rgb(244,126,63);stroke-width:5px;"/>
                <path d="M-402.534,1118.93C-395.557,1121.81 -388.581,1124.7 -381.607,1127.59" style="fill:none;stroke:rgb(244,126,63);stroke-width:5px;"/>
            </g>
        </g>
    </g>
</svg>
