<?xml version="1.0" encoding="UTF-8" standalone="no"?>
<!DOCTYPE svg PUBLIC "-//W3C//DTD SVG 1.1//EN" "http://www.w3.org/Graphics/SVG/1.1/DTD/svg11.dtd">
<svg width="100%" height="100%" viewBox="0 0 159 141" version="1.1" xmlns="http://www.w3.org/2000/svg" xmlns:xlink="http://www.w3.org/1999/xlink" xml:space="preserve" xmlns:serif="http://www.serif.com/" style="fill-rule:evenodd;clip-rule:evenodd;stroke-linecap:round;stroke-linejoin:round;stroke-miterlimit:1.5;">
    <g transform="matrix(1,0,0,1,-1070,-382)">
        <g id="Logo-Home" serif:id="Logo Home" transform="matrix(1,0,0,1,-0.60717,-0.596154)">
            <rect x="1070.61" y="382.596" width="158.257" height="140.889" style="fill:none;"/>
            <clipPath id="_clip1">
                <rect x="1070.61" y="382.596" width="158.257" height="140.889"/>
            </clipPath>
            <g clip-path="url(#_clip1)">
                <g id="Logo-Home1" serif:id="Logo Home">
                </g>
                <g transform="matrix(1,0,0,1.30997,1.1708,-161.482)">
                    <rect x="1127.27" y="465.199" width="42.59" height="57.69" style="fill:rgb(244,126,63);"/>
                </g>
                <g transform="matrix(1,0,0,1,0.60717,0.596154)">
                    <path d="M1129.83,522.889L1102.61,522.889C1099.89,522.889 1097.27,521.806 1095.35,519.879C1093.42,517.952 1092.34,515.338 1092.34,512.613L1092.34,448.812L1074.74,448.812C1069.69,448.812 1067.83,445.069 1073.41,440.56L1141.84,385.361C1146.98,380.802 1151.7,381.061 1156.09,385.05L1226.76,442.995C1230.12,446.357 1227.08,448.952 1224.81,448.812L1206.09,448.812L1206.09,515.38C1206.09,519.527 1202.73,522.889 1198.58,522.889L1168.42,522.889L1168.42,452.445L1129.83,452.445L1129.83,522.889Z" style="fill:rgb(71,72,72);"/>
                </g>
                <g transform="matrix(1.45215,0,0,1.61931,-517.998,-293.76)">
                    <path d="M1159.18,464.361C1159.18,463.868 1158.74,463.467 1158.19,463.467L1138.6,463.467C1138.05,463.467 1137.6,463.868 1137.6,464.361L1137.6,480.46C1137.6,480.953 1138.05,481.354 1138.6,481.354L1158.19,481.354C1158.74,481.354 1159.18,480.953 1159.18,480.46L1159.18,464.361Z" style="fill:rgb(71,72,72);"/>
                </g>
                <g transform="matrix(0.0797972,0,0,1.61931,1058,-293.76)">
                    <path d="M1159.18,463.52C1159.18,463.491 1158.7,463.467 1158.11,463.467L1138.68,463.467C1138.08,463.467 1137.6,463.491 1137.6,463.52L1137.6,481.301C1137.6,481.33 1138.08,481.354 1138.68,481.354L1158.11,481.354C1158.7,481.354 1159.18,481.33 1159.18,481.301L1159.18,463.52Z" style="fill:rgb(244,126,63);"/>
                </g>
                <g transform="matrix(5.44638e-18,0.0889462,-1.75236,1.07301e-16,1977.47,369.072)">
                    <path d="M1159.18,463.522C1159.18,463.491 1158.7,463.467 1158.11,463.467L1138.68,463.467C1138.08,463.467 1137.6,463.491 1137.6,463.522L1137.6,481.299C1137.6,481.329 1138.08,481.354 1138.68,481.354L1158.11,481.354C1158.7,481.354 1159.18,481.329 1159.18,481.299L1159.18,463.522Z" style="fill:rgb(244,126,63);"/>
                </g>
            </g>
        </g>
        <g id="Portfolio-C" serif:id="Portfolio C">
        </g>
        <g id="Portfolio-A" serif:id="Portfolio A">
        </g>
        <g id="Portfolio-B" serif:id="Portfolio B">
        </g>
        <g id="Portfolio">
        </g>
        <g id="e-mail" serif:id="e mail">
        </g>
        <g id="Contact">
        </g>
        <g id="Info-Circle" serif:id="Info Circle">
        </g>
        <g id="Resume-Skewed" serif:id="Resume Skewed" transform="matrix(0.665768,0.151951,-0.151951,0.665768,2002.16,134.172)">
            <g id="Resume" transform="matrix(1,0,0,1,91.1932,58.1317)">
                <g id="Resume-Skewed1" serif:id="Resume Skewed">
                    <g id="Resume1" serif:id="Resume">
                        <g transform="matrix(1,0,0,1,5,-6.66666)">
                            <path d="M-826.127,539.181C-866.023,536.773 -905.919,534.366 -945.815,531.959C-937.667,558.86 -932.875,586.792 -932.316,614.916C-931.763,642.691 -935.369,670.461 -942.759,697.232C-904.993,705.473 -867.227,713.713 -829.46,721.954C-820.493,693.036 -814.677,663.05 -813.551,632.755C-812.376,601.108 -816.482,569.364 -826.127,539.181Z" style="fill:rgb(71,72,72);"/>
                            <g transform="matrix(1,0,0,1,-3.08011,-2.5)">
                                <g transform="matrix(0.984565,0,0,0.796706,107.308,138.564)">
                                    <path d="M-962.099,600.453C-983.4,598.102 -1004.7,595.785 -1026.01,593.509C-1026.12,590.39 -1025.48,587.244 -1024.62,584.261C-1023.03,578.729 -1020.48,573.101 -1016.6,568.793C-1014.01,565.932 -1010.36,563.488 -1006.34,564.484C-1005.53,564.685 -1004.76,565.01 -1004.03,565.422C-999.153,568.188 -993.631,568.554 -988.333,566.825C-983.336,565.194 -978.49,568.334 -975.101,571.753C-970.159,576.741 -966.671,583.279 -964.36,589.86C-963.174,593.239 -962.171,596.85 -962.099,600.453Z" style="fill:rgb(244,126,63);"/>
                                </g>
                                <g transform="matrix(1,0,0,1,122.169,23.6089)">
                                    <path d="M-1002.67,531.246C-993.765,531.79 -985.451,539.59 -983.818,548.253C-982.844,553.424 -984.567,559.018 -989.266,561.787C-990.214,562.346 -991.243,562.766 -992.309,563.039C-993.696,563.396 -995.139,563.504 -996.565,563.403C-1005.42,562.774 -1012.61,554.67 -1014.21,546.286C-1015.17,541.257 -1014.01,535.382 -1009.26,532.649C-1008.45,532.181 -1007.57,531.831 -1006.66,531.597C-1005.36,531.262 -1004,531.164 -1002.67,531.246Z" style="fill:rgb(244,126,63);"/>
                                </g>
                            </g>
                        </g>
                        <g>
                            <g transform="matrix(1,0,0,1,1.24465,0)">
                                <path d="M-903.749,626.149C-881.995,628.515 -860.245,630.915 -838.499,633.344" style="fill:none;stroke:rgb(244,126,63);stroke-width:7.32px;"/>
                            </g>
                            <g transform="matrix(1,0,0,1,1.24465,13.8785)">
                                <path d="M-904.735,626.836C-883.118,629.557 -861.505,632.31 -839.896,635.089" style="fill:none;stroke:rgb(244,126,63);stroke-width:7.32px;"/>
                            </g>
                            <g transform="matrix(1,0,0,1,1.44509,27.757)">
                                <path d="M-906.483,627.595C-885.028,630.727 -863.577,633.886 -842.129,637.066" style="fill:none;stroke:rgb(244,126,63);stroke-width:7.32px;"/>
                            </g>
                            <g transform="matrix(0.522237,0,0,1,-433.884,41.6355)">
                                <path d="M-906.948,628.379C-886.076,630.223 -865.204,632.073 -844.333,633.927" style="fill:none;stroke:rgb(244,126,63);stroke-width:9.18px;"/>
                            </g>
                        </g>
                    </g>
                </g>
            </g>
        </g>
    </g>
</svg>
