<?xml version="1.0" encoding="UTF-8" standalone="no"?>
<!DOCTYPE svg PUBLIC "-//W3C//DTD SVG 1.1//EN" "http://www.w3.org/Graphics/SVG/1.1/DTD/svg11.dtd">
<svg width="100%" height="100%" viewBox="0 0 140 140" version="1.1" xmlns="http://www.w3.org/2000/svg" xmlns:xlink="http://www.w3.org/1999/xlink" xml:space="preserve" xmlns:serif="http://www.serif.com/" style="fill-rule:evenodd;clip-rule:evenodd;stroke-linecap:round;stroke-linejoin:round;stroke-miterlimit:1.5;">
    <g transform="matrix(1,0,0,1,-861,-755)">
        <g id="Portfolio-C" serif:id="Portfolio C">
        </g>
        <g id="Portfolio-A" serif:id="Portfolio A">
        </g>
        <g id="Portfolio-B" serif:id="Portfolio B">
        </g>
        <g id="Portfolio">
        </g>
        <g id="e-mail" serif:id="e mail">
        </g>
        <g id="Contact">
        </g>
        <g id="Info-Circle" serif:id="Info Circle">
        </g>
        <g id="Info_Stylized" transform="matrix(1,0,0,1,-0.127258,-0.606857)">
            <rect x="861.127" y="755.607" width="139.974" height="139.974" style="fill:none;"/>
            <clipPath id="_clip1">
                <rect x="861.127" y="755.607" width="139.974" height="139.974"/>
            </clipPath>
            <g clip-path="url(#_clip1)">
                <g id="Info-Circle1" serif:id="Info Circle" transform="matrix(1,0,0,1,1899.53,377.588)">
                    <g transform="matrix(1,0,0,1,-43.75,0)">
                        <circle cx="-924.543" cy="448.612" r="69.987" style="fill:rgb(71,72,72);"/>
                    </g>
                    <g transform="matrix(1.39649,0,0,1,399.377,0.360675)">
                        <g transform="matrix(0.78,0,0,1,-217.994,0)">
                            <g transform="matrix(109.04,0,0,109.04,-990.884,486.959)">
                                <path d="M0.167,-0.554C0.145,-0.554 0.126,-0.562 0.111,-0.577C0.096,-0.592 0.088,-0.611 0.088,-0.633C0.088,-0.655 0.096,-0.674 0.111,-0.69C0.126,-0.705 0.145,-0.713 0.167,-0.713C0.189,-0.713 0.208,-0.705 0.224,-0.69C0.239,-0.674 0.247,-0.655 0.247,-0.633C0.247,-0.611 0.239,-0.592 0.224,-0.577C0.208,-0.562 0.189,-0.554 0.167,-0.554ZM0.099,0.006C0.067,0.006 0.041,-0.004 0.021,-0.024C0.002,-0.044 -0.008,-0.074 -0.008,-0.114C-0.008,-0.131 -0.005,-0.152 0,-0.179L0.068,-0.5L0.212,-0.5L0.14,-0.16C0.137,-0.15 0.136,-0.139 0.136,-0.128C0.136,-0.115 0.139,-0.105 0.146,-0.1C0.152,-0.094 0.162,-0.091 0.177,-0.091C0.189,-0.091 0.2,-0.093 0.209,-0.097C0.206,-0.064 0.195,-0.038 0.173,-0.021C0.153,-0.003 0.128,0.006 0.099,0.006Z" style="fill:rgb(244,126,63);fill-rule:nonzero;"/>
                            </g>
                            <g transform="matrix(109.04,0,0,109.04,-990.884,486.959)">
                            </g>
                            <g transform="matrix(109.04,0,0,109.04,-968.095,486.959)">
                            </g>
                        </g>
                    </g>
                </g>
            </g>
        </g>
        <g id="Resume-Skewed" serif:id="Resume Skewed" transform="matrix(0.914331,0.208682,-0.208682,0.914331,1979.53,7.17201)">
            <g id="Resume" transform="matrix(1,0,0,1,91.1932,58.1317)">
                <g id="Resume-Skewed1" serif:id="Resume Skewed">
                    <g id="Resume1" serif:id="Resume">
                        <g transform="matrix(1,0,0,1,5,-6.66666)">
                            <path d="M-826.127,539.181C-866.023,536.773 -905.919,534.366 -945.815,531.959C-937.667,558.86 -932.875,586.792 -932.316,614.916C-931.763,642.691 -935.369,670.461 -942.759,697.232C-904.993,705.473 -867.227,713.713 -829.46,721.954C-820.323,692.487 -814.458,661.908 -813.492,631.03C-812.52,599.954 -816.659,568.811 -826.127,539.181Z" style="fill:rgb(71,72,72);"/>
                            <g transform="matrix(1,0,0,1,-3.08011,-2.5)">
                                <g transform="matrix(0.984565,0,0,0.796706,107.308,138.564)">
                                    <path d="M-962.099,600.453C-983.4,598.102 -1004.7,595.785 -1026.01,593.509C-1026.12,590.39 -1025.48,587.244 -1024.62,584.261C-1023.03,578.729 -1020.48,573.101 -1016.6,568.793C-1014.01,565.932 -1010.36,563.488 -1006.34,564.484C-1005.53,564.685 -1004.76,565.01 -1004.03,565.422C-999.153,568.188 -993.631,568.554 -988.333,566.825C-983.336,565.194 -978.49,568.334 -975.101,571.753C-970.159,576.741 -966.671,583.279 -964.36,589.86C-963.174,593.239 -962.171,596.85 -962.099,600.453Z" style="fill:rgb(244,126,63);"/>
                                </g>
                                <g transform="matrix(1,0,0,1,122.169,23.6089)">
                                    <path d="M-1002.67,531.246C-993.765,531.79 -985.451,539.59 -983.818,548.253C-982.844,553.424 -984.567,559.018 -989.266,561.787C-990.214,562.346 -991.243,562.766 -992.309,563.039C-993.696,563.396 -995.139,563.504 -996.565,563.403C-1005.42,562.774 -1012.61,554.67 -1014.21,546.286C-1015.17,541.257 -1014.01,535.382 -1009.26,532.649C-1008.45,532.181 -1007.57,531.831 -1006.66,531.597C-1005.36,531.262 -1004,531.164 -1002.67,531.246Z" style="fill:rgb(244,126,63);"/>
                                </g>
                            </g>
                        </g>
                        <g>
                            <g transform="matrix(1,0,0,1,1.24465,0)">
                                <path d="M-903.749,626.149C-881.995,628.515 -860.245,630.915 -838.499,633.344" style="fill:none;stroke:rgb(244,126,63);stroke-width:5.33px;"/>
                            </g>
                            <g transform="matrix(1,0,0,1,1.24465,13.8785)">
                                <path d="M-904.735,626.836C-883.118,629.557 -861.505,632.31 -839.896,635.089" style="fill:none;stroke:rgb(244,126,63);stroke-width:5.33px;"/>
                            </g>
                            <g transform="matrix(1,0,0,1,1.44509,27.757)">
                                <path d="M-906.483,627.595C-885.028,630.727 -863.577,633.886 -842.129,637.066" style="fill:none;stroke:rgb(244,126,63);stroke-width:5.33px;"/>
                            </g>
                            <g transform="matrix(0.522237,0,0,1,-433.884,41.6355)">
                                <path d="M-906.948,628.379C-886.076,630.223 -865.204,632.073 -844.333,633.927" style="fill:none;stroke:rgb(244,126,63);stroke-width:6.68px;"/>
                            </g>
                        </g>
                    </g>
                </g>
            </g>
        </g>
    </g>
</svg>
