<?xml version="1.0" encoding="UTF-8" standalone="no"?>
<!DOCTYPE svg PUBLIC "-//W3C//DTD SVG 1.1//EN" "http://www.w3.org/Graphics/SVG/1.1/DTD/svg11.dtd">
<svg width="100%" height="100%" viewBox="0 0 271 71" version="1.1" xmlns="http://www.w3.org/2000/svg" xmlns:xlink="http://www.w3.org/1999/xlink" xml:space="preserve" xmlns:serif="http://www.serif.com/" style="fill-rule:evenodd;clip-rule:evenodd;stroke-linejoin:round;stroke-miterlimit:2;">
    <rect id="Artboard1" x="0" y="0" width="270.592" height="70.643" style="fill:none;"/>
    <g id="Artboard11" serif:id="Artboard1">
        <path d="M30.767,63.056C47.76,63.056 61.535,49.281 61.535,32.288C61.535,15.296 47.76,1.521 30.767,1.521C13.775,1.521 0,15.296 0,32.288C0,49.281 13.775,63.056 30.767,63.056Z" style="fill:rgb(44,160,28);fill-rule:nonzero;"/>
        <path d="M20.508,20.321C13.896,20.321 8.543,25.682 8.543,32.287C8.543,38.891 13.896,44.251 20.508,44.251L22.217,44.251L22.217,39.807L20.507,39.807C16.383,39.804 12.99,36.411 12.987,32.287C12.987,28.137 16.357,24.765 20.507,24.765L24.617,24.765L24.617,48.012C24.618,50.449 26.623,52.454 29.06,52.455L29.06,20.322L20.507,20.322L20.508,20.321ZM41.033,44.251C47.644,44.251 52.998,38.891 52.998,32.286C52.998,25.682 47.645,20.322 41.033,20.322L39.324,20.322L39.324,24.766L41.034,24.766C45.184,24.766 48.554,28.137 48.554,32.287C48.554,36.437 45.184,39.809 41.034,39.809L36.924,39.809L36.924,16.561C36.923,14.123 34.918,12.118 32.48,12.118L32.48,44.252L41.034,44.252L41.034,44.25L41.033,44.251Z" style="fill:white;fill-rule:nonzero;"/>
        <path d="M90.755,70.521L85.995,70.521L85.995,58.467L85.915,58.467C84.684,60.367 82.263,61.557 79.61,61.557C73.819,61.557 70.25,56.956 70.25,51.404C70.25,45.851 74.058,41.408 79.487,41.408C82.974,41.408 85.121,43.11 86.071,44.621L86.187,44.621L86.187,41.961L90.747,41.961L90.747,70.52L90.755,70.52L90.755,70.521ZM80.567,57.591C84.054,57.591 86.159,54.461 86.159,51.486C86.159,48.512 84.06,45.299 80.567,45.299C76.882,45.299 75.097,48.431 75.097,51.405C75.09,54.379 76.875,57.593 80.567,57.593L80.567,57.591ZM112.121,61.003L107.601,61.003L107.601,57.947L107.519,57.947C106.686,59.847 104.429,61.557 101.612,61.557C96.655,61.557 94.59,57.747 94.59,53.865L94.59,41.968L99.349,41.968L99.349,52.518C99.349,54.782 99.862,57.591 102.917,57.591C105.973,57.591 107.361,54.973 107.361,52.436L107.361,41.968L112.119,41.968L112.119,61.003L112.121,61.003ZM116.902,41.552L121.661,41.552L121.661,60.587L116.902,60.587L116.902,41.552ZM139.452,47.241C138.7,46.167 137.072,45.374 135.527,45.374C132.04,45.374 130.29,48.505 130.29,51.479C130.29,54.453 132.075,57.585 135.684,57.585C137.154,57.585 138.774,56.99 139.691,55.883L142.665,58.898C141.078,60.6 138.459,61.558 135.643,61.558C130.009,61.558 125.332,57.832 125.332,51.488C125.332,45.143 129.934,41.415 135.527,41.415C138.303,41.415 141.195,42.523 142.705,44.389L139.452,47.24L139.452,47.241ZM145.055,31.025L149.813,31.025L149.813,49.977L149.93,49.977L157.149,41.964L163.255,41.964L155.009,50.572L163.775,60.999L157.471,60.999L149.936,51.242L149.82,51.242L149.82,60.999L145.062,60.999L145.062,31.025L145.055,31.025ZM170.703,31.025L170.703,44.391L170.819,44.391C171.811,43.161 173.712,41.417 177.205,41.417C182.64,41.417 186.442,45.779 186.442,51.413C186.442,57.047 182.873,61.567 177.082,61.567C174.422,61.567 171.844,60.337 170.539,58.155L170.457,58.155L170.457,61.013L165.938,61.013L165.938,31.025L170.703,31.025ZM176.138,45.301C172.651,45.301 170.546,48.514 170.546,51.488C170.546,54.462 172.644,57.594 176.138,57.594C179.824,57.594 181.607,54.38 181.607,51.405C181.607,48.43 179.824,45.3 176.138,45.3L176.138,45.301ZM198.859,41.415C204.609,41.415 209.211,45.422 209.211,51.411C209.211,57.401 204.609,61.565 198.859,61.565C193.109,61.565 188.508,57.401 188.508,51.411C188.508,45.422 193.109,41.415 198.859,41.415ZM198.859,57.593C202.626,57.593 204.37,54.38 204.37,51.404C204.37,48.429 202.626,45.299 198.859,45.299C195.092,45.299 193.348,48.431 193.348,51.404C193.348,54.378 195.092,57.593 198.859,57.593ZM221.636,41.415C227.386,41.415 231.988,45.422 231.988,51.411C231.988,57.401 227.386,61.565 221.636,61.565C215.886,61.565 211.285,57.401 211.285,51.411C211.285,45.422 215.886,41.415 221.636,41.415ZM221.636,57.593C225.404,57.593 227.147,54.38 227.147,51.404C227.147,48.429 225.404,45.299 221.636,45.299C217.869,45.299 216.126,48.431 216.126,51.404C216.119,54.378 217.869,57.593 221.636,57.593ZM234.867,31.025L239.626,31.025L239.626,49.977L239.742,49.977L246.963,41.964L253.068,41.964L244.823,50.572L253.588,60.999L247.284,60.999L239.749,51.242L239.633,51.242L239.633,60.999L234.874,60.999L234.874,31.025L234.867,31.025ZM266.572,47.041C265.737,45.934 264.151,44.977 262.408,44.977C260.904,44.977 259.351,45.532 259.351,47.042C259.351,48.552 260.822,48.908 263.474,49.537C266.292,50.214 269.621,51.479 269.621,55.205C269.621,59.848 265.853,61.55 261.69,61.55C258.757,61.55 255.701,60.443 253.875,58.419L257.006,55.485C258.039,56.832 259.824,57.865 261.881,57.865C263.269,57.865 264.938,57.31 264.938,55.601C264.938,54.015 263.467,53.537 260.576,52.866C257.759,52.189 254.942,51.041 254.942,47.472C254.942,43.226 258.75,41.408 262.517,41.408C265.252,41.408 268.11,42.358 269.655,44.3L266.572,47.042L266.572,47.041ZM122.383,15.981C122.383,20.807 126.246,24.335 131.155,24.335C136.065,24.335 139.934,20.815 139.934,15.981L139.934,4.898L135.176,4.898L135.176,15.414C135.176,18.018 133.432,19.762 131.142,19.762C128.851,19.762 127.107,18.018 127.107,15.414L127.107,4.898L122.355,4.898L122.383,15.981ZM152.648,9.349L158.324,9.349L158.324,23.951L163.076,23.951L163.076,9.349L168.743,9.349L168.743,4.898L152.648,4.898L152.648,9.349ZM149.572,4.898L144.82,4.898L144.82,23.954L149.572,23.954L149.572,4.898ZM103.188,9.349L108.863,9.349L108.863,23.951L113.615,23.951L113.615,9.349L119.283,9.349L119.283,4.898L103.189,4.898L103.189,9.348L103.188,9.348L103.188,9.349ZM78.244,4.898L73.492,4.898L73.492,23.954L78.244,23.954L78.244,4.898ZM100.683,12.871C100.683,8.045 96.813,4.517 91.904,4.517C86.994,4.517 83.125,8.038 83.125,12.872L83.125,23.955L87.877,23.955L87.877,13.439C87.877,10.834 89.62,9.091 91.911,9.091C94.201,9.091 95.945,10.834 95.945,13.439L95.945,23.955L100.697,23.955L100.683,12.872L100.683,12.871Z" style="fill-rule:nonzero;"/>
    </g>
</svg>
