<?xml version="1.0" encoding="UTF-8" standalone="no"?>
<!DOCTYPE svg PUBLIC "-//W3C//DTD SVG 1.1//EN" "http://www.w3.org/Graphics/SVG/1.1/DTD/svg11.dtd">
<svg width="100%" height="100%" viewBox="0 0 212 213" version="1.1" xmlns="http://www.w3.org/2000/svg" xmlns:xlink="http://www.w3.org/1999/xlink" xml:space="preserve" xmlns:serif="http://www.serif.com/" style="fill-rule:evenodd;clip-rule:evenodd;stroke-linecap:round;stroke-linejoin:round;stroke-miterlimit:1.5;">
    <g transform="matrix(1,0,0,1,-4814,-1312)">
        <g id="Sevices_Alt">
        </g>
        <g id="Portfolio-C" serif:id="Portfolio C">
        </g>
        <g id="Portfolio-A" serif:id="Portfolio A">
        </g>
        <g id="Portfolio-B" serif:id="Portfolio B">
        </g>
        <g id="Portfolio">
        </g>
        <g id="e-mail" serif:id="e mail">
        </g>
        <g id="Contact">
        </g>
        <g id="Info-Circle" serif:id="Info Circle">
        </g>
        <g id="Resume-Skewed" serif:id="Resume Skewed" transform="matrix(0.665768,0.151951,-0.151951,0.665768,4649.6,758.196)">
            <g id="Resume" transform="matrix(1,0,0,1,91.1932,58.1317)">
                <g id="Resume-Skewed1" serif:id="Resume Skewed">
                    <g id="Resume1" serif:id="Resume">
                        <g transform="matrix(1,0,0,1,5,-6.66666)">
                            <path d="M-826.127,539.181C-866.023,536.773 -905.919,534.366 -945.815,531.959C-931.276,579.962 -925.839,635.935 -942.759,697.232C-904.993,705.473 -867.227,713.713 -829.46,721.954C-812.251,666.457 -805.537,603.617 -826.127,539.181Z" style="fill:rgb(71,72,72);"/>
                            <g transform="matrix(1,0,0,1,-3.08011,-2.5)">
                                <g transform="matrix(0.984565,0,0,0.796706,107.308,138.564)">
                                    <path d="M-962.099,600.453C-983.404,598.139 -1004.71,595.824 -1026.01,593.509C-1026.39,582.399 -1015.81,558.744 -1004.03,565.422C-998.633,568.483 -993.336,568.457 -988.333,566.825C-975.585,562.664 -962.347,588.164 -962.099,600.453Z" style="fill:rgb(244,126,63);"/>
                                </g>
                                <g transform="matrix(1,0,0,1,122.169,23.6089)">
                                    <path d="M-1002.67,531.246C-994.343,531.755 -985.508,539.286 -983.818,548.253C-982.139,557.163 -988.186,563.998 -996.565,563.403C-1004.94,562.808 -1012.53,555.061 -1014.21,546.286C-1015.89,537.498 -1011.06,530.732 -1002.67,531.246Z" style="fill:rgb(244,126,63);"/>
                                </g>
                            </g>
                        </g>
                        <g>
                            <g transform="matrix(1,0,0,1,1.24465,0)">
                                <path d="M-903.749,626.149C-881.999,628.548 -860.249,630.946 -838.499,633.344" style="fill:none;stroke:rgb(244,126,63);stroke-width:7.32px;"/>
                            </g>
                            <g transform="matrix(1,0,0,1,1.24465,13.8785)">
                                <path d="M-904.735,626.836C-883.122,629.587 -861.509,632.338 -839.896,635.089" style="fill:none;stroke:rgb(244,126,63);stroke-width:7.32px;"/>
                            </g>
                            <g transform="matrix(1,0,0,1,1.44509,27.757)">
                                <path d="M-906.483,627.595C-885.032,630.752 -863.58,633.909 -842.129,637.066" style="fill:none;stroke:rgb(244,126,63);stroke-width:7.32px;"/>
                            </g>
                            <g transform="matrix(0.522237,0,0,1,-433.884,41.6355)">
                                <path d="M-906.948,628.379C-886.076,630.228 -865.204,632.077 -844.333,633.927" style="fill:none;stroke:rgb(244,126,63);stroke-width:9.18px;"/>
                            </g>
                        </g>
                    </g>
                </g>
            </g>
        </g>
        <g id="Loading-Spinner" serif:id="Loading Spinner" transform="matrix(1,0,0,1,-20.9588,28.6499)">
            <rect x="4834.96" y="1283.35" width="211.082" height="212.979" style="fill:none;"/>
            <clipPath id="_clip1">
                <rect x="4834.96" y="1283.35" width="211.082" height="212.979"/>
            </clipPath>
            <g clip-path="url(#_clip1)">
                <g transform="matrix(1,0,0,1,54.4335,31.2287)">
                    <g>
                        <g transform="matrix(1,0,0,1,216,-227.919)">
                            <path d="M4605,1671C4605,1671 4604.05,1672.88 4598.35,1673.01C4584.96,1673.31 4579.95,1653.76 4593.65,1647.95C4604.32,1643.4 4615.28,1653.77 4610.29,1665.52C4678.47,1721.12 4799.41,1663.22 4769,1551.03C4803.96,1651.88 4693.01,1733.97 4605,1671ZM4596.89,1667.76L4596.89,1667.77C4604.77,1669.47 4609.43,1659.26 4603.86,1654.15C4598.54,1649.87 4591.83,1652.7 4590.74,1658.28C4589.99,1662.14 4592,1666.73 4596.89,1667.76Z" style="fill:rgb(244,126,63);"/>
                        </g>
                        <g transform="matrix(-1,-1.22465e-16,1.22465e-16,-1,9556.13,2945.14)">
                            <path d="M4605,1671C4605,1671 4604.05,1672.88 4598.35,1673.01C4584.96,1673.31 4579.95,1653.76 4593.65,1647.95C4604.32,1643.4 4615.28,1653.77 4610.29,1665.52C4678.47,1721.12 4799.41,1663.22 4769,1551.03C4803.96,1651.88 4693.01,1733.97 4605,1671ZM4596.89,1667.76L4596.89,1667.77C4604.77,1669.47 4609.43,1659.26 4603.86,1654.15C4598.54,1649.87 4591.83,1652.7 4590.74,1658.28C4589.99,1662.14 4592,1666.73 4596.89,1667.76Z" style="fill:rgb(244,126,63);"/>
                        </g>
                    </g>
                </g>
            </g>
        </g>
    </g>
</svg>
