<svg xmlns="http://www.w3.org/2000/svg" width="429" height="67" viewBox="0 0 429 67">
  <g id="logo-encompass-pos" transform="translate(-2465 -509)">
    <g id="Encompass_color_icon-text_lockup" transform="translate(2465 509)">
      <g id="Group_3398" data-name="Group 3398">
        <path id="Path_5029" data-name="Path 5029" d="M119.81,8.75v3.96H94.42V29.04h23.86v4.02H94.42V51.05h25.39V55H90.14V8.75Z"/>
        <path id="Path_5030" data-name="Path 5030" d="M142.2,20.1c8.1,0,11.55,4.85,11.55,13.27V55h-3.96V34.46c0-6.44-1.66-10.78-8.61-10.78-5.93,0-10.4,4.98-10.4,12.25V55h-3.96V20.68h3.96v5.81C132.44,23.23,135.82,20.1,142.2,20.1Z"/>
        <path id="Path_5031" data-name="Path 5031" d="M185.33,31.71A10.137,10.137,0,0,0,175,23.73c-5.93,0-11.16,4.72-11.16,14.16,0,9.76,5.23,14.29,11.23,14.29a10.326,10.326,0,0,0,10.53-8.04h4.21c-1.4,7.08-7.15,11.67-14.74,11.67-9.76,0-15.44-7.27-15.44-17.86,0-10.65,5.74-17.86,15.76-17.86a13.929,13.929,0,0,1,14.1,11.61h-4.16Z"/>
        <path id="Path_5032" data-name="Path 5032" d="M224.57,37.96c0,12.5-7.34,17.86-15.57,17.86s-15.5-5.36-15.5-17.86S200.77,20.1,209,20.1,224.57,25.46,224.57,37.96Zm-4.21,0c0-9.82-4.78-14.23-11.36-14.23s-11.29,4.4-11.29,14.23S202.43,52.19,209,52.19,220.36,47.79,220.36,37.96Z"/>
        <path id="Path_5033" data-name="Path 5033" d="M231.46,55V20.68h3.96v5.81c1.66-3.25,4.72-6.38,10.78-6.38,5.49,0,8.68,2.42,10.08,6.83,2.62-4.34,6.06-6.83,11.61-6.83,7.78,0,10.91,4.85,10.91,13.27V55h-3.96V34.46c0-6.44-1.34-10.78-7.97-10.78-5.61,0-9.76,4.98-9.76,12.25V55h-3.96V34.46c0-6.44-1.34-10.78-7.97-10.78-5.61,0-9.76,4.98-9.76,12.25V55Z"/>
        <path id="Path_5034" data-name="Path 5034" d="M291.31,49.32V66.16h-3.96V20.68h3.96v5.87a13.047,13.047,0,0,1,11.61-6.44c7.91,0,14.35,6.44,14.35,17.86,0,11.36-6.44,17.86-14.35,17.86A12.966,12.966,0,0,1,291.31,49.32ZM313,37.96c0-9.12-4.53-14.29-10.91-14.29-5.17,0-11.04,4.15-11.04,14.29s5.87,14.29,11.04,14.29C308.47,52.26,313,47.09,313,37.96Z"/>
        <path id="Path_5035" data-name="Path 5035" d="M332.78,55.83c-6.38,0-11.36-3.7-11.36-9.38,0-7.78,7.66-10.65,24.18-12.31V32.93c0-7.78-4.59-9.51-9.57-9.51-5.81,0-9.31,3.25-9.63,7.72h-4.15c.89-6.76,6.38-11.23,14.04-11.23,7.97,0,13.27,3.32,13.27,13.53,0,4.72-.06,7.85-.06,10.59,0,3.89.19,7.27.38,10.97h-4.02l-.19-5.23C343.43,53.4,339.16,55.83,332.78,55.83ZM345.79,39.3V37.64c-13.97,1.53-19.97,3.38-19.97,8.74,0,3.64,3.32,5.93,7.85,5.93C340.05,52.32,345.79,49.07,345.79,39.3Z"/>
        <path id="Path_5036" data-name="Path 5036" d="M368.95,23.55c-3.76,0-8.74,1.47-8.74,5.61,0,3.38,2.68,5.17,6.44,5.87l4.85.89c5.61,1.02,11.87,2.93,11.87,9.44,0,6.83-6.19,10.46-13.65,10.46-7.08,0-13.21-3.51-14.23-11.36h4.15c.77,5.42,5.1,7.85,10.4,7.85,4.15,0,9.31-1.72,9.31-6.32,0-4.02-3.83-5.42-8.48-6.32l-5.36-1.02c-4.98-.96-9.31-3.83-9.31-9.19,0-5.42,5.42-9.44,13.14-9.44,7.34,0,12.38,4.53,13.21,10.02H378.4C377.56,25.97,373.8,23.55,368.95,23.55Z"/>
        <path id="Path_5037" data-name="Path 5037" d="M402.19,23.55c-3.76,0-8.74,1.47-8.74,5.61,0,3.38,2.68,5.17,6.44,5.87l4.85.89c5.61,1.02,11.87,2.93,11.87,9.44,0,6.83-6.19,10.46-13.65,10.46-7.08,0-13.21-3.51-14.23-11.36h4.15c.77,5.42,5.1,7.85,10.4,7.85,4.15,0,9.31-1.72,9.31-6.32,0-4.02-3.83-5.42-8.48-6.32l-5.36-1.02c-4.98-.96-9.31-3.83-9.31-9.19,0-5.42,5.42-9.44,13.14-9.44,7.34,0,12.38,4.53,13.21,10.02h-4.15C410.8,25.97,407.04,23.55,402.19,23.55Z"/>
        <path id="Path_5038" data-name="Path 5038" d="M428.2,17.84a4.125,4.125,0,0,1-8.25,0,4.125,4.125,0,1,1,8.25,0Zm-.67,0a3.456,3.456,0,1,0-6.91,0,3.456,3.456,0,1,0,6.91,0Zm-3.35.35h-1.01v1.7h-.64V15.52h1.32c1.27,0,2.05.2,2.05,1.33a1.255,1.255,0,0,1-.82,1.19l1,1.86h-.74l-.91-1.71Zm-1.01-2.02v1.4h.99c.72,0,1.05-.24,1.05-.7,0-.56-.47-.69-1.11-.69h-.93Z"/>
      </g>
      <g id="Group_3399" data-name="Group 3399">
        <path id="Path_5039" data-name="Path 5039" d="M21.21,21.21,31.1,0H0V31.1Z"/>
        <path id="Path_5040" data-name="Path 5040" d="M42.79,21.21,64,31.1V0H32.9Z"/>
        <path id="Path_5041" data-name="Path 5041" d="M21.21,42.79,0,32.9V64H31.1Z"/>
        <path id="Path_5042" data-name="Path 5042" d="M42.79,42.79,32.9,64H64V32.9Z"/>
      </g>
    </g>
    <rect id="Rectangle_3566" data-name="Rectangle 3566" width="429" height="67" transform="translate(2465 509)" fill="none"/>
  </g>
</svg>
