<?xml version="1.0" encoding="UTF-8" standalone="no"?>
<!DOCTYPE svg PUBLIC "-//W3C//DTD SVG 1.1//EN" "http://www.w3.org/Graphics/SVG/1.1/DTD/svg11.dtd">
<svg width="100%" height="100%" viewBox="0 0 40 58" version="1.1" xmlns="http://www.w3.org/2000/svg" xmlns:xlink="http://www.w3.org/1999/xlink" xml:space="preserve" xmlns:serif="http://www.serif.com/" style="fill-rule:evenodd;clip-rule:evenodd;stroke-linecap:round;stroke-linejoin:round;stroke-miterlimit:1.5;">
    <g transform="matrix(1,0,0,1,-4228,-638)">
        <g id="Sevices_Alt">
        </g>
        <g id="Marker" transform="matrix(1.02237,0,0,1.07374,-95.0617,-47.2049)">
            <rect x="4228.49" y="638.15" width="39.125" height="54.017" style="fill:none;"/>
            <g id="Swoosh_Horizontal" transform="matrix(-2.71484e-17,0.394446,-0.414266,7.75486e-17,4691.88,-498.052)">
                <g transform="matrix(4.44089e-16,-3.73423,3.73423,2.22045e-15,1034.69,2672.12)">
                    <path d="M430.394,516.479C430.25,516.518 430.097,516.547 429.938,516.569C429.466,516.646 429.001,516.685 428.53,516.669C428.377,516.669 428.233,516.661 428.081,516.646C427.981,516.639 427.89,516.639 427.799,516.623C427.586,516.607 427.373,516.578 427.16,516.532L427.152,516.524C426.901,516.471 426.665,516.419 426.429,516.349C426.178,516.281 425.935,516.19 425.699,516.091C425.501,516.015 425.303,515.923 425.105,515.816C424.816,515.68 424.549,515.521 424.291,515.354C424.101,515.224 423.91,515.078 423.728,514.927C423.689,514.903 423.667,514.881 423.636,514.85C423.438,514.698 423.256,514.531 423.081,514.355C419.991,511.266 419.991,506.259 423.081,503.169C426.17,500.079 431.178,500.079 434.267,503.169C434.435,503.336 434.595,503.511 434.739,503.701C434.785,503.732 434.815,503.777 434.838,503.815C434.983,503.976 435.112,504.15 435.219,504.333C435.272,504.401 435.325,504.47 435.355,504.546C435.462,504.684 435.546,504.828 435.622,504.979C435.774,505.254 435.903,505.535 436.018,505.817C436.094,506.015 436.162,506.221 436.231,506.426C436.398,506.943 436.497,507.469 436.55,508.009C436.573,508.26 436.596,508.511 436.588,508.762C436.588,508.99 436.581,509.227 436.558,509.462C436.527,509.782 436.482,510.102 436.414,510.413C436.368,510.611 436.322,510.81 436.261,511.007C436.193,511.258 436.102,511.502 436.002,511.737C435.926,511.936 435.835,512.133 435.736,512.323C435.584,512.628 435.409,512.94 435.203,513.222C435.097,513.389 434.983,513.549 434.846,513.701C434.831,513.732 434.8,513.763 434.777,513.784C434.625,513.982 434.45,514.173 434.268,514.355C434.077,514.547 433.879,514.729 433.667,514.896C433.461,515.07 433.248,515.224 433.027,515.367C432.837,515.497 432.631,515.612 432.426,515.726C432.373,515.763 432.319,515.786 432.258,515.816C432.061,515.923 431.855,516.008 431.649,516.091C431.444,516.174 431.239,516.242 431.033,516.311C430.988,516.326 430.95,516.334 430.904,516.349C430.736,516.396 430.569,516.44 430.394,516.479ZM440.089,513.557C441.961,509.052 441.078,503.663 437.425,500.011C432.601,495.186 424.748,495.186 419.923,500.011C415.098,504.835 415.098,512.688 419.923,517.514C423.948,521.539 430.082,522.209 434.808,519.508C435.751,518.975 436.626,518.313 437.425,517.514C438.597,516.342 439.488,514.995 440.089,513.557Z" style="fill:rgb(71,72,72);fill-rule:nonzero;"/>
                </g>
                <g transform="matrix(8.31826e-17,1.92001,-0.0742017,5.61902e-17,3093.66,-4393.15)">
                    <path d="M2846.08,1048.31L2854.41,1661.5L2837.76,1661.5L2846.08,1048.31Z" style="fill:rgb(71,72,72);"/>
                </g>
            </g>
        </g>
        <g id="Portfolio-C" serif:id="Portfolio C">
        </g>
        <g id="Portfolio-A" serif:id="Portfolio A">
        </g>
        <g id="Portfolio-B" serif:id="Portfolio B">
        </g>
        <g id="Portfolio">
        </g>
        <g id="e-mail" serif:id="e mail">
        </g>
        <g id="Contact">
        </g>
        <g id="Info-Circle" serif:id="Info Circle">
        </g>
        <g id="Resume-Skewed" serif:id="Resume Skewed" transform="matrix(0.665768,0.151951,-0.151951,0.665768,2098.16,180.172)">
            <g id="Resume" transform="matrix(1,0,0,1,91.1932,58.1317)">
                <g id="Resume-Skewed1" serif:id="Resume Skewed">
                    <g id="Resume1" serif:id="Resume">
                        <g transform="matrix(1,0,0,1,5,-6.66666)">
                            <path d="M-826.127,539.181C-866.023,536.773 -905.919,534.366 -945.815,531.959C-937.667,558.86 -932.875,586.792 -932.316,614.916C-931.763,642.691 -935.369,670.461 -942.759,697.232C-904.993,705.473 -867.227,713.713 -829.46,721.954C-820.493,693.036 -814.677,663.05 -813.551,632.755C-812.376,601.108 -816.482,569.364 -826.127,539.181Z" style="fill:rgb(71,72,72);"/>
                            <g transform="matrix(1,0,0,1,-3.08011,-2.5)">
                                <g transform="matrix(0.984565,0,0,0.796706,107.308,138.564)">
                                    <path d="M-962.099,600.453C-983.4,598.102 -1004.7,595.785 -1026.01,593.509C-1026.12,590.39 -1025.48,587.244 -1024.62,584.261C-1023.03,578.729 -1020.48,573.101 -1016.6,568.793C-1014.01,565.932 -1010.36,563.488 -1006.34,564.484C-1005.53,564.685 -1004.76,565.01 -1004.03,565.422C-999.153,568.188 -993.631,568.554 -988.333,566.825C-983.336,565.194 -978.49,568.334 -975.101,571.753C-970.159,576.741 -966.671,583.279 -964.36,589.86C-963.174,593.239 -962.171,596.85 -962.099,600.453Z" style="fill:rgb(244,126,63);"/>
                                </g>
                                <g transform="matrix(1,0,0,1,122.169,23.6089)">
                                    <path d="M-1002.67,531.246C-993.765,531.79 -985.451,539.59 -983.818,548.253C-982.844,553.424 -984.567,559.018 -989.266,561.787C-990.214,562.346 -991.243,562.766 -992.309,563.039C-993.696,563.396 -995.139,563.504 -996.565,563.403C-1005.42,562.774 -1012.61,554.67 -1014.21,546.286C-1015.17,541.257 -1014.01,535.382 -1009.26,532.649C-1008.45,532.181 -1007.57,531.831 -1006.66,531.597C-1005.36,531.262 -1004,531.164 -1002.67,531.246Z" style="fill:rgb(244,126,63);"/>
                                </g>
                            </g>
                        </g>
                        <g>
                            <g transform="matrix(1,0,0,1,1.24465,0)">
                                <path d="M-903.749,626.149C-881.995,628.515 -860.245,630.915 -838.499,633.344" style="fill:none;stroke:rgb(244,126,63);stroke-width:7.32px;"/>
                            </g>
                            <g transform="matrix(1,0,0,1,1.24465,13.8785)">
                                <path d="M-904.735,626.836C-883.118,629.557 -861.505,632.31 -839.896,635.089" style="fill:none;stroke:rgb(244,126,63);stroke-width:7.32px;"/>
                            </g>
                            <g transform="matrix(1,0,0,1,1.44509,27.757)">
                                <path d="M-906.483,627.595C-885.028,630.727 -863.577,633.886 -842.129,637.066" style="fill:none;stroke:rgb(244,126,63);stroke-width:7.32px;"/>
                            </g>
                            <g transform="matrix(0.522237,0,0,1,-433.884,41.6355)">
                                <path d="M-906.948,628.379C-886.076,630.223 -865.204,632.073 -844.333,633.927" style="fill:none;stroke:rgb(244,126,63);stroke-width:9.18px;"/>
                            </g>
                        </g>
                    </g>
                </g>
            </g>
        </g>
    </g>
</svg>
