<?xml version="1.0" encoding="UTF-8" standalone="no"?>
<!DOCTYPE svg PUBLIC "-//W3C//DTD SVG 1.1//EN" "http://www.w3.org/Graphics/SVG/1.1/DTD/svg11.dtd">
<svg width="100%" height="100%" viewBox="0 0 950 250" version="1.1" xmlns="http://www.w3.org/2000/svg" xmlns:xlink="http://www.w3.org/1999/xlink" xml:space="preserve" xmlns:serif="http://www.serif.com/" style="fill-rule:evenodd;clip-rule:evenodd;stroke-linejoin:round;stroke-miterlimit:2;">
    <path d="M950,37.5C950,16.803 933.197,0 912.5,0L37.5,0C16.803,0 0,16.803 0,37.5L0,212.5C0,233.197 16.803,250 37.5,250L912.5,250C933.197,250 950,233.197 950,212.5L950,37.5Z" style="fill:rgb(32,37,134);"/>
    <path d="M334.5,112.5C334.5,130.9 320.8,143.7 301.6,143.7L287.6,143.7L287.6,166.6L267.7,166.6L267.7,81.3L301.6,81.3C321.2,81.3 334.5,94.4 334.5,112.5ZM313.8,112.3C313.8,104.8 308.1,99.2 299.8,99.2L287.7,99.2L287.7,125.7L299.8,125.7C308,125.7 313.8,120.2 313.8,112.3ZM454.8,133.9L454.8,166.5L434.9,166.5L434.9,133.9L403.5,81.2L426.7,81.2L444.9,113L463.1,81.2L486.3,81.2L454.8,133.9ZM484.3,157L493,140.9C499.4,146.5 509.3,150.2 518.8,150.2C526.2,150.2 529.8,148.1 529.8,144C529.8,139.5 526.3,137.1 513.3,132.7C496.1,126.8 488.8,118.9 488.8,106C488.8,90.3 501.5,80 520.8,80C532.2,80 541.9,82.9 549.6,88.7L541.2,105C535,100.2 528.1,97.6 520.1,97.6C512.6,97.6 508.9,100 508.9,105C508.9,109.7 512.3,112 525.9,116.5C543.1,122.2 549.9,129.8 549.9,142.6C549.9,157.9 537,167.7 518.5,167.7C504,167.8 492.1,163.9 484.3,157ZM558.3,123.9C558.3,99 577,80.1 603.4,80.1C614.9,80.1 625,83.7 632.8,89.9L623.7,105.9C618,100.6 611.8,98.3 604.3,98.3C588.4,98.3 578.5,109.6 578.5,123.9C578.5,138.3 588.5,149.6 604.3,149.6C612.3,149.6 618.5,146.9 623.7,142L632.8,158C625,164.2 615,167.8 603.4,167.8C577,167.8 558.3,148.9 558.3,123.9ZM637.1,124C637.1,99.2 656.1,80.1 682.3,80.1C708.5,80.1 727.5,99.3 727.5,124C727.5,149.1 708,167.8 682.3,167.8C656.7,167.8 637.1,149.1 637.1,124ZM707.5,123.9C707.5,109.6 697.3,98.3 682.4,98.3C667.5,98.3 657.3,109.6 657.3,123.9C657.3,138.6 667.9,149.6 682.4,149.6C696.9,149.6 707.5,138.6 707.5,123.9ZM740,127.9L740,81.3L759.9,81.3L759.9,127.9C759.9,140.6 765.1,149.6 778,149.6C791,149.6 796.3,140.6 796.3,127.9L796.3,81.3L816.2,81.3L816.2,127.9C816.2,153.9 801.3,167.8 778,167.8C754.9,167.8 740,153.8 740,127.9ZM900.2,99.2L872.4,99.2L872.4,166.5L852.5,166.5L852.5,99.2L824.7,99.2L824.7,81.2L900.2,81.2L900.2,99.2ZM374.2,80.1L370.6,80.1L328.4,166.6L350.1,166.6L372.4,117.5L394.7,166.6L416.4,166.6L374.2,80.1Z" style="fill:white;fill-rule:nonzero;"/>
    <g id="icon">
        <path d="M137.7,74.6C137.6,74.6 137.7,74.6 137.7,74.6C136.2,74.7 134.4,75 132.2,76C122.8,80.2 104.8,91.4 98.5,96.6C94.5,100 93.6,101.5 93.2,106.7C92.8,111.4 92.6,117.1 92.6,122L92.6,147.9C65.2,132.9 49.2,110.8 47.9,84C47.9,83.8 48,83.6 48,83.4C49.2,77.1 51.7,74.1 58.1,68.7C63.3,64.4 72.3,58.1 82.5,51.6C108.1,56 128.7,67.2 137.7,74.6Z" style="fill:rgb(56,140,224);fill-rule:nonzero;"/>
        <path d="M229.6,124C229.6,134.4 229.1,147.5 228.3,158.1C220.8,142.4 212.3,127.7 196.8,114.2C191,109.1 184.5,103.4 178.7,98.1C178.2,97.7 177.7,97.2 177.1,96.7C170.8,91.5 152.8,80.2 143.4,76.1C142.1,75.5 141.1,75.2 140.2,75C140.2,75 139.5,74.8 138.9,74.8C138.5,74.8 138,74.7 137.7,74.7C140.8,71.2 162.6,62.1 175.4,59.3C183.7,57.5 192.1,56.6 201.4,57.2C208.1,61.7 213.8,65.8 217.4,68.8C225.5,75.6 227.4,78.6 228.2,89.2C229.1,99.9 229.6,113.3 229.6,124Z" style="fill:rgb(58,201,219);fill-rule:nonzero;"/>
        <path d="M201.4,57C193.5,57.7 185.3,58.8 177,60.7C164.2,63.5 150.7,68.6 138.8,74C138.5,74.2 138,74.3 137.7,74.5C137.6,74.5 137.8,74.5 137.7,74.5C123.9,66.9 103.4,57.7 82.6,51.5C97.6,41.9 115.1,31.8 126.4,26.8C131.2,24.7 134.4,23.9 137.8,23.9C141.2,23.9 144.4,24.7 149.2,26.8C152.1,28.1 155.4,29.7 159,31.6C171.4,38 186.8,47.3 199.3,55.6C200,56.1 200.7,56.6 201.4,57Z" style="fill:rgb(39,112,196);fill-rule:nonzero;"/>
        <path d="M228.3,158.1L228.3,158.8C228.2,160.6 228,162.2 227.7,163.7C226.6,170.6 224.2,173.6 217.4,179.3C216.6,180 215.6,180.8 214.5,181.6C203.3,190.3 181.3,204.3 163.6,213.8C166.5,193 172.3,174.5 177.3,159.6C178.3,153.6 181.9,148.2 182.3,142.5C182.3,142.1 182.4,141.7 182.4,141.3C182.8,136 183.1,129.3 183.1,124.1C183.1,121.4 183,118.3 182.9,115.2C182.8,112.3 182.6,109.4 182.4,106.9C182.1,102.5 181.3,100.7 178.7,98.2C185.5,102.7 191.9,107.3 197.8,112.4C213.3,125.7 224.6,141 228.3,158.1Z" style="fill:rgb(39,112,196);fill-rule:nonzero;"/>
        <path d="M182.4,142.5C182,148.2 181.2,154.1 180.2,160.1C177.1,177.8 171.6,196.3 163.7,213.9C162.4,214.6 161.1,215.3 159.9,216C156,218 152.4,219.8 149.3,221.2C148.1,221.8 146.9,222.2 145.9,222.6C142.8,223.7 140.4,224.1 138,224.1C134.7,224.1 131.4,223.3 126.6,221.2C123.8,220 120.9,218.6 117.5,216.8L117.5,164.1C123,167.4 128.4,170.4 132.4,172.1C133.5,172.6 134.4,172.9 135.2,173.1C136.2,173.4 137.1,173.5 138,173.5C139.7,173.5 141.2,173.1 143.6,172.1C144.6,171.7 145.7,171.1 146.8,170.6C152.7,167.7 160.4,163.1 166.9,158.8C167.5,158.4 168.2,158 168.8,157.6C172.3,155.2 175.4,153.1 177.3,151.5C180.8,148.2 181.9,146.7 182.4,142.5Z" style="fill:rgb(56,140,224);fill-rule:nonzero;"/>
        <path d="M92.4,148L92.4,202.6C78.4,194.1 64.9,185 58.1,179.3C53.3,175.3 50.7,172.6 49.2,168.9C48.2,166.3 47.6,163.3 47.3,158.9C46.5,148.1 46,134.6 46,124C46,113.3 46.5,99.9 47.3,89.1C47.5,87.2 47.6,85.5 47.9,84C50.9,110.6 69.7,131.3 92.4,148Z" style="fill:rgb(58,201,219);fill-rule:nonzero;"/>
    </g>
</svg>
