<?xml version="1.0" encoding="utf-8"?>
<!-- Generator: Adobe Illustrator 25.3.1, SVG Export Plug-In . SVG Version: 6.00 Build 0)  -->
<svg version="1.1" id="Payscout" xmlns="http://www.w3.org/2000/svg" xmlns:xlink="http://www.w3.org/1999/xlink" x="0px" y="0px"
	 viewBox="0 0 950 250" style="enable-background:new 0 0 950 250;" xml:space="preserve">
<style type="text/css">
	.st0{fill:#FFFFFF;}
	.st1{fill:#388CE0;}
	.st2{fill:#3AC9DB;}
	.st3{fill:#2770C4;}
</style>
<path class="st0" d="M334.5,112.5c0,18.4-13.7,31.2-32.9,31.2h-14v22.9h-19.9V81.3h33.9C321.2,81.3,334.5,94.4,334.5,112.5z
	 M313.8,112.3c0-7.5-5.7-13.1-14-13.1h-12.1v26.5h12.1C308,125.7,313.8,120.2,313.8,112.3z M454.8,133.9v32.6h-19.9v-32.6
	l-31.4-52.7h23.2l18.2,31.8l18.2-31.8h23.2L454.8,133.9z M484.3,157l8.7-16.1c6.4,5.6,16.3,9.3,25.8,9.3c7.4,0,11-2.1,11-6.2
	c0-4.5-3.5-6.9-16.5-11.3c-17.2-5.9-24.5-13.8-24.5-26.7c0-15.7,12.7-26,32-26c11.4,0,21.1,2.9,28.8,8.7l-8.4,16.3
	c-6.2-4.8-13.1-7.4-21.1-7.4c-7.5,0-11.2,2.4-11.2,7.4c0,4.7,3.4,7,17,11.5c17.2,5.7,24,13.3,24,26.1c0,15.3-12.9,25.1-31.4,25.1
	C504,167.8,492.1,163.9,484.3,157z M558.3,123.9c0-24.9,18.7-43.8,45.1-43.8c11.5,0,21.6,3.6,29.4,9.8l-9.1,16
	c-5.7-5.3-11.9-7.6-19.4-7.6c-15.9,0-25.8,11.3-25.8,25.6c0,14.4,10,25.7,25.8,25.7c8,0,14.2-2.7,19.4-7.6l9.1,16
	c-7.8,6.2-17.8,9.8-29.4,9.8C577,167.8,558.3,148.9,558.3,123.9z M637.1,124c0-24.8,19-43.9,45.2-43.9s45.2,19.2,45.2,43.9
	c0,25.1-19.5,43.8-45.2,43.8C656.7,167.8,637.1,149.1,637.1,124z M707.5,123.9c0-14.3-10.2-25.6-25.1-25.6s-25.1,11.3-25.1,25.6
	c0,14.7,10.6,25.7,25.1,25.7S707.5,138.6,707.5,123.9z M740,127.9V81.3h19.9v46.6c0,12.7,5.2,21.7,18.1,21.7c13,0,18.3-9,18.3-21.7
	V81.3h19.9v46.6c0,26-14.9,39.9-38.2,39.9C754.9,167.8,740,153.8,740,127.9z M900.2,99.2h-27.8v67.3h-19.9V99.2h-27.8v-18h75.5
	L900.2,99.2L900.2,99.2z M374.2,80.1h-3.6l-42.2,86.5h21.7l22.3-49.1l22.3,49.1h21.7L374.2,80.1z"/>
<g id="icon">
	<path class="st1" d="M137.7,74.6C137.6,74.6,137.7,74.6,137.7,74.6c-1.5,0.1-3.3,0.4-5.5,1.4c-9.4,4.2-27.4,15.4-33.7,20.6
		c-4,3.4-4.9,4.9-5.3,10.1c-0.4,4.7-0.6,10.4-0.6,15.3h0v1.9c0,0,0,0,0,0v24C65.2,132.9,49.2,110.8,47.9,84c0-0.2,0.1-0.4,0.1-0.6
		c1.2-6.3,3.7-9.3,10.1-14.7c5.2-4.3,14.2-10.6,24.4-17.1C108.1,56,128.7,67.2,137.7,74.6z"/>
	<path class="st2" d="M229.6,124C229.6,124,229.6,124,229.6,124c0,10.4-0.5,23.5-1.3,34.1c-7.5-15.7-16-30.4-31.5-43.9
		c-5.8-5.1-12.3-10.8-18.1-16.1c-0.5-0.4-1-0.9-1.6-1.4c-6.3-5.2-24.3-16.5-33.7-20.6c-1.3-0.6-2.3-0.9-3.2-1.1c0,0-0.7-0.2-1.3-0.2
		c-0.4,0-0.9-0.1-1.2-0.1l0,0c0,0,0,0,0,0c3.1-3.5,24.9-12.6,37.7-15.4c8.3-1.8,16.7-2.7,26-2.1c6.7,4.5,12.4,8.6,16,11.6
		c8.1,6.8,10,9.8,10.8,20.4C229.1,99.9,229.6,113.3,229.6,124z"/>
	<path class="st3" d="M201.4,57c-7.9,0.7-16.1,1.8-24.4,3.7c-12.8,2.8-26.3,7.9-38.2,13.3c-0.3,0.2-0.8,0.3-1.1,0.5c0,0,0,0,0,0
		c-0.1,0,0.1,0,0,0c-13.8-7.6-34.3-16.8-55.1-23c15-9.6,32.5-19.7,43.8-24.7c4.8-2.1,8-2.9,11.4-2.9c3.4,0,6.6,0.8,11.4,2.9
		c2.9,1.3,6.2,2.9,9.8,4.8c12.4,6.4,27.8,15.7,40.3,24C200,56.1,200.7,56.6,201.4,57z"/>
	<path class="st3" d="M228.3,158.1c0,0.2,0,0.5,0,0.7c-0.1,1.8-0.3,3.4-0.6,4.9c-1.1,6.9-3.5,9.9-10.3,15.6
		c-0.8,0.7-1.8,1.5-2.9,2.3c-11.2,8.7-33.2,22.7-50.9,32.2c2.9-20.8,8.7-39.3,13.7-54.2c1-6,4.6-11.4,5-17.1c0-0.4,0.1-0.8,0.1-1.2
		c0.4-5.3,0.7-12,0.7-17.2c0,0,0,0,0,0c0-2.7-0.1-5.8-0.2-8.9c-0.1-2.9-0.3-5.8-0.5-8.3c-0.3-4.4-1.1-6.2-3.7-8.7
		c6.8,4.5,13.2,9.1,19.1,14.2C213.3,125.7,224.6,141,228.3,158.1z"/>
	<path class="st1" d="M182.4,142.5c-0.4,5.7-1.2,11.6-2.2,17.6c-3.1,17.7-8.6,36.2-16.5,53.8c-1.3,0.7-2.6,1.4-3.8,2.1
		c-3.9,2-7.5,3.8-10.6,5.2c-1.2,0.6-2.4,1-3.4,1.4c-3.1,1.1-5.5,1.5-7.9,1.5c-3.3,0-6.6-0.8-11.4-2.9c-2.8-1.2-5.7-2.6-9.1-4.4
		v-52.7c5.5,3.3,10.9,6.3,14.9,8c1.1,0.5,2,0.8,2.8,1c1,0.3,1.9,0.4,2.8,0.4c1.7,0,3.2-0.4,5.6-1.4c1-0.4,2.1-1,3.2-1.5
		c5.9-2.9,13.6-7.5,20.1-11.8c0.6-0.4,1.3-0.8,1.9-1.2c3.5-2.4,6.6-4.5,8.5-6.1C180.8,148.2,181.9,146.7,182.4,142.5z"/>
	<path class="st2" d="M92.4,148v54.6c-14-8.5-27.5-17.6-34.3-23.3c-4.8-4-7.4-6.7-8.9-10.4c-1-2.6-1.6-5.6-1.9-10
		C46.5,148.1,46,134.6,46,124c0,0,0,0,0,0c0-10.7,0.5-24.1,1.3-34.9c0.2-1.9,0.3-3.6,0.6-5.1C50.9,110.6,69.7,131.3,92.4,148z"/>
</g>
</svg>
