<?xml version="1.0" encoding="UTF-8" standalone="no"?>
<!DOCTYPE svg PUBLIC "-//W3C//DTD SVG 1.1//EN" "http://www.w3.org/Graphics/SVG/1.1/DTD/svg11.dtd">
<svg width="100%" height="100%" viewBox="0 0 92 122" version="1.1" xmlns="http://www.w3.org/2000/svg" xmlns:xlink="http://www.w3.org/1999/xlink" xml:space="preserve" xmlns:serif="http://www.serif.com/" style="fill-rule:evenodd;clip-rule:evenodd;stroke-linejoin:round;stroke-miterlimit:2;">
    <rect id="Artboard2" x="0" y="0" width="92" height="122" style="fill:none;"/>
    <g id="Artboard21" serif:id="Artboard2">
        <g>
            <path d="M28.015,40.666C29.833,52.523 48.91,81.669 58.622,89.193L67.403,84.123C71.71,81.637 76.155,83.293 79.712,87.421L88.7,98.028C91.186,102.335 89.708,107.85 85.402,110.336C85.402,110.336 61.914,123.921 54.708,117.653C30.561,96.647 9.157,59.975 2.269,26.825C-0.187,15.001 23.952,3.902 23.952,3.902C28.258,1.416 33.774,2.893 36.26,7.2L40.291,23.174C41.081,28.095 41.3,32.996 36.994,35.482L28.015,40.666Z" style="fill:none;stroke:rgb(243,121,51);stroke-width:4.17px;"/>
        </g>
    </g>
</svg>
