<?xml version="1.0" encoding="UTF-8" standalone="no"?>
<!DOCTYPE svg PUBLIC "-//W3C//DTD SVG 1.1//EN" "http://www.w3.org/Graphics/SVG/1.1/DTD/svg11.dtd">
<svg width="100%" height="100%" viewBox="0 0 97 124" version="1.1" xmlns="http://www.w3.org/2000/svg" xmlns:xlink="http://www.w3.org/1999/xlink" xml:space="preserve" xmlns:serif="http://www.serif.com/" style="fill-rule:evenodd;clip-rule:evenodd;stroke-linecap:round;stroke-linejoin:round;stroke-miterlimit:1.5;">
    <g transform="matrix(1,0,0,1,0,-903)">
        <g id="Sevices_Alt">
        </g>
        <g id="Portfolio-C" serif:id="Portfolio C">
        </g>
        <g id="Portfolio-A" serif:id="Portfolio A">
        </g>
        <g id="Portfolio-B" serif:id="Portfolio B">
        </g>
        <g id="Portfolio">
        </g>
        <g id="e-mail" serif:id="e mail">
        </g>
        <g id="Contact">
        </g>
        <g id="Info-Circle" serif:id="Info Circle">
        </g>
        <g id="Resume-Skewed" serif:id="Resume Skewed" transform="matrix(0.665768,0.151951,-0.151951,0.665768,2098.16,134.172)">
            <g id="Resume" transform="matrix(1,0,0,1,91.1932,58.1317)">
                <g id="Resume-Skewed1" serif:id="Resume Skewed">
                    <g id="Resume1" serif:id="Resume">
                        <g transform="matrix(1,0,0,1,5,-6.66666)">
                            <path d="M-826.127,539.181C-866.023,536.773 -905.919,534.366 -945.815,531.959C-937.667,558.86 -932.875,586.792 -932.316,614.916C-931.763,642.691 -935.369,670.461 -942.759,697.232C-904.993,705.473 -867.227,713.713 -829.46,721.954C-820.493,693.036 -814.677,663.05 -813.551,632.755C-812.376,601.108 -816.482,569.364 -826.127,539.181Z" style="fill:rgb(71,72,72);"/>
                            <g transform="matrix(1,0,0,1,-3.08011,-2.5)">
                                <g transform="matrix(0.984565,0,0,0.796706,107.308,138.564)">
                                    <path d="M-962.099,600.453C-983.4,598.102 -1004.7,595.785 -1026.01,593.509C-1026.12,590.39 -1025.48,587.244 -1024.62,584.261C-1023.03,578.729 -1020.48,573.101 -1016.6,568.793C-1014.01,565.932 -1010.36,563.488 -1006.34,564.484C-1005.53,564.685 -1004.76,565.01 -1004.03,565.422C-999.153,568.188 -993.631,568.554 -988.333,566.825C-983.336,565.194 -978.49,568.334 -975.101,571.753C-970.159,576.741 -966.671,583.279 -964.36,589.86C-963.174,593.239 -962.171,596.85 -962.099,600.453Z" style="fill:rgb(244,126,63);"/>
                                </g>
                                <g transform="matrix(1,0,0,1,122.169,23.6089)">
                                    <path d="M-1002.67,531.246C-993.765,531.79 -985.451,539.59 -983.818,548.253C-982.844,553.424 -984.567,559.018 -989.266,561.787C-990.214,562.346 -991.243,562.766 -992.309,563.039C-993.696,563.396 -995.139,563.504 -996.565,563.403C-1005.42,562.774 -1012.61,554.67 -1014.21,546.286C-1015.17,541.257 -1014.01,535.382 -1009.26,532.649C-1008.45,532.181 -1007.57,531.831 -1006.66,531.597C-1005.36,531.262 -1004,531.164 -1002.67,531.246Z" style="fill:rgb(244,126,63);"/>
                                </g>
                            </g>
                        </g>
                        <g>
                            <g transform="matrix(1,0,0,1,1.24465,0)">
                                <path d="M-903.749,626.149C-881.995,628.515 -860.245,630.915 -838.499,633.344" style="fill:none;stroke:rgb(244,126,63);stroke-width:7.32px;"/>
                            </g>
                            <g transform="matrix(1,0,0,1,1.24465,13.8785)">
                                <path d="M-904.735,626.836C-883.118,629.557 -861.505,632.31 -839.896,635.089" style="fill:none;stroke:rgb(244,126,63);stroke-width:7.32px;"/>
                            </g>
                            <g transform="matrix(1,0,0,1,1.44509,27.757)">
                                <path d="M-906.483,627.595C-885.028,630.727 -863.577,633.886 -842.129,637.066" style="fill:none;stroke:rgb(244,126,63);stroke-width:7.32px;"/>
                            </g>
                            <g transform="matrix(0.522237,0,0,1,-433.884,41.6355)">
                                <path d="M-906.948,628.379C-886.076,630.223 -865.204,632.073 -844.333,633.927" style="fill:none;stroke:rgb(244,126,63);stroke-width:9.18px;"/>
                            </g>
                        </g>
                    </g>
                </g>
            </g>
        </g>
        <g id="Phone3" transform="matrix(0.959985,0,0,1,91.5791,-1)">
            <rect x="-95.396" y="904" width="100.715" height="123.121" style="fill:none;"/>
            <clipPath id="_clip1">
                <rect x="-95.396" y="904" width="100.715" height="123.121"/>
            </clipPath>
            <g clip-path="url(#_clip1)">
                <g transform="matrix(3.18924e-16,1,-1.04168,3.06162e-16,912.456,792.963)">
                    <path d="M145.128,944.265C156.305,948.619 191.085,946.67 202.457,942.022L202.457,931.882C202.457,926.909 206.114,923.887 211.467,922.871L225.147,920.391C230.12,920.391 234.157,924.429 234.157,929.401C234.157,929.401 234.178,956.535 225.147,959.641C194.882,970.05 152.421,970.251 120.268,959.641C108.8,955.856 111.258,929.401 111.258,929.401C111.258,924.429 115.295,920.391 120.268,920.391L136.118,924.887C140.774,926.664 145.128,928.924 145.128,933.897L145.128,944.265Z" style="fill:rgb(244,126,63);"/>
                </g>
                <g transform="matrix(2.09222,0,0,2.0085,-38.936,-994.233)">
                    <path d="M4.611,998.38C14.515,994.775 21.108,985.36 21.108,974.82C21.108,964.279 14.516,954.864 4.611,951.259L3.067,955.5C11.189,958.456 16.595,966.176 16.595,974.82C16.595,983.463 11.189,991.183 3.067,994.139L4.611,998.38Z" style="fill:rgb(244,126,63);"/>
                </g>
                <g transform="matrix(1.37576,0,0,1.32071,-41.7763,-323.762)">
                    <path d="M4.611,998.38C14.515,994.775 21.108,985.36 21.108,974.82C21.108,964.279 14.516,954.864 4.611,951.259L2.467,957.149C9.896,959.853 14.84,966.914 14.84,974.82C14.84,982.725 9.896,989.786 2.467,992.49L4.611,998.38Z" style="fill:rgb(244,126,63);"/>
                </g>
                <g transform="matrix(0.687881,0,0,0.660355,-44.5033,319.965)">
                    <path d="M4.611,998.38C14.515,994.775 21.108,985.36 21.108,974.82C21.108,964.279 14.516,954.864 4.611,951.259L0.924,961.39C6.569,963.445 10.327,968.812 10.327,974.82C10.327,980.828 6.569,986.194 0.924,988.249L4.611,998.38Z" style="fill:rgb(244,126,63);"/>
                </g>
            </g>
        </g>
    </g>
</svg>
