<?xml version="1.0" encoding="UTF-8" standalone="no"?>
<!DOCTYPE svg PUBLIC "-//W3C//DTD SVG 1.1//EN" "http://www.w3.org/Graphics/SVG/1.1/DTD/svg11.dtd">
<svg width="100%" height="100%" viewBox="0 0 140 140" version="1.1" xmlns="http://www.w3.org/2000/svg" xmlns:xlink="http://www.w3.org/1999/xlink" xml:space="preserve" xmlns:serif="http://www.serif.com/" style="fill-rule:evenodd;clip-rule:evenodd;stroke-linejoin:round;stroke-miterlimit:2;">
    <g transform="matrix(1,0,0,1,-273,-894)">
        <g transform="matrix(1,0,0,1,-0.324897,-0.973619)">
            <rect id="Phone" x="273.325" y="894.974" width="139.386" height="139.386" style="fill:none;"/>
            <g id="Phone1" serif:id="Phone">
                <path d="M412.711,929.82L412.711,999.513C412.711,1018.75 397.096,1034.36 377.864,1034.36L308.171,1034.36C288.939,1034.36 273.325,1018.75 273.325,999.513L273.325,929.82C273.325,910.588 288.939,894.974 308.171,894.974L377.864,894.974C397.096,894.974 412.711,910.588 412.711,929.82ZM334.887,990.469L319.461,982.077C315.64,978.894 309.954,979.412 306.771,983.233L295.231,993.355C292.049,997.176 292.566,1002.86 296.387,1006.05C296.387,1006.05 315.14,1024.87 325.388,1018.48C354.12,1000.56 381.142,967.812 392.517,937.896C395.911,928.969 375.05,911.618 375.05,911.618C371.229,908.435 365.543,908.953 362.36,912.774L355.171,924.321C351.988,928.142 352.506,933.828 356.327,937.01L365.61,950.698C361.902,962.411 345.386,984.668 334.887,990.469Z" style="fill:rgb(71,72,72);"/>
            </g>
        </g>
    </g>
</svg>
