<?xml version="1.0" encoding="UTF-8" standalone="no"?><!DOCTYPE svg PUBLIC "-//W3C//DTD SVG 1.1//EN" "http://www.w3.org/Graphics/SVG/1.1/DTD/svg11.dtd"><svg width="100%" height="100%" viewBox="0 0 187 165" version="1.1" xmlns="http://www.w3.org/2000/svg" xmlns:xlink="http://www.w3.org/1999/xlink" xml:space="preserve" xmlns:serif="http://www.serif.com/" style="fill-rule:evenodd;clip-rule:evenodd;stroke-linejoin:round;stroke-miterlimit:2;"><rect id="Portfolio" x="0" y="0" width="186.026" height="164.13" style="fill:none;"/><clipPath id="_clip1"><rect id="Portfolio1" serif:id="Portfolio" x="0" y="0" width="186.026" height="164.13"/></clipPath><g clip-path="url(#_clip1)"><g id="Portfolio2" serif:id="Portfolio"><path d="M108.534,117.903l30.049,-0l44.626,-52.229l-0,79.214c-0,10.879 -8.832,19.711 -19.711,19.711l-139.084,-0c-10.879,-0 -19.71,-8.832 -19.71,-19.711l-0,-79.893l44.626,52.908l30.049,-0l-0,2.323c-0,2.823 2.045,5.116 4.565,5.116l20.025,-0c2.519,-0 4.565,-2.293 4.565,-5.116l-0,-2.323Zm-23.788,-0l18.624,-0l-0,0.475c-0,1.804 -1.307,3.268 -2.916,3.268l-12.792,0c-1.61,0 -2.916,-1.464 -2.916,-3.268l-0,-0.475Zm91.893,-84.707c-14.451,0.014 -45.936,0.007 -77.855,-0l77.855,0Z" style="fill:#474848;"/><path d="M131.994,27.979c20.008,0.003 37.093,0.003 46.074,-0.007c10.642,-0.012 8.776,28.201 8.776,28.201l-48.282,56.506l-30.028,0l-0,-2.684c-0,-2.823 -2.046,-5.115 -4.565,-5.115l-20.025,-0c-2.52,-0 -4.565,2.292 -4.565,5.115l-0,2.684l-30.069,0l-48.315,-57.28c-0,-0 -1.361,-27.427 9.855,-27.427c6.897,-0.013 24.37,-0.013 45.721,-0.009c1.992,-13.229 13.65,-27.495 27.428,-27.495l19.874,0c13.524,0 25.79,14.467 28.121,27.511Zm-60.626,-0.013c15.36,0.003 31.807,0.008 47.279,0.011c-4.271,-16.297 -14.81,-14.626 -24.691,-14.573c-9.016,0.049 -19.782,-2.165 -22.588,14.562Zm32.002,84.713l-18.624,0l-0,-0.836c-0,-1.804 1.306,-3.268 2.916,-3.268l12.792,0c1.609,0 2.916,1.464 2.916,3.268l-0,0.836Z" style="fill:#474848;"/><path d="M103.655,111.874c-0,-1.83 -1.486,-3.315 -3.315,-3.315l-12.767,-0c-1.83,-0 -3.315,1.485 -3.315,3.315l-0,6.63c-0,1.83 1.485,3.315 3.315,3.315l12.767,0c1.829,0 3.315,-1.485 3.315,-3.315l-0,-6.63Z" style="fill:#f47e3f;"/></g></g></svg>