<?xml version="1.0" encoding="UTF-8" standalone="no"?>
<!DOCTYPE svg PUBLIC "-//W3C//DTD SVG 1.1//EN" "http://www.w3.org/Graphics/SVG/1.1/DTD/svg11.dtd">
<svg width="100%" height="100%" viewBox="0 0 567 332" version="1.1" xmlns="http://www.w3.org/2000/svg" xmlns:xlink="http://www.w3.org/1999/xlink" xml:space="preserve" xmlns:serif="http://www.serif.com/" style="fill-rule:evenodd;clip-rule:evenodd;stroke-linecap:round;stroke-linejoin:round;stroke-miterlimit:1.5;">
    <g id="Sevices_Alt">
    </g>
    <rect id="Artboard3" x="-0" y="0" width="567" height="332" style="fill:none;"/>
    <g>
        <g>
            <path d="M478.036,150.73C473.614,144.851 469.2,138.952 464.794,133.034C490.269,95.929 515.698,58.758 541.078,21.522C537.18,16.315 533.288,11.096 529.402,5.863C541.242,5.238 553.081,4.612 564.919,3.984C565.118,20.617 565.318,37.25 565.52,53.885C561.581,48.715 557.648,43.53 553.72,38.33C528.545,75.87 503.317,113.336 478.036,150.73Z" style="fill:rgb(244,126,63);"/>
            <path d="M287.656,246.009C283.081,239.526 278.521,233.026 273.977,226.511C315.768,170.164 357.505,113.742 399.181,57.235C403.466,63.27 407.763,69.291 412.07,75.297C370.669,132.298 329.194,189.198 287.656,246.009Z" style="fill:rgb(244,126,63);"/>
            <path d="M17.854,330.208C13.245,322.902 8.66,315.583 4.099,308.253C69.849,227.783 135.626,147.351 201.438,66.968C205.696,73.563 209.971,80.147 214.264,86.72C148.783,167.867 83.314,249.031 17.854,330.208Z" style="fill:rgb(244,126,63);"/>
            <path d="M481.099,146.292C476.109,153.675 471.117,161.057 466.121,168.438C441.029,135.057 416.302,101.17 391.923,66.798C397.121,59.753 402.319,52.707 407.515,45.659C431.701,79.679 456.224,113.231 481.099,146.292Z" style="fill:rgb(244,126,63);"/>
            <path d="M305.006,221.141C298.904,229.491 292.801,237.838 286.696,246.183C250.878,195.402 215.879,143.483 181.744,90.378C188.117,82.594 194.491,74.81 200.865,67.027C234.753,119.537 269.481,170.893 305.006,221.141Z" style="fill:rgb(244,126,63);"/>
        </g>
    </g>
    <g id="Portfolio-C" serif:id="Portfolio C">
    </g>
    <g id="Portfolio-A" serif:id="Portfolio A">
    </g>
    <g id="Portfolio-B" serif:id="Portfolio B">
    </g>
    <g id="Portfolio">
    </g>
    <g id="e-mail" serif:id="e mail">
    </g>
    <g id="Contact">
    </g>
    <g id="Info-Circle" serif:id="Info Circle">
    </g>
    <g id="Resume-Skewed" serif:id="Resume Skewed">
        <g id="Resume">
            <g>
                <path d="M2918.39,-1637.38C2892.19,-1645.05 2866,-1652.71 2839.8,-1660.38C2841.14,-1641.23 2840.09,-1621.9 2836.18,-1603.1C2832.33,-1584.52 2825.71,-1566.58 2816.72,-1549.88C2840.62,-1538.65 2864.51,-1527.43 2888.4,-1516.2C2898.76,-1534.09 2907.19,-1553.17 2912.54,-1573.17C2918.14,-1594.06 2920.22,-1615.82 2918.39,-1637.38Z" style="fill:rgb(71,72,72);"/>
                <g>
                    <path d="M2895.7,-1589.84C2882.03,-1594.27 2868.34,-1598.69 2854.65,-1603.08C2854.96,-1604.75 2855.76,-1606.33 2856.68,-1607.78C2858.39,-1610.48 2860.74,-1613.08 2863.82,-1614.79C2865.86,-1615.91 2868.55,-1616.66 2871.06,-1615.54C2871.57,-1615.31 2872.03,-1615.02 2872.46,-1614.69C2875.32,-1612.5 2878.9,-1611.48 2882.58,-1611.6C2886.05,-1611.72 2888.85,-1609.33 2890.66,-1607.01C2893.29,-1603.62 2894.79,-1599.63 2895.51,-1595.8C2895.87,-1593.83 2896.09,-1591.76 2895.7,-1589.84Z" style="fill:rgb(244,126,63);"/>
                    <path d="M2878.14,-1637.34C2883.98,-1635.63 2888.33,-1629.17 2888.1,-1623.15C2887.97,-1619.56 2885.97,-1616.1 2882.42,-1614.97C2881.7,-1614.74 2880.95,-1614.62 2880.2,-1614.6C2879.23,-1614.57 2878.25,-1614.72 2877.32,-1615.01C2871.52,-1616.77 2867.96,-1623.26 2868.17,-1629.08C2868.29,-1632.58 2869.96,-1636.31 2873.53,-1637.41C2874.15,-1637.6 2874.79,-1637.7 2875.43,-1637.71C2876.34,-1637.74 2877.26,-1637.6 2878.14,-1637.34Z" style="fill:rgb(244,126,63);"/>
                </g>
            </g>
            <g>
                <path d="M2849.98,-1587.41C2864.11,-1582.53 2878.22,-1577.62 2892.33,-1572.7" style="fill:none;stroke:rgb(244,126,63);stroke-width:5px;"/>
                <path d="M2847.11,-1577.86C2861.09,-1572.77 2875.06,-1567.65 2889.03,-1562.51" style="fill:none;stroke:rgb(244,126,63);stroke-width:5px;"/>
                <path d="M2843.86,-1568.35C2857.67,-1563.01 2871.47,-1557.64 2885.26,-1552.27" style="fill:none;stroke:rgb(244,126,63);stroke-width:5px;"/>
                <path d="M2839.97,-1558.97C2846.95,-1556.08 2853.93,-1553.2 2860.9,-1550.31" style="fill:none;stroke:rgb(244,126,63);stroke-width:5px;"/>
            </g>
        </g>
    </g>
</svg>
