<?xml version="1.0" encoding="UTF-8" standalone="no"?>
<!DOCTYPE svg PUBLIC "-//W3C//DTD SVG 1.1//EN" "http://www.w3.org/Graphics/SVG/1.1/DTD/svg11.dtd">
<svg width="100%" height="100%" viewBox="0 0 430 250" version="1.1" xmlns="http://www.w3.org/2000/svg" xmlns:xlink="http://www.w3.org/1999/xlink" xml:space="preserve" xmlns:serif="http://www.serif.com/" style="fill-rule:evenodd;clip-rule:evenodd;stroke-linecap:round;stroke-linejoin:round;stroke-miterlimit:1.5;">
    <g transform="matrix(1,0,0,1,-3049,-815)">
        <g id="Sevices_Alt">
        </g>
        <g id="Artboard2" transform="matrix(1.4144,0,0,1.00084,-1264.37,-0.719684)">
            <rect x="3049.62" y="815.036" width="303.99" height="249.79" style="fill:none;"/>
            <clipPath id="_clip1">
                <rect x="3049.62" y="815.036" width="303.99" height="249.79"/>
            </clipPath>
            <g clip-path="url(#_clip1)">
                <g transform="matrix(0.716127,0,0,1.64839,952.441,-690.369)">
                    <path d="M3352.99,922.658L3352.99,1064.79L3147.79,1064.79C3347.85,1055.17 3340.28,1014.57 3352.99,922.658Z" style="fill:rgb(244,126,63);fill-opacity:0.33;"/>
                </g>
                <g transform="matrix(0.716127,0,0,1.64839,952.441,-690.369)">
                    <path d="M3352.99,972.137L3352.99,1064.79L2984.43,1064.79C3210.24,1064.44 3335.17,1050.7 3352.99,972.137Z" style="fill:rgb(244,126,63);fill-opacity:0.33;"/>
                </g>
                <g transform="matrix(-0.716127,-1.23939e-16,1.42845e-16,-1.64839,5450.79,2570.23)">
                    <path d="M3352.99,945.102L3352.99,1064.79L3052.87,1064.79C3282.12,1056 3330.79,1074.89 3352.99,945.102Z" style="fill:rgb(71,72,72);fill-opacity:0.16;"/>
                </g>
            </g>
        </g>
        <g id="Portfolio-C" serif:id="Portfolio C">
        </g>
        <g id="Portfolio-A" serif:id="Portfolio A">
        </g>
        <g id="Portfolio-B" serif:id="Portfolio B">
        </g>
        <g id="Portfolio">
        </g>
        <g id="e-mail" serif:id="e mail">
        </g>
        <g id="Contact">
        </g>
        <g id="Info-Circle" serif:id="Info Circle">
        </g>
        <g id="Resume-Skewed" serif:id="Resume Skewed" transform="matrix(0.665768,0.151951,-0.151951,0.665768,2098.16,180.172)">
            <g id="Resume" transform="matrix(1,0,0,1,91.1932,58.1317)">
                <g id="Resume-Skewed1" serif:id="Resume Skewed">
                    <g id="Resume1" serif:id="Resume">
                        <g transform="matrix(1,0,0,1,5,-6.66666)">
                            <path d="M-826.127,539.181C-866.023,536.773 -905.919,534.366 -945.815,531.959C-937.667,558.86 -932.875,586.792 -932.316,614.916C-931.763,642.691 -935.369,670.461 -942.759,697.232C-904.993,705.473 -867.227,713.713 -829.46,721.954C-820.493,693.036 -814.677,663.05 -813.551,632.755C-812.376,601.108 -816.482,569.364 -826.127,539.181Z" style="fill:rgb(71,72,72);"/>
                            <g transform="matrix(1,0,0,1,-3.08011,-2.5)">
                                <g transform="matrix(0.984565,0,0,0.796706,107.308,138.564)">
                                    <path d="M-962.099,600.453C-983.4,598.102 -1004.7,595.785 -1026.01,593.509C-1026.12,590.39 -1025.48,587.244 -1024.62,584.261C-1023.03,578.729 -1020.48,573.101 -1016.6,568.793C-1014.01,565.932 -1010.36,563.488 -1006.34,564.484C-1005.53,564.685 -1004.76,565.01 -1004.03,565.422C-999.153,568.188 -993.631,568.554 -988.333,566.825C-983.336,565.194 -978.49,568.334 -975.101,571.753C-970.159,576.741 -966.671,583.279 -964.36,589.86C-963.174,593.239 -962.171,596.85 -962.099,600.453Z" style="fill:rgb(244,126,63);"/>
                                </g>
                                <g transform="matrix(1,0,0,1,122.169,23.6089)">
                                    <path d="M-1002.67,531.246C-993.765,531.79 -985.451,539.59 -983.818,548.253C-982.844,553.424 -984.567,559.018 -989.266,561.787C-990.214,562.346 -991.243,562.766 -992.309,563.039C-993.696,563.396 -995.139,563.504 -996.565,563.403C-1005.42,562.774 -1012.61,554.67 -1014.21,546.286C-1015.17,541.257 -1014.01,535.382 -1009.26,532.649C-1008.45,532.181 -1007.57,531.831 -1006.66,531.597C-1005.36,531.262 -1004,531.164 -1002.67,531.246Z" style="fill:rgb(244,126,63);"/>
                                </g>
                            </g>
                        </g>
                        <g>
                            <g transform="matrix(1,0,0,1,1.24465,0)">
                                <path d="M-903.749,626.149C-881.995,628.515 -860.245,630.915 -838.499,633.344" style="fill:none;stroke:rgb(244,126,63);stroke-width:7.32px;"/>
                            </g>
                            <g transform="matrix(1,0,0,1,1.24465,13.8785)">
                                <path d="M-904.735,626.836C-883.118,629.557 -861.505,632.31 -839.896,635.089" style="fill:none;stroke:rgb(244,126,63);stroke-width:7.32px;"/>
                            </g>
                            <g transform="matrix(1,0,0,1,1.44509,27.757)">
                                <path d="M-906.483,627.595C-885.028,630.727 -863.577,633.886 -842.129,637.066" style="fill:none;stroke:rgb(244,126,63);stroke-width:7.32px;"/>
                            </g>
                            <g transform="matrix(0.522237,0,0,1,-433.884,41.6355)">
                                <path d="M-906.948,628.379C-886.076,630.223 -865.204,632.073 -844.333,633.927" style="fill:none;stroke:rgb(244,126,63);stroke-width:9.18px;"/>
                            </g>
                        </g>
                    </g>
                </g>
            </g>
        </g>
    </g>
</svg>
