<?xml version="1.0" encoding="UTF-8" standalone="no"?><!DOCTYPE svg PUBLIC "-//W3C//DTD SVG 1.1//EN" "http://www.w3.org/Graphics/SVG/1.1/DTD/svg11.dtd"><svg width="100%" height="100%" viewBox="0 0 173 157" version="1.1" xmlns="http://www.w3.org/2000/svg" xmlns:xlink="http://www.w3.org/1999/xlink" xml:space="preserve" xmlns:serif="http://www.serif.com/" style="fill-rule:evenodd;clip-rule:evenodd;stroke-linejoin:round;stroke-miterlimit:2;"><rect id="Services" x="0" y="0" width="172.421" height="156.271" style="fill:none;"/><clipPath id="_clip1"><rect id="Services1" serif:id="Services" x="0" y="0" width="172.421" height="156.271"/></clipPath><g clip-path="url(#_clip1)"><g><g><path d="M58.595,0.337c-2.581,-0.186 -5.172,-0.186 -7.753,-0l-2.786,10.187c-3.209,0.49 -6.354,1.333 -9.378,2.513l-7.506,-7.43c-2.328,1.13 -4.572,2.425 -6.714,3.876l2.681,10.216c-2.534,2.028 -4.836,4.331 -6.865,6.865l-10.215,-2.681c-1.451,2.142 -2.747,4.386 -3.876,6.714l7.429,7.506c-1.18,3.024 -2.022,6.169 -2.513,9.378l-10.187,2.785c-0.186,2.581 -0.186,5.172 0,7.753l10.187,2.786c0.491,3.209 1.333,6.354 2.513,9.378l-7.429,7.506c1.129,2.328 2.425,4.571 3.876,6.714l10.215,-2.682c2.029,2.534 4.331,4.837 6.865,6.866l-2.681,10.215c2.142,1.451 4.386,2.747 6.714,3.876l7.506,-7.429c3.024,1.18 6.169,2.022 9.378,2.512l2.786,10.188c2.581,0.185 5.172,0.185 7.753,-0l2.785,-10.188c3.209,-0.49 6.354,-1.332 9.378,-2.512l7.506,7.429c2.328,-1.129 4.572,-2.425 6.714,-3.876l-2.681,-10.215c2.534,-2.029 4.836,-4.332 6.865,-6.866l10.215,2.682c1.452,-2.143 2.747,-4.386 3.877,-6.714l-7.43,-7.506c1.18,-3.024 2.023,-6.169 2.513,-9.378l10.187,-2.786c0.186,-2.581 0.186,-5.172 0,-7.753l-10.187,-2.785c-0.49,-3.209 -1.333,-6.354 -2.513,-9.378l7.43,-7.506c-1.13,-2.328 -2.425,-4.572 -3.877,-6.714l-10.215,2.681c-2.029,-2.534 -4.331,-4.837 -6.865,-6.865l2.681,-10.216c-2.142,-1.451 -4.386,-2.746 -6.714,-3.876l-7.506,7.43c-3.024,-1.18 -6.169,-2.023 -9.378,-2.513l-2.785,-10.187Zm-3.877,29.3c13.525,0 24.505,10.981 24.505,24.506c0,13.524 -10.98,24.505 -24.505,24.505c-13.524,-0 -24.505,-10.981 -24.505,-24.505c0,-13.525 10.981,-24.506 24.505,-24.506Z" style="fill:#474848;"/><circle cx="54.761" cy="54.185" r="24.548" style="fill:#f47e3f;"/></g><g><path d="M136.067,58.098c-2.598,-0.249 -5.213,-0.249 -7.81,-0l-2.362,10.316c-2.989,0.614 -5.872,1.663 -8.557,3.114l-8.44,-6.384c-2.15,1.479 -4.153,3.16 -5.983,5.02l4.822,9.421c-1.896,2.391 -3.43,5.048 -4.553,7.886l-10.57,0.534c-0.695,2.515 -1.149,5.09 -1.356,7.691l9.75,4.118c0.085,3.05 0.618,6.072 1.581,8.967l-7.753,7.204c1.083,2.373 2.391,4.638 3.904,6.763l10.116,-3.112c2.026,2.282 4.376,4.254 6.975,5.853l-1.309,10.502c2.356,1.122 4.813,2.016 7.339,2.671l5.748,-8.886c3.019,0.445 6.087,0.445 9.106,-0l5.748,8.886c2.525,-0.655 4.983,-1.549 7.338,-2.671l-1.309,-10.502c2.6,-1.599 4.95,-3.571 6.976,-5.853l10.115,3.112c1.514,-2.125 2.821,-4.39 3.905,-6.763l-7.753,-7.204c0.963,-2.895 1.496,-5.917 1.581,-8.967l9.749,-4.118c-0.206,-2.601 -0.66,-5.176 -1.356,-7.691l-10.57,-0.534c-1.123,-2.838 -2.657,-5.495 -4.552,-7.886l4.821,-9.421c-1.83,-1.86 -3.833,-3.541 -5.982,-5.02l-8.441,6.384c-2.684,-1.451 -5.567,-2.5 -8.556,-3.114l-2.362,-10.316Zm-3.905,26.686c7.815,-0 14.16,6.345 14.16,14.16c-0,7.815 -6.345,14.16 -14.16,14.16c-7.815,-0 -14.16,-6.345 -14.16,-14.16c-0,-7.815 6.345,-14.16 14.16,-14.16Z" style="fill:#474848;"/><circle cx="132.162" cy="98.944" r="14.16" style="fill:#f47e3f;"/></g><g><path d="M70.023,101.583c-2.14,-0.363 -4.316,-0.467 -6.482,-0.309l-2.121,8.013c-2.384,0.515 -4.65,1.476 -6.678,2.833l-7.236,-4.043c-1.618,1.447 -3.056,3.084 -4.283,4.875l4.943,6.654c-1.084,2.186 -1.746,4.557 -1.949,6.988l-7.673,3.136c0.123,2.168 0.506,4.313 1.142,6.389l8.284,0.284c1.033,2.211 2.474,4.206 4.248,5.881l-2.332,7.954c1.771,1.256 3.687,2.293 5.706,3.09l5.388,-6.299c2.372,0.571 4.831,0.688 7.246,0.345l4.765,6.783c2.086,-0.602 4.092,-1.453 5.974,-2.535l-1.566,-8.139c1.926,-1.499 3.55,-3.348 4.788,-5.451l8.274,0.504c0.83,-2.006 1.415,-4.105 1.743,-6.251l-7.34,-3.851c0.028,-2.439 -0.405,-4.862 -1.276,-7.141l5.552,-6.155c-1.051,-1.9 -2.327,-3.666 -3.8,-5.26l-7.587,3.338c-1.89,-1.544 -4.054,-2.716 -6.38,-3.455l-1.35,-8.178Zm-4.06,17.052c5.284,0.251 9.37,4.745 9.118,10.029c-0.252,5.284 -4.746,9.37 -10.029,9.118c-5.284,-0.252 -9.37,-4.746 -9.118,-10.029c0.251,-5.284 4.745,-9.37 10.029,-9.118Z" style="fill:#474848;"/><circle cx="65.507" cy="128.208" r="9.584" style="fill:#f47e3f;"/></g></g></g></svg>