<?xml version="1.0" encoding="UTF-8" standalone="no"?>
<!DOCTYPE svg PUBLIC "-//W3C//DTD SVG 1.1//EN" "http://www.w3.org/Graphics/SVG/1.1/DTD/svg11.dtd">
<svg width="100%" height="100%" viewBox="0 0 497 126" version="1.1" xmlns="http://www.w3.org/2000/svg" xmlns:xlink="http://www.w3.org/1999/xlink" xml:space="preserve" xmlns:serif="http://www.serif.com/" style="fill-rule:evenodd;clip-rule:evenodd;stroke-linejoin:round;stroke-miterlimit:2;">
    <rect id="Artboard1" x="0" y="0" width="496.4" height="125.6" style="fill:none;"/>
    <clipPath id="_clip1">
        <rect id="Artboard11" serif:id="Artboard1" x="0" y="0" width="496.4" height="125.6"/>
    </clipPath>
    <g clip-path="url(#_clip1)">
        <g>
            <g>
                <path d="M159.5,99.5L165.7,85.1C172.4,90.1 181.3,92.7 190.1,92.7C196.6,92.7 200.7,90.2 200.7,86.4C200.6,75.8 161.8,84.1 161.5,57.5C161.4,44 173.4,33.6 190.4,33.6C200.5,33.6 210.6,36.1 217.8,41.8L212,56.5C205.4,52.3 197.2,49.3 189.4,49.3C184.1,49.3 180.6,51.8 180.6,55C180.7,65.4 219.8,59.7 220.2,85.1C220.2,98.9 208.5,108.6 191.7,108.6C179.4,108.6 168.1,105.7 159.5,99.5" style="fill-rule:nonzero;"/>
                <path d="M397.4,79.9C394.3,85.3 388.5,89 381.8,89C371.9,89 363.9,81 363.9,71.1C363.9,61.2 371.9,53.2 381.8,53.2C388.5,53.2 394.3,56.9 397.4,62.3L414.5,52.8C408.1,41.4 395.8,33.6 381.8,33.6C361.1,33.6 344.3,50.4 344.3,71.1C344.3,91.8 361.1,108.6 381.8,108.6C395.9,108.6 408.1,100.9 414.5,89.4L397.4,79.9Z" style="fill-rule:nonzero;"/>
                <rect x="228.8" y="2.5" width="21.4" height="104.7"/>
                <path d="M422.9,2.5L422.9,107.2L444.3,107.2L444.3,75.8L469.7,107.2L497.1,107.2L464.8,69.9L494.7,35.1L468.5,35.1L444.3,64L444.3,2.5L422.9,2.5Z" style="fill-rule:nonzero;"/>
                <path d="M313.8,80.1C310.7,85.2 304.3,89 297.1,89C287.2,89 279.2,81 279.2,71.1C279.2,61.2 287.2,53.2 297.1,53.2C304.3,53.2 310.7,57.2 313.8,62.4L313.8,80.1ZM313.8,35.1L313.8,43.6C310.3,37.7 301.6,33.6 292.5,33.6C273.7,33.6 258.9,50.2 258.9,71C258.9,91.8 273.7,108.6 292.5,108.6C301.6,108.6 310.3,104.5 313.8,98.6L313.8,107.1L335.2,107.1L335.2,35.1L313.8,35.1Z" style="fill-rule:nonzero;"/>
            </g>
            <g>
                <g>
                    <path d="M27.2,80C27.2,87.3 21.3,93.2 14,93.2C6.7,93.2 0.8,87.3 0.8,80C0.8,72.7 6.7,66.8 14,66.8L27.2,66.8L27.2,80Z" style="fill:rgb(224,30,90);fill-rule:nonzero;"/>
                    <path d="M33.8,80C33.8,72.7 39.7,66.8 47,66.8C54.3,66.8 60.2,72.7 60.2,80L60.2,113C60.2,120.3 54.3,126.2 47,126.2C39.7,126.2 33.8,120.3 33.8,113L33.8,80Z" style="fill:rgb(224,30,90);fill-rule:nonzero;"/>
                </g>
                <g>
                    <path d="M47,27C39.7,27 33.8,21.1 33.8,13.8C33.8,6.5 39.7,0.6 47,0.6C54.3,0.6 60.2,6.5 60.2,13.8L60.2,27L47,27Z" style="fill:rgb(54,197,240);fill-rule:nonzero;"/>
                    <path d="M47,33.7C54.3,33.7 60.2,39.6 60.2,46.9C60.2,54.2 54.3,60.1 47,60.1L13.9,60.1C6.6,60.1 0.7,54.2 0.7,46.9C0.7,39.6 6.6,33.7 13.9,33.7L47,33.7Z" style="fill:rgb(54,197,240);fill-rule:nonzero;"/>
                </g>
                <g>
                    <path d="M99.9,46.9C99.9,39.6 105.8,33.7 113.1,33.7C120.4,33.7 126.3,39.6 126.3,46.9C126.3,54.2 120.4,60.1 113.1,60.1L99.9,60.1L99.9,46.9Z" style="fill:rgb(46,182,125);fill-rule:nonzero;"/>
                    <path d="M93.3,46.9C93.3,54.2 87.4,60.1 80.1,60.1C72.8,60.1 66.9,54.2 66.9,46.9L66.9,13.8C66.9,6.5 72.8,0.6 80.1,0.6C87.4,0.6 93.3,6.5 93.3,13.8L93.3,46.9Z" style="fill:rgb(46,182,125);fill-rule:nonzero;"/>
                </g>
                <g>
                    <path d="M80.1,99.8C87.4,99.8 93.3,105.7 93.3,113C93.3,120.3 87.4,126.2 80.1,126.2C72.8,126.2 66.9,120.3 66.9,113L66.9,99.8L80.1,99.8Z" style="fill:rgb(236,178,46);fill-rule:nonzero;"/>
                    <path d="M80.1,93.2C72.8,93.2 66.9,87.3 66.9,80C66.9,72.7 72.8,66.8 80.1,66.8L113.2,66.8C120.5,66.8 126.4,72.7 126.4,80C126.4,87.3 120.5,93.2 113.2,93.2L80.1,93.2Z" style="fill:rgb(236,178,46);fill-rule:nonzero;"/>
                </g>
            </g>
        </g>
    </g>
</svg>
