<?xml version="1.0" encoding="UTF-8" standalone="no"?>
<!DOCTYPE svg PUBLIC "-//W3C//DTD SVG 1.1//EN" "http://www.w3.org/Graphics/SVG/1.1/DTD/svg11.dtd">
<svg width="100%" height="100%" viewBox="0 0 360 150" version="1.1" xmlns="http://www.w3.org/2000/svg" xmlns:xlink="http://www.w3.org/1999/xlink" xml:space="preserve" xmlns:serif="http://www.serif.com/" style="fill-rule:evenodd;clip-rule:evenodd;stroke-linejoin:round;stroke-miterlimit:2;">
    <rect id="Artboard1" x="0" y="0" width="360" height="149.8" style="fill:none;"/>
    <g id="Artboard11" serif:id="Artboard1">
        <path d="M360,77.4C360,51.8 347.6,31.6 323.9,31.6C300.1,31.6 285.7,51.8 285.7,77.2C285.7,107.3 302.7,122.5 327.1,122.5C339,122.5 348,119.8 354.8,116L354.8,96C348,99.4 340.2,101.5 330.3,101.5C320.6,101.5 312,98.1 310.9,86.3L359.8,86.3C359.8,85 360,79.8 360,77.4ZM310.6,67.9C310.6,56.6 317.5,51.9 323.8,51.9C329.9,51.9 336.4,56.6 336.4,67.9L310.6,67.9ZM247.1,31.6C237.3,31.6 231,36.2 227.5,39.4L226.2,33.2L204.2,33.2L204.2,149.8L229.2,144.5L229.3,116.2C232.9,118.8 238.2,122.5 247,122.5C264.9,122.5 281.2,108.1 281.2,76.4C281.1,47.4 264.6,31.6 247.1,31.6ZM241.1,100.5C235.2,100.5 231.7,98.4 229.3,95.8L229.2,58.7C231.8,55.8 235.4,53.8 241.1,53.8C250.2,53.8 256.5,64 256.5,77.1C256.5,90.5 250.3,100.5 241.1,100.5ZM169.8,25.7L194.9,20.3L194.9,0L169.8,5.3L169.8,25.7ZM169.8,33.3L194.9,33.3L194.9,120.8L169.8,120.8L169.8,33.3ZM142.9,40.7L141.3,33.3L119.7,33.3L119.7,120.8L144.7,120.8L144.7,61.5C150.6,53.8 160.6,55.2 163.7,56.3L163.7,33.3C160.5,32.1 148.8,29.9 142.9,40.7ZM92.9,11.6L68.5,16.8L68.4,96.9C68.4,111.7 79.5,122.6 94.3,122.6C102.5,122.6 108.5,121.1 111.8,119.3L111.8,99C108.6,100.3 92.8,104.9 92.8,90.1L92.8,54.6L111.8,54.6L111.8,33.3L92.8,33.3L92.9,11.6ZM25.3,58.7C25.3,54.8 28.5,53.3 33.8,53.3C41.4,53.3 51,55.6 58.6,59.7L58.6,36.2C50.3,32.9 42.1,31.6 33.8,31.6C13.5,31.6 0,42.2 0,59.9C0,87.5 38,83.1 38,95C38,99.6 34,101.1 28.4,101.1C20.1,101.1 9.5,97.7 1.1,93.1L1.1,116.9C10.4,120.9 19.8,122.6 28.4,122.6C49.2,122.6 63.5,112.3 63.5,94.4C63.4,64.6 25.3,69.9 25.3,58.7Z" style="fill:rgb(99,91,255);"/>
    </g>
</svg>
