<svg xmlns="http://www.w3.org/2000/svg" viewBox="0 0 229.188 40"><g data-name="Group 331"><g data-name="Group 327"><path data-name="Path 235" d="M1.716 17.48A12.8 12.8 0 0 1 6.4 0l6.631 11.486 9.364 16.219a6.4 6.4 0 0 1-2.342 8.74 6.4 6.4 0 0 1-8.74-2.342L2.106 18.156Z" fill="#0078ff"></path><path data-name="Path 236" d="M37.072 22.519A12.8 12.8 0 0 1 32.388 40l-6.632-11.486-9.364-16.219a6.4 6.4 0 0 1 2.342-8.74 6.4 6.4 0 0 1 8.74 2.342l9.207 15.947Z" fill="#23d3d3"></path></g><g data-name="Group 330" fill="#003152"><g data-name="Group 328"><path data-name="Path 237" d="M42.427 11.817h5.038l2.915 7.731 4.214-8.682 4.278 8.713 3.01-7.762h5.006l-7.477 18.092-4.816-9.252-4.753 9.252Z"></path><path data-name="Path 238" d="M84.253 18.883v10.3h-4.816v-10.3c0-2.693-1.553-3.517-3.391-3.517-1.3 0-3.422.792-3.327 4.594v9.22h-4.717V5.195h4.721v8.111a7.06 7.06 0 0 1 4.658-1.87c5.035 0 6.872 2.916 6.872 7.447Z"></path><path data-name="Path 239" d="M89.894 10.296a2.618 2.618 0 0 1-2.662-2.566 2.612 2.612 0 0 1 2.662-2.535 2.577 2.577 0 0 1 2.6 2.535 2.583 2.583 0 0 1-2.6 2.566Zm-2.376 1.489h4.753v17.4h-4.753Z"></path><path data-name="Path 240" d="M100.064 13.496a7.062 7.062 0 0 1 5.292-2.123c5.513 0 8.745 4.088 8.745 9.094s-3.232 9.093-8.745 9.093a6.587 6.587 0 0 1-5.292-2.186v7.415h-4.689V11.754h4.689Zm4.594 11.914a4.582 4.582 0 0 0 4.784-4.943 4.658 4.658 0 0 0-4.784-4.911c-2.947 0-4.784 1.869-4.784 4.911a4.6 4.6 0 0 0 4.785 4.943Z"></path></g><g data-name="Group 329"><path data-name="Path 241" d="M133.395 27.437a7.064 7.064 0 0 1-5.291 2.123c-5.514 0-8.745-4.087-8.745-9.093s3.232-9.094 8.745-9.094a6.586 6.586 0 0 1 5.291 2.186v-1.806h4.689V29.18h-4.689Zm-4.594-11.913a4.582 4.582 0 0 0-4.784 4.943 4.658 4.658 0 0 0 4.784 4.911c2.947 0 4.784-1.87 4.784-4.911a4.6 4.6 0 0 0-4.781-4.943Z"></path><path data-name="Path 242" d="M145.852 21.481v7.7h-4.722V11.754h4.722v2.313a7.41 7.41 0 0 1 5.957-2.63v4.626c-1.141-.095-5.957.127-5.957 5.418Z"></path><path data-name="Path 243" d="M151.842 20.499a9.29 9.29 0 0 1 9.442-9.063 9.346 9.346 0 0 1 9.506 9.063 9.33 9.33 0 0 1-9.506 9.093 9.274 9.274 0 0 1-9.442-9.093Zm4.657 0a4.749 4.749 0 0 0 4.784 4.975 4.805 4.805 0 0 0 4.785-4.975 4.77 4.77 0 0 0-4.785-4.911 4.809 4.809 0 0 0-4.784 4.911Z"></path><path data-name="Path 244" d="M172.723 22.115v-10.3h4.785v10.3c0 2.661 1.584 3.485 3.39 3.485 1.33 0 3.453-.792 3.327-4.562v-9.22h4.753v17.364h-4.749v-1.489a6.477 6.477 0 0 1-4.657 1.869c-5.011-.001-6.849-2.948-6.849-7.447Z"></path><path data-name="Path 245" d="M208.243 18.882v10.3h-4.848v-10.3c0-2.693-1.521-3.517-3.359-3.517-1.3 0-3.422.792-3.327 4.594v9.22h-4.724V11.753h4.721v1.553a7.058 7.058 0 0 1 4.657-1.87c5.042.003 6.88 2.916 6.88 7.446Z"></path><path data-name="Path 246" d="M224.498 27.437a7.064 7.064 0 0 1-5.291 2.123c-5.513 0-8.745-4.087-8.745-9.093s3.232-9.094 8.745-9.094a6.585 6.585 0 0 1 5.291 2.186V5.226h4.689V29.18h-4.689Zm-4.594-11.913a4.582 4.582 0 0 0-4.784 4.943 4.659 4.659 0 0 0 4.784 4.911c2.947 0 4.785-1.87 4.785-4.911a4.6 4.6 0 0 0-4.786-4.943Z"></path></g></g></g></svg>