<?xml version="1.0" encoding="UTF-8" standalone="no"?>
<!DOCTYPE svg PUBLIC "-//W3C//DTD SVG 1.1//EN" "http://www.w3.org/Graphics/SVG/1.1/DTD/svg11.dtd">
<svg width="100%" height="100%" viewBox="0 0 3948 152" version="1.1" xmlns="http://www.w3.org/2000/svg" xmlns:xlink="http://www.w3.org/1999/xlink" xml:space="preserve" xmlns:serif="http://www.serif.com/" style="fill-rule:evenodd;clip-rule:evenodd;stroke-linejoin:round;stroke-miterlimit:2;">
    <g transform="matrix(1,0,0,1,-18,-1417)">
        <g transform="matrix(1.00021,0,0,1.00612,17.4515,-8.86531)">
            <rect id="Divider_Orange" x="0.548" y="1417.2" width="3947.17" height="151.076" style="fill:none;"/>
            <g id="Divider_Orange1" serif:id="Divider_Orange">
                <g id="Divider-Gray" serif:id="Divider Gray" transform="matrix(0.999789,0.00227213,-0.00420211,0.993911,6.75557,256.666)">
                    <g transform="matrix(1,0,0,1,0,-257.654)">
                        <path d="M3815.74,1521.46L-0.206,1501.23L3815.73,1481C3818.86,1471.05 3824.37,1461.68 3832.24,1453.81C3858.4,1427.65 3900.96,1427.65 3927.11,1453.81C3953.26,1479.96 3953.26,1522.52 3927.11,1548.67C3907.31,1568.47 3878.1,1573.25 3853.69,1563.11C3845.89,1559.85 3838.59,1555.02 3832.24,1548.67C3827.91,1544.34 3824.32,1539.59 3821.43,1534.48C3819.05,1530.32 3817.16,1525.95 3815.74,1521.46ZM3837.85,1510.56C3838.06,1511.51 3838.3,1512.41 3838.56,1513.32C3838.64,1513.57 3838.68,1513.78 3838.76,1514.02C3839.14,1515.14 3839.5,1516.25 3839.95,1517.36C3840.4,1518.48 3840.86,1519.59 3841.44,1520.66C3841.61,1520.99 3841.73,1521.29 3841.93,1521.57C3842.55,1522.68 3843.17,1523.8 3843.88,1524.83C3844.65,1526.03 3845.49,1527.18 3846.43,1528.3C3847.34,1529.45 3848.32,1530.52 3849.36,1531.56C3850.35,1532.54 3851.38,1533.49 3852.46,1534.31C3852.57,1534.44 3852.74,1534.61 3852.91,1534.69C3853.73,1535.43 3854.6,1536.05 3855.5,1536.62C3857.03,1537.74 3858.72,1538.69 3860.38,1539.51C3861.41,1540.05 3862.47,1540.54 3863.55,1540.95C3864.83,1541.5 3866.15,1541.99 3867.51,1542.36C3868.58,1542.69 3869.66,1542.94 3870.73,1543.19C3872.41,1543.56 3874.15,1543.8 3875.88,1543.97C3877.16,1544.09 3878.44,1544.13 3879.68,1544.13C3881.04,1544.17 3882.4,1544.05 3883.76,1543.92C3886.68,1543.64 3889.53,1543.1 3892.34,1542.19C3893.45,1541.82 3894.56,1541.45 3895.64,1541.04C3897.17,1540.42 3898.69,1539.72 3900.18,1538.89C3901,1538.48 3901.78,1538.03 3902.53,1537.45C3902.94,1537.28 3903.31,1537 3903.68,1536.71C3904.67,1536.13 3905.62,1535.43 3906.49,1534.64C3906.69,1534.52 3906.94,1534.36 3907.11,1534.11C3908.14,1533.33 3909.08,1532.46 3909.99,1531.55C3926.74,1514.81 3926.74,1487.66 3909.99,1470.92C3893.24,1454.17 3866.1,1454.17 3849.36,1470.92C3848.41,1471.87 3847.5,1472.86 3846.68,1473.93C3846.51,1474.1 3846.39,1474.22 3846.26,1474.43C3845.44,1475.42 3844.65,1476.45 3843.95,1477.48C3843.04,1478.88 3842.18,1480.33 3841.44,1481.89C3840.86,1482.97 3840.37,1484.04 3839.95,1485.11C3839.42,1486.39 3838.92,1487.71 3838.56,1489.07C3838.18,1490.35 3837.89,1491.63 3837.61,1492.99L3837.56,1493.03C3837.31,1494.18 3837.16,1495.34 3837.07,1496.49C3836.98,1496.99 3836.98,1497.48 3836.95,1498.02C3836.86,1498.85 3836.82,1499.63 3836.82,1500.46C3836.73,1503.01 3836.95,1505.53 3837.36,1508.09C3837.48,1508.95 3837.64,1509.78 3837.85,1510.56Z" style="fill:rgb(71,72,72);"/>
                    </g>
                    <g transform="matrix(1,0,0,1,0,-257.654)">
                        <path d="M3805.02,1510.11L-0.452,1501.28L3801.41,1469.79C3804.1,1457.5 3810.26,1445.84 3819.88,1436.39C3846.26,1410.47 3888.82,1410.85 3914.74,1437.23C3940.66,1463.61 3940.28,1506.17 3913.9,1532.09C3893.93,1551.71 3864.68,1556.24 3840.36,1545.88C3832.59,1542.55 3825.33,1537.66 3819.04,1531.25C3814.75,1526.88 3811.2,1522.11 3808.36,1516.97C3807.11,1514.73 3805.99,1512.44 3805.02,1510.11ZM3824.98,1493.19C3825.19,1494.14 3825.42,1495.05 3825.66,1495.96C3825.74,1496.21 3825.78,1496.42 3825.86,1496.66C3826.23,1497.78 3826.59,1498.9 3827.03,1500.01C3827.47,1501.13 3827.92,1502.25 3828.49,1503.33C3828.65,1503.66 3828.77,1503.95 3828.97,1504.24C3829.58,1505.36 3830.19,1506.48 3830.89,1507.52C3831.65,1508.72 3832.47,1509.88 3833.41,1511.01C3834.3,1512.16 3835.28,1513.25 3836.31,1514.29C3837.29,1515.29 3838.32,1516.24 3839.38,1517.08C3839.49,1517.2 3839.66,1517.37 3839.83,1517.45C3840.64,1518.2 3841.51,1518.83 3842.41,1519.41C3843.92,1520.54 3845.61,1521.51 3847.25,1522.34C3848.28,1522.89 3849.34,1523.39 3850.42,1523.81C3851.68,1524.37 3853,1524.87 3854.36,1525.25C3855.43,1525.59 3856.5,1525.85 3857.57,1526.11C3859.25,1526.49 3860.99,1526.75 3862.72,1526.93C3863.99,1527.07 3865.28,1527.12 3866.51,1527.13C3867.87,1527.19 3869.23,1527.07 3870.59,1526.96C3873.52,1526.7 3876.38,1526.19 3879.19,1525.31C3880.3,1524.94 3881.42,1524.59 3882.5,1524.18C3884.03,1523.57 3885.56,1522.89 3887.06,1522.08C3887.88,1521.67 3888.67,1521.22 3889.42,1520.65C3889.83,1520.49 3890.21,1520.21 3890.58,1519.92C3891.58,1519.35 3892.53,1518.66 3893.41,1517.88C3893.61,1517.76 3893.86,1517.6 3894.03,1517.35C3895.07,1516.58 3896.02,1515.72 3896.93,1514.82C3913.83,1498.23 3914.07,1471.09 3897.47,1454.19C3880.87,1437.3 3853.74,1437.06 3836.85,1453.66C3835.88,1454.6 3834.97,1455.58 3834.14,1456.64C3833.97,1456.81 3833.85,1456.93 3833.72,1457.14C3832.89,1458.12 3832.09,1459.15 3831.37,1460.17C3830.46,1461.56 3829.58,1463 3828.83,1464.56C3828.24,1465.63 3827.73,1466.69 3827.31,1467.77C3826.76,1469.04 3826.26,1470.35 3825.88,1471.71C3825.49,1472.98 3825.2,1474.26 3824.9,1475.62L3824.85,1475.66C3824.59,1476.81 3824.43,1477.97 3824.33,1479.12C3824.24,1479.61 3824.23,1480.11 3824.19,1480.65C3824.1,1481.47 3824.05,1482.25 3824.04,1483.08C3823.93,1485.63 3824.12,1488.15 3824.52,1490.72C3824.63,1491.58 3824.78,1492.41 3824.98,1493.19Z" style="fill:rgb(244,126,63);"/>
                    </g>
                </g>
            </g>
        </g>
    </g>
</svg>
