<?xml version="1.0" encoding="UTF-8" standalone="no"?>
<!DOCTYPE svg PUBLIC "-//W3C//DTD SVG 1.1//EN" "http://www.w3.org/Graphics/SVG/1.1/DTD/svg11.dtd">
<svg width="100%" height="100%" viewBox="0 0 3947 152" version="1.1" xmlns="http://www.w3.org/2000/svg" xmlns:xlink="http://www.w3.org/1999/xlink" xml:space="preserve" xmlns:serif="http://www.serif.com/" style="fill-rule:evenodd;clip-rule:evenodd;stroke-linejoin:round;stroke-miterlimit:2;">
    <g transform="matrix(1,0,0,1,-18,-1159)">
        <g transform="matrix(0.999957,0,0,1.00612,18.4516,-7.63564)">
            <rect id="Divider_Gray" x="-0.452" y="1159.54" width="3947.17" height="151.076" style="fill:none;"/>
            <g id="Divider_Gray1" serif:id="Divider_Gray">
                <g id="Divider-Orange" serif:id="Divider Orange" transform="matrix(1.00004,0.00206562,-0.00403975,0.993912,5.55273,-0.323527)">
                    <g transform="matrix(0.999999,0.0011964,-0.0011964,0.999999,1.40208,-0.771089)">
                        <path d="M3805.02,1252.45L-0.897,1243.78L3801.41,1212.13C3804.1,1199.85 3810.26,1188.19 3819.88,1178.74C3846.26,1152.82 3888.82,1153.2 3914.74,1179.58C3940.66,1205.96 3940.28,1248.52 3913.9,1274.43C3893.93,1294.06 3864.68,1298.58 3840.36,1288.22C3832.59,1284.9 3825.33,1280 3819.04,1273.59C3814.75,1269.23 3811.2,1264.45 3808.36,1259.32C3807.11,1257.08 3805.99,1254.79 3805.02,1252.45ZM3824.98,1235.54C3825.19,1236.49 3825.42,1237.4 3825.66,1238.31C3825.74,1238.56 3825.78,1238.77 3825.86,1239.01C3826.23,1240.13 3826.59,1241.24 3827.03,1242.36C3827.47,1243.48 3827.92,1244.6 3828.49,1245.67C3828.65,1246 3828.77,1246.3 3828.97,1246.59C3829.58,1247.7 3830.19,1248.83 3830.89,1249.86C3831.65,1251.07 3832.47,1252.23 3833.41,1253.35C3834.3,1254.51 3835.28,1255.59 3836.31,1256.64C3837.29,1257.63 3838.32,1258.59 3839.38,1259.42C3839.49,1259.55 3839.66,1259.72 3839.83,1259.8C3840.64,1260.55 3841.51,1261.17 3842.41,1261.76C3843.92,1262.89 3845.61,1263.85 3847.25,1264.69C3848.28,1265.24 3849.34,1265.74 3850.42,1266.16C3851.68,1266.71 3853,1267.22 3854.36,1267.6C3855.43,1267.94 3856.5,1268.2 3857.57,1268.45C3859.25,1268.84 3860.99,1269.1 3862.72,1269.28C3863.99,1269.42 3865.28,1269.47 3866.51,1269.48C3867.87,1269.53 3869.23,1269.42 3870.59,1269.31C3873.52,1269.05 3876.38,1268.54 3879.19,1267.65C3880.3,1267.29 3881.42,1266.93 3882.5,1266.53C3884.03,1265.92 3885.56,1265.23 3887.06,1264.42C3887.88,1264.02 3888.67,1263.57 3889.42,1263C3889.83,1262.84 3890.21,1262.55 3890.58,1262.27C3891.58,1261.7 3892.53,1261.01 3893.41,1260.23C3893.61,1260.11 3893.86,1259.95 3894.03,1259.7C3895.07,1258.93 3896.02,1258.07 3896.93,1257.17C3913.83,1240.57 3914.07,1213.43 3897.47,1196.54C3880.87,1179.65 3853.74,1179.41 3836.85,1196.01C3835.88,1196.95 3834.97,1197.92 3834.14,1198.99C3833.97,1199.16 3833.85,1199.27 3833.72,1199.49C3832.89,1200.46 3832.09,1201.49 3831.37,1202.52C3830.46,1203.91 3829.58,1205.35 3828.83,1206.9C3828.24,1207.97 3827.73,1209.04 3827.31,1210.11C3826.76,1211.38 3826.26,1212.7 3825.88,1214.06C3825.49,1215.33 3825.2,1216.61 3824.9,1217.96L3824.85,1218.01C3824.59,1219.16 3824.43,1220.31 3824.33,1221.47C3824.24,1221.96 3824.23,1222.45 3824.19,1222.99C3824.1,1223.82 3824.05,1224.6 3824.04,1225.43C3823.93,1227.98 3824.12,1230.5 3824.52,1233.06C3824.63,1233.92 3824.78,1234.76 3824.98,1235.54Z" style="fill:rgb(244,126,63);"/>
                    </g>
                    <g transform="matrix(0.999818,0,0,1,-3.75941e-05,-0.618659)">
                        <path d="M3815.74,1263.81L-0.983,1243.62L3815.73,1223.35C3818.86,1213.39 3824.37,1204.03 3832.24,1196.15C3858.4,1170 3900.96,1170 3927.11,1196.15C3953.26,1222.3 3953.26,1264.87 3927.11,1291.01C3907.31,1310.81 3878.1,1315.6 3853.69,1305.45C3845.89,1302.19 3838.59,1297.37 3832.24,1291.01C3827.91,1286.68 3824.32,1281.94 3821.43,1276.83C3819.05,1272.66 3817.16,1268.3 3815.74,1263.81ZM3837.85,1252.9C3838.06,1253.85 3838.3,1254.76 3838.56,1255.67C3838.64,1255.92 3838.68,1256.12 3838.76,1256.37C3839.14,1257.49 3839.5,1258.6 3839.95,1259.71C3840.4,1260.82 3840.86,1261.94 3841.44,1263.01C3841.61,1263.34 3841.73,1263.63 3841.93,1263.92C3842.55,1265.03 3843.17,1266.15 3843.88,1267.18C3844.65,1268.37 3845.49,1269.53 3846.43,1270.64C3847.34,1271.79 3848.32,1272.87 3849.36,1273.9C3850.35,1274.89 3851.38,1275.84 3852.46,1276.66C3852.57,1276.79 3852.74,1276.95 3852.91,1277.04C3853.73,1277.78 3854.6,1278.39 3855.5,1278.97C3857.03,1280.09 3858.72,1281.04 3860.38,1281.86C3861.41,1282.39 3862.47,1282.89 3863.55,1283.3C3864.83,1283.84 3866.15,1284.34 3867.51,1284.7C3868.58,1285.03 3869.66,1285.28 3870.73,1285.53C3872.41,1285.9 3874.15,1286.14 3875.88,1286.31C3877.16,1286.44 3878.44,1286.48 3879.68,1286.48C3881.04,1286.52 3882.4,1286.39 3883.76,1286.27C3886.68,1285.98 3889.53,1285.45 3892.34,1284.54C3893.45,1284.17 3894.56,1283.8 3895.64,1283.39C3897.17,1282.76 3898.69,1282.06 3900.18,1281.24C3901,1280.83 3901.78,1280.37 3902.53,1279.79C3902.94,1279.63 3903.31,1279.34 3903.68,1279.06C3904.67,1278.48 3905.62,1277.78 3906.49,1276.99C3906.69,1276.87 3906.94,1276.7 3907.11,1276.45C3908.14,1275.67 3909.08,1274.81 3909.99,1273.9C3926.74,1257.15 3926.74,1230.01 3909.99,1213.27C3893.24,1196.52 3866.1,1196.52 3849.36,1213.27C3848.41,1214.22 3847.5,1215.2 3846.68,1216.28C3846.51,1216.44 3846.39,1216.56 3846.26,1216.78C3845.44,1217.76 3844.65,1218.8 3843.95,1219.83C3843.04,1221.23 3842.18,1222.67 3841.44,1224.24C3840.86,1225.31 3840.37,1226.38 3839.95,1227.46C3839.42,1228.74 3838.92,1230.06 3838.56,1231.41C3838.18,1232.69 3837.89,1233.97 3837.61,1235.33L3837.56,1235.38C3837.31,1236.53 3837.16,1237.69 3837.07,1238.84C3836.98,1239.33 3836.98,1239.83 3836.95,1240.37C3836.86,1241.19 3836.82,1241.97 3836.82,1242.8C3836.73,1245.36 3836.95,1247.88 3837.36,1250.43C3837.48,1251.3 3837.64,1252.12 3837.85,1252.9Z" style="fill:rgb(71,72,72);"/>
                    </g>
                </g>
            </g>
        </g>
    </g>
</svg>
