<?xml version="1.0" encoding="UTF-8" standalone="no"?>
<!DOCTYPE svg PUBLIC "-//W3C//DTD SVG 1.1//EN" "http://www.w3.org/Graphics/SVG/1.1/DTD/svg11.dtd">
<svg width="100%" height="100%" viewBox="0 0 3860 148" version="1.1" xmlns="http://www.w3.org/2000/svg" xmlns:xlink="http://www.w3.org/1999/xlink" xml:space="preserve" xmlns:serif="http://www.serif.com/" style="fill-rule:evenodd;clip-rule:evenodd;stroke-linejoin:round;stroke-miterlimit:2;">
    <g transform="matrix(1,0,0,1,-5,-2014)">
        <g transform="matrix(1.00022,0,0,1.00495,17.2395,-10.0752)">
            <rect id="Divider2_Orange" x="-12.237" y="2014.11" width="3859.17" height="147.271" style="fill:none;"/>
            <clipPath id="_clip1">
                <rect id="Divider2_Orange1" serif:id="Divider2_Orange" x="-12.237" y="2014.11" width="3859.17" height="147.271"/>
            </clipPath>
            <g clip-path="url(#_clip1)">
                <g transform="matrix(0.999784,0.00244423,-0.00496927,0.995065,11.1587,0.537727)">
                    <g transform="matrix(1,0,0,1,1,0)">
                        <path d="M3845.93,2161.38C3844.24,2160.83 3842.56,2160.21 3840.9,2159.52C3833.11,2156.27 3825.81,2151.44 3819.45,2145.09C3815.12,2140.76 3811.54,2136.01 3808.65,2130.9C3806.27,2126.74 3804.37,2122.37 3802.96,2117.88L-12.992,2097.65L3802.94,2077.42C3806.08,2067.46 3811.58,2058.1 3819.45,2050.23C3827.14,2042.54 3836.24,2037.12 3845.93,2033.95L3845.93,2060.24C3842.58,2062.12 3839.43,2064.49 3836.58,2067.34C3835.62,2068.29 3834.72,2069.28 3833.89,2070.35C3833.73,2070.52 3833.61,2070.64 3833.48,2070.85C3832.66,2071.84 3831.87,2072.87 3831.16,2073.9C3830.26,2075.3 3829.4,2076.74 3828.66,2078.31C3828.08,2079.39 3827.58,2080.46 3827.17,2081.53C3826.63,2082.81 3826.14,2084.13 3825.77,2085.49C3825.39,2086.77 3825.11,2088.05 3824.82,2089.41L3824.78,2089.45C3824.53,2090.6 3824.37,2091.76 3824.28,2092.91C3824.2,2093.41 3824.2,2093.9 3824.16,2094.44C3824.08,2095.26 3824.03,2096.05 3824.03,2096.88C3823.95,2099.43 3824.16,2101.95 3824.58,2104.51C3824.7,2105.37 3824.85,2106.2 3825.07,2106.98C3825.28,2107.93 3825.51,2108.83 3825.77,2109.74C3825.85,2109.99 3825.89,2110.2 3825.98,2110.44C3826.35,2111.56 3826.72,2112.67 3827.17,2113.78C3827.62,2114.9 3828.08,2116.01 3828.66,2117.08C3828.82,2117.41 3828.95,2117.7 3829.15,2117.99C3829.76,2119.1 3830.39,2120.22 3831.09,2121.25C3831.87,2122.45 3832.7,2123.6 3833.64,2124.72C3834.55,2125.87 3835.54,2126.94 3836.58,2127.97C3837.56,2128.96 3838.6,2129.91 3839.67,2130.73C3839.79,2130.86 3839.95,2131.03 3840.12,2131.11C3840.95,2131.85 3841.81,2132.47 3842.72,2133.04C3843.74,2133.79 3844.83,2134.46 3845.93,2135.06L3845.93,2161.38Z" style="fill:rgb(71,72,72);"/>
                    </g>
                    <g transform="matrix(1,0,0,1,1,0)">
                        <path d="M3845.93,2147.2C3839.66,2146.44 3833.47,2144.81 3827.57,2142.3C3819.81,2138.97 3812.55,2134.07 3806.25,2127.67C3801.96,2123.3 3798.41,2118.52 3795.57,2113.39C3794.32,2111.15 3793.21,2108.86 3792.23,2106.53L-13.237,2097.69L3788.62,2066.21C3791.31,2053.92 3797.47,2042.26 3807.09,2032.81C3818.04,2022.06 3831.76,2015.83 3845.93,2014.11L3845.93,2038.57C3837.94,2040.11 3830.3,2043.94 3824.06,2050.08C3823.1,2051.02 3822.18,2052 3821.35,2053.06C3821.18,2053.23 3821.06,2053.35 3820.93,2053.56C3820.1,2054.54 3819.3,2055.57 3818.59,2056.59C3817.67,2057.98 3816.8,2059.42 3816.05,2060.98C3815.46,2062.05 3814.95,2063.11 3814.53,2064.18C3813.98,2065.46 3813.47,2066.77 3813.09,2068.13C3812.7,2069.4 3812.41,2070.68 3812.11,2072.04L3812.07,2072.08C3811.81,2073.23 3811.64,2074.39 3811.54,2075.54C3811.45,2076.03 3811.45,2076.53 3811.41,2077.07C3811.32,2077.89 3811.27,2078.67 3811.26,2079.5C3811.15,2082.05 3811.34,2084.57 3811.73,2087.14C3811.85,2088 3811.99,2088.83 3812.2,2089.61C3812.4,2090.56 3812.63,2091.47 3812.88,2092.38C3812.96,2092.63 3813,2092.84 3813.08,2093.08C3813.44,2094.2 3813.8,2095.32 3814.24,2096.43C3814.68,2097.55 3815.13,2098.67 3815.7,2099.74C3815.86,2100.08 3815.99,2100.37 3816.18,2100.66C3816.79,2101.78 3817.4,2102.9 3818.1,2103.93C3818.86,2105.14 3819.69,2106.3 3820.62,2107.43C3821.52,2108.58 3822.49,2109.66 3823.53,2110.71C3824.5,2111.7 3825.53,2112.66 3826.6,2113.49C3826.71,2113.62 3826.87,2113.79 3827.04,2113.87C3827.86,2114.62 3828.72,2115.25 3829.62,2115.83C3831.14,2116.96 3832.82,2117.92 3834.47,2118.76C3835.49,2119.31 3836.56,2119.81 3837.63,2120.23C3838.9,2120.78 3840.22,2121.29 3841.58,2121.67C3842.64,2122.01 3843.72,2122.27 3844.79,2122.53C3845.17,2122.61 3845.55,2122.7 3845.93,2122.77L3845.93,2147.2Z" style="fill:rgb(244,126,63);"/>
                    </g>
                </g>
            </g>
        </g>
    </g>
</svg>
