<?xml version="1.0" encoding="UTF-8" standalone="no"?>
<!DOCTYPE svg PUBLIC "-//W3C//DTD SVG 1.1//EN" "http://www.w3.org/Graphics/SVG/1.1/DTD/svg11.dtd">
<svg width="100%" height="100%" viewBox="0 0 282 275" version="1.1" xmlns="http://www.w3.org/2000/svg" xmlns:xlink="http://www.w3.org/1999/xlink" xml:space="preserve" xmlns:serif="http://www.serif.com/" style="fill-rule:evenodd;clip-rule:evenodd;stroke-linejoin:round;stroke-miterlimit:2;">
    <g transform="matrix(1,0,0,1,-20,-597)">
        <g transform="matrix(1,0,0,1,-262.209,-130.459)">
            <g id="SBS-Logo" serif:id="SBS Logo" transform="matrix(0.406689,0,0,0.406689,-469.101,620.767)">
                <g transform="matrix(0.614639,0,0,1,1871.23,301.044)">
                    <path d="M1087.5,300C1087.5,113.729 841.455,-37.5 538.397,-37.5L511.603,-37.5C208.545,-37.5 -37.5,113.729 -37.5,300C-37.5,486.271 208.545,637.5 511.603,637.5L538.397,637.5C841.455,637.5 1087.5,486.271 1087.5,300Z" style="fill:rgb(71,72,72);"/>
                </g>
                <g transform="matrix(2.53357,0,0,2.53357,927.137,-508.454)">
                    <path d="M458.31,434.306C451.616,428.419 445.922,423.834 441.23,420.563C437.238,417.829 435.397,414.439 435.699,410.393C435.989,406.346 437.507,403.268 440.24,401.159C442.974,399.049 446.472,398.705 450.733,400.136C454.984,401.557 459.074,406.378 463.002,414.59L463.002,399.06C460.322,395.853 456.695,393.615 452.111,392.366C447.526,391.118 443.006,390.957 438.551,391.882C434.084,392.808 430.221,394.852 426.949,398.038C423.678,401.223 422.042,405.604 422.042,411.2C422.042,417.033 423.796,421.918 427.304,425.879C430.813,429.829 434.708,433.445 438.992,436.716C449.345,444.745 454.715,451.632 455.103,457.369C455.49,463.115 453.617,467.291 449.474,469.906C445.341,472.532 440.283,473.361 434.311,472.414C428.327,471.456 424.216,468.249 421.956,462.771L421.956,477.676C425.399,481.357 429.758,483.531 435.021,484.188C440.283,484.844 445.384,484.198 450.324,482.271C455.264,480.334 459.504,477.127 463.045,472.629C466.575,468.141 468.351,462.534 468.351,455.808C468.351,447.371 465.003,440.192 458.31,434.306Z" style="fill:rgb(244,126,63);fill-rule:nonzero;"/>
                </g>
                <g transform="matrix(2.53357,0,0,2.53357,927.137,-508.454)">
                    <path d="M511.979,465.989C510.85,471.402 507.535,475.115 502.035,477.138C496.536,479.162 493.781,477.02 493.781,470.713L493.781,424.318C493.781,424.372 495.159,425.115 497.935,426.546C500.701,427.978 502.466,428.957 503.241,429.495C507.223,432.519 509.978,437.868 511.495,445.509C513.013,453.15 513.174,459.973 511.979,465.989ZM527.154,447.381C525.604,441.817 523.312,437.491 520.276,434.402C517.844,431.959 514.604,429.753 510.559,427.794C506.513,425.836 502.735,423.953 499.227,422.177C497.257,421.219 495.449,419.702 493.781,417.625L493.781,407.81C493.781,399.48 491.532,395.132 487.044,394.777C482.556,394.422 477.1,394.25 470.675,394.25C475.668,396.8 478.166,401.32 478.166,407.81L478.166,469.82C478.166,471.779 478.176,473.275 478.208,474.287C478.241,475.298 478.585,476.632 479.242,478.301C480.662,482.283 483.375,484.295 487.356,484.316C491.338,484.349 495.977,484.359 501.271,484.359C509.602,484.306 515.854,482.239 520.018,478.161C524.172,474.093 526.799,469.325 527.864,463.89C528.94,458.445 528.693,452.945 527.154,447.381Z" style="fill:rgb(244,126,63);fill-rule:nonzero;"/>
                </g>
                <g transform="matrix(2.53357,0,0,2.53357,927.137,-508.454)">
                    <path d="M568.685,434.306C562.001,428.419 556.298,423.834 551.605,420.563C547.612,417.829 545.772,414.439 546.073,410.393C546.364,406.346 547.882,403.268 550.615,401.159C553.359,399.049 556.847,398.705 561.108,400.136C565.359,401.557 569.448,406.378 573.377,414.59L573.377,399.06C570.697,395.853 567.07,393.615 562.485,392.366C557.901,391.118 553.381,390.957 548.926,391.882C544.459,392.808 540.596,394.852 537.324,398.038C534.053,401.223 532.417,405.604 532.417,411.2C532.417,417.033 534.171,421.918 537.679,425.879C541.188,429.829 545.083,433.445 549.366,436.716C559.72,444.745 565.09,451.632 565.478,457.369C565.865,463.115 563.992,467.291 559.849,469.906C555.716,472.532 550.669,473.361 544.686,472.414C538.712,471.456 534.591,468.249 532.33,462.771L532.33,477.676C535.774,481.357 540.133,483.531 545.396,484.188C550.669,484.844 555.76,484.198 560.699,482.271C565.639,480.334 569.879,477.127 573.42,472.629C576.96,468.141 578.726,462.534 578.726,455.808C578.726,447.371 575.378,440.192 568.685,434.306Z" style="fill:rgb(244,126,63);fill-rule:nonzero;"/>
                </g>
                <g transform="matrix(2.53357,0,0,2.53357,927.137,-508.454)">
                    <path d="M563.59,365.43C562.387,364.35 561.162,363.307 559.914,362.288C554.442,357.82 548.507,353.924 542.152,350.796C532.374,345.964 521.766,342.662 510.86,341.36C499.963,340.036 488.8,340.439 478.017,342.821C467.249,345.188 456.785,349.274 447.379,355.165C442.661,358.087 438.187,361.405 433.994,365.065L430.919,367.896C429.907,368.847 428.986,369.89 428.004,370.887C427.053,371.899 426.056,372.88 425.136,373.923L422.464,377.142C420.615,379.234 419.101,381.586 417.465,383.846C416.62,384.965 415.928,386.175 415.205,387.37L413.021,390.954C412.358,392.179 411.742,393.435 411.103,394.683L410.144,396.555L409.672,397.483L409.254,398.449L407.61,402.315C407.352,402.97 407.055,403.602 406.811,404.256L406.134,406.242L404.771,410.222C404.353,411.569 404.041,412.931 403.661,414.286L403.128,416.325C402.93,416.995 402.763,417.68 402.648,418.372L401.857,422.512C401.743,423.204 401.576,423.889 401.484,424.589L401.233,426.682L400.731,430.868C400.624,432.268 400.579,433.683 400.502,435.083C400.457,436.499 400.305,437.899 400.373,439.307C400.381,450.577 402.23,461.877 405.89,472.6C401.903,461.992 399.688,450.707 399.338,439.322C399.224,437.899 399.338,436.476 399.331,435.053C399.369,433.63 399.369,432.199 399.437,430.776L399.817,426.515L400.008,424.392C400.069,423.676 400.221,422.976 400.32,422.269L400.997,418.045C401.096,417.337 401.241,416.629 401.416,415.937L401.903,413.852C402.237,412.467 402.519,411.059 402.907,409.682L404.163,405.58L404.802,403.525C405.022,402.848 405.312,402.193 405.556,401.524L407.115,397.514L407.503,396.517L407.96,395.542L408.881,393.602C409.505,392.308 410.091,390.992 410.745,389.713L412.861,385.969C413.568,384.714 414.246,383.458 415.075,382.278C416.688,379.904 418.18,377.438 420.021,375.216L422.67,371.807C423.591,370.704 424.588,369.661 425.539,368.588C426.513,367.523 427.441,366.412 428.461,365.407L431.551,362.379C435.782,358.452 440.317,354.86 445.142,351.664C454.761,345.226 465.574,340.607 476.845,337.769C488.115,334.915 499.902,334.116 511.53,335.166C523.174,336.201 534.619,339.367 545.288,344.252C552.365,347.463 559.031,351.558 565.188,356.329C566.52,357.341 567.82,358.399 569.092,359.487C567.851,359.845 566.694,360.514 565.728,361.481C564.602,362.607 563.887,363.977 563.59,365.43Z" style="fill:rgb(244,126,63);fill-rule:nonzero;"/>
                </g>
                <g transform="matrix(2.53357,0,0,2.53357,927.137,-508.454)">
                    <path d="M565.728,372.667C563.765,370.704 563.042,367.957 563.59,365.43C563.887,363.977 564.602,362.607 565.728,361.481C566.694,360.514 567.851,359.845 569.092,359.487C571.77,358.696 574.791,359.357 576.914,361.481C580.004,364.57 580.012,369.585 576.922,372.675C573.832,375.765 568.817,375.757 565.728,372.667ZM580.072,358.323C576.047,354.297 569.913,353.627 565.188,356.329C564.244,356.862 563.369,357.523 562.569,358.323C561.397,359.495 560.508,360.841 559.914,362.288C558.034,366.785 558.917,372.172 562.569,375.825C567.395,380.65 575.248,380.65 580.072,375.825C584.897,371 584.897,363.147 580.072,358.323Z" style="fill:rgb(244,126,63);fill-rule:nonzero;"/>
                </g>
                <g transform="matrix(2.53357,0,0,2.53357,927.137,-508.454)">
                    <path d="M571.534,510.443L568.452,513.466C564.221,517.393 559.678,520.976 554.854,524.172C545.234,530.61 534.421,535.229 523.158,538.075C511.888,540.929 500.093,541.721 488.465,540.67C476.829,539.643 465.369,536.478 454.7,531.592C447.63,528.373 440.964,524.278 434.808,519.508C433.476,518.495 432.175,517.438 430.904,516.349C430.95,516.334 430.988,516.326 431.033,516.311C431.247,516.25 431.452,516.182 431.649,516.091C431.855,516.008 432.061,515.923 432.258,515.816C432.319,515.786 432.373,515.763 432.426,515.726C432.639,515.618 432.837,515.497 433.027,515.367C433.248,515.224 433.461,515.07 433.667,514.896C433.879,514.729 434.077,514.547 434.268,514.355C434.45,514.173 434.625,513.982 434.777,513.784C434.8,513.763 434.831,513.732 434.846,513.701C434.983,513.549 435.097,513.389 435.203,513.222C435.409,512.94 435.584,512.628 435.736,512.323C435.835,512.133 435.926,511.936 436.002,511.737C436.102,511.502 436.193,511.258 436.261,511.007C436.322,510.81 436.368,510.611 436.414,510.413C437.616,511.494 438.841,512.536 440.089,513.557C445.553,518.016 451.488,521.912 457.843,525.04C467.622,529.887 478.229,533.175 489.142,534.483C500.032,535.8 511.203,535.404 521.979,533.015C532.747,530.648 543.21,526.562 552.616,520.672C557.334,517.75 561.809,514.432 566.002,510.771L569.068,507.948C570.096,506.996 571.017,505.954 571.983,504.957C572.949,503.945 573.932,502.963 574.867,501.921L577.523,498.702C579.38,496.602 580.895,494.25 582.53,491.99C583.383,490.879 584.075,489.669 584.798,488.474L586.967,484.89C587.645,483.665 588.253,482.401 588.899,481.161L589.852,479.296L590.33,478.361L590.741,477.387L592.378,473.528C592.644,472.881 592.948,472.242 593.185,471.58L593.861,469.594L595.224,465.614C595.635,464.275 595.954,462.905 596.335,461.55L596.875,459.519C597.065,458.841 597.225,458.164 597.347,457.464L598.139,453.324C598.26,452.639 598.428,451.955 598.504,451.254L598.755,449.162L599.265,444.969C599.371,443.568 599.409,442.161 599.493,440.753C599.546,439.345 599.69,437.937 599.622,436.529C599.614,425.259 597.766,413.958 594.104,403.236C598.093,413.844 600.314,425.137 600.657,436.514C600.778,437.945 600.665,439.368 600.657,440.791C600.619,442.214 600.627,443.637 600.559,445.06L600.178,449.321L599.987,451.46C599.919,452.167 599.774,452.86 599.676,453.568L598.99,457.799C598.899,458.514 598.755,459.207 598.58,459.899L598.093,461.984C597.758,463.369 597.477,464.777 597.096,466.162L595.832,470.256L595.193,472.311C594.973,472.988 594.69,473.65 594.433,474.32L592.88,478.323L592.492,479.319L592.035,480.293L591.106,482.242C590.49,483.528 589.904,484.844 589.25,486.123L587.135,489.867C586.427,491.123 585.749,492.393 584.92,493.558C583.307,495.932 581.808,498.405 579.974,500.62L577.325,504.028C576.404,505.132 575.415,506.183 574.464,507.255C573.482,508.313 572.554,509.424 571.534,510.443Z" style="fill:rgb(244,126,63);fill-rule:nonzero;"/>
                </g>
                <g transform="matrix(2.53357,0,0,2.53357,927.137,-508.454)">
                    <path d="M430.394,516.479C430.25,516.518 430.097,516.547 429.938,516.569C429.466,516.646 429.001,516.685 428.53,516.669C428.377,516.669 428.233,516.661 428.081,516.646C427.981,516.639 427.89,516.639 427.799,516.623C427.586,516.607 427.373,516.578 427.16,516.532L427.152,516.524C426.901,516.471 426.665,516.419 426.429,516.349C426.178,516.281 425.935,516.19 425.699,516.091C425.501,516.015 425.303,515.923 425.105,515.816C424.816,515.68 424.549,515.521 424.291,515.354C424.101,515.224 423.91,515.078 423.728,514.927C423.689,514.903 423.667,514.881 423.636,514.85C423.438,514.698 423.256,514.531 423.081,514.355C419.991,511.266 419.991,506.259 423.081,503.169C426.17,500.079 431.178,500.079 434.267,503.169C434.435,503.336 434.595,503.511 434.739,503.701C434.785,503.732 434.815,503.777 434.838,503.815C434.983,503.976 435.112,504.15 435.219,504.333C435.272,504.401 435.325,504.47 435.355,504.546C435.462,504.684 435.546,504.828 435.622,504.979C435.774,505.254 435.903,505.535 436.018,505.817C436.094,506.015 436.162,506.221 436.231,506.426C436.398,506.943 436.497,507.469 436.55,508.009C436.573,508.26 436.596,508.511 436.588,508.762C436.588,508.99 436.581,509.227 436.558,509.462C436.527,509.782 436.482,510.102 436.414,510.413C436.368,510.611 436.322,510.81 436.261,511.007C436.193,511.258 436.102,511.502 436.002,511.737C435.926,511.936 435.835,512.133 435.736,512.323C435.584,512.628 435.409,512.94 435.203,513.222C435.097,513.389 434.983,513.549 434.846,513.701C434.831,513.732 434.8,513.763 434.777,513.784C434.625,513.982 434.45,514.173 434.268,514.355C434.077,514.547 433.879,514.729 433.667,514.896C433.461,515.07 433.248,515.224 433.027,515.367C432.837,515.497 432.631,515.612 432.426,515.726C432.373,515.763 432.319,515.786 432.258,515.816C432.061,515.923 431.855,516.008 431.649,516.091C431.444,516.174 431.239,516.242 431.033,516.311C430.988,516.326 430.95,516.334 430.904,516.349C430.736,516.396 430.569,516.44 430.394,516.479ZM440.089,513.557C441.961,509.052 441.078,503.663 437.425,500.011C432.601,495.186 424.748,495.186 419.923,500.011C415.098,504.835 415.098,512.688 419.923,517.514C423.948,521.539 430.082,522.209 434.808,519.508C435.751,518.975 436.626,518.313 437.425,517.514C438.597,516.342 439.488,514.995 440.089,513.557Z" style="fill:rgb(244,126,63);fill-rule:nonzero;"/>
                </g>
            </g>
        </g>
    </g>
</svg>
